G04 (created by PCBNEW (2013-mar-13)-stable) date Fri 20 Nov 2015 04:23:37 PM CET*
%MOIN*%
G04 Gerber Fmt 3.4, Leading zero omitted, Abs format*
%FSLAX34Y34*%
G01*
G70*
G90*
G04 APERTURE LIST*
%ADD10C,0.005906*%
%ADD11C,0.004000*%
%ADD12C,0.006000*%
%ADD13C,0.007874*%
%ADD14C,0.010000*%
%ADD15C,0.015000*%
%ADD16C,0.012000*%
%ADD17C,0.005000*%
%ADD18C,0.003000*%
%ADD19C,0.008000*%
%ADD20C,0.001100*%
%ADD21C,0.006300*%
%ADD22C,0.007800*%
G04 APERTURE END LIST*
G54D10*
G54D11*
X73230Y-29460D02*
X73050Y-29640D01*
X73230Y-29110D02*
X73230Y-29460D01*
X73050Y-29430D02*
X73050Y-30490D01*
X63200Y-47265D02*
X63400Y-47265D01*
X63271Y-47565D01*
X64077Y-47265D02*
X64020Y-47265D01*
X63991Y-47280D01*
X63977Y-47294D01*
X63948Y-47337D01*
X63934Y-47394D01*
X63934Y-47508D01*
X63948Y-47537D01*
X63962Y-47551D01*
X63991Y-47565D01*
X64048Y-47565D01*
X64077Y-47551D01*
X64091Y-47537D01*
X64105Y-47508D01*
X64105Y-47437D01*
X64091Y-47408D01*
X64077Y-47394D01*
X64048Y-47380D01*
X63991Y-47380D01*
X63962Y-47394D01*
X63948Y-47408D01*
X63934Y-47437D01*
X64811Y-47265D02*
X64668Y-47265D01*
X64654Y-47408D01*
X64668Y-47394D01*
X64697Y-47380D01*
X64768Y-47380D01*
X64797Y-47394D01*
X64811Y-47408D01*
X64825Y-47437D01*
X64825Y-47508D01*
X64811Y-47537D01*
X64797Y-47551D01*
X64768Y-47565D01*
X64697Y-47565D01*
X64668Y-47551D01*
X64654Y-47537D01*
X65517Y-47365D02*
X65517Y-47565D01*
X65445Y-47251D02*
X65374Y-47465D01*
X65560Y-47465D01*
X66080Y-47265D02*
X66265Y-47265D01*
X66165Y-47380D01*
X66208Y-47380D01*
X66237Y-47394D01*
X66251Y-47408D01*
X66265Y-47437D01*
X66265Y-47508D01*
X66251Y-47537D01*
X66237Y-47551D01*
X66208Y-47565D01*
X66122Y-47565D01*
X66094Y-47551D01*
X66080Y-47537D01*
X66814Y-47294D02*
X66828Y-47280D01*
X66857Y-47265D01*
X66928Y-47265D01*
X66957Y-47280D01*
X66971Y-47294D01*
X66985Y-47322D01*
X66985Y-47351D01*
X66971Y-47394D01*
X66800Y-47565D01*
X66985Y-47565D01*
X67705Y-47565D02*
X67534Y-47565D01*
X67620Y-47565D02*
X67620Y-47265D01*
X67591Y-47308D01*
X67562Y-47337D01*
X67534Y-47351D01*
G54D12*
X76771Y-27559D02*
X76050Y-27559D01*
X76771Y-27559D02*
X76771Y-41338D01*
G54D11*
X68335Y-47265D02*
X68364Y-47265D01*
X68392Y-47280D01*
X68407Y-47294D01*
X68421Y-47322D01*
X68435Y-47380D01*
X68435Y-47451D01*
X68421Y-47508D01*
X68407Y-47537D01*
X68392Y-47551D01*
X68364Y-47565D01*
X68335Y-47565D01*
X68307Y-47551D01*
X68292Y-47537D01*
X68278Y-47508D01*
X68264Y-47451D01*
X68264Y-47380D01*
X68278Y-47322D01*
X68292Y-47294D01*
X68307Y-47280D01*
X68335Y-47265D01*
G54D13*
X61417Y-19685D02*
X61417Y-29250D01*
G54D12*
X61417Y-41338D02*
X61417Y-38460D01*
X76771Y-41338D02*
X61417Y-41338D01*
X71259Y-19685D02*
X71259Y-27559D01*
G54D11*
X40950Y-39800D02*
X40560Y-40190D01*
G54D13*
X41140Y-28640D02*
X42620Y-28640D01*
G54D12*
X48421Y-19684D02*
X48421Y-25884D01*
X48421Y-19684D02*
X41925Y-19684D01*
X41925Y-25884D02*
X41925Y-19684D01*
X48421Y-25884D02*
X41925Y-25884D01*
G54D14*
X51560Y-17290D02*
X51560Y-19690D01*
X51560Y-17290D02*
X57990Y-17290D01*
X57990Y-17290D02*
X57990Y-19690D01*
X48710Y-19690D02*
X60840Y-19690D01*
X60840Y-19690D02*
X60840Y-25990D01*
X60840Y-25990D02*
X48710Y-25990D01*
X48710Y-19690D02*
X48710Y-25990D01*
G54D15*
X62995Y-30233D02*
X62680Y-29918D01*
X62680Y-29918D02*
X55430Y-29918D01*
X55430Y-29918D02*
X55115Y-30233D01*
X55115Y-30233D02*
X55115Y-37483D01*
X62995Y-37483D02*
X62995Y-30233D01*
X62680Y-37798D02*
X62995Y-37483D01*
X55430Y-37798D02*
X62680Y-37798D01*
X55115Y-37483D02*
X55430Y-37798D01*
G54D10*
X59685Y-43799D02*
X59055Y-43799D01*
X59685Y-43799D02*
X59685Y-46751D01*
X53933Y-42273D02*
X53933Y-46496D01*
X59055Y-42224D02*
X47244Y-42224D01*
X47244Y-42224D02*
X47244Y-46751D01*
X47244Y-46751D02*
X59055Y-46751D01*
X59055Y-42224D02*
X59055Y-46751D01*
G54D16*
X42623Y-29780D02*
X42623Y-27080D01*
X42623Y-27080D02*
X47723Y-27080D01*
X47723Y-27080D02*
X47723Y-29780D01*
X47723Y-29780D02*
X42623Y-29780D01*
X42623Y-29780D02*
X42633Y-29780D01*
G54D11*
X44720Y-41870D02*
X44720Y-41755D01*
X44720Y-41870D02*
X44605Y-41870D01*
X41960Y-41870D02*
X42075Y-41870D01*
X41960Y-41870D02*
X41960Y-41755D01*
X41960Y-39110D02*
X42075Y-39110D01*
X41960Y-39110D02*
X41960Y-39225D01*
X44520Y-39405D02*
G75*
G03X44520Y-39405I-95J0D01*
G74*
G01*
X44720Y-39110D02*
X44605Y-39110D01*
X44720Y-39110D02*
X44720Y-39225D01*
X44120Y-33150D02*
X44200Y-33150D01*
X44200Y-33150D02*
X44270Y-33220D01*
X44270Y-33220D02*
X44270Y-33300D01*
X44270Y-35130D02*
X44270Y-34980D01*
X44270Y-35130D02*
X44120Y-35130D01*
X42290Y-35130D02*
X42440Y-35130D01*
X42290Y-35130D02*
X42290Y-34980D01*
X42290Y-33150D02*
X42290Y-33300D01*
X42290Y-33150D02*
X42440Y-33150D01*
G54D17*
X42420Y-28910D02*
X42420Y-29810D01*
X42420Y-29810D02*
X41920Y-29810D01*
X41920Y-29810D02*
X41920Y-28910D01*
X41920Y-28910D02*
X42420Y-28910D01*
X48420Y-28910D02*
X48420Y-29810D01*
X48420Y-29810D02*
X47920Y-29810D01*
X47920Y-29810D02*
X47920Y-28910D01*
X47920Y-28910D02*
X48420Y-28910D01*
X51820Y-27230D02*
X51820Y-28130D01*
X51820Y-28130D02*
X51320Y-28130D01*
X51320Y-28130D02*
X51320Y-27230D01*
X51320Y-27230D02*
X51820Y-27230D01*
X51920Y-28130D02*
X51920Y-27230D01*
X51920Y-27230D02*
X52420Y-27230D01*
X52420Y-27230D02*
X52420Y-28130D01*
X52420Y-28130D02*
X51920Y-28130D01*
X51920Y-27130D02*
X51920Y-26230D01*
X51920Y-26230D02*
X52420Y-26230D01*
X52420Y-26230D02*
X52420Y-27130D01*
X52420Y-27130D02*
X51920Y-27130D01*
X52520Y-27130D02*
X52520Y-26230D01*
X52520Y-26230D02*
X53020Y-26230D01*
X53020Y-26230D02*
X53020Y-27130D01*
X53020Y-27130D02*
X52520Y-27130D01*
X53620Y-27230D02*
X53620Y-28130D01*
X53620Y-28130D02*
X53120Y-28130D01*
X53120Y-28130D02*
X53120Y-27230D01*
X53120Y-27230D02*
X53620Y-27230D01*
X53720Y-28130D02*
X53720Y-27230D01*
X53720Y-27230D02*
X54220Y-27230D01*
X54220Y-27230D02*
X54220Y-28130D01*
X54220Y-28130D02*
X53720Y-28130D01*
X53720Y-27130D02*
X53720Y-26230D01*
X53720Y-26230D02*
X54220Y-26230D01*
X54220Y-26230D02*
X54220Y-27130D01*
X54220Y-27130D02*
X53720Y-27130D01*
X54340Y-27130D02*
X54340Y-26230D01*
X54340Y-26230D02*
X54840Y-26230D01*
X54840Y-26230D02*
X54840Y-27130D01*
X54840Y-27130D02*
X54340Y-27130D01*
X55440Y-27230D02*
X55440Y-28130D01*
X55440Y-28130D02*
X54940Y-28130D01*
X54940Y-28130D02*
X54940Y-27230D01*
X54940Y-27230D02*
X55440Y-27230D01*
X55540Y-28130D02*
X55540Y-27230D01*
X55540Y-27230D02*
X56040Y-27230D01*
X56040Y-27230D02*
X56040Y-28130D01*
X56040Y-28130D02*
X55540Y-28130D01*
X55540Y-27130D02*
X55540Y-26230D01*
X55540Y-26230D02*
X56040Y-26230D01*
X56040Y-26230D02*
X56040Y-27130D01*
X56040Y-27130D02*
X55540Y-27130D01*
X56140Y-27130D02*
X56140Y-26230D01*
X56140Y-26230D02*
X56640Y-26230D01*
X56640Y-26230D02*
X56640Y-27130D01*
X56640Y-27130D02*
X56140Y-27130D01*
X48420Y-27050D02*
X48420Y-27950D01*
X48420Y-27950D02*
X47920Y-27950D01*
X47920Y-27950D02*
X47920Y-27050D01*
X47920Y-27050D02*
X48420Y-27050D01*
X41920Y-27950D02*
X41920Y-27050D01*
X41920Y-27050D02*
X42420Y-27050D01*
X42420Y-27050D02*
X42420Y-27950D01*
X42420Y-27950D02*
X41920Y-27950D01*
X41920Y-26950D02*
X41920Y-26050D01*
X41920Y-26050D02*
X42420Y-26050D01*
X42420Y-26050D02*
X42420Y-26950D01*
X42420Y-26950D02*
X41920Y-26950D01*
X48420Y-26050D02*
X48420Y-26950D01*
X48420Y-26950D02*
X47920Y-26950D01*
X47920Y-26950D02*
X47920Y-26050D01*
X47920Y-26050D02*
X48420Y-26050D01*
X45280Y-33860D02*
X45280Y-32960D01*
X45280Y-32960D02*
X45780Y-32960D01*
X45780Y-32960D02*
X45780Y-33860D01*
X45780Y-33860D02*
X45280Y-33860D01*
X44280Y-32440D02*
X45180Y-32440D01*
X45180Y-32440D02*
X45180Y-32940D01*
X45180Y-32940D02*
X44280Y-32940D01*
X44280Y-32940D02*
X44280Y-32440D01*
X46910Y-32590D02*
X46010Y-32590D01*
X46010Y-32590D02*
X46010Y-32090D01*
X46010Y-32090D02*
X46910Y-32090D01*
X46910Y-32090D02*
X46910Y-32590D01*
X41000Y-34280D02*
X40100Y-34280D01*
X40100Y-34280D02*
X40100Y-33780D01*
X40100Y-33780D02*
X41000Y-33780D01*
X41000Y-33780D02*
X41000Y-34280D01*
X46380Y-32960D02*
X46380Y-33860D01*
X46380Y-33860D02*
X45880Y-33860D01*
X45880Y-33860D02*
X45880Y-32960D01*
X45880Y-32960D02*
X46380Y-32960D01*
X44070Y-31760D02*
X44970Y-31760D01*
X44970Y-31760D02*
X44970Y-32260D01*
X44970Y-32260D02*
X44070Y-32260D01*
X44070Y-32260D02*
X44070Y-31760D01*
X45410Y-32490D02*
X45410Y-31590D01*
X45410Y-31590D02*
X45910Y-31590D01*
X45910Y-31590D02*
X45910Y-32490D01*
X45910Y-32490D02*
X45410Y-32490D01*
G54D12*
X41890Y-31590D02*
X41890Y-33630D01*
X41890Y-33630D02*
X40570Y-33630D01*
X40570Y-33630D02*
X40570Y-31590D01*
X40570Y-31590D02*
X41890Y-31590D01*
X53410Y-37982D02*
X49410Y-37982D01*
X49410Y-37982D02*
X49410Y-29734D01*
X49410Y-29734D02*
X53410Y-29734D01*
G54D16*
X53247Y-37458D02*
G75*
G03X53247Y-37458I-353J0D01*
G74*
G01*
G54D12*
X53410Y-29734D02*
X53410Y-37982D01*
G54D17*
X53610Y-47410D02*
X52710Y-47410D01*
X52710Y-47410D02*
X52710Y-46910D01*
X52710Y-46910D02*
X53610Y-46910D01*
X53610Y-46910D02*
X53610Y-47410D01*
X54650Y-46910D02*
X55550Y-46910D01*
X55550Y-46910D02*
X55550Y-47410D01*
X55550Y-47410D02*
X54650Y-47410D01*
X54650Y-47410D02*
X54650Y-46910D01*
X53480Y-42140D02*
X52580Y-42140D01*
X52580Y-42140D02*
X52580Y-41640D01*
X52580Y-41640D02*
X53480Y-41640D01*
X53480Y-41640D02*
X53480Y-42140D01*
X60635Y-42955D02*
X61535Y-42955D01*
X61535Y-42955D02*
X61535Y-43455D01*
X61535Y-43455D02*
X60635Y-43455D01*
X60635Y-43455D02*
X60635Y-42955D01*
X61665Y-42955D02*
X62565Y-42955D01*
X62565Y-42955D02*
X62565Y-43455D01*
X62565Y-43455D02*
X61665Y-43455D01*
X61665Y-43455D02*
X61665Y-42955D01*
X54830Y-42140D02*
X53930Y-42140D01*
X53930Y-42140D02*
X53930Y-41640D01*
X53930Y-41640D02*
X54830Y-41640D01*
X54830Y-41640D02*
X54830Y-42140D01*
X61015Y-44735D02*
X60715Y-44535D01*
X61715Y-44735D02*
X60690Y-44735D01*
X60690Y-44735D02*
X60690Y-44135D01*
X60690Y-44135D02*
X61715Y-44135D01*
X61715Y-44135D02*
X61715Y-44735D01*
G54D10*
X62002Y-45267D02*
X60427Y-45267D01*
X62002Y-46842D02*
X60427Y-46842D01*
G54D17*
X42260Y-46230D02*
X42260Y-46280D01*
X42260Y-46280D02*
X44360Y-46280D01*
X44360Y-44780D02*
X42260Y-44780D01*
X42260Y-44780D02*
X42260Y-46230D01*
X42260Y-45330D02*
X42460Y-45330D01*
X42460Y-45330D02*
X42460Y-45730D01*
X42460Y-45730D02*
X42260Y-45730D01*
X44360Y-44780D02*
X44360Y-46280D01*
X64510Y-38030D02*
X63610Y-38030D01*
X63610Y-38030D02*
X63610Y-37530D01*
X63610Y-37530D02*
X64510Y-37530D01*
X64510Y-37530D02*
X64510Y-38030D01*
X62885Y-44635D02*
X62885Y-45035D01*
X62885Y-45035D02*
X62285Y-45035D01*
X62285Y-45035D02*
X62285Y-44635D01*
X62285Y-44235D02*
X62285Y-43835D01*
X62285Y-43835D02*
X62885Y-43835D01*
X62885Y-43835D02*
X62885Y-44235D01*
X58690Y-41490D02*
X59090Y-41490D01*
X59090Y-41490D02*
X59090Y-42090D01*
X59090Y-42090D02*
X58690Y-42090D01*
X58290Y-42090D02*
X57890Y-42090D01*
X57890Y-42090D02*
X57890Y-41490D01*
X57890Y-41490D02*
X58290Y-41490D01*
X56180Y-42140D02*
X55280Y-42140D01*
X55280Y-42140D02*
X55280Y-41640D01*
X55280Y-41640D02*
X56180Y-41640D01*
X56180Y-41640D02*
X56180Y-42140D01*
X40680Y-42610D02*
X39780Y-42610D01*
X39780Y-42610D02*
X39780Y-42110D01*
X39780Y-42110D02*
X40680Y-42110D01*
X40680Y-42110D02*
X40680Y-42610D01*
X39780Y-41510D02*
X40680Y-41510D01*
X40680Y-41510D02*
X40680Y-42010D01*
X40680Y-42010D02*
X39780Y-42010D01*
X39780Y-42010D02*
X39780Y-41510D01*
G54D18*
X41390Y-45395D02*
X41130Y-45395D01*
X41390Y-45395D02*
X41390Y-43025D01*
X41390Y-43025D02*
X41130Y-43025D01*
X40010Y-45395D02*
X40270Y-45395D01*
X40010Y-45395D02*
X40010Y-43025D01*
X40010Y-43025D02*
X40270Y-43025D01*
G54D19*
X44577Y-44842D02*
X44577Y-46218D01*
X46702Y-46218D02*
X46702Y-44842D01*
G54D17*
X46310Y-34670D02*
X45410Y-34670D01*
X45410Y-34670D02*
X45410Y-35320D01*
X46310Y-36020D02*
X46310Y-36670D01*
X46310Y-36670D02*
X45410Y-36670D01*
X45410Y-36670D02*
X45410Y-36020D01*
X46310Y-35320D02*
X46310Y-34670D01*
X40680Y-40690D02*
X39780Y-40690D01*
X39780Y-40690D02*
X39780Y-40190D01*
X39780Y-40190D02*
X40680Y-40190D01*
X40680Y-40190D02*
X40680Y-40690D01*
X39780Y-40790D02*
X40680Y-40790D01*
X40680Y-40790D02*
X40680Y-41290D01*
X40680Y-41290D02*
X39780Y-41290D01*
X39780Y-41290D02*
X39780Y-40790D01*
G54D18*
X39590Y-37255D02*
X39850Y-37255D01*
X39590Y-37255D02*
X39590Y-39625D01*
X39590Y-39625D02*
X39850Y-39625D01*
X40970Y-37255D02*
X40710Y-37255D01*
X40970Y-37255D02*
X40970Y-39625D01*
X40970Y-39625D02*
X40710Y-39625D01*
G54D10*
X75721Y-22186D02*
X75721Y-23556D01*
X72178Y-22186D02*
X72178Y-23556D01*
X75721Y-25478D02*
X75721Y-24606D01*
X72178Y-25478D02*
X72178Y-24606D01*
X72178Y-25478D02*
X75721Y-25478D01*
X72178Y-19691D02*
X72178Y-21136D01*
X75721Y-19691D02*
X75721Y-21136D01*
X72178Y-19691D02*
X75721Y-19691D01*
G54D17*
X68040Y-46190D02*
X68040Y-45790D01*
X68040Y-45790D02*
X68640Y-45790D01*
X68640Y-45790D02*
X68640Y-46190D01*
X68640Y-46590D02*
X68640Y-46990D01*
X68640Y-46990D02*
X68040Y-46990D01*
X68040Y-46990D02*
X68040Y-46590D01*
X68100Y-44160D02*
X68100Y-45060D01*
X68100Y-45060D02*
X67600Y-45060D01*
X67600Y-45060D02*
X67600Y-44160D01*
X67600Y-44160D02*
X68100Y-44160D01*
X63000Y-46190D02*
X63000Y-45790D01*
X63000Y-45790D02*
X63600Y-45790D01*
X63600Y-45790D02*
X63600Y-46190D01*
X63600Y-46590D02*
X63600Y-46990D01*
X63600Y-46990D02*
X63000Y-46990D01*
X63000Y-46990D02*
X63000Y-46590D01*
X64040Y-44160D02*
X64040Y-45060D01*
X64040Y-45060D02*
X63540Y-45060D01*
X63540Y-45060D02*
X63540Y-44160D01*
X63540Y-44160D02*
X64040Y-44160D01*
X67520Y-44160D02*
X67520Y-45060D01*
X67520Y-45060D02*
X67020Y-45060D01*
X67020Y-45060D02*
X67020Y-44160D01*
X67020Y-44160D02*
X67520Y-44160D01*
X66940Y-44160D02*
X66940Y-45060D01*
X66940Y-45060D02*
X66440Y-45060D01*
X66440Y-45060D02*
X66440Y-44160D01*
X66440Y-44160D02*
X66940Y-44160D01*
X66360Y-44160D02*
X66360Y-45060D01*
X66360Y-45060D02*
X65860Y-45060D01*
X65860Y-45060D02*
X65860Y-44160D01*
X65860Y-44160D02*
X66360Y-44160D01*
X65780Y-44160D02*
X65780Y-45060D01*
X65780Y-45060D02*
X65280Y-45060D01*
X65280Y-45060D02*
X65280Y-44160D01*
X65280Y-44160D02*
X65780Y-44160D01*
X65200Y-44160D02*
X65200Y-45060D01*
X65200Y-45060D02*
X64700Y-45060D01*
X64700Y-45060D02*
X64700Y-44160D01*
X64700Y-44160D02*
X65200Y-44160D01*
X64620Y-44160D02*
X64620Y-45060D01*
X64620Y-45060D02*
X64120Y-45060D01*
X64120Y-45060D02*
X64120Y-44160D01*
X64120Y-44160D02*
X64620Y-44160D01*
X67320Y-46190D02*
X67320Y-45790D01*
X67320Y-45790D02*
X67920Y-45790D01*
X67920Y-45790D02*
X67920Y-46190D01*
X67920Y-46590D02*
X67920Y-46990D01*
X67920Y-46990D02*
X67320Y-46990D01*
X67320Y-46990D02*
X67320Y-46590D01*
X66600Y-46190D02*
X66600Y-45790D01*
X66600Y-45790D02*
X67200Y-45790D01*
X67200Y-45790D02*
X67200Y-46190D01*
X67200Y-46590D02*
X67200Y-46990D01*
X67200Y-46990D02*
X66600Y-46990D01*
X66600Y-46990D02*
X66600Y-46590D01*
X65880Y-46190D02*
X65880Y-45790D01*
X65880Y-45790D02*
X66480Y-45790D01*
X66480Y-45790D02*
X66480Y-46190D01*
X66480Y-46590D02*
X66480Y-46990D01*
X66480Y-46990D02*
X65880Y-46990D01*
X65880Y-46990D02*
X65880Y-46590D01*
X65160Y-46190D02*
X65160Y-45790D01*
X65160Y-45790D02*
X65760Y-45790D01*
X65760Y-45790D02*
X65760Y-46190D01*
X65760Y-46590D02*
X65760Y-46990D01*
X65760Y-46990D02*
X65160Y-46990D01*
X65160Y-46990D02*
X65160Y-46590D01*
X64440Y-46190D02*
X64440Y-45790D01*
X64440Y-45790D02*
X65040Y-45790D01*
X65040Y-45790D02*
X65040Y-46190D01*
X65040Y-46590D02*
X65040Y-46990D01*
X65040Y-46990D02*
X64440Y-46990D01*
X64440Y-46990D02*
X64440Y-46590D01*
X63720Y-46190D02*
X63720Y-45790D01*
X63720Y-45790D02*
X64320Y-45790D01*
X64320Y-45790D02*
X64320Y-46190D01*
X64320Y-46590D02*
X64320Y-46990D01*
X64320Y-46990D02*
X63720Y-46990D01*
X63720Y-46990D02*
X63720Y-46590D01*
X57290Y-39750D02*
X57290Y-38850D01*
X57290Y-38850D02*
X57790Y-38850D01*
X57790Y-38850D02*
X57790Y-39750D01*
X57790Y-39750D02*
X57290Y-39750D01*
X76570Y-22150D02*
X76570Y-23050D01*
X76570Y-23050D02*
X77220Y-23050D01*
X77920Y-22150D02*
X78570Y-22150D01*
X78570Y-22150D02*
X78570Y-23050D01*
X78570Y-23050D02*
X77920Y-23050D01*
X77220Y-22150D02*
X76570Y-22150D01*
X76570Y-23620D02*
X76570Y-24520D01*
X76570Y-24520D02*
X77220Y-24520D01*
X77920Y-23620D02*
X78570Y-23620D01*
X78570Y-23620D02*
X78570Y-24520D01*
X78570Y-24520D02*
X77920Y-24520D01*
X77220Y-23620D02*
X76570Y-23620D01*
X75470Y-28120D02*
X75470Y-27220D01*
X75470Y-27220D02*
X75970Y-27220D01*
X75970Y-27220D02*
X75970Y-28120D01*
X75970Y-28120D02*
X75470Y-28120D01*
G54D10*
X76542Y-25722D02*
X76542Y-27297D01*
X78117Y-25722D02*
X78117Y-27297D01*
G54D17*
X74850Y-28120D02*
X74850Y-27220D01*
X74850Y-27220D02*
X75350Y-27220D01*
X75350Y-27220D02*
X75350Y-28120D01*
X75350Y-28120D02*
X74850Y-28120D01*
X74730Y-27220D02*
X74730Y-28120D01*
X74730Y-28120D02*
X74230Y-28120D01*
X74230Y-28120D02*
X74230Y-27220D01*
X74230Y-27220D02*
X74730Y-27220D01*
X76020Y-26620D02*
X75820Y-26920D01*
X76020Y-25920D02*
X76020Y-26945D01*
X76020Y-26945D02*
X75420Y-26945D01*
X75420Y-26945D02*
X75420Y-25920D01*
X75420Y-25920D02*
X76020Y-25920D01*
G54D11*
X47590Y-39660D02*
X45610Y-39660D01*
X45610Y-39660D02*
X45610Y-38400D01*
X45610Y-38400D02*
X47590Y-38400D01*
X47590Y-38400D02*
X47590Y-39660D01*
G54D17*
X41440Y-31480D02*
X41440Y-30580D01*
X41440Y-30580D02*
X41940Y-30580D01*
X41940Y-30580D02*
X41940Y-31480D01*
X41940Y-31480D02*
X41440Y-31480D01*
X47660Y-39180D02*
X47660Y-38280D01*
X47660Y-38280D02*
X48160Y-38280D01*
X48160Y-38280D02*
X48160Y-39180D01*
X48160Y-39180D02*
X47660Y-39180D01*
X42650Y-35750D02*
X42650Y-36650D01*
X42650Y-36650D02*
X42150Y-36650D01*
X42150Y-36650D02*
X42150Y-35750D01*
X42150Y-35750D02*
X42650Y-35750D01*
X47590Y-40710D02*
X47590Y-41610D01*
X47590Y-41610D02*
X48240Y-41610D01*
X48940Y-40710D02*
X49590Y-40710D01*
X49590Y-40710D02*
X49590Y-41610D01*
X49590Y-41610D02*
X48940Y-41610D01*
X48240Y-40710D02*
X47590Y-40710D01*
G54D20*
X49106Y-39388D02*
X49756Y-39388D01*
X49096Y-39398D02*
X49756Y-39398D01*
X49086Y-39408D02*
X49756Y-39408D01*
X49076Y-39418D02*
X49756Y-39418D01*
X49066Y-39428D02*
X49756Y-39428D01*
X49056Y-39438D02*
X49756Y-39438D01*
X49046Y-39448D02*
X49756Y-39448D01*
X50436Y-39448D02*
X50446Y-39448D01*
X49036Y-39458D02*
X49156Y-39458D01*
X50426Y-39458D02*
X50456Y-39458D01*
X49026Y-39468D02*
X49146Y-39468D01*
X50426Y-39468D02*
X50456Y-39468D01*
X49016Y-39478D02*
X49136Y-39478D01*
X50416Y-39478D02*
X50466Y-39478D01*
X49006Y-39488D02*
X49126Y-39488D01*
X49156Y-39488D02*
X49816Y-39488D01*
X50416Y-39488D02*
X50466Y-39488D01*
X48996Y-39498D02*
X49116Y-39498D01*
X49146Y-39498D02*
X49816Y-39498D01*
X50406Y-39498D02*
X50476Y-39498D01*
X48986Y-39508D02*
X49106Y-39508D01*
X49136Y-39508D02*
X49796Y-39508D01*
X49806Y-39508D02*
X49816Y-39508D01*
X50406Y-39508D02*
X50476Y-39508D01*
X48976Y-39518D02*
X49096Y-39518D01*
X49126Y-39518D02*
X49786Y-39518D01*
X49806Y-39518D02*
X49816Y-39518D01*
X50396Y-39518D02*
X50486Y-39518D01*
X48966Y-39528D02*
X49086Y-39528D01*
X49116Y-39528D02*
X49776Y-39528D01*
X49806Y-39528D02*
X49816Y-39528D01*
X50396Y-39528D02*
X50486Y-39528D01*
X48956Y-39538D02*
X49076Y-39538D01*
X49106Y-39538D02*
X49766Y-39538D01*
X49806Y-39538D02*
X49816Y-39538D01*
X50386Y-39538D02*
X50496Y-39538D01*
X48946Y-39548D02*
X49066Y-39548D01*
X49096Y-39548D02*
X49756Y-39548D01*
X49806Y-39548D02*
X49816Y-39548D01*
X50386Y-39548D02*
X50496Y-39548D01*
X48936Y-39558D02*
X49056Y-39558D01*
X49086Y-39558D02*
X49746Y-39558D01*
X49806Y-39558D02*
X49816Y-39558D01*
X50376Y-39558D02*
X50506Y-39558D01*
X48926Y-39568D02*
X49046Y-39568D01*
X49076Y-39568D02*
X49736Y-39568D01*
X49806Y-39568D02*
X49816Y-39568D01*
X50376Y-39568D02*
X50506Y-39568D01*
X48916Y-39578D02*
X49036Y-39578D01*
X49066Y-39578D02*
X49726Y-39578D01*
X49786Y-39578D02*
X49816Y-39578D01*
X50366Y-39578D02*
X50516Y-39578D01*
X48906Y-39588D02*
X49026Y-39588D01*
X49056Y-39588D02*
X49716Y-39588D01*
X49786Y-39588D02*
X49816Y-39588D01*
X50366Y-39588D02*
X50516Y-39588D01*
X48906Y-39598D02*
X49026Y-39598D01*
X49046Y-39598D02*
X49706Y-39598D01*
X49766Y-39598D02*
X49816Y-39598D01*
X50356Y-39598D02*
X50526Y-39598D01*
X48906Y-39608D02*
X49016Y-39608D01*
X49036Y-39608D02*
X49696Y-39608D01*
X49756Y-39608D02*
X49816Y-39608D01*
X50356Y-39608D02*
X50526Y-39608D01*
X51376Y-39608D02*
X51476Y-39608D01*
X51546Y-39608D02*
X51646Y-39608D01*
X52046Y-39608D02*
X52156Y-39608D01*
X52556Y-39608D02*
X52736Y-39608D01*
X52956Y-39608D02*
X53056Y-39608D01*
X53266Y-39608D02*
X53406Y-39608D01*
X48906Y-39618D02*
X48996Y-39618D01*
X49026Y-39618D02*
X49686Y-39618D01*
X49746Y-39618D02*
X49816Y-39618D01*
X50346Y-39618D02*
X50536Y-39618D01*
X50956Y-39618D02*
X51126Y-39618D01*
X51376Y-39618D02*
X51476Y-39618D01*
X51546Y-39618D02*
X51646Y-39618D01*
X52036Y-39618D02*
X52156Y-39618D01*
X52526Y-39618D02*
X52776Y-39618D01*
X52956Y-39618D02*
X53056Y-39618D01*
X53256Y-39618D02*
X53396Y-39618D01*
X48906Y-39628D02*
X48996Y-39628D01*
X49016Y-39628D02*
X49676Y-39628D01*
X49736Y-39628D02*
X49816Y-39628D01*
X50346Y-39628D02*
X50536Y-39628D01*
X50916Y-39628D02*
X51156Y-39628D01*
X51376Y-39628D02*
X51476Y-39628D01*
X51546Y-39628D02*
X51646Y-39628D01*
X52036Y-39628D02*
X52166Y-39628D01*
X52506Y-39628D02*
X52796Y-39628D01*
X52956Y-39628D02*
X53056Y-39628D01*
X53246Y-39628D02*
X53386Y-39628D01*
X48906Y-39638D02*
X48986Y-39638D01*
X49006Y-39638D02*
X49666Y-39638D01*
X49726Y-39638D02*
X49816Y-39638D01*
X50336Y-39638D02*
X50546Y-39638D01*
X50896Y-39638D02*
X51186Y-39638D01*
X51376Y-39638D02*
X51476Y-39638D01*
X51546Y-39638D02*
X51646Y-39638D01*
X52036Y-39638D02*
X52166Y-39638D01*
X52486Y-39638D02*
X52816Y-39638D01*
X52956Y-39638D02*
X53056Y-39638D01*
X53236Y-39638D02*
X53376Y-39638D01*
X48906Y-39648D02*
X48976Y-39648D01*
X49006Y-39648D02*
X49656Y-39648D01*
X49716Y-39648D02*
X49796Y-39648D01*
X49806Y-39648D02*
X49816Y-39648D01*
X50336Y-39648D02*
X50546Y-39648D01*
X50876Y-39648D02*
X51206Y-39648D01*
X51376Y-39648D02*
X51476Y-39648D01*
X51546Y-39648D02*
X51646Y-39648D01*
X52026Y-39648D02*
X52166Y-39648D01*
X52466Y-39648D02*
X52816Y-39648D01*
X52956Y-39648D02*
X53056Y-39648D01*
X53226Y-39648D02*
X53366Y-39648D01*
X48906Y-39658D02*
X48976Y-39658D01*
X49006Y-39658D02*
X49646Y-39658D01*
X49706Y-39658D02*
X49786Y-39658D01*
X49806Y-39658D02*
X49816Y-39658D01*
X50326Y-39658D02*
X50556Y-39658D01*
X50866Y-39658D02*
X51226Y-39658D01*
X51376Y-39658D02*
X51476Y-39658D01*
X51546Y-39658D02*
X51646Y-39658D01*
X52026Y-39658D02*
X52176Y-39658D01*
X52456Y-39658D02*
X52816Y-39658D01*
X52956Y-39658D02*
X53056Y-39658D01*
X53216Y-39658D02*
X53356Y-39658D01*
X48906Y-39668D02*
X48976Y-39668D01*
X49006Y-39668D02*
X49636Y-39668D01*
X49696Y-39668D02*
X49776Y-39668D01*
X49806Y-39668D02*
X49816Y-39668D01*
X50326Y-39668D02*
X50556Y-39668D01*
X50846Y-39668D02*
X51236Y-39668D01*
X51376Y-39668D02*
X51476Y-39668D01*
X51546Y-39668D02*
X51646Y-39668D01*
X52026Y-39668D02*
X52176Y-39668D01*
X52436Y-39668D02*
X52806Y-39668D01*
X52956Y-39668D02*
X53056Y-39668D01*
X53206Y-39668D02*
X53346Y-39668D01*
X48906Y-39678D02*
X48976Y-39678D01*
X49006Y-39678D02*
X49626Y-39678D01*
X49686Y-39678D02*
X49766Y-39678D01*
X49806Y-39678D02*
X49816Y-39678D01*
X50316Y-39678D02*
X50566Y-39678D01*
X50836Y-39678D02*
X51236Y-39678D01*
X51376Y-39678D02*
X51476Y-39678D01*
X51546Y-39678D02*
X51646Y-39678D01*
X52016Y-39678D02*
X52186Y-39678D01*
X52426Y-39678D02*
X52806Y-39678D01*
X52956Y-39678D02*
X53056Y-39678D01*
X53206Y-39678D02*
X53336Y-39678D01*
X48906Y-39688D02*
X48976Y-39688D01*
X49006Y-39688D02*
X49616Y-39688D01*
X49676Y-39688D02*
X49756Y-39688D01*
X49806Y-39688D02*
X49816Y-39688D01*
X50316Y-39688D02*
X50566Y-39688D01*
X50826Y-39688D02*
X51236Y-39688D01*
X51376Y-39688D02*
X51476Y-39688D01*
X51546Y-39688D02*
X51646Y-39688D01*
X52016Y-39688D02*
X52186Y-39688D01*
X52416Y-39688D02*
X52796Y-39688D01*
X52956Y-39688D02*
X53056Y-39688D01*
X53196Y-39688D02*
X53326Y-39688D01*
X48906Y-39698D02*
X48976Y-39698D01*
X49006Y-39698D02*
X49606Y-39698D01*
X49666Y-39698D02*
X49746Y-39698D01*
X49796Y-39698D02*
X49816Y-39698D01*
X50306Y-39698D02*
X50576Y-39698D01*
X50816Y-39698D02*
X51226Y-39698D01*
X51376Y-39698D02*
X51476Y-39698D01*
X51546Y-39698D02*
X51646Y-39698D01*
X52016Y-39698D02*
X52186Y-39698D01*
X52416Y-39698D02*
X52796Y-39698D01*
X52956Y-39698D02*
X53056Y-39698D01*
X53186Y-39698D02*
X53316Y-39698D01*
X48906Y-39708D02*
X48976Y-39708D01*
X49006Y-39708D02*
X49596Y-39708D01*
X49656Y-39708D02*
X49736Y-39708D01*
X49786Y-39708D02*
X49816Y-39708D01*
X50306Y-39708D02*
X50576Y-39708D01*
X50806Y-39708D02*
X51216Y-39708D01*
X51376Y-39708D02*
X51476Y-39708D01*
X51546Y-39708D02*
X51646Y-39708D01*
X52006Y-39708D02*
X52196Y-39708D01*
X52406Y-39708D02*
X52586Y-39708D01*
X52726Y-39708D02*
X52796Y-39708D01*
X52956Y-39708D02*
X53056Y-39708D01*
X53176Y-39708D02*
X53306Y-39708D01*
X48906Y-39718D02*
X48976Y-39718D01*
X49006Y-39718D02*
X49586Y-39718D01*
X49646Y-39718D02*
X49726Y-39718D01*
X49776Y-39718D02*
X49816Y-39718D01*
X50296Y-39718D02*
X50436Y-39718D01*
X50446Y-39718D02*
X50586Y-39718D01*
X50806Y-39718D02*
X50986Y-39718D01*
X51106Y-39718D02*
X51216Y-39718D01*
X51376Y-39718D02*
X51476Y-39718D01*
X51546Y-39718D02*
X51646Y-39718D01*
X52006Y-39718D02*
X52196Y-39718D01*
X52396Y-39718D02*
X52566Y-39718D01*
X52756Y-39718D02*
X52786Y-39718D01*
X52956Y-39718D02*
X53056Y-39718D01*
X53166Y-39718D02*
X53296Y-39718D01*
X48906Y-39728D02*
X48976Y-39728D01*
X49006Y-39728D02*
X49366Y-39728D01*
X49446Y-39728D02*
X49576Y-39728D01*
X49636Y-39728D02*
X49716Y-39728D01*
X49766Y-39728D02*
X49816Y-39728D01*
X50296Y-39728D02*
X50436Y-39728D01*
X50446Y-39728D02*
X50586Y-39728D01*
X50796Y-39728D02*
X50956Y-39728D01*
X51146Y-39728D02*
X51206Y-39728D01*
X51376Y-39728D02*
X51476Y-39728D01*
X51546Y-39728D02*
X51646Y-39728D01*
X51996Y-39728D02*
X52196Y-39728D01*
X52386Y-39728D02*
X52546Y-39728D01*
X52956Y-39728D02*
X53056Y-39728D01*
X53156Y-39728D02*
X53296Y-39728D01*
X48906Y-39738D02*
X48976Y-39738D01*
X49006Y-39738D02*
X49336Y-39738D01*
X49476Y-39738D02*
X49566Y-39738D01*
X49626Y-39738D02*
X49706Y-39738D01*
X49756Y-39738D02*
X49816Y-39738D01*
X50286Y-39738D02*
X50426Y-39738D01*
X50456Y-39738D02*
X50596Y-39738D01*
X50786Y-39738D02*
X50946Y-39738D01*
X51166Y-39738D02*
X51206Y-39738D01*
X51376Y-39738D02*
X51476Y-39738D01*
X51546Y-39738D02*
X51646Y-39738D01*
X51996Y-39738D02*
X52206Y-39738D01*
X52386Y-39738D02*
X52526Y-39738D01*
X52956Y-39738D02*
X53056Y-39738D01*
X53146Y-39738D02*
X53286Y-39738D01*
X48906Y-39748D02*
X48976Y-39748D01*
X49006Y-39748D02*
X49326Y-39748D01*
X49496Y-39748D02*
X49556Y-39748D01*
X49616Y-39748D02*
X49696Y-39748D01*
X49746Y-39748D02*
X49816Y-39748D01*
X50286Y-39748D02*
X50426Y-39748D01*
X50456Y-39748D02*
X50596Y-39748D01*
X50786Y-39748D02*
X50926Y-39748D01*
X51186Y-39748D02*
X51196Y-39748D01*
X51376Y-39748D02*
X51476Y-39748D01*
X51546Y-39748D02*
X51646Y-39748D01*
X51996Y-39748D02*
X52096Y-39748D01*
X52106Y-39748D02*
X52206Y-39748D01*
X52376Y-39748D02*
X52516Y-39748D01*
X52956Y-39748D02*
X53056Y-39748D01*
X53136Y-39748D02*
X53276Y-39748D01*
X48906Y-39758D02*
X48976Y-39758D01*
X49006Y-39758D02*
X49306Y-39758D01*
X49506Y-39758D02*
X49546Y-39758D01*
X49606Y-39758D02*
X49686Y-39758D01*
X49736Y-39758D02*
X49816Y-39758D01*
X50276Y-39758D02*
X50416Y-39758D01*
X50466Y-39758D02*
X50606Y-39758D01*
X50776Y-39758D02*
X50916Y-39758D01*
X51376Y-39758D02*
X51476Y-39758D01*
X51546Y-39758D02*
X51646Y-39758D01*
X51986Y-39758D02*
X52086Y-39758D01*
X52106Y-39758D02*
X52216Y-39758D01*
X52376Y-39758D02*
X52506Y-39758D01*
X52956Y-39758D02*
X53056Y-39758D01*
X53136Y-39758D02*
X53266Y-39758D01*
X48906Y-39768D02*
X48976Y-39768D01*
X49006Y-39768D02*
X49296Y-39768D01*
X49516Y-39768D02*
X49536Y-39768D01*
X49596Y-39768D02*
X49676Y-39768D01*
X49726Y-39768D02*
X49816Y-39768D01*
X50276Y-39768D02*
X50416Y-39768D01*
X50466Y-39768D02*
X50606Y-39768D01*
X50776Y-39768D02*
X50906Y-39768D01*
X51376Y-39768D02*
X51476Y-39768D01*
X51546Y-39768D02*
X51646Y-39768D01*
X51986Y-39768D02*
X52086Y-39768D01*
X52106Y-39768D02*
X52216Y-39768D01*
X52366Y-39768D02*
X52496Y-39768D01*
X52956Y-39768D02*
X53056Y-39768D01*
X53126Y-39768D02*
X53256Y-39768D01*
X48906Y-39778D02*
X48976Y-39778D01*
X49006Y-39778D02*
X49286Y-39778D01*
X49376Y-39778D02*
X49446Y-39778D01*
X49526Y-39778D02*
X49536Y-39778D01*
X49586Y-39778D02*
X49666Y-39778D01*
X49716Y-39778D02*
X49816Y-39778D01*
X50266Y-39778D02*
X50416Y-39778D01*
X50476Y-39778D02*
X50616Y-39778D01*
X50766Y-39778D02*
X50896Y-39778D01*
X51376Y-39778D02*
X51476Y-39778D01*
X51546Y-39778D02*
X51646Y-39778D01*
X51986Y-39778D02*
X52086Y-39778D01*
X52116Y-39778D02*
X52216Y-39778D01*
X52366Y-39778D02*
X52496Y-39778D01*
X52956Y-39778D02*
X53056Y-39778D01*
X53116Y-39778D02*
X53246Y-39778D01*
X48906Y-39788D02*
X48976Y-39788D01*
X49006Y-39788D02*
X49276Y-39788D01*
X49356Y-39788D02*
X49466Y-39788D01*
X49576Y-39788D02*
X49656Y-39788D01*
X49706Y-39788D02*
X49816Y-39788D01*
X50266Y-39788D02*
X50406Y-39788D01*
X50476Y-39788D02*
X50616Y-39788D01*
X50766Y-39788D02*
X50886Y-39788D01*
X51376Y-39788D02*
X51476Y-39788D01*
X51546Y-39788D02*
X51646Y-39788D01*
X51976Y-39788D02*
X52076Y-39788D01*
X52116Y-39788D02*
X52226Y-39788D01*
X52366Y-39788D02*
X52486Y-39788D01*
X52956Y-39788D02*
X53056Y-39788D01*
X53106Y-39788D02*
X53236Y-39788D01*
X48906Y-39798D02*
X48976Y-39798D01*
X49006Y-39798D02*
X49266Y-39798D01*
X49346Y-39798D02*
X49476Y-39798D01*
X49566Y-39798D02*
X49646Y-39798D01*
X49696Y-39798D02*
X49816Y-39798D01*
X50256Y-39798D02*
X50406Y-39798D01*
X50486Y-39798D02*
X50626Y-39798D01*
X50766Y-39798D02*
X50886Y-39798D01*
X51376Y-39798D02*
X51476Y-39798D01*
X51546Y-39798D02*
X51646Y-39798D01*
X51976Y-39798D02*
X52076Y-39798D01*
X52116Y-39798D02*
X52226Y-39798D01*
X52366Y-39798D02*
X52486Y-39798D01*
X52956Y-39798D02*
X53056Y-39798D01*
X53096Y-39798D02*
X53226Y-39798D01*
X48906Y-39808D02*
X48976Y-39808D01*
X49006Y-39808D02*
X49256Y-39808D01*
X49336Y-39808D02*
X49486Y-39808D01*
X49566Y-39808D02*
X49636Y-39808D01*
X49686Y-39808D02*
X49816Y-39808D01*
X50256Y-39808D02*
X50396Y-39808D01*
X50486Y-39808D02*
X50636Y-39808D01*
X50766Y-39808D02*
X50876Y-39808D01*
X51376Y-39808D02*
X51476Y-39808D01*
X51546Y-39808D02*
X51646Y-39808D01*
X51966Y-39808D02*
X52076Y-39808D01*
X52126Y-39808D02*
X52226Y-39808D01*
X52356Y-39808D02*
X52476Y-39808D01*
X52956Y-39808D02*
X53056Y-39808D01*
X53086Y-39808D02*
X53216Y-39808D01*
X48906Y-39818D02*
X48976Y-39818D01*
X49006Y-39818D02*
X49246Y-39818D01*
X49326Y-39818D02*
X49496Y-39818D01*
X49566Y-39818D02*
X49626Y-39818D01*
X49676Y-39818D02*
X49816Y-39818D01*
X50246Y-39818D02*
X50396Y-39818D01*
X50496Y-39818D02*
X50636Y-39818D01*
X50756Y-39818D02*
X50876Y-39818D01*
X51376Y-39818D02*
X51476Y-39818D01*
X51546Y-39818D02*
X51646Y-39818D01*
X51966Y-39818D02*
X52066Y-39818D01*
X52126Y-39818D02*
X52236Y-39818D01*
X52356Y-39818D02*
X52476Y-39818D01*
X52956Y-39818D02*
X53056Y-39818D01*
X53076Y-39818D02*
X53206Y-39818D01*
X48906Y-39828D02*
X48976Y-39828D01*
X49006Y-39828D02*
X49236Y-39828D01*
X49326Y-39828D02*
X49496Y-39828D01*
X49566Y-39828D02*
X49606Y-39828D01*
X49666Y-39828D02*
X49816Y-39828D01*
X50246Y-39828D02*
X50386Y-39828D01*
X50496Y-39828D02*
X50646Y-39828D01*
X50756Y-39828D02*
X50876Y-39828D01*
X51376Y-39828D02*
X51476Y-39828D01*
X51546Y-39828D02*
X51646Y-39828D01*
X51966Y-39828D02*
X52066Y-39828D01*
X52126Y-39828D02*
X52236Y-39828D01*
X52356Y-39828D02*
X52466Y-39828D01*
X52956Y-39828D02*
X53056Y-39828D01*
X53066Y-39828D02*
X53196Y-39828D01*
X48906Y-39838D02*
X48976Y-39838D01*
X49006Y-39838D02*
X49226Y-39838D01*
X49316Y-39838D02*
X49496Y-39838D01*
X49566Y-39838D02*
X49596Y-39838D01*
X49656Y-39838D02*
X49816Y-39838D01*
X50236Y-39838D02*
X50386Y-39838D01*
X50506Y-39838D02*
X50646Y-39838D01*
X50756Y-39838D02*
X50866Y-39838D01*
X51376Y-39838D02*
X51476Y-39838D01*
X51546Y-39838D02*
X51646Y-39838D01*
X51956Y-39838D02*
X52066Y-39838D01*
X52136Y-39838D02*
X52236Y-39838D01*
X52356Y-39838D02*
X52466Y-39838D01*
X52956Y-39838D02*
X53056Y-39838D01*
X53066Y-39838D02*
X53186Y-39838D01*
X48906Y-39848D02*
X48976Y-39848D01*
X49006Y-39848D02*
X49216Y-39848D01*
X49316Y-39848D02*
X49506Y-39848D01*
X49566Y-39848D02*
X49586Y-39848D01*
X49646Y-39848D02*
X49816Y-39848D01*
X50236Y-39848D02*
X50376Y-39848D01*
X50506Y-39848D02*
X50656Y-39848D01*
X50756Y-39848D02*
X50866Y-39848D01*
X51376Y-39848D02*
X51476Y-39848D01*
X51546Y-39848D02*
X51646Y-39848D01*
X51956Y-39848D02*
X52056Y-39848D01*
X52136Y-39848D02*
X52246Y-39848D01*
X52356Y-39848D02*
X52466Y-39848D01*
X52956Y-39848D02*
X53176Y-39848D01*
X48906Y-39858D02*
X48976Y-39858D01*
X49006Y-39858D02*
X49206Y-39858D01*
X49316Y-39858D02*
X49506Y-39858D01*
X49566Y-39858D02*
X49576Y-39858D01*
X49636Y-39858D02*
X49816Y-39858D01*
X50226Y-39858D02*
X50376Y-39858D01*
X50516Y-39858D02*
X50656Y-39858D01*
X50756Y-39858D02*
X50866Y-39858D01*
X51006Y-39858D02*
X51256Y-39858D01*
X51376Y-39858D02*
X51476Y-39858D01*
X51546Y-39858D02*
X51646Y-39858D01*
X51956Y-39858D02*
X52056Y-39858D01*
X52136Y-39858D02*
X52246Y-39858D01*
X52356Y-39858D02*
X52466Y-39858D01*
X52956Y-39858D02*
X53166Y-39858D01*
X48906Y-39868D02*
X48976Y-39868D01*
X49006Y-39868D02*
X49196Y-39868D01*
X49316Y-39868D02*
X49506Y-39868D01*
X49626Y-39868D02*
X49816Y-39868D01*
X50226Y-39868D02*
X50366Y-39868D01*
X50516Y-39868D02*
X50666Y-39868D01*
X50756Y-39868D02*
X50866Y-39868D01*
X51006Y-39868D02*
X51256Y-39868D01*
X51376Y-39868D02*
X51476Y-39868D01*
X51546Y-39868D02*
X51646Y-39868D01*
X51946Y-39868D02*
X52056Y-39868D01*
X52146Y-39868D02*
X52256Y-39868D01*
X52356Y-39868D02*
X52466Y-39868D01*
X52956Y-39868D02*
X53166Y-39868D01*
X48906Y-39878D02*
X48976Y-39878D01*
X49006Y-39878D02*
X49186Y-39878D01*
X49316Y-39878D02*
X49506Y-39878D01*
X49616Y-39878D02*
X49816Y-39878D01*
X50216Y-39878D02*
X50366Y-39878D01*
X50526Y-39878D02*
X50666Y-39878D01*
X50756Y-39878D02*
X50866Y-39878D01*
X51006Y-39878D02*
X51256Y-39878D01*
X51376Y-39878D02*
X51476Y-39878D01*
X51546Y-39878D02*
X51646Y-39878D01*
X51946Y-39878D02*
X52046Y-39878D01*
X52146Y-39878D02*
X52256Y-39878D01*
X52356Y-39878D02*
X52466Y-39878D01*
X52956Y-39878D02*
X53176Y-39878D01*
X48906Y-39888D02*
X48976Y-39888D01*
X49006Y-39888D02*
X49176Y-39888D01*
X49246Y-39888D02*
X49256Y-39888D01*
X49316Y-39888D02*
X49506Y-39888D01*
X49606Y-39888D02*
X49816Y-39888D01*
X50216Y-39888D02*
X50356Y-39888D01*
X50526Y-39888D02*
X50676Y-39888D01*
X50756Y-39888D02*
X50866Y-39888D01*
X51006Y-39888D02*
X51256Y-39888D01*
X51376Y-39888D02*
X51476Y-39888D01*
X51546Y-39888D02*
X51646Y-39888D01*
X51946Y-39888D02*
X52046Y-39888D01*
X52146Y-39888D02*
X52256Y-39888D01*
X52356Y-39888D02*
X52466Y-39888D01*
X52956Y-39888D02*
X53186Y-39888D01*
X48906Y-39898D02*
X48976Y-39898D01*
X49006Y-39898D02*
X49166Y-39898D01*
X49236Y-39898D02*
X49256Y-39898D01*
X49316Y-39898D02*
X49506Y-39898D01*
X49596Y-39898D02*
X49816Y-39898D01*
X50206Y-39898D02*
X50356Y-39898D01*
X50536Y-39898D02*
X50676Y-39898D01*
X50756Y-39898D02*
X50866Y-39898D01*
X51006Y-39898D02*
X51256Y-39898D01*
X51376Y-39898D02*
X51476Y-39898D01*
X51546Y-39898D02*
X51646Y-39898D01*
X51936Y-39898D02*
X52046Y-39898D01*
X52156Y-39898D02*
X52266Y-39898D01*
X52356Y-39898D02*
X52466Y-39898D01*
X52956Y-39898D02*
X53196Y-39898D01*
X48906Y-39908D02*
X48976Y-39908D01*
X49006Y-39908D02*
X49156Y-39908D01*
X49226Y-39908D02*
X49256Y-39908D01*
X49316Y-39908D02*
X49506Y-39908D01*
X49586Y-39908D02*
X49816Y-39908D01*
X50206Y-39908D02*
X50356Y-39908D01*
X50536Y-39908D02*
X50686Y-39908D01*
X50756Y-39908D02*
X50866Y-39908D01*
X51006Y-39908D02*
X51256Y-39908D01*
X51376Y-39908D02*
X51476Y-39908D01*
X51546Y-39908D02*
X51646Y-39908D01*
X51936Y-39908D02*
X52036Y-39908D01*
X52156Y-39908D02*
X52266Y-39908D01*
X52356Y-39908D02*
X52466Y-39908D01*
X52956Y-39908D02*
X53056Y-39908D01*
X53066Y-39908D02*
X53196Y-39908D01*
X48906Y-39918D02*
X48976Y-39918D01*
X49006Y-39918D02*
X49146Y-39918D01*
X49216Y-39918D02*
X49256Y-39918D01*
X49316Y-39918D02*
X49496Y-39918D01*
X49576Y-39918D02*
X49816Y-39918D01*
X50196Y-39918D02*
X50346Y-39918D01*
X50546Y-39918D02*
X50686Y-39918D01*
X50756Y-39918D02*
X50866Y-39918D01*
X51006Y-39918D02*
X51256Y-39918D01*
X51376Y-39918D02*
X51476Y-39918D01*
X51546Y-39918D02*
X51646Y-39918D01*
X51926Y-39918D02*
X52036Y-39918D01*
X52156Y-39918D02*
X52266Y-39918D01*
X52356Y-39918D02*
X52466Y-39918D01*
X52956Y-39918D02*
X53056Y-39918D01*
X53076Y-39918D02*
X53206Y-39918D01*
X48906Y-39928D02*
X48976Y-39928D01*
X49006Y-39928D02*
X49136Y-39928D01*
X49206Y-39928D02*
X49256Y-39928D01*
X49326Y-39928D02*
X49496Y-39928D01*
X49566Y-39928D02*
X49816Y-39928D01*
X50196Y-39928D02*
X50346Y-39928D01*
X50546Y-39928D02*
X50696Y-39928D01*
X50756Y-39928D02*
X50866Y-39928D01*
X51006Y-39928D02*
X51256Y-39928D01*
X51376Y-39928D02*
X51476Y-39928D01*
X51546Y-39928D02*
X51646Y-39928D01*
X51926Y-39928D02*
X52276Y-39928D01*
X52356Y-39928D02*
X52466Y-39928D01*
X52956Y-39928D02*
X53056Y-39928D01*
X53086Y-39928D02*
X53216Y-39928D01*
X48906Y-39938D02*
X48976Y-39938D01*
X49006Y-39938D02*
X49126Y-39938D01*
X49196Y-39938D02*
X49256Y-39938D01*
X49326Y-39938D02*
X49486Y-39938D01*
X49556Y-39938D02*
X49816Y-39938D01*
X50186Y-39938D02*
X50336Y-39938D01*
X50556Y-39938D02*
X50696Y-39938D01*
X50756Y-39938D02*
X50866Y-39938D01*
X51006Y-39938D02*
X51256Y-39938D01*
X51376Y-39938D02*
X51476Y-39938D01*
X51546Y-39938D02*
X51646Y-39938D01*
X51926Y-39938D02*
X52276Y-39938D01*
X52356Y-39938D02*
X52476Y-39938D01*
X52956Y-39938D02*
X53056Y-39938D01*
X53096Y-39938D02*
X53226Y-39938D01*
X48906Y-39948D02*
X48976Y-39948D01*
X49006Y-39948D02*
X49116Y-39948D01*
X49186Y-39948D02*
X49256Y-39948D01*
X49336Y-39948D02*
X49486Y-39948D01*
X49546Y-39948D02*
X49816Y-39948D01*
X50186Y-39948D02*
X50336Y-39948D01*
X50556Y-39948D02*
X50706Y-39948D01*
X50756Y-39948D02*
X50876Y-39948D01*
X51156Y-39948D02*
X51256Y-39948D01*
X51376Y-39948D02*
X51476Y-39948D01*
X51546Y-39948D02*
X51646Y-39948D01*
X51916Y-39948D02*
X52276Y-39948D01*
X52356Y-39948D02*
X52476Y-39948D01*
X52956Y-39948D02*
X53056Y-39948D01*
X53096Y-39948D02*
X53236Y-39948D01*
X48906Y-39958D02*
X48976Y-39958D01*
X49006Y-39958D02*
X49106Y-39958D01*
X49176Y-39958D02*
X49246Y-39958D01*
X49346Y-39958D02*
X49466Y-39958D01*
X49536Y-39958D02*
X49816Y-39958D01*
X50176Y-39958D02*
X50326Y-39958D01*
X50566Y-39958D02*
X50706Y-39958D01*
X50756Y-39958D02*
X50876Y-39958D01*
X51156Y-39958D02*
X51256Y-39958D01*
X51376Y-39958D02*
X51476Y-39958D01*
X51546Y-39958D02*
X51646Y-39958D01*
X51916Y-39958D02*
X52286Y-39958D01*
X52356Y-39958D02*
X52476Y-39958D01*
X52956Y-39958D02*
X53056Y-39958D01*
X53106Y-39958D02*
X53246Y-39958D01*
X48906Y-39968D02*
X48976Y-39968D01*
X49006Y-39968D02*
X49096Y-39968D01*
X49166Y-39968D02*
X49236Y-39968D01*
X49366Y-39968D02*
X49456Y-39968D01*
X49526Y-39968D02*
X49816Y-39968D01*
X50176Y-39968D02*
X50326Y-39968D01*
X50566Y-39968D02*
X50716Y-39968D01*
X50766Y-39968D02*
X50876Y-39968D01*
X51156Y-39968D02*
X51256Y-39968D01*
X51376Y-39968D02*
X51476Y-39968D01*
X51546Y-39968D02*
X51646Y-39968D01*
X51916Y-39968D02*
X52286Y-39968D01*
X52366Y-39968D02*
X52486Y-39968D01*
X52956Y-39968D02*
X53056Y-39968D01*
X53116Y-39968D02*
X53256Y-39968D01*
X48906Y-39978D02*
X48976Y-39978D01*
X49006Y-39978D02*
X49096Y-39978D01*
X49156Y-39978D02*
X49226Y-39978D01*
X49286Y-39978D02*
X49296Y-39978D01*
X49396Y-39978D02*
X49416Y-39978D01*
X49526Y-39978D02*
X49816Y-39978D01*
X50166Y-39978D02*
X50316Y-39978D01*
X50576Y-39978D02*
X50716Y-39978D01*
X50766Y-39978D02*
X50886Y-39978D01*
X51156Y-39978D02*
X51256Y-39978D01*
X51376Y-39978D02*
X51476Y-39978D01*
X51546Y-39978D02*
X51646Y-39978D01*
X51906Y-39978D02*
X52296Y-39978D01*
X52366Y-39978D02*
X52486Y-39978D01*
X52956Y-39978D02*
X53056Y-39978D01*
X53126Y-39978D02*
X53266Y-39978D01*
X48906Y-39988D02*
X48976Y-39988D01*
X49006Y-39988D02*
X49086Y-39988D01*
X49146Y-39988D02*
X49216Y-39988D01*
X49276Y-39988D02*
X49306Y-39988D01*
X49516Y-39988D02*
X49816Y-39988D01*
X50166Y-39988D02*
X50316Y-39988D01*
X50576Y-39988D02*
X50726Y-39988D01*
X50766Y-39988D02*
X50896Y-39988D01*
X51156Y-39988D02*
X51256Y-39988D01*
X51376Y-39988D02*
X51476Y-39988D01*
X51546Y-39988D02*
X51646Y-39988D01*
X51906Y-39988D02*
X52296Y-39988D01*
X52366Y-39988D02*
X52496Y-39988D01*
X52956Y-39988D02*
X53056Y-39988D01*
X53136Y-39988D02*
X53276Y-39988D01*
X48906Y-39998D02*
X48976Y-39998D01*
X49006Y-39998D02*
X49076Y-39998D01*
X49136Y-39998D02*
X49206Y-39998D01*
X49266Y-39998D02*
X49316Y-39998D01*
X49496Y-39998D02*
X49816Y-39998D01*
X50156Y-39998D02*
X50526Y-39998D01*
X50586Y-39998D02*
X50726Y-39998D01*
X50766Y-39998D02*
X50896Y-39998D01*
X51156Y-39998D02*
X51256Y-39998D01*
X51376Y-39998D02*
X51476Y-39998D01*
X51546Y-39998D02*
X51646Y-39998D01*
X51906Y-39998D02*
X52296Y-39998D01*
X52376Y-39998D02*
X52506Y-39998D01*
X52956Y-39998D02*
X53056Y-39998D01*
X53146Y-39998D02*
X53286Y-39998D01*
X48906Y-40008D02*
X48976Y-40008D01*
X49006Y-40008D02*
X49066Y-40008D01*
X49126Y-40008D02*
X49196Y-40008D01*
X49256Y-40008D02*
X49326Y-40008D01*
X49486Y-40008D02*
X49816Y-40008D01*
X50156Y-40008D02*
X50526Y-40008D01*
X50586Y-40008D02*
X50736Y-40008D01*
X50776Y-40008D02*
X50906Y-40008D01*
X51156Y-40008D02*
X51256Y-40008D01*
X51376Y-40008D02*
X51476Y-40008D01*
X51546Y-40008D02*
X51646Y-40008D01*
X51896Y-40008D02*
X52306Y-40008D01*
X52376Y-40008D02*
X52516Y-40008D01*
X52956Y-40008D02*
X53056Y-40008D01*
X53156Y-40008D02*
X53286Y-40008D01*
X48906Y-40018D02*
X48976Y-40018D01*
X49006Y-40018D02*
X49056Y-40018D01*
X49116Y-40018D02*
X49186Y-40018D01*
X49246Y-40018D02*
X49356Y-40018D01*
X49466Y-40018D02*
X49816Y-40018D01*
X50146Y-40018D02*
X50536Y-40018D01*
X50596Y-40018D02*
X50736Y-40018D01*
X50776Y-40018D02*
X50916Y-40018D01*
X51156Y-40018D02*
X51256Y-40018D01*
X51376Y-40018D02*
X51476Y-40018D01*
X51546Y-40018D02*
X51646Y-40018D01*
X51896Y-40018D02*
X52006Y-40018D01*
X52196Y-40018D02*
X52306Y-40018D01*
X52376Y-40018D02*
X52526Y-40018D01*
X52956Y-40018D02*
X53056Y-40018D01*
X53156Y-40018D02*
X53296Y-40018D01*
X48906Y-40028D02*
X48976Y-40028D01*
X49006Y-40028D02*
X49046Y-40028D01*
X49106Y-40028D02*
X49176Y-40028D01*
X49236Y-40028D02*
X49386Y-40028D01*
X49426Y-40028D02*
X49816Y-40028D01*
X50146Y-40028D02*
X50536Y-40028D01*
X50596Y-40028D02*
X50746Y-40028D01*
X50786Y-40028D02*
X50926Y-40028D01*
X51156Y-40028D02*
X51256Y-40028D01*
X51376Y-40028D02*
X51476Y-40028D01*
X51546Y-40028D02*
X51646Y-40028D01*
X51886Y-40028D02*
X51996Y-40028D01*
X52196Y-40028D02*
X52306Y-40028D01*
X52386Y-40028D02*
X52536Y-40028D01*
X52956Y-40028D02*
X53056Y-40028D01*
X53166Y-40028D02*
X53306Y-40028D01*
X48906Y-40038D02*
X48976Y-40038D01*
X49006Y-40038D02*
X49036Y-40038D01*
X49096Y-40038D02*
X49166Y-40038D01*
X49226Y-40038D02*
X49816Y-40038D01*
X50136Y-40038D02*
X50546Y-40038D01*
X50606Y-40038D02*
X50746Y-40038D01*
X50786Y-40038D02*
X50936Y-40038D01*
X51156Y-40038D02*
X51256Y-40038D01*
X51376Y-40038D02*
X51476Y-40038D01*
X51546Y-40038D02*
X51646Y-40038D01*
X51886Y-40038D02*
X51996Y-40038D01*
X52196Y-40038D02*
X52316Y-40038D01*
X52396Y-40038D02*
X52546Y-40038D01*
X52956Y-40038D02*
X53056Y-40038D01*
X53176Y-40038D02*
X53316Y-40038D01*
X48906Y-40048D02*
X48976Y-40048D01*
X49006Y-40048D02*
X49026Y-40048D01*
X49086Y-40048D02*
X49156Y-40048D01*
X49216Y-40048D02*
X49816Y-40048D01*
X50136Y-40048D02*
X50546Y-40048D01*
X50606Y-40048D02*
X50756Y-40048D01*
X50796Y-40048D02*
X50946Y-40048D01*
X51146Y-40048D02*
X51256Y-40048D01*
X51376Y-40048D02*
X51476Y-40048D01*
X51546Y-40048D02*
X51646Y-40048D01*
X51886Y-40048D02*
X51996Y-40048D01*
X52206Y-40048D02*
X52316Y-40048D01*
X52396Y-40048D02*
X52566Y-40048D01*
X52756Y-40048D02*
X52796Y-40048D01*
X52956Y-40048D02*
X53056Y-40048D01*
X53186Y-40048D02*
X53326Y-40048D01*
X48906Y-40058D02*
X48976Y-40058D01*
X49006Y-40058D02*
X49016Y-40058D01*
X49076Y-40058D02*
X49146Y-40058D01*
X49206Y-40058D02*
X49816Y-40058D01*
X50126Y-40058D02*
X50556Y-40058D01*
X50616Y-40058D02*
X50756Y-40058D01*
X50796Y-40058D02*
X50966Y-40058D01*
X51136Y-40058D02*
X51256Y-40058D01*
X51376Y-40058D02*
X51476Y-40058D01*
X51546Y-40058D02*
X51646Y-40058D01*
X51876Y-40058D02*
X51986Y-40058D01*
X52206Y-40058D02*
X52326Y-40058D01*
X52406Y-40058D02*
X52596Y-40058D01*
X52726Y-40058D02*
X52796Y-40058D01*
X52956Y-40058D02*
X53056Y-40058D01*
X53196Y-40058D02*
X53336Y-40058D01*
X48906Y-40068D02*
X48976Y-40068D01*
X49006Y-40068D02*
X49016Y-40068D01*
X49066Y-40068D02*
X49136Y-40068D01*
X49196Y-40068D02*
X49816Y-40068D01*
X50126Y-40068D02*
X50556Y-40068D01*
X50616Y-40068D02*
X50766Y-40068D01*
X50806Y-40068D02*
X50996Y-40068D01*
X51106Y-40068D02*
X51256Y-40068D01*
X51376Y-40068D02*
X51476Y-40068D01*
X51546Y-40068D02*
X51986Y-40068D01*
X52206Y-40068D02*
X52326Y-40068D01*
X52416Y-40068D02*
X52806Y-40068D01*
X52956Y-40068D02*
X53056Y-40068D01*
X53206Y-40068D02*
X53346Y-40068D01*
X48906Y-40078D02*
X48976Y-40078D01*
X49006Y-40078D02*
X49016Y-40078D01*
X49056Y-40078D02*
X49126Y-40078D01*
X49186Y-40078D02*
X49816Y-40078D01*
X50116Y-40078D02*
X50566Y-40078D01*
X50626Y-40078D02*
X50766Y-40078D01*
X50816Y-40078D02*
X51256Y-40078D01*
X51376Y-40078D02*
X51476Y-40078D01*
X51546Y-40078D02*
X51976Y-40078D01*
X52216Y-40078D02*
X52326Y-40078D01*
X52416Y-40078D02*
X52806Y-40078D01*
X52956Y-40078D02*
X53056Y-40078D01*
X53216Y-40078D02*
X53356Y-40078D01*
X48906Y-40088D02*
X48976Y-40088D01*
X49006Y-40088D02*
X49016Y-40088D01*
X49046Y-40088D02*
X49116Y-40088D01*
X49176Y-40088D02*
X49816Y-40088D01*
X50116Y-40088D02*
X50566Y-40088D01*
X50626Y-40088D02*
X50776Y-40088D01*
X50826Y-40088D02*
X51256Y-40088D01*
X51376Y-40088D02*
X51476Y-40088D01*
X51546Y-40088D02*
X51976Y-40088D01*
X52216Y-40088D02*
X52336Y-40088D01*
X52426Y-40088D02*
X52816Y-40088D01*
X52956Y-40088D02*
X53056Y-40088D01*
X53226Y-40088D02*
X53366Y-40088D01*
X48906Y-40098D02*
X48976Y-40098D01*
X49006Y-40098D02*
X49016Y-40098D01*
X49036Y-40098D02*
X49106Y-40098D01*
X49166Y-40098D02*
X49816Y-40098D01*
X50106Y-40098D02*
X50576Y-40098D01*
X50636Y-40098D02*
X50776Y-40098D01*
X50836Y-40098D02*
X51256Y-40098D01*
X51376Y-40098D02*
X51476Y-40098D01*
X51546Y-40098D02*
X51976Y-40098D01*
X52226Y-40098D02*
X52336Y-40098D01*
X52436Y-40098D02*
X52816Y-40098D01*
X52956Y-40098D02*
X53056Y-40098D01*
X53226Y-40098D02*
X53376Y-40098D01*
X48906Y-40108D02*
X48966Y-40108D01*
X49006Y-40108D02*
X49016Y-40108D01*
X49026Y-40108D02*
X49096Y-40108D01*
X49156Y-40108D02*
X49816Y-40108D01*
X50106Y-40108D02*
X50576Y-40108D01*
X50636Y-40108D02*
X50786Y-40108D01*
X50836Y-40108D02*
X51246Y-40108D01*
X51376Y-40108D02*
X51476Y-40108D01*
X51546Y-40108D02*
X51966Y-40108D01*
X52226Y-40108D02*
X52336Y-40108D01*
X52456Y-40108D02*
X52816Y-40108D01*
X52956Y-40108D02*
X53056Y-40108D01*
X53236Y-40108D02*
X53376Y-40108D01*
X48906Y-40118D02*
X48956Y-40118D01*
X49006Y-40118D02*
X49086Y-40118D01*
X49146Y-40118D02*
X49806Y-40118D01*
X50106Y-40118D02*
X50576Y-40118D01*
X50646Y-40118D02*
X50786Y-40118D01*
X50856Y-40118D02*
X51236Y-40118D01*
X51376Y-40118D02*
X51476Y-40118D01*
X51546Y-40118D02*
X51966Y-40118D01*
X52226Y-40118D02*
X52346Y-40118D01*
X52466Y-40118D02*
X52826Y-40118D01*
X52956Y-40118D02*
X53056Y-40118D01*
X53246Y-40118D02*
X53386Y-40118D01*
X48906Y-40128D02*
X48946Y-40128D01*
X49006Y-40128D02*
X49076Y-40128D01*
X49136Y-40128D02*
X49796Y-40128D01*
X50646Y-40128D02*
X50796Y-40128D01*
X50866Y-40128D02*
X51216Y-40128D01*
X51376Y-40128D02*
X51476Y-40128D01*
X51546Y-40128D02*
X51966Y-40128D01*
X52236Y-40128D02*
X52346Y-40128D01*
X52486Y-40128D02*
X52826Y-40128D01*
X52956Y-40128D02*
X53056Y-40128D01*
X53256Y-40128D02*
X53396Y-40128D01*
X48906Y-40138D02*
X48936Y-40138D01*
X49006Y-40138D02*
X49066Y-40138D01*
X49126Y-40138D02*
X49786Y-40138D01*
X50656Y-40138D02*
X50796Y-40138D01*
X50876Y-40138D02*
X51206Y-40138D01*
X51376Y-40138D02*
X51476Y-40138D01*
X51546Y-40138D02*
X51956Y-40138D01*
X52236Y-40138D02*
X52346Y-40138D01*
X52496Y-40138D02*
X52796Y-40138D01*
X52956Y-40138D02*
X53056Y-40138D01*
X53266Y-40138D02*
X53406Y-40138D01*
X49006Y-40148D02*
X49056Y-40148D01*
X49116Y-40148D02*
X49776Y-40148D01*
X50656Y-40148D02*
X50806Y-40148D01*
X50896Y-40148D02*
X51186Y-40148D01*
X51376Y-40148D02*
X51476Y-40148D01*
X51546Y-40148D02*
X51956Y-40148D01*
X52246Y-40148D02*
X52356Y-40148D01*
X52526Y-40148D02*
X52766Y-40148D01*
X52956Y-40148D02*
X53056Y-40148D01*
X53276Y-40148D02*
X53416Y-40148D01*
X49006Y-40158D02*
X49046Y-40158D01*
X49106Y-40158D02*
X49766Y-40158D01*
X50666Y-40158D02*
X50806Y-40158D01*
X50926Y-40158D02*
X51156Y-40158D01*
X52556Y-40158D02*
X52726Y-40158D01*
X49006Y-40168D02*
X49036Y-40168D01*
X49096Y-40168D02*
X49756Y-40168D01*
X50666Y-40168D02*
X50816Y-40168D01*
X50956Y-40168D02*
X51126Y-40168D01*
X49006Y-40178D02*
X49026Y-40178D01*
X49086Y-40178D02*
X49746Y-40178D01*
X50676Y-40178D02*
X50816Y-40178D01*
X49006Y-40188D02*
X49016Y-40188D01*
X49076Y-40188D02*
X49736Y-40188D01*
X49996Y-40188D02*
X50576Y-40188D01*
X50676Y-40188D02*
X50826Y-40188D01*
X49006Y-40198D02*
X49016Y-40198D01*
X49066Y-40198D02*
X49726Y-40198D01*
X49996Y-40198D02*
X50576Y-40198D01*
X50686Y-40198D02*
X50826Y-40198D01*
X49006Y-40208D02*
X49016Y-40208D01*
X49056Y-40208D02*
X49716Y-40208D01*
X49996Y-40208D02*
X50576Y-40208D01*
X50686Y-40208D02*
X50836Y-40208D01*
X49006Y-40218D02*
X49016Y-40218D01*
X49046Y-40218D02*
X49706Y-40218D01*
X49996Y-40218D02*
X50576Y-40218D01*
X50696Y-40218D02*
X50836Y-40218D01*
X49006Y-40228D02*
X49016Y-40228D01*
X49036Y-40228D02*
X49696Y-40228D01*
X49996Y-40228D02*
X50576Y-40228D01*
X50696Y-40228D02*
X50846Y-40228D01*
X49006Y-40238D02*
X49016Y-40238D01*
X49026Y-40238D02*
X49686Y-40238D01*
X49996Y-40238D02*
X50576Y-40238D01*
X50706Y-40238D02*
X50856Y-40238D01*
X49006Y-40248D02*
X49676Y-40248D01*
X49996Y-40248D02*
X50576Y-40248D01*
X50706Y-40248D02*
X50856Y-40248D01*
X49006Y-40258D02*
X49666Y-40258D01*
X49996Y-40258D02*
X50576Y-40258D01*
X50716Y-40258D02*
X50866Y-40258D01*
X49006Y-40268D02*
X49656Y-40268D01*
X49996Y-40268D02*
X50576Y-40268D01*
X50716Y-40268D02*
X50866Y-40268D01*
X49996Y-40278D02*
X50576Y-40278D01*
X50726Y-40278D02*
X50876Y-40278D01*
X50726Y-40288D02*
X50876Y-40288D01*
X50736Y-40298D02*
X50886Y-40298D01*
X50736Y-40308D02*
X50886Y-40308D01*
X50746Y-40318D02*
X50896Y-40318D01*
X50746Y-40328D02*
X50896Y-40328D01*
X50756Y-40338D02*
X50906Y-40338D01*
X50756Y-40348D02*
X50906Y-40348D01*
X50766Y-40358D02*
X50916Y-40358D01*
G54D17*
X48820Y-28680D02*
X47920Y-28680D01*
X47920Y-28680D02*
X47920Y-28180D01*
X47920Y-28180D02*
X48820Y-28180D01*
X48820Y-28180D02*
X48820Y-28680D01*
X40930Y-27450D02*
X40930Y-26550D01*
X40930Y-26550D02*
X41430Y-26550D01*
X41430Y-26550D02*
X41430Y-27450D01*
X41430Y-27450D02*
X40930Y-27450D01*
X40990Y-29740D02*
X39790Y-29740D01*
X39790Y-29740D02*
X39790Y-29440D01*
X39790Y-29440D02*
X40990Y-29440D01*
X40990Y-29440D02*
X40990Y-29740D01*
X39890Y-31420D02*
X39890Y-30520D01*
X39890Y-30520D02*
X40390Y-30520D01*
X40390Y-30520D02*
X40390Y-31420D01*
X40390Y-31420D02*
X39890Y-31420D01*
X41570Y-44960D02*
X41570Y-44060D01*
X41570Y-44060D02*
X42070Y-44060D01*
X42070Y-44060D02*
X42070Y-44960D01*
X42070Y-44960D02*
X41570Y-44960D01*
G54D14*
X46420Y-37980D02*
X46420Y-33980D01*
X47420Y-37980D02*
X47420Y-33980D01*
X47420Y-33980D02*
X46420Y-33980D01*
X46420Y-37980D02*
X47420Y-37980D01*
G54D17*
X65410Y-30160D02*
X65210Y-30460D01*
X65410Y-29460D02*
X65410Y-30485D01*
X65410Y-30485D02*
X64810Y-30485D01*
X64810Y-30485D02*
X64810Y-29460D01*
X64810Y-29460D02*
X65410Y-29460D01*
X63760Y-30490D02*
X63760Y-29590D01*
X63760Y-29590D02*
X64260Y-29590D01*
X64260Y-29590D02*
X64260Y-30490D01*
X64260Y-30490D02*
X63760Y-30490D01*
G54D10*
X73622Y-30638D02*
X73622Y-29566D01*
X73622Y-29566D02*
X75984Y-29566D01*
X75984Y-29566D02*
X75984Y-30638D01*
X75984Y-38149D02*
X75984Y-37078D01*
X73622Y-38149D02*
X73622Y-37078D01*
X73622Y-38149D02*
X75984Y-38149D01*
X71532Y-27157D02*
X73107Y-27157D01*
X71532Y-25582D02*
X73107Y-25582D01*
G54D17*
X72190Y-27690D02*
X72490Y-27890D01*
X71490Y-27690D02*
X72515Y-27690D01*
X72515Y-27690D02*
X72515Y-28290D01*
X72515Y-28290D02*
X71490Y-28290D01*
X71490Y-28290D02*
X71490Y-27690D01*
X72780Y-27270D02*
X73680Y-27270D01*
X73680Y-27270D02*
X73680Y-27770D01*
X73680Y-27770D02*
X72780Y-27770D01*
X72780Y-27770D02*
X72780Y-27270D01*
X73680Y-28440D02*
X72780Y-28440D01*
X72780Y-28440D02*
X72780Y-27940D01*
X72780Y-27940D02*
X73680Y-27940D01*
X73680Y-27940D02*
X73680Y-28440D01*
X72780Y-28540D02*
X73680Y-28540D01*
X73680Y-28540D02*
X73680Y-29040D01*
X73680Y-29040D02*
X72780Y-29040D01*
X72780Y-29040D02*
X72780Y-28540D01*
X54810Y-37560D02*
X54810Y-38460D01*
X54810Y-38460D02*
X54310Y-38460D01*
X54310Y-38460D02*
X54310Y-37560D01*
X54310Y-37560D02*
X54810Y-37560D01*
X48750Y-37860D02*
X47850Y-37860D01*
X47850Y-37860D02*
X47850Y-37360D01*
X47850Y-37360D02*
X48750Y-37360D01*
X48750Y-37360D02*
X48750Y-37860D01*
X57340Y-28770D02*
X57340Y-27870D01*
X57340Y-27870D02*
X57840Y-27870D01*
X57840Y-27870D02*
X57840Y-28770D01*
X57840Y-28770D02*
X57340Y-28770D01*
X59490Y-29140D02*
X59490Y-28240D01*
X59490Y-28240D02*
X59990Y-28240D01*
X59990Y-28240D02*
X59990Y-29140D01*
X59990Y-29140D02*
X59490Y-29140D01*
X61860Y-29250D02*
X61860Y-28350D01*
X61860Y-28350D02*
X62360Y-28350D01*
X62360Y-28350D02*
X62360Y-29250D01*
X62360Y-29250D02*
X61860Y-29250D01*
X58800Y-38820D02*
X58800Y-39720D01*
X58800Y-39720D02*
X58300Y-39720D01*
X58300Y-39720D02*
X58300Y-38820D01*
X58300Y-38820D02*
X58800Y-38820D01*
G54D11*
X59290Y-27140D02*
X59290Y-29120D01*
X59290Y-29120D02*
X58030Y-29120D01*
X58030Y-29120D02*
X58030Y-27140D01*
X58030Y-27140D02*
X59290Y-27140D01*
G54D17*
X64790Y-27990D02*
X64790Y-28890D01*
X64790Y-28890D02*
X65440Y-28890D01*
X66140Y-27990D02*
X66790Y-27990D01*
X66790Y-27990D02*
X66790Y-28890D01*
X66790Y-28890D02*
X66140Y-28890D01*
X65440Y-27990D02*
X64790Y-27990D01*
X60800Y-27040D02*
X60800Y-26140D01*
X60800Y-26140D02*
X61300Y-26140D01*
X61300Y-26140D02*
X61300Y-27040D01*
X61300Y-27040D02*
X60800Y-27040D01*
X50410Y-27630D02*
X50410Y-26730D01*
X50410Y-26730D02*
X50910Y-26730D01*
X50910Y-26730D02*
X50910Y-27630D01*
X50910Y-27630D02*
X50410Y-27630D01*
G54D20*
X59760Y-39670D02*
X59860Y-39670D01*
X59700Y-39680D02*
X59950Y-39680D01*
X59700Y-39690D02*
X59950Y-39690D01*
X59690Y-39700D02*
X59960Y-39700D01*
X59690Y-39710D02*
X59960Y-39710D01*
X59690Y-39720D02*
X59960Y-39720D01*
X59690Y-39730D02*
X59960Y-39730D01*
X59690Y-39740D02*
X59960Y-39740D01*
X59690Y-39750D02*
X59960Y-39750D01*
X59680Y-39760D02*
X59970Y-39760D01*
X59680Y-39770D02*
X59970Y-39770D01*
X59680Y-39780D02*
X59970Y-39780D01*
X59680Y-39790D02*
X59970Y-39790D01*
X59680Y-39800D02*
X59970Y-39800D01*
X59670Y-39810D02*
X59970Y-39810D01*
X59670Y-39820D02*
X59980Y-39820D01*
X59670Y-39830D02*
X59980Y-39830D01*
X59670Y-39840D02*
X59980Y-39840D01*
X59670Y-39850D02*
X59980Y-39850D01*
X59260Y-39860D02*
X59290Y-39860D01*
X59670Y-39860D02*
X59980Y-39860D01*
X60350Y-39860D02*
X60390Y-39860D01*
X59250Y-39870D02*
X59300Y-39870D01*
X59660Y-39870D02*
X59980Y-39870D01*
X60330Y-39870D02*
X60400Y-39870D01*
X59240Y-39880D02*
X59320Y-39880D01*
X59660Y-39880D02*
X59980Y-39880D01*
X60320Y-39880D02*
X60410Y-39880D01*
X59220Y-39890D02*
X59330Y-39890D01*
X59660Y-39890D02*
X59990Y-39890D01*
X60300Y-39890D02*
X60430Y-39890D01*
X59210Y-39900D02*
X59350Y-39900D01*
X59660Y-39900D02*
X59990Y-39900D01*
X60290Y-39900D02*
X60440Y-39900D01*
X59200Y-39910D02*
X59360Y-39910D01*
X59660Y-39910D02*
X59990Y-39910D01*
X60270Y-39910D02*
X60450Y-39910D01*
X59190Y-39920D02*
X59370Y-39920D01*
X59650Y-39920D02*
X59990Y-39920D01*
X60260Y-39920D02*
X60460Y-39920D01*
X59180Y-39930D02*
X59390Y-39930D01*
X59620Y-39930D02*
X60030Y-39930D01*
X60240Y-39930D02*
X60470Y-39930D01*
X59170Y-39940D02*
X59400Y-39940D01*
X59590Y-39940D02*
X60060Y-39940D01*
X60230Y-39940D02*
X60480Y-39940D01*
X59160Y-39950D02*
X59420Y-39950D01*
X59560Y-39950D02*
X60080Y-39950D01*
X60210Y-39950D02*
X60490Y-39950D01*
X59150Y-39960D02*
X59430Y-39960D01*
X59540Y-39960D02*
X60110Y-39960D01*
X60200Y-39960D02*
X60500Y-39960D01*
X59140Y-39970D02*
X59440Y-39970D01*
X59520Y-39970D02*
X60130Y-39970D01*
X60190Y-39970D02*
X60510Y-39970D01*
X59130Y-39980D02*
X59460Y-39980D01*
X59500Y-39980D02*
X60150Y-39980D01*
X60170Y-39980D02*
X60520Y-39980D01*
X59120Y-39990D02*
X59470Y-39990D01*
X59480Y-39990D02*
X60530Y-39990D01*
X59110Y-40000D02*
X60530Y-40000D01*
X59110Y-40010D02*
X60540Y-40010D01*
X59100Y-40020D02*
X60540Y-40020D01*
X59100Y-40030D02*
X60540Y-40030D01*
X59110Y-40040D02*
X60540Y-40040D01*
X59110Y-40050D02*
X60530Y-40050D01*
X59120Y-40060D02*
X60530Y-40060D01*
X59130Y-40070D02*
X60520Y-40070D01*
X59130Y-40080D02*
X60510Y-40080D01*
X59140Y-40090D02*
X60500Y-40090D01*
X59150Y-40100D02*
X60500Y-40100D01*
X59160Y-40110D02*
X60490Y-40110D01*
X59160Y-40120D02*
X60480Y-40120D01*
X59170Y-40130D02*
X60480Y-40130D01*
X59180Y-40140D02*
X60470Y-40140D01*
X59180Y-40150D02*
X60460Y-40150D01*
X59190Y-40160D02*
X60450Y-40160D01*
X59200Y-40170D02*
X60450Y-40170D01*
X59200Y-40180D02*
X60440Y-40180D01*
X59210Y-40190D02*
X60430Y-40190D01*
X59220Y-40200D02*
X60420Y-40200D01*
X59220Y-40210D02*
X60420Y-40210D01*
X59230Y-40220D02*
X60410Y-40220D01*
X59230Y-40230D02*
X60410Y-40230D01*
X59230Y-40240D02*
X60420Y-40240D01*
X59220Y-40250D02*
X60430Y-40250D01*
X59220Y-40260D02*
X60430Y-40260D01*
X59210Y-40270D02*
X60440Y-40270D01*
X59210Y-40280D02*
X60440Y-40280D01*
X59200Y-40290D02*
X60450Y-40290D01*
X59200Y-40300D02*
X60450Y-40300D01*
X59190Y-40310D02*
X60460Y-40310D01*
X59190Y-40320D02*
X60460Y-40320D01*
X59180Y-40330D02*
X60460Y-40330D01*
X59180Y-40340D02*
X59780Y-40340D01*
X59870Y-40340D02*
X60470Y-40340D01*
X59180Y-40350D02*
X59750Y-40350D01*
X59900Y-40350D02*
X60470Y-40350D01*
X59170Y-40360D02*
X59720Y-40360D01*
X59930Y-40360D02*
X60480Y-40360D01*
X59170Y-40370D02*
X59700Y-40370D01*
X59950Y-40370D02*
X60480Y-40370D01*
X59170Y-40380D02*
X59690Y-40380D01*
X59960Y-40380D02*
X60480Y-40380D01*
X59160Y-40390D02*
X59670Y-40390D01*
X59980Y-40390D02*
X60490Y-40390D01*
X59160Y-40400D02*
X59660Y-40400D01*
X59990Y-40400D02*
X60520Y-40400D01*
X59160Y-40410D02*
X59650Y-40410D01*
X60000Y-40410D02*
X60580Y-40410D01*
X59150Y-40420D02*
X59640Y-40420D01*
X60010Y-40420D02*
X60630Y-40420D01*
X59090Y-40430D02*
X59630Y-40430D01*
X60020Y-40430D02*
X60690Y-40430D01*
X59030Y-40440D02*
X59630Y-40440D01*
X60020Y-40440D02*
X60730Y-40440D01*
X58970Y-40450D02*
X59620Y-40450D01*
X60030Y-40450D02*
X60730Y-40450D01*
X58920Y-40460D02*
X59610Y-40460D01*
X60040Y-40460D02*
X60740Y-40460D01*
X58910Y-40470D02*
X59610Y-40470D01*
X60040Y-40470D02*
X60740Y-40470D01*
X58910Y-40480D02*
X59600Y-40480D01*
X60050Y-40480D02*
X60740Y-40480D01*
X58910Y-40490D02*
X59600Y-40490D01*
X60050Y-40490D02*
X60740Y-40490D01*
X58910Y-40500D02*
X59590Y-40500D01*
X60060Y-40500D02*
X60740Y-40500D01*
X58910Y-40510D02*
X59590Y-40510D01*
X60060Y-40510D02*
X60740Y-40510D01*
X58910Y-40520D02*
X59590Y-40520D01*
X60060Y-40520D02*
X60740Y-40520D01*
X58910Y-40530D02*
X59590Y-40530D01*
X60070Y-40530D02*
X60740Y-40530D01*
X58910Y-40540D02*
X59580Y-40540D01*
X60070Y-40540D02*
X60740Y-40540D01*
X58910Y-40550D02*
X59580Y-40550D01*
X60070Y-40550D02*
X60750Y-40550D01*
X58900Y-40560D02*
X59580Y-40560D01*
X60070Y-40560D02*
X60750Y-40560D01*
X58900Y-40570D02*
X59580Y-40570D01*
X60070Y-40570D02*
X60750Y-40570D01*
X58900Y-40580D02*
X59580Y-40580D01*
X60070Y-40580D02*
X60750Y-40580D01*
X58900Y-40590D02*
X59580Y-40590D01*
X60070Y-40590D02*
X60750Y-40590D01*
X58900Y-40600D02*
X59580Y-40600D01*
X60070Y-40600D02*
X60750Y-40600D01*
X58900Y-40610D02*
X59580Y-40610D01*
X60070Y-40610D02*
X60750Y-40610D01*
X58900Y-40620D02*
X59580Y-40620D01*
X60070Y-40620D02*
X60750Y-40620D01*
X58900Y-40630D02*
X59580Y-40630D01*
X60070Y-40630D02*
X60750Y-40630D01*
X58900Y-40640D02*
X59590Y-40640D01*
X60070Y-40640D02*
X60750Y-40640D01*
X58910Y-40650D02*
X59590Y-40650D01*
X60060Y-40650D02*
X60750Y-40650D01*
X58910Y-40660D02*
X59590Y-40660D01*
X60060Y-40660D02*
X60740Y-40660D01*
X58910Y-40670D02*
X59600Y-40670D01*
X60060Y-40670D02*
X60740Y-40670D01*
X58910Y-40680D02*
X59600Y-40680D01*
X60050Y-40680D02*
X60740Y-40680D01*
X58910Y-40690D02*
X59600Y-40690D01*
X60050Y-40690D02*
X60730Y-40690D01*
X58910Y-40700D02*
X59610Y-40700D01*
X60040Y-40700D02*
X60670Y-40700D01*
X58950Y-40710D02*
X59620Y-40710D01*
X60040Y-40710D02*
X60610Y-40710D01*
X59000Y-40720D02*
X59620Y-40720D01*
X60030Y-40720D02*
X60540Y-40720D01*
X59060Y-40730D02*
X59630Y-40730D01*
X60020Y-40730D02*
X60500Y-40730D01*
X59110Y-40740D02*
X59640Y-40740D01*
X60010Y-40740D02*
X60500Y-40740D01*
X59150Y-40750D02*
X59650Y-40750D01*
X60010Y-40750D02*
X60500Y-40750D01*
X59160Y-40760D02*
X59650Y-40760D01*
X60000Y-40760D02*
X60490Y-40760D01*
X59160Y-40770D02*
X59670Y-40770D01*
X59980Y-40770D02*
X60490Y-40770D01*
X59160Y-40780D02*
X59680Y-40780D01*
X59970Y-40780D02*
X60490Y-40780D01*
X59160Y-40790D02*
X59690Y-40790D01*
X59960Y-40790D02*
X60490Y-40790D01*
X59170Y-40800D02*
X59710Y-40800D01*
X59940Y-40800D02*
X60480Y-40800D01*
X59170Y-40810D02*
X59730Y-40810D01*
X59920Y-40810D02*
X60480Y-40810D01*
X59170Y-40820D02*
X59740Y-40820D01*
X59920Y-40820D02*
X60480Y-40820D01*
X59180Y-40830D02*
X59740Y-40830D01*
X59920Y-40830D02*
X60470Y-40830D01*
X59180Y-40840D02*
X59740Y-40840D01*
X59920Y-40840D02*
X60470Y-40840D01*
X59180Y-40850D02*
X59730Y-40850D01*
X59930Y-40850D02*
X60460Y-40850D01*
X59190Y-40860D02*
X59730Y-40860D01*
X59930Y-40860D02*
X60460Y-40860D01*
X59190Y-40870D02*
X59730Y-40870D01*
X59930Y-40870D02*
X60460Y-40870D01*
X59200Y-40880D02*
X59720Y-40880D01*
X59940Y-40880D02*
X60450Y-40880D01*
X59200Y-40890D02*
X59720Y-40890D01*
X59940Y-40890D02*
X60450Y-40890D01*
X59210Y-40900D02*
X59710Y-40900D01*
X59950Y-40900D02*
X60440Y-40900D01*
X59210Y-40910D02*
X59710Y-40910D01*
X59950Y-40910D02*
X60440Y-40910D01*
X59220Y-40920D02*
X59710Y-40920D01*
X59950Y-40920D02*
X60430Y-40920D01*
X59220Y-40930D02*
X59700Y-40930D01*
X59960Y-40930D02*
X60440Y-40930D01*
X59230Y-40940D02*
X59700Y-40940D01*
X59960Y-40940D02*
X60440Y-40940D01*
X59230Y-40950D02*
X59700Y-40950D01*
X59970Y-40950D02*
X60450Y-40950D01*
X59230Y-40960D02*
X59690Y-40960D01*
X59970Y-40960D02*
X60460Y-40960D01*
X59230Y-40970D02*
X59690Y-40970D01*
X59970Y-40970D02*
X60470Y-40970D01*
X59220Y-40980D02*
X59690Y-40980D01*
X59980Y-40980D02*
X60470Y-40980D01*
X59210Y-40990D02*
X59680Y-40990D01*
X59980Y-40990D02*
X60480Y-40990D01*
X59200Y-41000D02*
X59680Y-41000D01*
X59980Y-41000D02*
X60490Y-41000D01*
X59200Y-41010D02*
X59680Y-41010D01*
X59990Y-41010D02*
X60490Y-41010D01*
X59190Y-41020D02*
X59670Y-41020D01*
X59990Y-41020D02*
X60500Y-41020D01*
X59180Y-41030D02*
X59670Y-41030D01*
X60000Y-41030D02*
X60510Y-41030D01*
X59170Y-41040D02*
X59670Y-41040D01*
X60000Y-41040D02*
X60510Y-41040D01*
X59170Y-41050D02*
X59660Y-41050D01*
X60000Y-41050D02*
X60520Y-41050D01*
X59160Y-41060D02*
X59660Y-41060D01*
X60010Y-41060D02*
X60530Y-41060D01*
X59150Y-41070D02*
X59650Y-41070D01*
X60010Y-41070D02*
X60530Y-41070D01*
X59150Y-41080D02*
X59650Y-41080D01*
X60020Y-41080D02*
X60540Y-41080D01*
X59140Y-41090D02*
X59650Y-41090D01*
X60020Y-41090D02*
X60550Y-41090D01*
X59130Y-41100D02*
X59640Y-41100D01*
X60020Y-41100D02*
X60560Y-41100D01*
X59120Y-41110D02*
X59640Y-41110D01*
X60030Y-41110D02*
X60560Y-41110D01*
X59120Y-41120D02*
X59640Y-41120D01*
X60030Y-41120D02*
X60570Y-41120D01*
X59110Y-41130D02*
X59630Y-41130D01*
X60040Y-41130D02*
X60570Y-41130D01*
X59100Y-41140D02*
X59630Y-41140D01*
X60040Y-41140D02*
X60570Y-41140D01*
X59100Y-41150D02*
X59630Y-41150D01*
X60040Y-41150D02*
X60560Y-41150D01*
X59100Y-41160D02*
X59620Y-41160D01*
X60050Y-41160D02*
X60550Y-41160D01*
X59100Y-41170D02*
X59620Y-41170D01*
X60050Y-41170D02*
X60540Y-41170D01*
X59110Y-41180D02*
X59620Y-41180D01*
X60050Y-41180D02*
X60530Y-41180D01*
X59120Y-41190D02*
X59610Y-41190D01*
X60060Y-41190D02*
X60530Y-41190D01*
X59130Y-41200D02*
X59610Y-41200D01*
X60060Y-41200D02*
X60200Y-41200D01*
X60220Y-41200D02*
X60520Y-41200D01*
X59140Y-41210D02*
X59610Y-41210D01*
X60070Y-41210D02*
X60170Y-41210D01*
X60250Y-41210D02*
X60510Y-41210D01*
X59150Y-41220D02*
X59450Y-41220D01*
X59500Y-41220D02*
X59600Y-41220D01*
X60070Y-41220D02*
X60150Y-41220D01*
X60260Y-41220D02*
X60500Y-41220D01*
X59160Y-41230D02*
X59430Y-41230D01*
X59530Y-41230D02*
X59600Y-41230D01*
X60070Y-41230D02*
X60130Y-41230D01*
X60270Y-41230D02*
X60490Y-41230D01*
X59170Y-41240D02*
X59410Y-41240D01*
X59550Y-41240D02*
X59590Y-41240D01*
X60080Y-41240D02*
X60110Y-41240D01*
X60280Y-41240D02*
X60500Y-41240D01*
X59180Y-41250D02*
X59400Y-41250D01*
X59570Y-41250D02*
X59590Y-41250D01*
X60080Y-41250D02*
X60090Y-41250D01*
X60280Y-41250D02*
X60500Y-41250D01*
X59190Y-41260D02*
X59380Y-41260D01*
X60300Y-41260D02*
X60500Y-41260D01*
X59200Y-41270D02*
X59370Y-41270D01*
X60310Y-41270D02*
X60500Y-41270D01*
X59200Y-41280D02*
X59350Y-41280D01*
X60320Y-41280D02*
X60500Y-41280D01*
X59200Y-41290D02*
X59340Y-41290D01*
X60340Y-41290D02*
X60500Y-41290D01*
X59200Y-41300D02*
X59330Y-41300D01*
X60360Y-41300D02*
X60490Y-41300D01*
X59210Y-41310D02*
X59320Y-41310D01*
X60380Y-41310D02*
X60490Y-41310D01*
X59210Y-41320D02*
X59310Y-41320D01*
X60390Y-41320D02*
X60480Y-41320D01*
X59220Y-41330D02*
X59310Y-41330D01*
X60400Y-41330D02*
X60480Y-41330D01*
X59230Y-41340D02*
X59300Y-41340D01*
X60410Y-41340D02*
X60470Y-41340D01*
X59240Y-41350D02*
X59300Y-41350D01*
X60420Y-41350D02*
X60460Y-41350D01*
X59250Y-41360D02*
X59290Y-41360D01*
X60430Y-41360D02*
X60450Y-41360D01*
X59260Y-41370D02*
X59290Y-41370D01*
G54D17*
X70140Y-41850D02*
X71040Y-41850D01*
X71040Y-41850D02*
X71040Y-42350D01*
X71040Y-42350D02*
X70140Y-42350D01*
X70140Y-42350D02*
X70140Y-41850D01*
X73570Y-41850D02*
X74470Y-41850D01*
X74470Y-41850D02*
X74470Y-42350D01*
X74470Y-42350D02*
X73570Y-42350D01*
X73570Y-42350D02*
X73570Y-41850D01*
X76500Y-41850D02*
X77400Y-41850D01*
X77400Y-41850D02*
X77400Y-42350D01*
X77400Y-42350D02*
X76500Y-42350D01*
X76500Y-42350D02*
X76500Y-41850D01*
X71700Y-45380D02*
X71700Y-46280D01*
X71700Y-46280D02*
X71200Y-46280D01*
X71200Y-46280D02*
X71200Y-45380D01*
X71200Y-45380D02*
X71700Y-45380D01*
X69140Y-41850D02*
X70040Y-41850D01*
X70040Y-41850D02*
X70040Y-42350D01*
X70040Y-42350D02*
X69140Y-42350D01*
X69140Y-42350D02*
X69140Y-41850D01*
X72570Y-41850D02*
X73470Y-41850D01*
X73470Y-41850D02*
X73470Y-42350D01*
X73470Y-42350D02*
X72570Y-42350D01*
X72570Y-42350D02*
X72570Y-41850D01*
X77820Y-41700D02*
X76920Y-41700D01*
X76920Y-41700D02*
X76920Y-41200D01*
X76920Y-41200D02*
X77820Y-41200D01*
X77820Y-41200D02*
X77820Y-41700D01*
X70600Y-46280D02*
X70600Y-45380D01*
X70600Y-45380D02*
X71100Y-45380D01*
X71100Y-45380D02*
X71100Y-46280D01*
X71100Y-46280D02*
X70600Y-46280D01*
G54D21*
X71270Y-42540D02*
X71270Y-44900D01*
X71270Y-44900D02*
X68910Y-44900D01*
X68910Y-44900D02*
X68910Y-42540D01*
X68910Y-42540D02*
X71270Y-42540D01*
X74700Y-42540D02*
X74700Y-44900D01*
X74700Y-44900D02*
X72340Y-44900D01*
X72340Y-44900D02*
X72340Y-42540D01*
X72340Y-42540D02*
X74700Y-42540D01*
X78130Y-42540D02*
X78130Y-44900D01*
X78130Y-44900D02*
X75770Y-44900D01*
X75770Y-44900D02*
X75770Y-42540D01*
X75770Y-42540D02*
X78130Y-42540D01*
X74700Y-45240D02*
X74700Y-47600D01*
X74700Y-47600D02*
X72340Y-47600D01*
X72340Y-47600D02*
X72340Y-45240D01*
X72340Y-45240D02*
X74700Y-45240D01*
G54D12*
X40864Y-24820D02*
X40864Y-24420D01*
X41017Y-24420D01*
X41055Y-24440D01*
X41074Y-24459D01*
X41093Y-24497D01*
X41093Y-24554D01*
X41074Y-24592D01*
X41055Y-24611D01*
X41017Y-24630D01*
X40864Y-24630D01*
X41474Y-24820D02*
X41245Y-24820D01*
X41360Y-24820D02*
X41360Y-24420D01*
X41321Y-24478D01*
X41283Y-24516D01*
X41245Y-24535D01*
X49414Y-26760D02*
X49414Y-26360D01*
X49567Y-26360D01*
X49605Y-26380D01*
X49624Y-26399D01*
X49643Y-26437D01*
X49643Y-26494D01*
X49624Y-26532D01*
X49605Y-26551D01*
X49567Y-26570D01*
X49414Y-26570D01*
X49795Y-26399D02*
X49814Y-26380D01*
X49852Y-26360D01*
X49948Y-26360D01*
X49986Y-26380D01*
X50005Y-26399D01*
X50024Y-26437D01*
X50024Y-26475D01*
X50005Y-26532D01*
X49776Y-26760D01*
X50024Y-26760D01*
G54D11*
X54591Y-29435D02*
X54591Y-29678D01*
X54605Y-29707D01*
X54620Y-29721D01*
X54648Y-29735D01*
X54705Y-29735D01*
X54734Y-29721D01*
X54748Y-29707D01*
X54762Y-29678D01*
X54762Y-29435D01*
X55062Y-29735D02*
X54891Y-29735D01*
X54977Y-29735D02*
X54977Y-29435D01*
X54948Y-29478D01*
X54920Y-29507D01*
X54891Y-29521D01*
X58585Y-45845D02*
X58585Y-45788D01*
X58600Y-45759D01*
X58628Y-45731D01*
X58685Y-45716D01*
X58785Y-45716D01*
X58842Y-45731D01*
X58871Y-45759D01*
X58885Y-45788D01*
X58885Y-45845D01*
X58871Y-45873D01*
X58842Y-45902D01*
X58785Y-45916D01*
X58685Y-45916D01*
X58628Y-45902D01*
X58600Y-45873D01*
X58585Y-45845D01*
X58885Y-45445D02*
X58885Y-45588D01*
X58585Y-45588D01*
X58728Y-45345D02*
X58728Y-45245D01*
X58885Y-45202D02*
X58885Y-45345D01*
X58585Y-45345D01*
X58585Y-45202D01*
X58885Y-45073D02*
X58585Y-45073D01*
X58585Y-45002D01*
X58600Y-44959D01*
X58628Y-44931D01*
X58657Y-44916D01*
X58714Y-44902D01*
X58757Y-44902D01*
X58814Y-44916D01*
X58842Y-44931D01*
X58871Y-44959D01*
X58885Y-45002D01*
X58885Y-45073D01*
X58885Y-44545D02*
X58585Y-44545D01*
X58585Y-44473D01*
X58600Y-44431D01*
X58628Y-44402D01*
X58657Y-44388D01*
X58714Y-44373D01*
X58757Y-44373D01*
X58814Y-44388D01*
X58842Y-44402D01*
X58871Y-44431D01*
X58885Y-44473D01*
X58885Y-44545D01*
X58885Y-44245D02*
X58685Y-44245D01*
X58585Y-44245D02*
X58600Y-44259D01*
X58614Y-44245D01*
X58600Y-44231D01*
X58585Y-44245D01*
X58614Y-44245D01*
X58871Y-44116D02*
X58885Y-44088D01*
X58885Y-44031D01*
X58871Y-44002D01*
X58842Y-43988D01*
X58828Y-43988D01*
X58800Y-44002D01*
X58785Y-44031D01*
X58785Y-44073D01*
X58771Y-44102D01*
X58742Y-44116D01*
X58728Y-44116D01*
X58700Y-44102D01*
X58685Y-44073D01*
X58685Y-44031D01*
X58700Y-44002D01*
X58685Y-43859D02*
X58985Y-43859D01*
X58700Y-43859D02*
X58685Y-43831D01*
X58685Y-43773D01*
X58700Y-43745D01*
X58714Y-43731D01*
X58742Y-43716D01*
X58828Y-43716D01*
X58857Y-43731D01*
X58871Y-43745D01*
X58885Y-43773D01*
X58885Y-43831D01*
X58871Y-43859D01*
X58885Y-43545D02*
X58871Y-43573D01*
X58842Y-43588D01*
X58585Y-43588D01*
X58885Y-43302D02*
X58728Y-43302D01*
X58700Y-43316D01*
X58685Y-43345D01*
X58685Y-43402D01*
X58700Y-43431D01*
X58871Y-43302D02*
X58885Y-43331D01*
X58885Y-43402D01*
X58871Y-43431D01*
X58842Y-43445D01*
X58814Y-43445D01*
X58785Y-43431D01*
X58771Y-43402D01*
X58771Y-43331D01*
X58757Y-43302D01*
X58685Y-43188D02*
X58885Y-43116D01*
X58685Y-43045D02*
X58885Y-43116D01*
X58957Y-43145D01*
X58971Y-43159D01*
X58985Y-43188D01*
X40745Y-28944D02*
X40745Y-28772D01*
X41045Y-28858D02*
X40745Y-28858D01*
X41045Y-28658D02*
X41045Y-28601D01*
X41031Y-28572D01*
X41017Y-28558D01*
X40974Y-28529D01*
X40917Y-28515D01*
X40802Y-28515D01*
X40774Y-28529D01*
X40760Y-28544D01*
X40745Y-28572D01*
X40745Y-28629D01*
X40760Y-28658D01*
X40774Y-28672D01*
X40802Y-28687D01*
X40874Y-28687D01*
X40902Y-28672D01*
X40917Y-28658D01*
X40931Y-28629D01*
X40931Y-28572D01*
X40917Y-28544D01*
X40902Y-28529D01*
X40874Y-28515D01*
X40745Y-28330D02*
X40745Y-28301D01*
X40760Y-28272D01*
X40774Y-28258D01*
X40802Y-28244D01*
X40860Y-28230D01*
X40931Y-28230D01*
X40988Y-28244D01*
X41017Y-28258D01*
X41031Y-28272D01*
X41045Y-28301D01*
X41045Y-28330D01*
X41031Y-28358D01*
X41017Y-28372D01*
X40988Y-28387D01*
X40931Y-28401D01*
X40860Y-28401D01*
X40802Y-28387D01*
X40774Y-28372D01*
X40760Y-28358D01*
X40745Y-28330D01*
X40745Y-28044D02*
X40745Y-28015D01*
X40760Y-27987D01*
X40774Y-27972D01*
X40802Y-27958D01*
X40860Y-27944D01*
X40931Y-27944D01*
X40988Y-27958D01*
X41017Y-27972D01*
X41031Y-27987D01*
X41045Y-28015D01*
X41045Y-28044D01*
X41031Y-28072D01*
X41017Y-28087D01*
X40988Y-28101D01*
X40931Y-28115D01*
X40860Y-28115D01*
X40802Y-28101D01*
X40774Y-28087D01*
X40760Y-28072D01*
X40745Y-28044D01*
X41755Y-38085D02*
X41755Y-38328D01*
X41770Y-38357D01*
X41784Y-38371D01*
X41812Y-38385D01*
X41870Y-38385D01*
X41898Y-38371D01*
X41912Y-38357D01*
X41927Y-38328D01*
X41927Y-38085D01*
X42084Y-38385D02*
X42141Y-38385D01*
X42170Y-38371D01*
X42184Y-38357D01*
X42212Y-38314D01*
X42227Y-38257D01*
X42227Y-38142D01*
X42212Y-38114D01*
X42198Y-38100D01*
X42170Y-38085D01*
X42112Y-38085D01*
X42084Y-38100D01*
X42070Y-38114D01*
X42055Y-38142D01*
X42055Y-38214D01*
X42070Y-38242D01*
X42084Y-38257D01*
X42112Y-38271D01*
X42170Y-38271D01*
X42198Y-38257D01*
X42212Y-38242D01*
X42227Y-38214D01*
X42412Y-38085D02*
X42441Y-38085D01*
X42470Y-38100D01*
X42484Y-38114D01*
X42498Y-38142D01*
X42512Y-38200D01*
X42512Y-38271D01*
X42498Y-38328D01*
X42484Y-38357D01*
X42470Y-38371D01*
X42441Y-38385D01*
X42412Y-38385D01*
X42384Y-38371D01*
X42370Y-38357D01*
X42355Y-38328D01*
X42341Y-38271D01*
X42341Y-38200D01*
X42355Y-38142D01*
X42370Y-38114D01*
X42384Y-38100D01*
X42412Y-38085D01*
X42698Y-38085D02*
X42727Y-38085D01*
X42755Y-38100D01*
X42770Y-38114D01*
X42784Y-38142D01*
X42798Y-38200D01*
X42798Y-38271D01*
X42784Y-38328D01*
X42770Y-38357D01*
X42755Y-38371D01*
X42727Y-38385D01*
X42698Y-38385D01*
X42670Y-38371D01*
X42655Y-38357D01*
X42641Y-38328D01*
X42627Y-38271D01*
X42627Y-38200D01*
X42641Y-38142D01*
X42655Y-38114D01*
X42670Y-38100D01*
X42698Y-38085D01*
X41655Y-34874D02*
X41898Y-34874D01*
X41927Y-34860D01*
X41941Y-34845D01*
X41955Y-34817D01*
X41955Y-34760D01*
X41941Y-34731D01*
X41927Y-34717D01*
X41898Y-34702D01*
X41655Y-34702D01*
X41955Y-34545D02*
X41955Y-34488D01*
X41941Y-34459D01*
X41927Y-34445D01*
X41884Y-34417D01*
X41827Y-34402D01*
X41712Y-34402D01*
X41684Y-34417D01*
X41670Y-34431D01*
X41655Y-34459D01*
X41655Y-34517D01*
X41670Y-34545D01*
X41684Y-34559D01*
X41712Y-34574D01*
X41784Y-34574D01*
X41812Y-34559D01*
X41827Y-34545D01*
X41841Y-34517D01*
X41841Y-34459D01*
X41827Y-34431D01*
X41812Y-34417D01*
X41784Y-34402D01*
X41655Y-34217D02*
X41655Y-34188D01*
X41670Y-34160D01*
X41684Y-34145D01*
X41712Y-34131D01*
X41770Y-34117D01*
X41841Y-34117D01*
X41898Y-34131D01*
X41927Y-34145D01*
X41941Y-34160D01*
X41955Y-34188D01*
X41955Y-34217D01*
X41941Y-34245D01*
X41927Y-34260D01*
X41898Y-34274D01*
X41841Y-34288D01*
X41770Y-34288D01*
X41712Y-34274D01*
X41684Y-34260D01*
X41670Y-34245D01*
X41655Y-34217D01*
X41955Y-33831D02*
X41955Y-34002D01*
X41955Y-33917D02*
X41655Y-33917D01*
X41698Y-33945D01*
X41727Y-33974D01*
X41741Y-34002D01*
X41797Y-29695D02*
X41811Y-29710D01*
X41825Y-29752D01*
X41825Y-29781D01*
X41811Y-29824D01*
X41782Y-29852D01*
X41754Y-29867D01*
X41697Y-29881D01*
X41654Y-29881D01*
X41597Y-29867D01*
X41568Y-29852D01*
X41540Y-29824D01*
X41525Y-29781D01*
X41525Y-29752D01*
X41540Y-29710D01*
X41554Y-29695D01*
X41825Y-29552D02*
X41825Y-29495D01*
X41811Y-29467D01*
X41797Y-29452D01*
X41754Y-29424D01*
X41697Y-29410D01*
X41582Y-29410D01*
X41554Y-29424D01*
X41540Y-29438D01*
X41525Y-29467D01*
X41525Y-29524D01*
X41540Y-29552D01*
X41554Y-29567D01*
X41582Y-29581D01*
X41654Y-29581D01*
X41682Y-29567D01*
X41697Y-29552D01*
X41711Y-29524D01*
X41711Y-29467D01*
X41697Y-29438D01*
X41682Y-29424D01*
X41654Y-29410D01*
X41525Y-29224D02*
X41525Y-29195D01*
X41540Y-29167D01*
X41554Y-29152D01*
X41582Y-29138D01*
X41640Y-29124D01*
X41711Y-29124D01*
X41768Y-29138D01*
X41797Y-29152D01*
X41811Y-29167D01*
X41825Y-29195D01*
X41825Y-29224D01*
X41811Y-29252D01*
X41797Y-29267D01*
X41768Y-29281D01*
X41711Y-29295D01*
X41640Y-29295D01*
X41582Y-29281D01*
X41554Y-29267D01*
X41540Y-29252D01*
X41525Y-29224D01*
X41825Y-28838D02*
X41825Y-29010D01*
X41825Y-28924D02*
X41525Y-28924D01*
X41568Y-28952D01*
X41597Y-28981D01*
X41611Y-29010D01*
X48787Y-29695D02*
X48801Y-29710D01*
X48815Y-29752D01*
X48815Y-29781D01*
X48801Y-29824D01*
X48772Y-29852D01*
X48744Y-29867D01*
X48687Y-29881D01*
X48644Y-29881D01*
X48587Y-29867D01*
X48558Y-29852D01*
X48530Y-29824D01*
X48515Y-29781D01*
X48515Y-29752D01*
X48530Y-29710D01*
X48544Y-29695D01*
X48815Y-29552D02*
X48815Y-29495D01*
X48801Y-29467D01*
X48787Y-29452D01*
X48744Y-29424D01*
X48687Y-29410D01*
X48572Y-29410D01*
X48544Y-29424D01*
X48530Y-29438D01*
X48515Y-29467D01*
X48515Y-29524D01*
X48530Y-29552D01*
X48544Y-29567D01*
X48572Y-29581D01*
X48644Y-29581D01*
X48672Y-29567D01*
X48687Y-29552D01*
X48701Y-29524D01*
X48701Y-29467D01*
X48687Y-29438D01*
X48672Y-29424D01*
X48644Y-29410D01*
X48515Y-29224D02*
X48515Y-29195D01*
X48530Y-29167D01*
X48544Y-29152D01*
X48572Y-29138D01*
X48630Y-29124D01*
X48701Y-29124D01*
X48758Y-29138D01*
X48787Y-29152D01*
X48801Y-29167D01*
X48815Y-29195D01*
X48815Y-29224D01*
X48801Y-29252D01*
X48787Y-29267D01*
X48758Y-29281D01*
X48701Y-29295D01*
X48630Y-29295D01*
X48572Y-29281D01*
X48544Y-29267D01*
X48530Y-29252D01*
X48515Y-29224D01*
X48544Y-29010D02*
X48530Y-28995D01*
X48515Y-28967D01*
X48515Y-28895D01*
X48530Y-28867D01*
X48544Y-28852D01*
X48572Y-28838D01*
X48601Y-28838D01*
X48644Y-28852D01*
X48815Y-29024D01*
X48815Y-28838D01*
X48694Y-27635D02*
X48594Y-27492D01*
X48522Y-27635D02*
X48522Y-27335D01*
X48637Y-27335D01*
X48665Y-27350D01*
X48680Y-27364D01*
X48694Y-27392D01*
X48694Y-27435D01*
X48680Y-27464D01*
X48665Y-27478D01*
X48637Y-27492D01*
X48522Y-27492D01*
X48837Y-27635D02*
X48894Y-27635D01*
X48922Y-27621D01*
X48937Y-27607D01*
X48965Y-27564D01*
X48980Y-27507D01*
X48980Y-27392D01*
X48965Y-27364D01*
X48951Y-27350D01*
X48922Y-27335D01*
X48865Y-27335D01*
X48837Y-27350D01*
X48822Y-27364D01*
X48808Y-27392D01*
X48808Y-27464D01*
X48822Y-27492D01*
X48837Y-27507D01*
X48865Y-27521D01*
X48922Y-27521D01*
X48951Y-27507D01*
X48965Y-27492D01*
X48980Y-27464D01*
X49165Y-27335D02*
X49194Y-27335D01*
X49222Y-27350D01*
X49237Y-27364D01*
X49251Y-27392D01*
X49265Y-27450D01*
X49265Y-27521D01*
X49251Y-27578D01*
X49237Y-27607D01*
X49222Y-27621D01*
X49194Y-27635D01*
X49165Y-27635D01*
X49137Y-27621D01*
X49122Y-27607D01*
X49108Y-27578D01*
X49094Y-27521D01*
X49094Y-27450D01*
X49108Y-27392D01*
X49122Y-27364D01*
X49137Y-27350D01*
X49165Y-27335D01*
X49551Y-27635D02*
X49380Y-27635D01*
X49465Y-27635D02*
X49465Y-27335D01*
X49437Y-27378D01*
X49408Y-27407D01*
X49380Y-27421D01*
X41825Y-28255D02*
X41682Y-28355D01*
X41825Y-28427D02*
X41525Y-28427D01*
X41525Y-28312D01*
X41540Y-28284D01*
X41554Y-28270D01*
X41582Y-28255D01*
X41625Y-28255D01*
X41654Y-28270D01*
X41668Y-28284D01*
X41682Y-28312D01*
X41682Y-28427D01*
X41825Y-28112D02*
X41825Y-28055D01*
X41811Y-28027D01*
X41797Y-28012D01*
X41754Y-27984D01*
X41697Y-27970D01*
X41582Y-27970D01*
X41554Y-27984D01*
X41540Y-27998D01*
X41525Y-28027D01*
X41525Y-28084D01*
X41540Y-28112D01*
X41554Y-28127D01*
X41582Y-28141D01*
X41654Y-28141D01*
X41682Y-28127D01*
X41697Y-28112D01*
X41711Y-28084D01*
X41711Y-28027D01*
X41697Y-27998D01*
X41682Y-27984D01*
X41654Y-27970D01*
X41525Y-27784D02*
X41525Y-27755D01*
X41540Y-27727D01*
X41554Y-27712D01*
X41582Y-27698D01*
X41640Y-27684D01*
X41711Y-27684D01*
X41768Y-27698D01*
X41797Y-27712D01*
X41811Y-27727D01*
X41825Y-27755D01*
X41825Y-27784D01*
X41811Y-27812D01*
X41797Y-27827D01*
X41768Y-27841D01*
X41711Y-27855D01*
X41640Y-27855D01*
X41582Y-27841D01*
X41554Y-27827D01*
X41540Y-27812D01*
X41525Y-27784D01*
X41554Y-27570D02*
X41540Y-27555D01*
X41525Y-27527D01*
X41525Y-27455D01*
X41540Y-27427D01*
X41554Y-27412D01*
X41582Y-27398D01*
X41611Y-27398D01*
X41654Y-27412D01*
X41825Y-27584D01*
X41825Y-27398D01*
X41825Y-26835D02*
X41682Y-26935D01*
X41825Y-27007D02*
X41525Y-27007D01*
X41525Y-26892D01*
X41540Y-26864D01*
X41554Y-26850D01*
X41582Y-26835D01*
X41625Y-26835D01*
X41654Y-26850D01*
X41668Y-26864D01*
X41682Y-26892D01*
X41682Y-27007D01*
X41825Y-26692D02*
X41825Y-26635D01*
X41811Y-26607D01*
X41797Y-26592D01*
X41754Y-26564D01*
X41697Y-26550D01*
X41582Y-26550D01*
X41554Y-26564D01*
X41540Y-26578D01*
X41525Y-26607D01*
X41525Y-26664D01*
X41540Y-26692D01*
X41554Y-26707D01*
X41582Y-26721D01*
X41654Y-26721D01*
X41682Y-26707D01*
X41697Y-26692D01*
X41711Y-26664D01*
X41711Y-26607D01*
X41697Y-26578D01*
X41682Y-26564D01*
X41654Y-26550D01*
X41525Y-26364D02*
X41525Y-26335D01*
X41540Y-26307D01*
X41554Y-26292D01*
X41582Y-26278D01*
X41640Y-26264D01*
X41711Y-26264D01*
X41768Y-26278D01*
X41797Y-26292D01*
X41811Y-26307D01*
X41825Y-26335D01*
X41825Y-26364D01*
X41811Y-26392D01*
X41797Y-26407D01*
X41768Y-26421D01*
X41711Y-26435D01*
X41640Y-26435D01*
X41582Y-26421D01*
X41554Y-26407D01*
X41540Y-26392D01*
X41525Y-26364D01*
X41525Y-26164D02*
X41525Y-25978D01*
X41640Y-26078D01*
X41640Y-26035D01*
X41654Y-26007D01*
X41668Y-25992D01*
X41697Y-25978D01*
X41768Y-25978D01*
X41797Y-25992D01*
X41811Y-26007D01*
X41825Y-26035D01*
X41825Y-26121D01*
X41811Y-26150D01*
X41797Y-26164D01*
X48815Y-26975D02*
X48672Y-27075D01*
X48815Y-27147D02*
X48515Y-27147D01*
X48515Y-27032D01*
X48530Y-27004D01*
X48544Y-26990D01*
X48572Y-26975D01*
X48615Y-26975D01*
X48644Y-26990D01*
X48658Y-27004D01*
X48672Y-27032D01*
X48672Y-27147D01*
X48815Y-26832D02*
X48815Y-26775D01*
X48801Y-26747D01*
X48787Y-26732D01*
X48744Y-26704D01*
X48687Y-26690D01*
X48572Y-26690D01*
X48544Y-26704D01*
X48530Y-26718D01*
X48515Y-26747D01*
X48515Y-26804D01*
X48530Y-26832D01*
X48544Y-26847D01*
X48572Y-26861D01*
X48644Y-26861D01*
X48672Y-26847D01*
X48687Y-26832D01*
X48701Y-26804D01*
X48701Y-26747D01*
X48687Y-26718D01*
X48672Y-26704D01*
X48644Y-26690D01*
X48515Y-26504D02*
X48515Y-26475D01*
X48530Y-26447D01*
X48544Y-26432D01*
X48572Y-26418D01*
X48630Y-26404D01*
X48701Y-26404D01*
X48758Y-26418D01*
X48787Y-26432D01*
X48801Y-26447D01*
X48815Y-26475D01*
X48815Y-26504D01*
X48801Y-26532D01*
X48787Y-26547D01*
X48758Y-26561D01*
X48701Y-26575D01*
X48630Y-26575D01*
X48572Y-26561D01*
X48544Y-26547D01*
X48530Y-26532D01*
X48515Y-26504D01*
X48615Y-26147D02*
X48815Y-26147D01*
X48501Y-26218D02*
X48715Y-26290D01*
X48715Y-26104D01*
X45117Y-33955D02*
X45131Y-33970D01*
X45145Y-34012D01*
X45145Y-34041D01*
X45131Y-34084D01*
X45102Y-34112D01*
X45074Y-34127D01*
X45017Y-34141D01*
X44974Y-34141D01*
X44917Y-34127D01*
X44888Y-34112D01*
X44860Y-34084D01*
X44845Y-34041D01*
X44845Y-34012D01*
X44860Y-33970D01*
X44874Y-33955D01*
X45145Y-33812D02*
X45145Y-33755D01*
X45131Y-33727D01*
X45117Y-33712D01*
X45074Y-33684D01*
X45017Y-33670D01*
X44902Y-33670D01*
X44874Y-33684D01*
X44860Y-33698D01*
X44845Y-33727D01*
X44845Y-33784D01*
X44860Y-33812D01*
X44874Y-33827D01*
X44902Y-33841D01*
X44974Y-33841D01*
X45002Y-33827D01*
X45017Y-33812D01*
X45031Y-33784D01*
X45031Y-33727D01*
X45017Y-33698D01*
X45002Y-33684D01*
X44974Y-33670D01*
X44845Y-33484D02*
X44845Y-33455D01*
X44860Y-33427D01*
X44874Y-33412D01*
X44902Y-33398D01*
X44960Y-33384D01*
X45031Y-33384D01*
X45088Y-33398D01*
X45117Y-33412D01*
X45131Y-33427D01*
X45145Y-33455D01*
X45145Y-33484D01*
X45131Y-33512D01*
X45117Y-33527D01*
X45088Y-33541D01*
X45031Y-33555D01*
X44960Y-33555D01*
X44902Y-33541D01*
X44874Y-33527D01*
X44860Y-33512D01*
X44845Y-33484D01*
X44845Y-33284D02*
X44845Y-33098D01*
X44960Y-33198D01*
X44960Y-33155D01*
X44974Y-33127D01*
X44988Y-33112D01*
X45017Y-33098D01*
X45088Y-33098D01*
X45117Y-33112D01*
X45131Y-33127D01*
X45145Y-33155D01*
X45145Y-33241D01*
X45131Y-33270D01*
X45117Y-33284D01*
X43304Y-32797D02*
X43290Y-32811D01*
X43247Y-32825D01*
X43218Y-32825D01*
X43175Y-32811D01*
X43147Y-32782D01*
X43132Y-32754D01*
X43118Y-32697D01*
X43118Y-32654D01*
X43132Y-32597D01*
X43147Y-32568D01*
X43175Y-32540D01*
X43218Y-32525D01*
X43247Y-32525D01*
X43290Y-32540D01*
X43304Y-32554D01*
X43447Y-32825D02*
X43504Y-32825D01*
X43532Y-32811D01*
X43547Y-32797D01*
X43575Y-32754D01*
X43590Y-32697D01*
X43590Y-32582D01*
X43575Y-32554D01*
X43561Y-32540D01*
X43532Y-32525D01*
X43475Y-32525D01*
X43447Y-32540D01*
X43432Y-32554D01*
X43418Y-32582D01*
X43418Y-32654D01*
X43432Y-32682D01*
X43447Y-32697D01*
X43475Y-32711D01*
X43532Y-32711D01*
X43561Y-32697D01*
X43575Y-32682D01*
X43590Y-32654D01*
X43775Y-32525D02*
X43804Y-32525D01*
X43832Y-32540D01*
X43847Y-32554D01*
X43861Y-32582D01*
X43875Y-32640D01*
X43875Y-32711D01*
X43861Y-32768D01*
X43847Y-32797D01*
X43832Y-32811D01*
X43804Y-32825D01*
X43775Y-32825D01*
X43747Y-32811D01*
X43732Y-32797D01*
X43718Y-32768D01*
X43704Y-32711D01*
X43704Y-32640D01*
X43718Y-32582D01*
X43732Y-32554D01*
X43747Y-32540D01*
X43775Y-32525D01*
X44132Y-32625D02*
X44132Y-32825D01*
X44061Y-32511D02*
X43990Y-32725D01*
X44175Y-32725D01*
X46514Y-31955D02*
X46371Y-31955D01*
X46371Y-31655D01*
X46628Y-31955D02*
X46685Y-31955D01*
X46714Y-31941D01*
X46728Y-31927D01*
X46757Y-31884D01*
X46771Y-31827D01*
X46771Y-31712D01*
X46757Y-31684D01*
X46742Y-31670D01*
X46714Y-31655D01*
X46657Y-31655D01*
X46628Y-31670D01*
X46614Y-31684D01*
X46600Y-31712D01*
X46600Y-31784D01*
X46614Y-31812D01*
X46628Y-31827D01*
X46657Y-31841D01*
X46714Y-31841D01*
X46742Y-31827D01*
X46757Y-31812D01*
X46771Y-31784D01*
X46957Y-31655D02*
X46985Y-31655D01*
X47014Y-31670D01*
X47028Y-31684D01*
X47042Y-31712D01*
X47057Y-31770D01*
X47057Y-31841D01*
X47042Y-31898D01*
X47028Y-31927D01*
X47014Y-31941D01*
X46985Y-31955D01*
X46957Y-31955D01*
X46928Y-31941D01*
X46914Y-31927D01*
X46900Y-31898D01*
X46885Y-31841D01*
X46885Y-31770D01*
X46900Y-31712D01*
X46914Y-31684D01*
X46928Y-31670D01*
X46957Y-31655D01*
X47342Y-31955D02*
X47171Y-31955D01*
X47257Y-31955D02*
X47257Y-31655D01*
X47228Y-31698D01*
X47200Y-31727D01*
X47171Y-31741D01*
X40214Y-34675D02*
X40114Y-34532D01*
X40042Y-34675D02*
X40042Y-34375D01*
X40157Y-34375D01*
X40185Y-34390D01*
X40200Y-34404D01*
X40214Y-34432D01*
X40214Y-34475D01*
X40200Y-34504D01*
X40185Y-34518D01*
X40157Y-34532D01*
X40042Y-34532D01*
X40357Y-34675D02*
X40414Y-34675D01*
X40442Y-34661D01*
X40457Y-34647D01*
X40485Y-34604D01*
X40500Y-34547D01*
X40500Y-34432D01*
X40485Y-34404D01*
X40471Y-34390D01*
X40442Y-34375D01*
X40385Y-34375D01*
X40357Y-34390D01*
X40342Y-34404D01*
X40328Y-34432D01*
X40328Y-34504D01*
X40342Y-34532D01*
X40357Y-34547D01*
X40385Y-34561D01*
X40442Y-34561D01*
X40471Y-34547D01*
X40485Y-34532D01*
X40500Y-34504D01*
X40685Y-34375D02*
X40714Y-34375D01*
X40742Y-34390D01*
X40757Y-34404D01*
X40771Y-34432D01*
X40785Y-34490D01*
X40785Y-34561D01*
X40771Y-34618D01*
X40757Y-34647D01*
X40742Y-34661D01*
X40714Y-34675D01*
X40685Y-34675D01*
X40657Y-34661D01*
X40642Y-34647D01*
X40628Y-34618D01*
X40614Y-34561D01*
X40614Y-34490D01*
X40628Y-34432D01*
X40642Y-34404D01*
X40657Y-34390D01*
X40685Y-34375D01*
X41057Y-34375D02*
X40914Y-34375D01*
X40900Y-34518D01*
X40914Y-34504D01*
X40942Y-34490D01*
X41014Y-34490D01*
X41042Y-34504D01*
X41057Y-34518D01*
X41071Y-34547D01*
X41071Y-34618D01*
X41057Y-34647D01*
X41042Y-34661D01*
X41014Y-34675D01*
X40942Y-34675D01*
X40914Y-34661D01*
X40900Y-34647D01*
X46775Y-33595D02*
X46632Y-33695D01*
X46775Y-33767D02*
X46475Y-33767D01*
X46475Y-33652D01*
X46490Y-33624D01*
X46504Y-33610D01*
X46532Y-33595D01*
X46575Y-33595D01*
X46604Y-33610D01*
X46618Y-33624D01*
X46632Y-33652D01*
X46632Y-33767D01*
X46775Y-33452D02*
X46775Y-33395D01*
X46761Y-33367D01*
X46747Y-33352D01*
X46704Y-33324D01*
X46647Y-33310D01*
X46532Y-33310D01*
X46504Y-33324D01*
X46490Y-33338D01*
X46475Y-33367D01*
X46475Y-33424D01*
X46490Y-33452D01*
X46504Y-33467D01*
X46532Y-33481D01*
X46604Y-33481D01*
X46632Y-33467D01*
X46647Y-33452D01*
X46661Y-33424D01*
X46661Y-33367D01*
X46647Y-33338D01*
X46632Y-33324D01*
X46604Y-33310D01*
X46475Y-33124D02*
X46475Y-33095D01*
X46490Y-33067D01*
X46504Y-33052D01*
X46532Y-33038D01*
X46590Y-33024D01*
X46661Y-33024D01*
X46718Y-33038D01*
X46747Y-33052D01*
X46761Y-33067D01*
X46775Y-33095D01*
X46775Y-33124D01*
X46761Y-33152D01*
X46747Y-33167D01*
X46718Y-33181D01*
X46661Y-33195D01*
X46590Y-33195D01*
X46532Y-33181D01*
X46504Y-33167D01*
X46490Y-33152D01*
X46475Y-33124D01*
X46475Y-32767D02*
X46475Y-32824D01*
X46490Y-32852D01*
X46504Y-32867D01*
X46547Y-32895D01*
X46604Y-32910D01*
X46718Y-32910D01*
X46747Y-32895D01*
X46761Y-32881D01*
X46775Y-32852D01*
X46775Y-32795D01*
X46761Y-32767D01*
X46747Y-32752D01*
X46718Y-32738D01*
X46647Y-32738D01*
X46618Y-32752D01*
X46604Y-32767D01*
X46590Y-32795D01*
X46590Y-32852D01*
X46604Y-32881D01*
X46618Y-32895D01*
X46647Y-32910D01*
X43094Y-32117D02*
X43080Y-32131D01*
X43037Y-32145D01*
X43008Y-32145D01*
X42965Y-32131D01*
X42937Y-32102D01*
X42922Y-32074D01*
X42908Y-32017D01*
X42908Y-31974D01*
X42922Y-31917D01*
X42937Y-31888D01*
X42965Y-31860D01*
X43008Y-31845D01*
X43037Y-31845D01*
X43080Y-31860D01*
X43094Y-31874D01*
X43237Y-32145D02*
X43294Y-32145D01*
X43322Y-32131D01*
X43337Y-32117D01*
X43365Y-32074D01*
X43380Y-32017D01*
X43380Y-31902D01*
X43365Y-31874D01*
X43351Y-31860D01*
X43322Y-31845D01*
X43265Y-31845D01*
X43237Y-31860D01*
X43222Y-31874D01*
X43208Y-31902D01*
X43208Y-31974D01*
X43222Y-32002D01*
X43237Y-32017D01*
X43265Y-32031D01*
X43322Y-32031D01*
X43351Y-32017D01*
X43365Y-32002D01*
X43380Y-31974D01*
X43665Y-32145D02*
X43494Y-32145D01*
X43580Y-32145D02*
X43580Y-31845D01*
X43551Y-31888D01*
X43522Y-31917D01*
X43494Y-31931D01*
X43765Y-31845D02*
X43951Y-31845D01*
X43851Y-31960D01*
X43894Y-31960D01*
X43922Y-31974D01*
X43937Y-31988D01*
X43951Y-32017D01*
X43951Y-32088D01*
X43937Y-32117D01*
X43922Y-32131D01*
X43894Y-32145D01*
X43808Y-32145D01*
X43780Y-32131D01*
X43765Y-32117D01*
X45324Y-31447D02*
X45310Y-31461D01*
X45267Y-31475D01*
X45238Y-31475D01*
X45195Y-31461D01*
X45167Y-31432D01*
X45152Y-31404D01*
X45138Y-31347D01*
X45138Y-31304D01*
X45152Y-31247D01*
X45167Y-31218D01*
X45195Y-31190D01*
X45238Y-31175D01*
X45267Y-31175D01*
X45310Y-31190D01*
X45324Y-31204D01*
X45467Y-31475D02*
X45524Y-31475D01*
X45552Y-31461D01*
X45567Y-31447D01*
X45595Y-31404D01*
X45610Y-31347D01*
X45610Y-31232D01*
X45595Y-31204D01*
X45581Y-31190D01*
X45552Y-31175D01*
X45495Y-31175D01*
X45467Y-31190D01*
X45452Y-31204D01*
X45438Y-31232D01*
X45438Y-31304D01*
X45452Y-31332D01*
X45467Y-31347D01*
X45495Y-31361D01*
X45552Y-31361D01*
X45581Y-31347D01*
X45595Y-31332D01*
X45610Y-31304D01*
X45895Y-31475D02*
X45724Y-31475D01*
X45810Y-31475D02*
X45810Y-31175D01*
X45781Y-31218D01*
X45752Y-31247D01*
X45724Y-31261D01*
X46181Y-31475D02*
X46010Y-31475D01*
X46095Y-31475D02*
X46095Y-31175D01*
X46067Y-31218D01*
X46038Y-31247D01*
X46010Y-31261D01*
X42125Y-32768D02*
X42425Y-32568D01*
X42125Y-32568D02*
X42425Y-32768D01*
X42425Y-32440D02*
X42425Y-32382D01*
X42411Y-32354D01*
X42397Y-32340D01*
X42354Y-32311D01*
X42297Y-32297D01*
X42182Y-32297D01*
X42154Y-32311D01*
X42140Y-32325D01*
X42125Y-32354D01*
X42125Y-32411D01*
X42140Y-32440D01*
X42154Y-32454D01*
X42182Y-32468D01*
X42254Y-32468D01*
X42282Y-32454D01*
X42297Y-32440D01*
X42311Y-32411D01*
X42311Y-32354D01*
X42297Y-32325D01*
X42282Y-32311D01*
X42254Y-32297D01*
X42125Y-32111D02*
X42125Y-32082D01*
X42140Y-32054D01*
X42154Y-32040D01*
X42182Y-32025D01*
X42240Y-32011D01*
X42311Y-32011D01*
X42368Y-32025D01*
X42397Y-32040D01*
X42411Y-32054D01*
X42425Y-32082D01*
X42425Y-32111D01*
X42411Y-32140D01*
X42397Y-32154D01*
X42368Y-32168D01*
X42311Y-32182D01*
X42240Y-32182D01*
X42182Y-32168D01*
X42154Y-32154D01*
X42140Y-32140D01*
X42125Y-32111D01*
X42125Y-31825D02*
X42125Y-31797D01*
X42140Y-31768D01*
X42154Y-31754D01*
X42182Y-31740D01*
X42240Y-31725D01*
X42311Y-31725D01*
X42368Y-31740D01*
X42397Y-31754D01*
X42411Y-31768D01*
X42425Y-31797D01*
X42425Y-31825D01*
X42411Y-31854D01*
X42397Y-31868D01*
X42368Y-31882D01*
X42311Y-31897D01*
X42240Y-31897D01*
X42182Y-31882D01*
X42154Y-31868D01*
X42140Y-31854D01*
X42125Y-31825D01*
G54D12*
X48026Y-33607D02*
X48430Y-33607D01*
X48478Y-33583D01*
X48502Y-33559D01*
X48526Y-33511D01*
X48526Y-33416D01*
X48502Y-33369D01*
X48478Y-33345D01*
X48430Y-33321D01*
X48026Y-33321D01*
X48526Y-32821D02*
X48526Y-33107D01*
X48526Y-32964D02*
X48026Y-32964D01*
X48097Y-33011D01*
X48145Y-33059D01*
X48169Y-33107D01*
X48026Y-32511D02*
X48026Y-32464D01*
X48050Y-32416D01*
X48073Y-32392D01*
X48121Y-32369D01*
X48216Y-32345D01*
X48335Y-32345D01*
X48430Y-32369D01*
X48478Y-32392D01*
X48502Y-32416D01*
X48526Y-32464D01*
X48526Y-32511D01*
X48502Y-32559D01*
X48478Y-32583D01*
X48430Y-32607D01*
X48335Y-32630D01*
X48216Y-32630D01*
X48121Y-32607D01*
X48073Y-32583D01*
X48050Y-32559D01*
X48026Y-32511D01*
X48526Y-31869D02*
X48526Y-32154D01*
X48526Y-32011D02*
X48026Y-32011D01*
X48097Y-32059D01*
X48145Y-32107D01*
X48169Y-32154D01*
G54D11*
X52824Y-47797D02*
X52810Y-47811D01*
X52767Y-47825D01*
X52738Y-47825D01*
X52695Y-47811D01*
X52667Y-47782D01*
X52652Y-47754D01*
X52638Y-47697D01*
X52638Y-47654D01*
X52652Y-47597D01*
X52667Y-47568D01*
X52695Y-47540D01*
X52738Y-47525D01*
X52767Y-47525D01*
X52810Y-47540D01*
X52824Y-47554D01*
X53110Y-47825D02*
X52938Y-47825D01*
X53024Y-47825D02*
X53024Y-47525D01*
X52995Y-47568D01*
X52967Y-47597D01*
X52938Y-47611D01*
X53295Y-47525D02*
X53324Y-47525D01*
X53352Y-47540D01*
X53367Y-47554D01*
X53381Y-47582D01*
X53395Y-47640D01*
X53395Y-47711D01*
X53381Y-47768D01*
X53367Y-47797D01*
X53352Y-47811D01*
X53324Y-47825D01*
X53295Y-47825D01*
X53267Y-47811D01*
X53252Y-47797D01*
X53238Y-47768D01*
X53224Y-47711D01*
X53224Y-47640D01*
X53238Y-47582D01*
X53252Y-47554D01*
X53267Y-47540D01*
X53295Y-47525D01*
X53495Y-47525D02*
X53681Y-47525D01*
X53581Y-47640D01*
X53624Y-47640D01*
X53652Y-47654D01*
X53667Y-47668D01*
X53681Y-47697D01*
X53681Y-47768D01*
X53667Y-47797D01*
X53652Y-47811D01*
X53624Y-47825D01*
X53538Y-47825D01*
X53510Y-47811D01*
X53495Y-47797D01*
X54764Y-47797D02*
X54750Y-47811D01*
X54707Y-47825D01*
X54678Y-47825D01*
X54635Y-47811D01*
X54607Y-47782D01*
X54592Y-47754D01*
X54578Y-47697D01*
X54578Y-47654D01*
X54592Y-47597D01*
X54607Y-47568D01*
X54635Y-47540D01*
X54678Y-47525D01*
X54707Y-47525D01*
X54750Y-47540D01*
X54764Y-47554D01*
X55050Y-47825D02*
X54878Y-47825D01*
X54964Y-47825D02*
X54964Y-47525D01*
X54935Y-47568D01*
X54907Y-47597D01*
X54878Y-47611D01*
X55235Y-47525D02*
X55264Y-47525D01*
X55292Y-47540D01*
X55307Y-47554D01*
X55321Y-47582D01*
X55335Y-47640D01*
X55335Y-47711D01*
X55321Y-47768D01*
X55307Y-47797D01*
X55292Y-47811D01*
X55264Y-47825D01*
X55235Y-47825D01*
X55207Y-47811D01*
X55192Y-47797D01*
X55178Y-47768D01*
X55164Y-47711D01*
X55164Y-47640D01*
X55178Y-47582D01*
X55192Y-47554D01*
X55207Y-47540D01*
X55235Y-47525D01*
X55592Y-47625D02*
X55592Y-47825D01*
X55521Y-47511D02*
X55450Y-47725D01*
X55635Y-47725D01*
X52694Y-41497D02*
X52680Y-41511D01*
X52637Y-41525D01*
X52608Y-41525D01*
X52565Y-41511D01*
X52537Y-41482D01*
X52522Y-41454D01*
X52508Y-41397D01*
X52508Y-41354D01*
X52522Y-41297D01*
X52537Y-41268D01*
X52565Y-41240D01*
X52608Y-41225D01*
X52637Y-41225D01*
X52680Y-41240D01*
X52694Y-41254D01*
X52980Y-41525D02*
X52808Y-41525D01*
X52894Y-41525D02*
X52894Y-41225D01*
X52865Y-41268D01*
X52837Y-41297D01*
X52808Y-41311D01*
X53165Y-41225D02*
X53194Y-41225D01*
X53222Y-41240D01*
X53237Y-41254D01*
X53251Y-41282D01*
X53265Y-41340D01*
X53265Y-41411D01*
X53251Y-41468D01*
X53237Y-41497D01*
X53222Y-41511D01*
X53194Y-41525D01*
X53165Y-41525D01*
X53137Y-41511D01*
X53122Y-41497D01*
X53108Y-41468D01*
X53094Y-41411D01*
X53094Y-41340D01*
X53108Y-41282D01*
X53122Y-41254D01*
X53137Y-41240D01*
X53165Y-41225D01*
X53537Y-41225D02*
X53394Y-41225D01*
X53380Y-41368D01*
X53394Y-41354D01*
X53422Y-41340D01*
X53494Y-41340D01*
X53522Y-41354D01*
X53537Y-41368D01*
X53551Y-41397D01*
X53551Y-41468D01*
X53537Y-41497D01*
X53522Y-41511D01*
X53494Y-41525D01*
X53422Y-41525D01*
X53394Y-41511D01*
X53380Y-41497D01*
X60679Y-42860D02*
X60579Y-42717D01*
X60507Y-42860D02*
X60507Y-42560D01*
X60622Y-42560D01*
X60650Y-42575D01*
X60665Y-42589D01*
X60679Y-42617D01*
X60679Y-42660D01*
X60665Y-42689D01*
X60650Y-42703D01*
X60622Y-42717D01*
X60507Y-42717D01*
X60965Y-42860D02*
X60793Y-42860D01*
X60879Y-42860D02*
X60879Y-42560D01*
X60850Y-42603D01*
X60822Y-42632D01*
X60793Y-42646D01*
X61065Y-42560D02*
X61250Y-42560D01*
X61150Y-42675D01*
X61193Y-42675D01*
X61222Y-42689D01*
X61236Y-42703D01*
X61250Y-42732D01*
X61250Y-42803D01*
X61236Y-42832D01*
X61222Y-42846D01*
X61193Y-42860D01*
X61107Y-42860D01*
X61079Y-42846D01*
X61065Y-42832D01*
X61436Y-42560D02*
X61465Y-42560D01*
X61493Y-42575D01*
X61507Y-42589D01*
X61522Y-42617D01*
X61536Y-42675D01*
X61536Y-42746D01*
X61522Y-42803D01*
X61507Y-42832D01*
X61493Y-42846D01*
X61465Y-42860D01*
X61436Y-42860D01*
X61407Y-42846D01*
X61393Y-42832D01*
X61379Y-42803D01*
X61365Y-42746D01*
X61365Y-42675D01*
X61379Y-42617D01*
X61393Y-42589D01*
X61407Y-42575D01*
X61436Y-42560D01*
X61949Y-42860D02*
X61849Y-42717D01*
X61777Y-42860D02*
X61777Y-42560D01*
X61892Y-42560D01*
X61920Y-42575D01*
X61935Y-42589D01*
X61949Y-42617D01*
X61949Y-42660D01*
X61935Y-42689D01*
X61920Y-42703D01*
X61892Y-42717D01*
X61777Y-42717D01*
X62235Y-42860D02*
X62063Y-42860D01*
X62149Y-42860D02*
X62149Y-42560D01*
X62120Y-42603D01*
X62092Y-42632D01*
X62063Y-42646D01*
X62335Y-42560D02*
X62520Y-42560D01*
X62420Y-42675D01*
X62463Y-42675D01*
X62492Y-42689D01*
X62506Y-42703D01*
X62520Y-42732D01*
X62520Y-42803D01*
X62506Y-42832D01*
X62492Y-42846D01*
X62463Y-42860D01*
X62377Y-42860D01*
X62349Y-42846D01*
X62335Y-42832D01*
X62806Y-42860D02*
X62635Y-42860D01*
X62720Y-42860D02*
X62720Y-42560D01*
X62692Y-42603D01*
X62663Y-42632D01*
X62635Y-42646D01*
X54044Y-41525D02*
X53944Y-41382D01*
X53872Y-41525D02*
X53872Y-41225D01*
X53987Y-41225D01*
X54015Y-41240D01*
X54030Y-41254D01*
X54044Y-41282D01*
X54044Y-41325D01*
X54030Y-41354D01*
X54015Y-41368D01*
X53987Y-41382D01*
X53872Y-41382D01*
X54330Y-41525D02*
X54158Y-41525D01*
X54244Y-41525D02*
X54244Y-41225D01*
X54215Y-41268D01*
X54187Y-41297D01*
X54158Y-41311D01*
X54430Y-41225D02*
X54615Y-41225D01*
X54515Y-41340D01*
X54558Y-41340D01*
X54587Y-41354D01*
X54601Y-41368D01*
X54615Y-41397D01*
X54615Y-41468D01*
X54601Y-41497D01*
X54587Y-41511D01*
X54558Y-41525D01*
X54472Y-41525D01*
X54444Y-41511D01*
X54430Y-41497D01*
X54730Y-41254D02*
X54744Y-41240D01*
X54772Y-41225D01*
X54844Y-41225D01*
X54872Y-41240D01*
X54887Y-41254D01*
X54901Y-41282D01*
X54901Y-41311D01*
X54887Y-41354D01*
X54715Y-41525D01*
X54901Y-41525D01*
X61837Y-44949D02*
X62080Y-44949D01*
X62109Y-44935D01*
X62123Y-44920D01*
X62137Y-44892D01*
X62137Y-44835D01*
X62123Y-44806D01*
X62109Y-44792D01*
X62080Y-44777D01*
X61837Y-44777D01*
X62137Y-44477D02*
X62137Y-44649D01*
X62137Y-44563D02*
X61837Y-44563D01*
X61880Y-44592D01*
X61909Y-44620D01*
X61923Y-44649D01*
X61837Y-44292D02*
X61837Y-44263D01*
X61852Y-44235D01*
X61866Y-44220D01*
X61894Y-44206D01*
X61952Y-44192D01*
X62023Y-44192D01*
X62080Y-44206D01*
X62109Y-44220D01*
X62123Y-44235D01*
X62137Y-44263D01*
X62137Y-44292D01*
X62123Y-44320D01*
X62109Y-44335D01*
X62080Y-44349D01*
X62023Y-44363D01*
X61952Y-44363D01*
X61894Y-44349D01*
X61866Y-44335D01*
X61852Y-44320D01*
X61837Y-44292D01*
X61866Y-44077D02*
X61852Y-44063D01*
X61837Y-44035D01*
X61837Y-43963D01*
X61852Y-43935D01*
X61866Y-43920D01*
X61894Y-43906D01*
X61923Y-43906D01*
X61966Y-43920D01*
X62137Y-44092D01*
X62137Y-43906D01*
G54D17*
X60879Y-47250D02*
X60736Y-47250D01*
X60736Y-46950D01*
X61136Y-47250D02*
X60965Y-47250D01*
X61050Y-47250D02*
X61050Y-46950D01*
X61022Y-46993D01*
X60993Y-47022D01*
X60965Y-47036D01*
X61322Y-46950D02*
X61350Y-46950D01*
X61379Y-46965D01*
X61393Y-46979D01*
X61407Y-47007D01*
X61422Y-47065D01*
X61422Y-47136D01*
X61407Y-47193D01*
X61393Y-47222D01*
X61379Y-47236D01*
X61350Y-47250D01*
X61322Y-47250D01*
X61293Y-47236D01*
X61279Y-47222D01*
X61265Y-47193D01*
X61250Y-47136D01*
X61250Y-47065D01*
X61265Y-47007D01*
X61279Y-46979D01*
X61293Y-46965D01*
X61322Y-46950D01*
X61707Y-47250D02*
X61536Y-47250D01*
X61622Y-47250D02*
X61622Y-46950D01*
X61593Y-46993D01*
X61565Y-47022D01*
X61536Y-47036D01*
G54D11*
X42655Y-47015D02*
X42655Y-47258D01*
X42670Y-47287D01*
X42684Y-47301D01*
X42712Y-47315D01*
X42770Y-47315D01*
X42798Y-47301D01*
X42812Y-47287D01*
X42827Y-47258D01*
X42827Y-47015D01*
X42984Y-47315D02*
X43041Y-47315D01*
X43070Y-47301D01*
X43084Y-47287D01*
X43112Y-47244D01*
X43127Y-47187D01*
X43127Y-47072D01*
X43112Y-47044D01*
X43098Y-47030D01*
X43070Y-47015D01*
X43012Y-47015D01*
X42984Y-47030D01*
X42970Y-47044D01*
X42955Y-47072D01*
X42955Y-47144D01*
X42970Y-47172D01*
X42984Y-47187D01*
X43012Y-47201D01*
X43070Y-47201D01*
X43098Y-47187D01*
X43112Y-47172D01*
X43127Y-47144D01*
X43312Y-47015D02*
X43341Y-47015D01*
X43370Y-47030D01*
X43384Y-47044D01*
X43398Y-47072D01*
X43412Y-47130D01*
X43412Y-47201D01*
X43398Y-47258D01*
X43384Y-47287D01*
X43370Y-47301D01*
X43341Y-47315D01*
X43312Y-47315D01*
X43284Y-47301D01*
X43270Y-47287D01*
X43255Y-47258D01*
X43241Y-47201D01*
X43241Y-47130D01*
X43255Y-47072D01*
X43270Y-47044D01*
X43284Y-47030D01*
X43312Y-47015D01*
X43527Y-47044D02*
X43541Y-47030D01*
X43570Y-47015D01*
X43641Y-47015D01*
X43670Y-47030D01*
X43684Y-47044D01*
X43698Y-47072D01*
X43698Y-47101D01*
X43684Y-47144D01*
X43512Y-47315D01*
X43698Y-47315D01*
X64010Y-37365D02*
X63910Y-37222D01*
X63838Y-37365D02*
X63838Y-37065D01*
X63952Y-37065D01*
X63981Y-37080D01*
X63995Y-37094D01*
X64010Y-37122D01*
X64010Y-37165D01*
X63995Y-37194D01*
X63981Y-37208D01*
X63952Y-37222D01*
X63838Y-37222D01*
X64295Y-37365D02*
X64124Y-37365D01*
X64210Y-37365D02*
X64210Y-37065D01*
X64181Y-37108D01*
X64152Y-37137D01*
X64124Y-37151D01*
X63232Y-44770D02*
X63246Y-44785D01*
X63260Y-44827D01*
X63260Y-44856D01*
X63246Y-44899D01*
X63217Y-44927D01*
X63189Y-44942D01*
X63132Y-44956D01*
X63089Y-44956D01*
X63032Y-44942D01*
X63003Y-44927D01*
X62975Y-44899D01*
X62960Y-44856D01*
X62960Y-44827D01*
X62975Y-44785D01*
X62989Y-44770D01*
X63260Y-44485D02*
X63260Y-44656D01*
X63260Y-44570D02*
X62960Y-44570D01*
X63003Y-44599D01*
X63032Y-44627D01*
X63046Y-44656D01*
X62960Y-44299D02*
X62960Y-44270D01*
X62975Y-44242D01*
X62989Y-44227D01*
X63017Y-44213D01*
X63075Y-44199D01*
X63146Y-44199D01*
X63203Y-44213D01*
X63232Y-44227D01*
X63246Y-44242D01*
X63260Y-44270D01*
X63260Y-44299D01*
X63246Y-44327D01*
X63232Y-44342D01*
X63203Y-44356D01*
X63146Y-44370D01*
X63075Y-44370D01*
X63017Y-44356D01*
X62989Y-44342D01*
X62975Y-44327D01*
X62960Y-44299D01*
X63260Y-43913D02*
X63260Y-44085D01*
X63260Y-43999D02*
X62960Y-43999D01*
X63003Y-44027D01*
X63032Y-44056D01*
X63046Y-44085D01*
X59394Y-41897D02*
X59380Y-41911D01*
X59337Y-41925D01*
X59308Y-41925D01*
X59265Y-41911D01*
X59237Y-41882D01*
X59222Y-41854D01*
X59208Y-41797D01*
X59208Y-41754D01*
X59222Y-41697D01*
X59237Y-41668D01*
X59265Y-41640D01*
X59308Y-41625D01*
X59337Y-41625D01*
X59380Y-41640D01*
X59394Y-41654D01*
X59680Y-41925D02*
X59508Y-41925D01*
X59594Y-41925D02*
X59594Y-41625D01*
X59565Y-41668D01*
X59537Y-41697D01*
X59508Y-41711D01*
X59865Y-41625D02*
X59894Y-41625D01*
X59922Y-41640D01*
X59937Y-41654D01*
X59951Y-41682D01*
X59965Y-41740D01*
X59965Y-41811D01*
X59951Y-41868D01*
X59937Y-41897D01*
X59922Y-41911D01*
X59894Y-41925D01*
X59865Y-41925D01*
X59837Y-41911D01*
X59822Y-41897D01*
X59808Y-41868D01*
X59794Y-41811D01*
X59794Y-41740D01*
X59808Y-41682D01*
X59822Y-41654D01*
X59837Y-41640D01*
X59865Y-41625D01*
X60080Y-41654D02*
X60094Y-41640D01*
X60122Y-41625D01*
X60194Y-41625D01*
X60222Y-41640D01*
X60237Y-41654D01*
X60251Y-41682D01*
X60251Y-41711D01*
X60237Y-41754D01*
X60065Y-41925D01*
X60251Y-41925D01*
X55394Y-41497D02*
X55380Y-41511D01*
X55337Y-41525D01*
X55308Y-41525D01*
X55265Y-41511D01*
X55237Y-41482D01*
X55222Y-41454D01*
X55208Y-41397D01*
X55208Y-41354D01*
X55222Y-41297D01*
X55237Y-41268D01*
X55265Y-41240D01*
X55308Y-41225D01*
X55337Y-41225D01*
X55380Y-41240D01*
X55394Y-41254D01*
X55680Y-41525D02*
X55508Y-41525D01*
X55594Y-41525D02*
X55594Y-41225D01*
X55565Y-41268D01*
X55537Y-41297D01*
X55508Y-41311D01*
X55865Y-41225D02*
X55894Y-41225D01*
X55922Y-41240D01*
X55937Y-41254D01*
X55951Y-41282D01*
X55965Y-41340D01*
X55965Y-41411D01*
X55951Y-41468D01*
X55937Y-41497D01*
X55922Y-41511D01*
X55894Y-41525D01*
X55865Y-41525D01*
X55837Y-41511D01*
X55822Y-41497D01*
X55808Y-41468D01*
X55794Y-41411D01*
X55794Y-41340D01*
X55808Y-41282D01*
X55822Y-41254D01*
X55837Y-41240D01*
X55865Y-41225D01*
X56222Y-41225D02*
X56165Y-41225D01*
X56137Y-41240D01*
X56122Y-41254D01*
X56094Y-41297D01*
X56080Y-41354D01*
X56080Y-41468D01*
X56094Y-41497D01*
X56108Y-41511D01*
X56137Y-41525D01*
X56194Y-41525D01*
X56222Y-41511D01*
X56237Y-41497D01*
X56251Y-41468D01*
X56251Y-41397D01*
X56237Y-41368D01*
X56222Y-41354D01*
X56194Y-41340D01*
X56137Y-41340D01*
X56108Y-41354D01*
X56094Y-41368D01*
X56080Y-41397D01*
X40974Y-42577D02*
X40960Y-42591D01*
X40917Y-42605D01*
X40888Y-42605D01*
X40845Y-42591D01*
X40817Y-42562D01*
X40802Y-42534D01*
X40788Y-42477D01*
X40788Y-42434D01*
X40802Y-42377D01*
X40817Y-42348D01*
X40845Y-42320D01*
X40888Y-42305D01*
X40917Y-42305D01*
X40960Y-42320D01*
X40974Y-42334D01*
X41117Y-42605D02*
X41174Y-42605D01*
X41202Y-42591D01*
X41217Y-42577D01*
X41245Y-42534D01*
X41260Y-42477D01*
X41260Y-42362D01*
X41245Y-42334D01*
X41231Y-42320D01*
X41202Y-42305D01*
X41145Y-42305D01*
X41117Y-42320D01*
X41102Y-42334D01*
X41088Y-42362D01*
X41088Y-42434D01*
X41102Y-42462D01*
X41117Y-42477D01*
X41145Y-42491D01*
X41202Y-42491D01*
X41231Y-42477D01*
X41245Y-42462D01*
X41260Y-42434D01*
X41545Y-42605D02*
X41374Y-42605D01*
X41460Y-42605D02*
X41460Y-42305D01*
X41431Y-42348D01*
X41402Y-42377D01*
X41374Y-42391D01*
X41802Y-42405D02*
X41802Y-42605D01*
X41731Y-42291D02*
X41660Y-42505D01*
X41845Y-42505D01*
X40974Y-42125D02*
X40874Y-41982D01*
X40802Y-42125D02*
X40802Y-41825D01*
X40917Y-41825D01*
X40945Y-41840D01*
X40960Y-41854D01*
X40974Y-41882D01*
X40974Y-41925D01*
X40960Y-41954D01*
X40945Y-41968D01*
X40917Y-41982D01*
X40802Y-41982D01*
X41117Y-42125D02*
X41174Y-42125D01*
X41202Y-42111D01*
X41217Y-42097D01*
X41245Y-42054D01*
X41260Y-41997D01*
X41260Y-41882D01*
X41245Y-41854D01*
X41231Y-41840D01*
X41202Y-41825D01*
X41145Y-41825D01*
X41117Y-41840D01*
X41102Y-41854D01*
X41088Y-41882D01*
X41088Y-41954D01*
X41102Y-41982D01*
X41117Y-41997D01*
X41145Y-42011D01*
X41202Y-42011D01*
X41231Y-41997D01*
X41245Y-41982D01*
X41260Y-41954D01*
X41445Y-41825D02*
X41474Y-41825D01*
X41502Y-41840D01*
X41517Y-41854D01*
X41531Y-41882D01*
X41545Y-41940D01*
X41545Y-42011D01*
X41531Y-42068D01*
X41517Y-42097D01*
X41502Y-42111D01*
X41474Y-42125D01*
X41445Y-42125D01*
X41417Y-42111D01*
X41402Y-42097D01*
X41388Y-42068D01*
X41374Y-42011D01*
X41374Y-41940D01*
X41388Y-41882D01*
X41402Y-41854D01*
X41417Y-41840D01*
X41445Y-41825D01*
X41645Y-41825D02*
X41845Y-41825D01*
X41717Y-42125D01*
X39921Y-44895D02*
X39935Y-44852D01*
X39935Y-44781D01*
X39921Y-44752D01*
X39907Y-44738D01*
X39878Y-44724D01*
X39850Y-44724D01*
X39821Y-44738D01*
X39807Y-44752D01*
X39792Y-44781D01*
X39778Y-44838D01*
X39764Y-44867D01*
X39750Y-44881D01*
X39721Y-44895D01*
X39692Y-44895D01*
X39664Y-44881D01*
X39650Y-44867D01*
X39635Y-44838D01*
X39635Y-44767D01*
X39650Y-44724D01*
X39635Y-44624D02*
X39935Y-44552D01*
X39721Y-44495D01*
X39935Y-44438D01*
X39635Y-44367D01*
X39935Y-44238D02*
X39935Y-44181D01*
X39921Y-44152D01*
X39907Y-44138D01*
X39864Y-44109D01*
X39807Y-44095D01*
X39692Y-44095D01*
X39664Y-44109D01*
X39650Y-44124D01*
X39635Y-44152D01*
X39635Y-44209D01*
X39650Y-44238D01*
X39664Y-44252D01*
X39692Y-44267D01*
X39764Y-44267D01*
X39792Y-44252D01*
X39807Y-44238D01*
X39821Y-44209D01*
X39821Y-44152D01*
X39807Y-44124D01*
X39792Y-44109D01*
X39764Y-44095D01*
X39635Y-43910D02*
X39635Y-43881D01*
X39650Y-43852D01*
X39664Y-43838D01*
X39692Y-43824D01*
X39750Y-43810D01*
X39821Y-43810D01*
X39878Y-43824D01*
X39907Y-43838D01*
X39921Y-43852D01*
X39935Y-43881D01*
X39935Y-43910D01*
X39921Y-43938D01*
X39907Y-43952D01*
X39878Y-43967D01*
X39821Y-43981D01*
X39750Y-43981D01*
X39692Y-43967D01*
X39664Y-43952D01*
X39650Y-43938D01*
X39635Y-43910D01*
X39635Y-43624D02*
X39635Y-43595D01*
X39650Y-43567D01*
X39664Y-43552D01*
X39692Y-43538D01*
X39750Y-43524D01*
X39821Y-43524D01*
X39878Y-43538D01*
X39907Y-43552D01*
X39921Y-43567D01*
X39935Y-43595D01*
X39935Y-43624D01*
X39921Y-43652D01*
X39907Y-43667D01*
X39878Y-43681D01*
X39821Y-43695D01*
X39750Y-43695D01*
X39692Y-43681D01*
X39664Y-43667D01*
X39650Y-43652D01*
X39635Y-43624D01*
X44445Y-47245D02*
X44445Y-47488D01*
X44460Y-47517D01*
X44474Y-47531D01*
X44502Y-47545D01*
X44560Y-47545D01*
X44588Y-47531D01*
X44602Y-47517D01*
X44617Y-47488D01*
X44617Y-47245D01*
X44917Y-47545D02*
X44745Y-47545D01*
X44831Y-47545D02*
X44831Y-47245D01*
X44802Y-47288D01*
X44774Y-47317D01*
X44745Y-47331D01*
X45102Y-47245D02*
X45131Y-47245D01*
X45160Y-47260D01*
X45174Y-47274D01*
X45188Y-47302D01*
X45202Y-47360D01*
X45202Y-47431D01*
X45188Y-47488D01*
X45174Y-47517D01*
X45160Y-47531D01*
X45131Y-47545D01*
X45102Y-47545D01*
X45074Y-47531D01*
X45060Y-47517D01*
X45045Y-47488D01*
X45031Y-47431D01*
X45031Y-47360D01*
X45045Y-47302D01*
X45060Y-47274D01*
X45074Y-47260D01*
X45102Y-47245D01*
X45302Y-47245D02*
X45488Y-47245D01*
X45388Y-47360D01*
X45431Y-47360D01*
X45460Y-47374D01*
X45474Y-47388D01*
X45488Y-47417D01*
X45488Y-47488D01*
X45474Y-47517D01*
X45460Y-47531D01*
X45431Y-47545D01*
X45345Y-47545D01*
X45317Y-47531D01*
X45302Y-47517D01*
G54D17*
X45267Y-36005D02*
X45281Y-36020D01*
X45295Y-36062D01*
X45295Y-36091D01*
X45281Y-36134D01*
X45252Y-36162D01*
X45224Y-36177D01*
X45167Y-36191D01*
X45124Y-36191D01*
X45067Y-36177D01*
X45038Y-36162D01*
X45010Y-36134D01*
X44995Y-36091D01*
X44995Y-36062D01*
X45010Y-36020D01*
X45024Y-36005D01*
X45295Y-35862D02*
X45295Y-35805D01*
X45281Y-35777D01*
X45267Y-35762D01*
X45224Y-35734D01*
X45167Y-35720D01*
X45052Y-35720D01*
X45024Y-35734D01*
X45010Y-35748D01*
X44995Y-35777D01*
X44995Y-35834D01*
X45010Y-35862D01*
X45024Y-35877D01*
X45052Y-35891D01*
X45124Y-35891D01*
X45152Y-35877D01*
X45167Y-35862D01*
X45181Y-35834D01*
X45181Y-35777D01*
X45167Y-35748D01*
X45152Y-35734D01*
X45124Y-35720D01*
X45295Y-35434D02*
X45295Y-35605D01*
X45295Y-35520D02*
X44995Y-35520D01*
X45038Y-35548D01*
X45067Y-35577D01*
X45081Y-35605D01*
X44995Y-35248D02*
X44995Y-35220D01*
X45010Y-35191D01*
X45024Y-35177D01*
X45052Y-35162D01*
X45110Y-35148D01*
X45181Y-35148D01*
X45238Y-35162D01*
X45267Y-35177D01*
X45281Y-35191D01*
X45295Y-35220D01*
X45295Y-35248D01*
X45281Y-35277D01*
X45267Y-35291D01*
X45238Y-35305D01*
X45181Y-35320D01*
X45110Y-35320D01*
X45052Y-35305D01*
X45024Y-35291D01*
X45010Y-35277D01*
X44995Y-35248D01*
G54D11*
X41297Y-39905D02*
X41311Y-39920D01*
X41325Y-39962D01*
X41325Y-39991D01*
X41311Y-40034D01*
X41282Y-40062D01*
X41254Y-40077D01*
X41197Y-40091D01*
X41154Y-40091D01*
X41097Y-40077D01*
X41068Y-40062D01*
X41040Y-40034D01*
X41025Y-39991D01*
X41025Y-39962D01*
X41040Y-39920D01*
X41054Y-39905D01*
X41325Y-39762D02*
X41325Y-39705D01*
X41311Y-39677D01*
X41297Y-39662D01*
X41254Y-39634D01*
X41197Y-39620D01*
X41082Y-39620D01*
X41054Y-39634D01*
X41040Y-39648D01*
X41025Y-39677D01*
X41025Y-39734D01*
X41040Y-39762D01*
X41054Y-39777D01*
X41082Y-39791D01*
X41154Y-39791D01*
X41182Y-39777D01*
X41197Y-39762D01*
X41211Y-39734D01*
X41211Y-39677D01*
X41197Y-39648D01*
X41182Y-39634D01*
X41154Y-39620D01*
X41325Y-39334D02*
X41325Y-39505D01*
X41325Y-39420D02*
X41025Y-39420D01*
X41068Y-39448D01*
X41097Y-39477D01*
X41111Y-39505D01*
X41025Y-39062D02*
X41025Y-39205D01*
X41168Y-39220D01*
X41154Y-39205D01*
X41140Y-39177D01*
X41140Y-39105D01*
X41154Y-39077D01*
X41168Y-39062D01*
X41197Y-39048D01*
X41268Y-39048D01*
X41297Y-39062D01*
X41311Y-39077D01*
X41325Y-39105D01*
X41325Y-39177D01*
X41311Y-39205D01*
X41297Y-39220D01*
X41105Y-41375D02*
X40962Y-41475D01*
X41105Y-41547D02*
X40805Y-41547D01*
X40805Y-41432D01*
X40820Y-41404D01*
X40834Y-41390D01*
X40862Y-41375D01*
X40905Y-41375D01*
X40934Y-41390D01*
X40948Y-41404D01*
X40962Y-41432D01*
X40962Y-41547D01*
X41105Y-41232D02*
X41105Y-41175D01*
X41091Y-41147D01*
X41077Y-41132D01*
X41034Y-41104D01*
X40977Y-41090D01*
X40862Y-41090D01*
X40834Y-41104D01*
X40820Y-41118D01*
X40805Y-41147D01*
X40805Y-41204D01*
X40820Y-41232D01*
X40834Y-41247D01*
X40862Y-41261D01*
X40934Y-41261D01*
X40962Y-41247D01*
X40977Y-41232D01*
X40991Y-41204D01*
X40991Y-41147D01*
X40977Y-41118D01*
X40962Y-41104D01*
X40934Y-41090D01*
X40805Y-40904D02*
X40805Y-40875D01*
X40820Y-40847D01*
X40834Y-40832D01*
X40862Y-40818D01*
X40920Y-40804D01*
X40991Y-40804D01*
X41048Y-40818D01*
X41077Y-40832D01*
X41091Y-40847D01*
X41105Y-40875D01*
X41105Y-40904D01*
X41091Y-40932D01*
X41077Y-40947D01*
X41048Y-40961D01*
X40991Y-40975D01*
X40920Y-40975D01*
X40862Y-40961D01*
X40834Y-40947D01*
X40820Y-40932D01*
X40805Y-40904D01*
X40934Y-40632D02*
X40920Y-40661D01*
X40905Y-40675D01*
X40877Y-40690D01*
X40862Y-40690D01*
X40834Y-40675D01*
X40820Y-40661D01*
X40805Y-40632D01*
X40805Y-40575D01*
X40820Y-40547D01*
X40834Y-40532D01*
X40862Y-40518D01*
X40877Y-40518D01*
X40905Y-40532D01*
X40920Y-40547D01*
X40934Y-40575D01*
X40934Y-40632D01*
X40948Y-40661D01*
X40962Y-40675D01*
X40991Y-40690D01*
X41048Y-40690D01*
X41077Y-40675D01*
X41091Y-40661D01*
X41105Y-40632D01*
X41105Y-40575D01*
X41091Y-40547D01*
X41077Y-40532D01*
X41048Y-40518D01*
X40991Y-40518D01*
X40962Y-40532D01*
X40948Y-40547D01*
X40934Y-40575D01*
X41401Y-38775D02*
X41415Y-38732D01*
X41415Y-38661D01*
X41401Y-38632D01*
X41387Y-38618D01*
X41358Y-38604D01*
X41330Y-38604D01*
X41301Y-38618D01*
X41287Y-38632D01*
X41272Y-38661D01*
X41258Y-38718D01*
X41244Y-38747D01*
X41230Y-38761D01*
X41201Y-38775D01*
X41172Y-38775D01*
X41144Y-38761D01*
X41130Y-38747D01*
X41115Y-38718D01*
X41115Y-38647D01*
X41130Y-38604D01*
X41115Y-38504D02*
X41415Y-38432D01*
X41201Y-38375D01*
X41415Y-38318D01*
X41115Y-38247D01*
X41415Y-38118D02*
X41415Y-38061D01*
X41401Y-38032D01*
X41387Y-38018D01*
X41344Y-37989D01*
X41287Y-37975D01*
X41172Y-37975D01*
X41144Y-37989D01*
X41130Y-38004D01*
X41115Y-38032D01*
X41115Y-38089D01*
X41130Y-38118D01*
X41144Y-38132D01*
X41172Y-38147D01*
X41244Y-38147D01*
X41272Y-38132D01*
X41287Y-38118D01*
X41301Y-38089D01*
X41301Y-38032D01*
X41287Y-38004D01*
X41272Y-37989D01*
X41244Y-37975D01*
X41115Y-37790D02*
X41115Y-37761D01*
X41130Y-37732D01*
X41144Y-37718D01*
X41172Y-37704D01*
X41230Y-37690D01*
X41301Y-37690D01*
X41358Y-37704D01*
X41387Y-37718D01*
X41401Y-37732D01*
X41415Y-37761D01*
X41415Y-37790D01*
X41401Y-37818D01*
X41387Y-37832D01*
X41358Y-37847D01*
X41301Y-37861D01*
X41230Y-37861D01*
X41172Y-37847D01*
X41144Y-37832D01*
X41130Y-37818D01*
X41115Y-37790D01*
X41415Y-37404D02*
X41415Y-37575D01*
X41415Y-37490D02*
X41115Y-37490D01*
X41158Y-37518D01*
X41187Y-37547D01*
X41201Y-37575D01*
G54D12*
X71930Y-20785D02*
X71530Y-20785D01*
X71530Y-20632D01*
X71550Y-20594D01*
X71569Y-20575D01*
X71607Y-20556D01*
X71664Y-20556D01*
X71702Y-20575D01*
X71721Y-20594D01*
X71740Y-20632D01*
X71740Y-20785D01*
X71530Y-20423D02*
X71530Y-20175D01*
X71683Y-20309D01*
X71683Y-20251D01*
X71702Y-20213D01*
X71721Y-20194D01*
X71759Y-20175D01*
X71854Y-20175D01*
X71892Y-20194D01*
X71911Y-20213D01*
X71930Y-20251D01*
X71930Y-20366D01*
X71911Y-20404D01*
X71892Y-20423D01*
G54D11*
X67985Y-43875D02*
X67842Y-43975D01*
X67985Y-44047D02*
X67685Y-44047D01*
X67685Y-43932D01*
X67700Y-43904D01*
X67714Y-43890D01*
X67742Y-43875D01*
X67785Y-43875D01*
X67814Y-43890D01*
X67828Y-43904D01*
X67842Y-43932D01*
X67842Y-44047D01*
X67985Y-43590D02*
X67985Y-43761D01*
X67985Y-43675D02*
X67685Y-43675D01*
X67728Y-43704D01*
X67757Y-43732D01*
X67771Y-43761D01*
X67785Y-43332D02*
X67985Y-43332D01*
X67671Y-43404D02*
X67885Y-43475D01*
X67885Y-43290D01*
X67685Y-43118D02*
X67685Y-43090D01*
X67700Y-43061D01*
X67714Y-43047D01*
X67742Y-43032D01*
X67800Y-43018D01*
X67871Y-43018D01*
X67928Y-43032D01*
X67957Y-43047D01*
X67971Y-43061D01*
X67985Y-43090D01*
X67985Y-43118D01*
X67971Y-43147D01*
X67957Y-43161D01*
X67928Y-43175D01*
X67871Y-43190D01*
X67800Y-43190D01*
X67742Y-43175D01*
X67714Y-43161D01*
X67700Y-43147D01*
X67685Y-43118D01*
X63925Y-43875D02*
X63782Y-43975D01*
X63925Y-44047D02*
X63625Y-44047D01*
X63625Y-43932D01*
X63640Y-43904D01*
X63654Y-43890D01*
X63682Y-43875D01*
X63725Y-43875D01*
X63754Y-43890D01*
X63768Y-43904D01*
X63782Y-43932D01*
X63782Y-44047D01*
X63925Y-43590D02*
X63925Y-43761D01*
X63925Y-43675D02*
X63625Y-43675D01*
X63668Y-43704D01*
X63697Y-43732D01*
X63711Y-43761D01*
X63725Y-43332D02*
X63925Y-43332D01*
X63611Y-43404D02*
X63825Y-43475D01*
X63825Y-43290D01*
X63625Y-43204D02*
X63625Y-43004D01*
X63925Y-43132D01*
X67405Y-43875D02*
X67262Y-43975D01*
X67405Y-44047D02*
X67105Y-44047D01*
X67105Y-43932D01*
X67120Y-43904D01*
X67134Y-43890D01*
X67162Y-43875D01*
X67205Y-43875D01*
X67234Y-43890D01*
X67248Y-43904D01*
X67262Y-43932D01*
X67262Y-44047D01*
X67405Y-43590D02*
X67405Y-43761D01*
X67405Y-43675D02*
X67105Y-43675D01*
X67148Y-43704D01*
X67177Y-43732D01*
X67191Y-43761D01*
X67205Y-43332D02*
X67405Y-43332D01*
X67091Y-43404D02*
X67305Y-43475D01*
X67305Y-43290D01*
X67405Y-43018D02*
X67405Y-43190D01*
X67405Y-43104D02*
X67105Y-43104D01*
X67148Y-43132D01*
X67177Y-43161D01*
X67191Y-43190D01*
X66825Y-43875D02*
X66682Y-43975D01*
X66825Y-44047D02*
X66525Y-44047D01*
X66525Y-43932D01*
X66540Y-43904D01*
X66554Y-43890D01*
X66582Y-43875D01*
X66625Y-43875D01*
X66654Y-43890D01*
X66668Y-43904D01*
X66682Y-43932D01*
X66682Y-44047D01*
X66825Y-43590D02*
X66825Y-43761D01*
X66825Y-43675D02*
X66525Y-43675D01*
X66568Y-43704D01*
X66597Y-43732D01*
X66611Y-43761D01*
X66625Y-43332D02*
X66825Y-43332D01*
X66511Y-43404D02*
X66725Y-43475D01*
X66725Y-43290D01*
X66554Y-43190D02*
X66540Y-43175D01*
X66525Y-43147D01*
X66525Y-43075D01*
X66540Y-43047D01*
X66554Y-43032D01*
X66582Y-43018D01*
X66611Y-43018D01*
X66654Y-43032D01*
X66825Y-43204D01*
X66825Y-43018D01*
X66245Y-43875D02*
X66102Y-43975D01*
X66245Y-44047D02*
X65945Y-44047D01*
X65945Y-43932D01*
X65960Y-43904D01*
X65974Y-43890D01*
X66002Y-43875D01*
X66045Y-43875D01*
X66074Y-43890D01*
X66088Y-43904D01*
X66102Y-43932D01*
X66102Y-44047D01*
X66245Y-43590D02*
X66245Y-43761D01*
X66245Y-43675D02*
X65945Y-43675D01*
X65988Y-43704D01*
X66017Y-43732D01*
X66031Y-43761D01*
X66045Y-43332D02*
X66245Y-43332D01*
X65931Y-43404D02*
X66145Y-43475D01*
X66145Y-43290D01*
X65945Y-43204D02*
X65945Y-43018D01*
X66060Y-43118D01*
X66060Y-43075D01*
X66074Y-43047D01*
X66088Y-43032D01*
X66117Y-43018D01*
X66188Y-43018D01*
X66217Y-43032D01*
X66231Y-43047D01*
X66245Y-43075D01*
X66245Y-43161D01*
X66231Y-43190D01*
X66217Y-43204D01*
X65665Y-43875D02*
X65522Y-43975D01*
X65665Y-44047D02*
X65365Y-44047D01*
X65365Y-43932D01*
X65380Y-43904D01*
X65394Y-43890D01*
X65422Y-43875D01*
X65465Y-43875D01*
X65494Y-43890D01*
X65508Y-43904D01*
X65522Y-43932D01*
X65522Y-44047D01*
X65665Y-43590D02*
X65665Y-43761D01*
X65665Y-43675D02*
X65365Y-43675D01*
X65408Y-43704D01*
X65437Y-43732D01*
X65451Y-43761D01*
X65465Y-43332D02*
X65665Y-43332D01*
X65351Y-43404D02*
X65565Y-43475D01*
X65565Y-43290D01*
X65465Y-43047D02*
X65665Y-43047D01*
X65351Y-43118D02*
X65565Y-43190D01*
X65565Y-43004D01*
X65085Y-43875D02*
X64942Y-43975D01*
X65085Y-44047D02*
X64785Y-44047D01*
X64785Y-43932D01*
X64800Y-43904D01*
X64814Y-43890D01*
X64842Y-43875D01*
X64885Y-43875D01*
X64914Y-43890D01*
X64928Y-43904D01*
X64942Y-43932D01*
X64942Y-44047D01*
X65085Y-43590D02*
X65085Y-43761D01*
X65085Y-43675D02*
X64785Y-43675D01*
X64828Y-43704D01*
X64857Y-43732D01*
X64871Y-43761D01*
X64885Y-43332D02*
X65085Y-43332D01*
X64771Y-43404D02*
X64985Y-43475D01*
X64985Y-43290D01*
X64785Y-43032D02*
X64785Y-43175D01*
X64928Y-43190D01*
X64914Y-43175D01*
X64900Y-43147D01*
X64900Y-43075D01*
X64914Y-43047D01*
X64928Y-43032D01*
X64957Y-43018D01*
X65028Y-43018D01*
X65057Y-43032D01*
X65071Y-43047D01*
X65085Y-43075D01*
X65085Y-43147D01*
X65071Y-43175D01*
X65057Y-43190D01*
X64505Y-43875D02*
X64362Y-43975D01*
X64505Y-44047D02*
X64205Y-44047D01*
X64205Y-43932D01*
X64220Y-43904D01*
X64234Y-43890D01*
X64262Y-43875D01*
X64305Y-43875D01*
X64334Y-43890D01*
X64348Y-43904D01*
X64362Y-43932D01*
X64362Y-44047D01*
X64505Y-43590D02*
X64505Y-43761D01*
X64505Y-43675D02*
X64205Y-43675D01*
X64248Y-43704D01*
X64277Y-43732D01*
X64291Y-43761D01*
X64305Y-43332D02*
X64505Y-43332D01*
X64191Y-43404D02*
X64405Y-43475D01*
X64405Y-43290D01*
X64205Y-43047D02*
X64205Y-43104D01*
X64220Y-43132D01*
X64234Y-43147D01*
X64277Y-43175D01*
X64334Y-43190D01*
X64448Y-43190D01*
X64477Y-43175D01*
X64491Y-43161D01*
X64505Y-43132D01*
X64505Y-43075D01*
X64491Y-43047D01*
X64477Y-43032D01*
X64448Y-43018D01*
X64377Y-43018D01*
X64348Y-43032D01*
X64334Y-43047D01*
X64320Y-43075D01*
X64320Y-43132D01*
X64334Y-43161D01*
X64348Y-43175D01*
X64377Y-43190D01*
X57231Y-40271D02*
X57245Y-40228D01*
X57245Y-40157D01*
X57231Y-40128D01*
X57217Y-40114D01*
X57188Y-40099D01*
X57160Y-40099D01*
X57131Y-40114D01*
X57117Y-40128D01*
X57102Y-40157D01*
X57088Y-40214D01*
X57074Y-40242D01*
X57060Y-40257D01*
X57031Y-40271D01*
X57002Y-40271D01*
X56974Y-40257D01*
X56960Y-40242D01*
X56945Y-40214D01*
X56945Y-40142D01*
X56960Y-40099D01*
X57245Y-39971D02*
X56945Y-39971D01*
X57160Y-39871D01*
X56945Y-39771D01*
X57245Y-39771D01*
X56945Y-39571D02*
X56945Y-39542D01*
X56960Y-39514D01*
X56974Y-39499D01*
X57002Y-39485D01*
X57060Y-39471D01*
X57131Y-39471D01*
X57188Y-39485D01*
X57217Y-39499D01*
X57231Y-39514D01*
X57245Y-39542D01*
X57245Y-39571D01*
X57231Y-39599D01*
X57217Y-39614D01*
X57188Y-39628D01*
X57131Y-39642D01*
X57060Y-39642D01*
X57002Y-39628D01*
X56974Y-39614D01*
X56960Y-39599D01*
X56945Y-39571D01*
X56945Y-39285D02*
X56945Y-39257D01*
X56960Y-39228D01*
X56974Y-39214D01*
X57002Y-39199D01*
X57060Y-39185D01*
X57131Y-39185D01*
X57188Y-39199D01*
X57217Y-39214D01*
X57231Y-39228D01*
X57245Y-39257D01*
X57245Y-39285D01*
X57231Y-39314D01*
X57217Y-39328D01*
X57188Y-39342D01*
X57131Y-39357D01*
X57060Y-39357D01*
X57002Y-39342D01*
X56974Y-39328D01*
X56960Y-39314D01*
X56945Y-39285D01*
X56945Y-38928D02*
X56945Y-38985D01*
X56960Y-39014D01*
X56974Y-39028D01*
X57017Y-39057D01*
X57074Y-39071D01*
X57188Y-39071D01*
X57217Y-39057D01*
X57231Y-39042D01*
X57245Y-39014D01*
X57245Y-38957D01*
X57231Y-38928D01*
X57217Y-38914D01*
X57188Y-38900D01*
X57117Y-38900D01*
X57088Y-38914D01*
X57074Y-38928D01*
X57060Y-38957D01*
X57060Y-39014D01*
X57074Y-39042D01*
X57088Y-39057D01*
X57117Y-39071D01*
X56945Y-38714D02*
X56945Y-38685D01*
X56960Y-38657D01*
X56974Y-38642D01*
X57002Y-38628D01*
X57060Y-38614D01*
X57131Y-38614D01*
X57188Y-38628D01*
X57217Y-38642D01*
X57231Y-38657D01*
X57245Y-38685D01*
X57245Y-38714D01*
X57231Y-38742D01*
X57217Y-38757D01*
X57188Y-38771D01*
X57131Y-38785D01*
X57060Y-38785D01*
X57002Y-38771D01*
X56974Y-38757D01*
X56960Y-38742D01*
X56945Y-38714D01*
X56945Y-38514D02*
X56945Y-38328D01*
X57060Y-38428D01*
X57060Y-38385D01*
X57074Y-38357D01*
X57088Y-38342D01*
X57117Y-38328D01*
X57188Y-38328D01*
X57217Y-38342D01*
X57231Y-38357D01*
X57245Y-38385D01*
X57245Y-38471D01*
X57231Y-38500D01*
X57217Y-38514D01*
G54D17*
X76744Y-23437D02*
X76730Y-23451D01*
X76687Y-23465D01*
X76658Y-23465D01*
X76615Y-23451D01*
X76587Y-23422D01*
X76572Y-23394D01*
X76558Y-23337D01*
X76558Y-23294D01*
X76572Y-23237D01*
X76587Y-23208D01*
X76615Y-23180D01*
X76658Y-23165D01*
X76687Y-23165D01*
X76730Y-23180D01*
X76744Y-23194D01*
X76858Y-23194D02*
X76872Y-23180D01*
X76901Y-23165D01*
X76972Y-23165D01*
X77001Y-23180D01*
X77015Y-23194D01*
X77030Y-23222D01*
X77030Y-23251D01*
X77015Y-23294D01*
X76844Y-23465D01*
X77030Y-23465D01*
X77215Y-23165D02*
X77244Y-23165D01*
X77272Y-23180D01*
X77287Y-23194D01*
X77301Y-23222D01*
X77315Y-23280D01*
X77315Y-23351D01*
X77301Y-23408D01*
X77287Y-23437D01*
X77272Y-23451D01*
X77244Y-23465D01*
X77215Y-23465D01*
X77187Y-23451D01*
X77172Y-23437D01*
X77158Y-23408D01*
X77144Y-23351D01*
X77144Y-23280D01*
X77158Y-23222D01*
X77172Y-23194D01*
X77187Y-23180D01*
X77215Y-23165D01*
X77601Y-23465D02*
X77430Y-23465D01*
X77515Y-23465D02*
X77515Y-23165D01*
X77487Y-23208D01*
X77458Y-23237D01*
X77430Y-23251D01*
X77674Y-24927D02*
X77660Y-24941D01*
X77617Y-24955D01*
X77588Y-24955D01*
X77545Y-24941D01*
X77517Y-24912D01*
X77502Y-24884D01*
X77488Y-24827D01*
X77488Y-24784D01*
X77502Y-24727D01*
X77517Y-24698D01*
X77545Y-24670D01*
X77588Y-24655D01*
X77617Y-24655D01*
X77660Y-24670D01*
X77674Y-24684D01*
X77788Y-24684D02*
X77802Y-24670D01*
X77831Y-24655D01*
X77902Y-24655D01*
X77931Y-24670D01*
X77945Y-24684D01*
X77960Y-24712D01*
X77960Y-24741D01*
X77945Y-24784D01*
X77774Y-24955D01*
X77960Y-24955D01*
X78145Y-24655D02*
X78174Y-24655D01*
X78202Y-24670D01*
X78217Y-24684D01*
X78231Y-24712D01*
X78245Y-24770D01*
X78245Y-24841D01*
X78231Y-24898D01*
X78217Y-24927D01*
X78202Y-24941D01*
X78174Y-24955D01*
X78145Y-24955D01*
X78117Y-24941D01*
X78102Y-24927D01*
X78088Y-24898D01*
X78074Y-24841D01*
X78074Y-24770D01*
X78088Y-24712D01*
X78102Y-24684D01*
X78117Y-24670D01*
X78145Y-24655D01*
X78360Y-24684D02*
X78374Y-24670D01*
X78402Y-24655D01*
X78474Y-24655D01*
X78502Y-24670D01*
X78517Y-24684D01*
X78531Y-24712D01*
X78531Y-24741D01*
X78517Y-24784D01*
X78345Y-24955D01*
X78531Y-24955D01*
G54D11*
X75877Y-29095D02*
X75891Y-29110D01*
X75905Y-29152D01*
X75905Y-29181D01*
X75891Y-29224D01*
X75862Y-29252D01*
X75834Y-29267D01*
X75777Y-29281D01*
X75734Y-29281D01*
X75677Y-29267D01*
X75648Y-29252D01*
X75620Y-29224D01*
X75605Y-29181D01*
X75605Y-29152D01*
X75620Y-29110D01*
X75634Y-29095D01*
X75634Y-28981D02*
X75620Y-28967D01*
X75605Y-28938D01*
X75605Y-28867D01*
X75620Y-28838D01*
X75634Y-28824D01*
X75662Y-28810D01*
X75691Y-28810D01*
X75734Y-28824D01*
X75905Y-28995D01*
X75905Y-28810D01*
X75605Y-28624D02*
X75605Y-28595D01*
X75620Y-28567D01*
X75634Y-28552D01*
X75662Y-28538D01*
X75720Y-28524D01*
X75791Y-28524D01*
X75848Y-28538D01*
X75877Y-28552D01*
X75891Y-28567D01*
X75905Y-28595D01*
X75905Y-28624D01*
X75891Y-28652D01*
X75877Y-28667D01*
X75848Y-28681D01*
X75791Y-28695D01*
X75720Y-28695D01*
X75662Y-28681D01*
X75634Y-28667D01*
X75620Y-28652D01*
X75605Y-28624D01*
X75605Y-28424D02*
X75605Y-28238D01*
X75720Y-28338D01*
X75720Y-28295D01*
X75734Y-28267D01*
X75748Y-28252D01*
X75777Y-28238D01*
X75848Y-28238D01*
X75877Y-28252D01*
X75891Y-28267D01*
X75905Y-28295D01*
X75905Y-28381D01*
X75891Y-28410D01*
X75877Y-28424D01*
X78555Y-26845D02*
X78555Y-26988D01*
X78255Y-26988D01*
X78284Y-26759D02*
X78270Y-26745D01*
X78255Y-26717D01*
X78255Y-26645D01*
X78270Y-26617D01*
X78284Y-26602D01*
X78312Y-26588D01*
X78341Y-26588D01*
X78384Y-26602D01*
X78555Y-26774D01*
X78555Y-26588D01*
X78255Y-26402D02*
X78255Y-26374D01*
X78270Y-26345D01*
X78284Y-26331D01*
X78312Y-26317D01*
X78370Y-26302D01*
X78441Y-26302D01*
X78498Y-26317D01*
X78527Y-26331D01*
X78541Y-26345D01*
X78555Y-26374D01*
X78555Y-26402D01*
X78541Y-26431D01*
X78527Y-26445D01*
X78498Y-26459D01*
X78441Y-26474D01*
X78370Y-26474D01*
X78312Y-26459D01*
X78284Y-26445D01*
X78270Y-26431D01*
X78255Y-26402D01*
X78255Y-26117D02*
X78255Y-26088D01*
X78270Y-26060D01*
X78284Y-26045D01*
X78312Y-26031D01*
X78370Y-26017D01*
X78441Y-26017D01*
X78498Y-26031D01*
X78527Y-26045D01*
X78541Y-26060D01*
X78555Y-26088D01*
X78555Y-26117D01*
X78541Y-26145D01*
X78527Y-26160D01*
X78498Y-26174D01*
X78441Y-26188D01*
X78370Y-26188D01*
X78312Y-26174D01*
X78284Y-26160D01*
X78270Y-26145D01*
X78255Y-26117D01*
X75425Y-29095D02*
X75282Y-29195D01*
X75425Y-29267D02*
X75125Y-29267D01*
X75125Y-29152D01*
X75140Y-29124D01*
X75154Y-29110D01*
X75182Y-29095D01*
X75225Y-29095D01*
X75254Y-29110D01*
X75268Y-29124D01*
X75282Y-29152D01*
X75282Y-29267D01*
X75154Y-28981D02*
X75140Y-28967D01*
X75125Y-28938D01*
X75125Y-28867D01*
X75140Y-28838D01*
X75154Y-28824D01*
X75182Y-28810D01*
X75211Y-28810D01*
X75254Y-28824D01*
X75425Y-28995D01*
X75425Y-28810D01*
X75125Y-28624D02*
X75125Y-28595D01*
X75140Y-28567D01*
X75154Y-28552D01*
X75182Y-28538D01*
X75240Y-28524D01*
X75311Y-28524D01*
X75368Y-28538D01*
X75397Y-28552D01*
X75411Y-28567D01*
X75425Y-28595D01*
X75425Y-28624D01*
X75411Y-28652D01*
X75397Y-28667D01*
X75368Y-28681D01*
X75311Y-28695D01*
X75240Y-28695D01*
X75182Y-28681D01*
X75154Y-28667D01*
X75140Y-28652D01*
X75125Y-28624D01*
X75425Y-28238D02*
X75425Y-28410D01*
X75425Y-28324D02*
X75125Y-28324D01*
X75168Y-28352D01*
X75197Y-28381D01*
X75211Y-28410D01*
X74955Y-29095D02*
X74812Y-29195D01*
X74955Y-29267D02*
X74655Y-29267D01*
X74655Y-29152D01*
X74670Y-29124D01*
X74684Y-29110D01*
X74712Y-29095D01*
X74755Y-29095D01*
X74784Y-29110D01*
X74798Y-29124D01*
X74812Y-29152D01*
X74812Y-29267D01*
X74684Y-28981D02*
X74670Y-28967D01*
X74655Y-28938D01*
X74655Y-28867D01*
X74670Y-28838D01*
X74684Y-28824D01*
X74712Y-28810D01*
X74741Y-28810D01*
X74784Y-28824D01*
X74955Y-28995D01*
X74955Y-28810D01*
X74655Y-28624D02*
X74655Y-28595D01*
X74670Y-28567D01*
X74684Y-28552D01*
X74712Y-28538D01*
X74770Y-28524D01*
X74841Y-28524D01*
X74898Y-28538D01*
X74927Y-28552D01*
X74941Y-28567D01*
X74955Y-28595D01*
X74955Y-28624D01*
X74941Y-28652D01*
X74927Y-28667D01*
X74898Y-28681D01*
X74841Y-28695D01*
X74770Y-28695D01*
X74712Y-28681D01*
X74684Y-28667D01*
X74670Y-28652D01*
X74655Y-28624D01*
X74684Y-28410D02*
X74670Y-28395D01*
X74655Y-28367D01*
X74655Y-28295D01*
X74670Y-28267D01*
X74684Y-28252D01*
X74712Y-28238D01*
X74741Y-28238D01*
X74784Y-28252D01*
X74955Y-28424D01*
X74955Y-28238D01*
G54D18*
X74585Y-26934D02*
X74828Y-26934D01*
X74857Y-26920D01*
X74871Y-26905D01*
X74885Y-26877D01*
X74885Y-26820D01*
X74871Y-26791D01*
X74857Y-26777D01*
X74828Y-26762D01*
X74585Y-26762D01*
X74614Y-26634D02*
X74600Y-26619D01*
X74585Y-26591D01*
X74585Y-26519D01*
X74600Y-26491D01*
X74614Y-26477D01*
X74642Y-26462D01*
X74671Y-26462D01*
X74714Y-26477D01*
X74885Y-26648D01*
X74885Y-26462D01*
X74585Y-26277D02*
X74585Y-26248D01*
X74600Y-26220D01*
X74614Y-26205D01*
X74642Y-26191D01*
X74700Y-26177D01*
X74771Y-26177D01*
X74828Y-26191D01*
X74857Y-26205D01*
X74871Y-26220D01*
X74885Y-26248D01*
X74885Y-26277D01*
X74871Y-26305D01*
X74857Y-26320D01*
X74828Y-26334D01*
X74771Y-26348D01*
X74700Y-26348D01*
X74642Y-26334D01*
X74614Y-26320D01*
X74600Y-26305D01*
X74585Y-26277D01*
X74585Y-25991D02*
X74585Y-25962D01*
X74600Y-25934D01*
X74614Y-25920D01*
X74642Y-25905D01*
X74700Y-25891D01*
X74771Y-25891D01*
X74828Y-25905D01*
X74857Y-25920D01*
X74871Y-25934D01*
X74885Y-25962D01*
X74885Y-25991D01*
X74871Y-26020D01*
X74857Y-26034D01*
X74828Y-26048D01*
X74771Y-26062D01*
X74700Y-26062D01*
X74642Y-26048D01*
X74614Y-26034D01*
X74600Y-26020D01*
X74585Y-25991D01*
G54D11*
X77504Y-29127D02*
X77490Y-29141D01*
X77447Y-29155D01*
X77418Y-29155D01*
X77375Y-29141D01*
X77347Y-29112D01*
X77332Y-29084D01*
X77318Y-29027D01*
X77318Y-28984D01*
X77332Y-28927D01*
X77347Y-28898D01*
X77375Y-28870D01*
X77418Y-28855D01*
X77447Y-28855D01*
X77490Y-28870D01*
X77504Y-28884D01*
X77618Y-28884D02*
X77632Y-28870D01*
X77661Y-28855D01*
X77732Y-28855D01*
X77761Y-28870D01*
X77775Y-28884D01*
X77790Y-28912D01*
X77790Y-28941D01*
X77775Y-28984D01*
X77604Y-29155D01*
X77790Y-29155D01*
X77975Y-28855D02*
X78004Y-28855D01*
X78032Y-28870D01*
X78047Y-28884D01*
X78061Y-28912D01*
X78075Y-28970D01*
X78075Y-29041D01*
X78061Y-29098D01*
X78047Y-29127D01*
X78032Y-29141D01*
X78004Y-29155D01*
X77975Y-29155D01*
X77947Y-29141D01*
X77932Y-29127D01*
X77918Y-29098D01*
X77904Y-29041D01*
X77904Y-28970D01*
X77918Y-28912D01*
X77932Y-28884D01*
X77947Y-28870D01*
X77975Y-28855D01*
X78332Y-28955D02*
X78332Y-29155D01*
X78261Y-28841D02*
X78190Y-29055D01*
X78375Y-29055D01*
X46165Y-40555D02*
X46337Y-40555D01*
X46251Y-40855D02*
X46251Y-40555D01*
X46437Y-40855D02*
X46437Y-40555D01*
X46551Y-40555D01*
X46580Y-40570D01*
X46594Y-40584D01*
X46608Y-40612D01*
X46608Y-40655D01*
X46594Y-40684D01*
X46580Y-40698D01*
X46551Y-40712D01*
X46437Y-40712D01*
X46751Y-40855D02*
X46808Y-40855D01*
X46837Y-40841D01*
X46851Y-40827D01*
X46880Y-40784D01*
X46894Y-40727D01*
X46894Y-40612D01*
X46880Y-40584D01*
X46865Y-40570D01*
X46837Y-40555D01*
X46780Y-40555D01*
X46751Y-40570D01*
X46737Y-40584D01*
X46722Y-40612D01*
X46722Y-40684D01*
X46737Y-40712D01*
X46751Y-40727D01*
X46780Y-40741D01*
X46837Y-40741D01*
X46865Y-40727D01*
X46880Y-40712D01*
X46894Y-40684D01*
X47080Y-40555D02*
X47108Y-40555D01*
X47137Y-40570D01*
X47151Y-40584D01*
X47165Y-40612D01*
X47180Y-40670D01*
X47180Y-40741D01*
X47165Y-40798D01*
X47151Y-40827D01*
X47137Y-40841D01*
X47108Y-40855D01*
X47080Y-40855D01*
X47051Y-40841D01*
X47037Y-40827D01*
X47022Y-40798D01*
X47008Y-40741D01*
X47008Y-40670D01*
X47022Y-40612D01*
X47037Y-40584D01*
X47051Y-40570D01*
X47080Y-40555D01*
X47465Y-40855D02*
X47294Y-40855D01*
X47380Y-40855D02*
X47380Y-40555D01*
X47351Y-40598D01*
X47322Y-40627D01*
X47294Y-40641D01*
X45395Y-41795D02*
X45567Y-41795D01*
X45481Y-42095D02*
X45481Y-41795D01*
X45667Y-42095D02*
X45667Y-41795D01*
X45781Y-41795D01*
X45810Y-41810D01*
X45824Y-41824D01*
X45838Y-41852D01*
X45838Y-41895D01*
X45824Y-41924D01*
X45810Y-41938D01*
X45781Y-41952D01*
X45667Y-41952D01*
X45981Y-42095D02*
X46038Y-42095D01*
X46067Y-42081D01*
X46081Y-42067D01*
X46110Y-42024D01*
X46124Y-41967D01*
X46124Y-41852D01*
X46110Y-41824D01*
X46095Y-41810D01*
X46067Y-41795D01*
X46010Y-41795D01*
X45981Y-41810D01*
X45967Y-41824D01*
X45952Y-41852D01*
X45952Y-41924D01*
X45967Y-41952D01*
X45981Y-41967D01*
X46010Y-41981D01*
X46067Y-41981D01*
X46095Y-41967D01*
X46110Y-41952D01*
X46124Y-41924D01*
X46310Y-41795D02*
X46338Y-41795D01*
X46367Y-41810D01*
X46381Y-41824D01*
X46395Y-41852D01*
X46410Y-41910D01*
X46410Y-41981D01*
X46395Y-42038D01*
X46381Y-42067D01*
X46367Y-42081D01*
X46338Y-42095D01*
X46310Y-42095D01*
X46281Y-42081D01*
X46267Y-42067D01*
X46252Y-42038D01*
X46238Y-41981D01*
X46238Y-41910D01*
X46252Y-41852D01*
X46267Y-41824D01*
X46281Y-41810D01*
X46310Y-41795D01*
X46524Y-41824D02*
X46538Y-41810D01*
X46567Y-41795D01*
X46638Y-41795D01*
X46667Y-41810D01*
X46681Y-41824D01*
X46695Y-41852D01*
X46695Y-41881D01*
X46681Y-41924D01*
X46510Y-42095D01*
X46695Y-42095D01*
X46891Y-39855D02*
X47091Y-40155D01*
X47091Y-39855D02*
X46891Y-40155D01*
X47220Y-40155D02*
X47277Y-40155D01*
X47305Y-40141D01*
X47320Y-40127D01*
X47348Y-40084D01*
X47362Y-40027D01*
X47362Y-39912D01*
X47348Y-39884D01*
X47334Y-39870D01*
X47305Y-39855D01*
X47248Y-39855D01*
X47220Y-39870D01*
X47205Y-39884D01*
X47191Y-39912D01*
X47191Y-39984D01*
X47205Y-40012D01*
X47220Y-40027D01*
X47248Y-40041D01*
X47305Y-40041D01*
X47334Y-40027D01*
X47348Y-40012D01*
X47362Y-39984D01*
X47548Y-39855D02*
X47577Y-39855D01*
X47605Y-39870D01*
X47620Y-39884D01*
X47634Y-39912D01*
X47648Y-39970D01*
X47648Y-40041D01*
X47634Y-40098D01*
X47620Y-40127D01*
X47605Y-40141D01*
X47577Y-40155D01*
X47548Y-40155D01*
X47520Y-40141D01*
X47505Y-40127D01*
X47491Y-40098D01*
X47477Y-40041D01*
X47477Y-39970D01*
X47491Y-39912D01*
X47505Y-39884D01*
X47520Y-39870D01*
X47548Y-39855D01*
X47934Y-40155D02*
X47762Y-40155D01*
X47848Y-40155D02*
X47848Y-39855D01*
X47820Y-39898D01*
X47791Y-39927D01*
X47762Y-39941D01*
X42337Y-31365D02*
X42351Y-31380D01*
X42365Y-31422D01*
X42365Y-31451D01*
X42351Y-31494D01*
X42322Y-31522D01*
X42294Y-31537D01*
X42237Y-31551D01*
X42194Y-31551D01*
X42137Y-31537D01*
X42108Y-31522D01*
X42080Y-31494D01*
X42065Y-31451D01*
X42065Y-31422D01*
X42080Y-31380D01*
X42094Y-31365D01*
X42365Y-31222D02*
X42365Y-31165D01*
X42351Y-31137D01*
X42337Y-31122D01*
X42294Y-31094D01*
X42237Y-31080D01*
X42122Y-31080D01*
X42094Y-31094D01*
X42080Y-31108D01*
X42065Y-31137D01*
X42065Y-31194D01*
X42080Y-31222D01*
X42094Y-31237D01*
X42122Y-31251D01*
X42194Y-31251D01*
X42222Y-31237D01*
X42237Y-31222D01*
X42251Y-31194D01*
X42251Y-31137D01*
X42237Y-31108D01*
X42222Y-31094D01*
X42194Y-31080D01*
X42365Y-30794D02*
X42365Y-30965D01*
X42365Y-30880D02*
X42065Y-30880D01*
X42108Y-30908D01*
X42137Y-30937D01*
X42151Y-30965D01*
X42065Y-30537D02*
X42065Y-30594D01*
X42080Y-30622D01*
X42094Y-30637D01*
X42137Y-30665D01*
X42194Y-30680D01*
X42308Y-30680D01*
X42337Y-30665D01*
X42351Y-30651D01*
X42365Y-30622D01*
X42365Y-30565D01*
X42351Y-30537D01*
X42337Y-30522D01*
X42308Y-30508D01*
X42237Y-30508D01*
X42208Y-30522D01*
X42194Y-30537D01*
X42180Y-30565D01*
X42180Y-30622D01*
X42194Y-30651D01*
X42208Y-30665D01*
X42237Y-30680D01*
X48547Y-39065D02*
X48561Y-39080D01*
X48575Y-39122D01*
X48575Y-39151D01*
X48561Y-39194D01*
X48532Y-39222D01*
X48504Y-39237D01*
X48447Y-39251D01*
X48404Y-39251D01*
X48347Y-39237D01*
X48318Y-39222D01*
X48290Y-39194D01*
X48275Y-39151D01*
X48275Y-39122D01*
X48290Y-39080D01*
X48304Y-39065D01*
X48575Y-38922D02*
X48575Y-38865D01*
X48561Y-38837D01*
X48547Y-38822D01*
X48504Y-38794D01*
X48447Y-38780D01*
X48332Y-38780D01*
X48304Y-38794D01*
X48290Y-38808D01*
X48275Y-38837D01*
X48275Y-38894D01*
X48290Y-38922D01*
X48304Y-38937D01*
X48332Y-38951D01*
X48404Y-38951D01*
X48432Y-38937D01*
X48447Y-38922D01*
X48461Y-38894D01*
X48461Y-38837D01*
X48447Y-38808D01*
X48432Y-38794D01*
X48404Y-38780D01*
X48575Y-38494D02*
X48575Y-38665D01*
X48575Y-38580D02*
X48275Y-38580D01*
X48318Y-38608D01*
X48347Y-38637D01*
X48361Y-38665D01*
X48275Y-38394D02*
X48275Y-38194D01*
X48575Y-38322D01*
X43037Y-36535D02*
X43051Y-36550D01*
X43065Y-36592D01*
X43065Y-36621D01*
X43051Y-36664D01*
X43022Y-36692D01*
X42994Y-36707D01*
X42937Y-36721D01*
X42894Y-36721D01*
X42837Y-36707D01*
X42808Y-36692D01*
X42780Y-36664D01*
X42765Y-36621D01*
X42765Y-36592D01*
X42780Y-36550D01*
X42794Y-36535D01*
X43065Y-36392D02*
X43065Y-36335D01*
X43051Y-36307D01*
X43037Y-36292D01*
X42994Y-36264D01*
X42937Y-36250D01*
X42822Y-36250D01*
X42794Y-36264D01*
X42780Y-36278D01*
X42765Y-36307D01*
X42765Y-36364D01*
X42780Y-36392D01*
X42794Y-36407D01*
X42822Y-36421D01*
X42894Y-36421D01*
X42922Y-36407D01*
X42937Y-36392D01*
X42951Y-36364D01*
X42951Y-36307D01*
X42937Y-36278D01*
X42922Y-36264D01*
X42894Y-36250D01*
X43065Y-35964D02*
X43065Y-36135D01*
X43065Y-36050D02*
X42765Y-36050D01*
X42808Y-36078D01*
X42837Y-36107D01*
X42851Y-36135D01*
X42894Y-35792D02*
X42880Y-35821D01*
X42865Y-35835D01*
X42837Y-35850D01*
X42822Y-35850D01*
X42794Y-35835D01*
X42780Y-35821D01*
X42765Y-35792D01*
X42765Y-35735D01*
X42780Y-35707D01*
X42794Y-35692D01*
X42822Y-35678D01*
X42837Y-35678D01*
X42865Y-35692D01*
X42880Y-35707D01*
X42894Y-35735D01*
X42894Y-35792D01*
X42908Y-35821D01*
X42922Y-35835D01*
X42951Y-35850D01*
X43008Y-35850D01*
X43037Y-35835D01*
X43051Y-35821D01*
X43065Y-35792D01*
X43065Y-35735D01*
X43051Y-35707D01*
X43037Y-35692D01*
X43008Y-35678D01*
X42951Y-35678D01*
X42922Y-35692D01*
X42908Y-35707D01*
X42894Y-35735D01*
G54D17*
X49894Y-41577D02*
X49880Y-41591D01*
X49837Y-41605D01*
X49808Y-41605D01*
X49765Y-41591D01*
X49737Y-41562D01*
X49722Y-41534D01*
X49708Y-41477D01*
X49708Y-41434D01*
X49722Y-41377D01*
X49737Y-41348D01*
X49765Y-41320D01*
X49808Y-41305D01*
X49837Y-41305D01*
X49880Y-41320D01*
X49894Y-41334D01*
X50037Y-41605D02*
X50094Y-41605D01*
X50122Y-41591D01*
X50137Y-41577D01*
X50165Y-41534D01*
X50180Y-41477D01*
X50180Y-41362D01*
X50165Y-41334D01*
X50151Y-41320D01*
X50122Y-41305D01*
X50065Y-41305D01*
X50037Y-41320D01*
X50022Y-41334D01*
X50008Y-41362D01*
X50008Y-41434D01*
X50022Y-41462D01*
X50037Y-41477D01*
X50065Y-41491D01*
X50122Y-41491D01*
X50151Y-41477D01*
X50165Y-41462D01*
X50180Y-41434D01*
X50294Y-41334D02*
X50308Y-41320D01*
X50337Y-41305D01*
X50408Y-41305D01*
X50437Y-41320D01*
X50451Y-41334D01*
X50465Y-41362D01*
X50465Y-41391D01*
X50451Y-41434D01*
X50280Y-41605D01*
X50465Y-41605D01*
X50651Y-41305D02*
X50680Y-41305D01*
X50708Y-41320D01*
X50722Y-41334D01*
X50737Y-41362D01*
X50751Y-41420D01*
X50751Y-41491D01*
X50737Y-41548D01*
X50722Y-41577D01*
X50708Y-41591D01*
X50680Y-41605D01*
X50651Y-41605D01*
X50622Y-41591D01*
X50608Y-41577D01*
X50594Y-41548D01*
X50580Y-41491D01*
X50580Y-41420D01*
X50594Y-41362D01*
X50608Y-41334D01*
X50622Y-41320D01*
X50651Y-41305D01*
G54D11*
X49084Y-28565D02*
X48984Y-28422D01*
X48912Y-28565D02*
X48912Y-28265D01*
X49027Y-28265D01*
X49055Y-28280D01*
X49070Y-28294D01*
X49084Y-28322D01*
X49084Y-28365D01*
X49070Y-28394D01*
X49055Y-28408D01*
X49027Y-28422D01*
X48912Y-28422D01*
X49227Y-28565D02*
X49284Y-28565D01*
X49312Y-28551D01*
X49327Y-28537D01*
X49355Y-28494D01*
X49370Y-28437D01*
X49370Y-28322D01*
X49355Y-28294D01*
X49341Y-28280D01*
X49312Y-28265D01*
X49255Y-28265D01*
X49227Y-28280D01*
X49212Y-28294D01*
X49198Y-28322D01*
X49198Y-28394D01*
X49212Y-28422D01*
X49227Y-28437D01*
X49255Y-28451D01*
X49312Y-28451D01*
X49341Y-28437D01*
X49355Y-28422D01*
X49370Y-28394D01*
X49555Y-28265D02*
X49584Y-28265D01*
X49612Y-28280D01*
X49627Y-28294D01*
X49641Y-28322D01*
X49655Y-28380D01*
X49655Y-28451D01*
X49641Y-28508D01*
X49627Y-28537D01*
X49612Y-28551D01*
X49584Y-28565D01*
X49555Y-28565D01*
X49527Y-28551D01*
X49512Y-28537D01*
X49498Y-28508D01*
X49484Y-28451D01*
X49484Y-28380D01*
X49498Y-28322D01*
X49512Y-28294D01*
X49527Y-28280D01*
X49555Y-28265D01*
X49798Y-28565D02*
X49855Y-28565D01*
X49884Y-28551D01*
X49898Y-28537D01*
X49927Y-28494D01*
X49941Y-28437D01*
X49941Y-28322D01*
X49927Y-28294D01*
X49912Y-28280D01*
X49884Y-28265D01*
X49827Y-28265D01*
X49798Y-28280D01*
X49784Y-28294D01*
X49770Y-28322D01*
X49770Y-28394D01*
X49784Y-28422D01*
X49798Y-28437D01*
X49827Y-28451D01*
X49884Y-28451D01*
X49912Y-28437D01*
X49927Y-28422D01*
X49941Y-28394D01*
X40835Y-27335D02*
X40692Y-27435D01*
X40835Y-27507D02*
X40535Y-27507D01*
X40535Y-27392D01*
X40550Y-27364D01*
X40564Y-27350D01*
X40592Y-27335D01*
X40635Y-27335D01*
X40664Y-27350D01*
X40678Y-27364D01*
X40692Y-27392D01*
X40692Y-27507D01*
X40835Y-27192D02*
X40835Y-27135D01*
X40821Y-27107D01*
X40807Y-27092D01*
X40764Y-27064D01*
X40707Y-27050D01*
X40592Y-27050D01*
X40564Y-27064D01*
X40550Y-27078D01*
X40535Y-27107D01*
X40535Y-27164D01*
X40550Y-27192D01*
X40564Y-27207D01*
X40592Y-27221D01*
X40664Y-27221D01*
X40692Y-27207D01*
X40707Y-27192D01*
X40721Y-27164D01*
X40721Y-27107D01*
X40707Y-27078D01*
X40692Y-27064D01*
X40664Y-27050D01*
X40835Y-26764D02*
X40835Y-26935D01*
X40835Y-26850D02*
X40535Y-26850D01*
X40578Y-26878D01*
X40607Y-26907D01*
X40621Y-26935D01*
X40535Y-26578D02*
X40535Y-26550D01*
X40550Y-26521D01*
X40564Y-26507D01*
X40592Y-26492D01*
X40650Y-26478D01*
X40721Y-26478D01*
X40778Y-26492D01*
X40807Y-26507D01*
X40821Y-26521D01*
X40835Y-26550D01*
X40835Y-26578D01*
X40821Y-26607D01*
X40807Y-26621D01*
X40778Y-26635D01*
X40721Y-26650D01*
X40650Y-26650D01*
X40592Y-26635D01*
X40564Y-26621D01*
X40550Y-26607D01*
X40535Y-26578D01*
X40164Y-28584D02*
X40150Y-28612D01*
X40121Y-28641D01*
X40078Y-28684D01*
X40064Y-28712D01*
X40064Y-28741D01*
X40135Y-28727D02*
X40121Y-28755D01*
X40092Y-28784D01*
X40035Y-28798D01*
X39935Y-28798D01*
X39878Y-28784D01*
X39850Y-28755D01*
X39835Y-28727D01*
X39835Y-28670D01*
X39850Y-28641D01*
X39878Y-28612D01*
X39935Y-28598D01*
X40035Y-28598D01*
X40092Y-28612D01*
X40121Y-28641D01*
X40135Y-28670D01*
X40135Y-28727D01*
X40135Y-28455D02*
X40135Y-28398D01*
X40121Y-28369D01*
X40107Y-28355D01*
X40064Y-28327D01*
X40007Y-28312D01*
X39892Y-28312D01*
X39864Y-28327D01*
X39850Y-28341D01*
X39835Y-28369D01*
X39835Y-28427D01*
X39850Y-28455D01*
X39864Y-28469D01*
X39892Y-28484D01*
X39964Y-28484D01*
X39992Y-28469D01*
X40007Y-28455D01*
X40021Y-28427D01*
X40021Y-28369D01*
X40007Y-28341D01*
X39992Y-28327D01*
X39964Y-28312D01*
X39835Y-28127D02*
X39835Y-28098D01*
X39850Y-28070D01*
X39864Y-28055D01*
X39892Y-28041D01*
X39950Y-28027D01*
X40021Y-28027D01*
X40078Y-28041D01*
X40107Y-28055D01*
X40121Y-28070D01*
X40135Y-28098D01*
X40135Y-28127D01*
X40121Y-28155D01*
X40107Y-28170D01*
X40078Y-28184D01*
X40021Y-28198D01*
X39950Y-28198D01*
X39892Y-28184D01*
X39864Y-28170D01*
X39850Y-28155D01*
X39835Y-28127D01*
X40135Y-27741D02*
X40135Y-27912D01*
X40135Y-27827D02*
X39835Y-27827D01*
X39878Y-27855D01*
X39907Y-27884D01*
X39921Y-27912D01*
X40275Y-32375D02*
X40132Y-32475D01*
X40275Y-32547D02*
X39975Y-32547D01*
X39975Y-32432D01*
X39990Y-32404D01*
X40004Y-32390D01*
X40032Y-32375D01*
X40075Y-32375D01*
X40104Y-32390D01*
X40118Y-32404D01*
X40132Y-32432D01*
X40132Y-32547D01*
X40275Y-32232D02*
X40275Y-32175D01*
X40261Y-32147D01*
X40247Y-32132D01*
X40204Y-32104D01*
X40147Y-32090D01*
X40032Y-32090D01*
X40004Y-32104D01*
X39990Y-32118D01*
X39975Y-32147D01*
X39975Y-32204D01*
X39990Y-32232D01*
X40004Y-32247D01*
X40032Y-32261D01*
X40104Y-32261D01*
X40132Y-32247D01*
X40147Y-32232D01*
X40161Y-32204D01*
X40161Y-32147D01*
X40147Y-32118D01*
X40132Y-32104D01*
X40104Y-32090D01*
X40275Y-31804D02*
X40275Y-31975D01*
X40275Y-31890D02*
X39975Y-31890D01*
X40018Y-31918D01*
X40047Y-31947D01*
X40061Y-31975D01*
X40275Y-31518D02*
X40275Y-31690D01*
X40275Y-31604D02*
X39975Y-31604D01*
X40018Y-31632D01*
X40047Y-31661D01*
X40061Y-31690D01*
X41805Y-43745D02*
X41662Y-43845D01*
X41805Y-43917D02*
X41505Y-43917D01*
X41505Y-43802D01*
X41520Y-43774D01*
X41534Y-43760D01*
X41562Y-43745D01*
X41605Y-43745D01*
X41634Y-43760D01*
X41648Y-43774D01*
X41662Y-43802D01*
X41662Y-43917D01*
X41805Y-43602D02*
X41805Y-43545D01*
X41791Y-43517D01*
X41777Y-43502D01*
X41734Y-43474D01*
X41677Y-43460D01*
X41562Y-43460D01*
X41534Y-43474D01*
X41520Y-43488D01*
X41505Y-43517D01*
X41505Y-43574D01*
X41520Y-43602D01*
X41534Y-43617D01*
X41562Y-43631D01*
X41634Y-43631D01*
X41662Y-43617D01*
X41677Y-43602D01*
X41691Y-43574D01*
X41691Y-43517D01*
X41677Y-43488D01*
X41662Y-43474D01*
X41634Y-43460D01*
X41805Y-43174D02*
X41805Y-43345D01*
X41805Y-43260D02*
X41505Y-43260D01*
X41548Y-43288D01*
X41577Y-43317D01*
X41591Y-43345D01*
X41534Y-43060D02*
X41520Y-43045D01*
X41505Y-43017D01*
X41505Y-42945D01*
X41520Y-42917D01*
X41534Y-42902D01*
X41562Y-42888D01*
X41591Y-42888D01*
X41634Y-42902D01*
X41805Y-43074D01*
X41805Y-42888D01*
X41725Y-47334D02*
X41725Y-47162D01*
X42025Y-47248D02*
X41725Y-47248D01*
X42025Y-47062D02*
X41725Y-47062D01*
X41725Y-46948D01*
X41740Y-46919D01*
X41754Y-46905D01*
X41782Y-46891D01*
X41825Y-46891D01*
X41854Y-46905D01*
X41868Y-46919D01*
X41882Y-46948D01*
X41882Y-47062D01*
X42025Y-46748D02*
X42025Y-46691D01*
X42011Y-46662D01*
X41997Y-46648D01*
X41954Y-46619D01*
X41897Y-46605D01*
X41782Y-46605D01*
X41754Y-46619D01*
X41740Y-46634D01*
X41725Y-46662D01*
X41725Y-46719D01*
X41740Y-46748D01*
X41754Y-46762D01*
X41782Y-46777D01*
X41854Y-46777D01*
X41882Y-46762D01*
X41897Y-46748D01*
X41911Y-46719D01*
X41911Y-46662D01*
X41897Y-46634D01*
X41882Y-46619D01*
X41854Y-46605D01*
X41725Y-46420D02*
X41725Y-46391D01*
X41740Y-46362D01*
X41754Y-46348D01*
X41782Y-46334D01*
X41840Y-46320D01*
X41911Y-46320D01*
X41968Y-46334D01*
X41997Y-46348D01*
X42011Y-46362D01*
X42025Y-46391D01*
X42025Y-46420D01*
X42011Y-46448D01*
X41997Y-46462D01*
X41968Y-46477D01*
X41911Y-46491D01*
X41840Y-46491D01*
X41782Y-46477D01*
X41754Y-46462D01*
X41740Y-46448D01*
X41725Y-46420D01*
X41725Y-46220D02*
X41725Y-46034D01*
X41840Y-46134D01*
X41840Y-46091D01*
X41854Y-46062D01*
X41868Y-46048D01*
X41897Y-46034D01*
X41968Y-46034D01*
X41997Y-46048D01*
X42011Y-46062D01*
X42025Y-46091D01*
X42025Y-46177D01*
X42011Y-46205D01*
X41997Y-46220D01*
X47025Y-33764D02*
X47025Y-33592D01*
X47325Y-33678D02*
X47025Y-33678D01*
X47325Y-33492D02*
X47025Y-33492D01*
X47025Y-33378D01*
X47040Y-33349D01*
X47054Y-33335D01*
X47082Y-33321D01*
X47125Y-33321D01*
X47154Y-33335D01*
X47168Y-33349D01*
X47182Y-33378D01*
X47182Y-33492D01*
X47325Y-33178D02*
X47325Y-33121D01*
X47311Y-33092D01*
X47297Y-33078D01*
X47254Y-33049D01*
X47197Y-33035D01*
X47082Y-33035D01*
X47054Y-33049D01*
X47040Y-33064D01*
X47025Y-33092D01*
X47025Y-33149D01*
X47040Y-33178D01*
X47054Y-33192D01*
X47082Y-33207D01*
X47154Y-33207D01*
X47182Y-33192D01*
X47197Y-33178D01*
X47211Y-33149D01*
X47211Y-33092D01*
X47197Y-33064D01*
X47182Y-33049D01*
X47154Y-33035D01*
X47025Y-32850D02*
X47025Y-32821D01*
X47040Y-32792D01*
X47054Y-32778D01*
X47082Y-32764D01*
X47140Y-32750D01*
X47211Y-32750D01*
X47268Y-32764D01*
X47297Y-32778D01*
X47311Y-32792D01*
X47325Y-32821D01*
X47325Y-32850D01*
X47311Y-32878D01*
X47297Y-32892D01*
X47268Y-32907D01*
X47211Y-32921D01*
X47140Y-32921D01*
X47082Y-32907D01*
X47054Y-32892D01*
X47040Y-32878D01*
X47025Y-32850D01*
X47125Y-32492D02*
X47325Y-32492D01*
X47011Y-32564D02*
X47225Y-32635D01*
X47225Y-32450D01*
G54D18*
X64595Y-30625D02*
X64595Y-30868D01*
X64610Y-30897D01*
X64624Y-30911D01*
X64652Y-30925D01*
X64710Y-30925D01*
X64738Y-30911D01*
X64752Y-30897D01*
X64767Y-30868D01*
X64767Y-30625D01*
X64895Y-30654D02*
X64910Y-30640D01*
X64938Y-30625D01*
X65010Y-30625D01*
X65038Y-30640D01*
X65052Y-30654D01*
X65067Y-30682D01*
X65067Y-30711D01*
X65052Y-30754D01*
X64881Y-30925D01*
X65067Y-30925D01*
X65252Y-30625D02*
X65281Y-30625D01*
X65310Y-30640D01*
X65324Y-30654D01*
X65338Y-30682D01*
X65352Y-30740D01*
X65352Y-30811D01*
X65338Y-30868D01*
X65324Y-30897D01*
X65310Y-30911D01*
X65281Y-30925D01*
X65252Y-30925D01*
X65224Y-30911D01*
X65210Y-30897D01*
X65195Y-30868D01*
X65181Y-30811D01*
X65181Y-30740D01*
X65195Y-30682D01*
X65210Y-30654D01*
X65224Y-30640D01*
X65252Y-30625D01*
X65638Y-30925D02*
X65467Y-30925D01*
X65552Y-30925D02*
X65552Y-30625D01*
X65524Y-30668D01*
X65495Y-30697D01*
X65467Y-30711D01*
G54D11*
X64257Y-31475D02*
X64271Y-31490D01*
X64285Y-31532D01*
X64285Y-31561D01*
X64271Y-31604D01*
X64242Y-31632D01*
X64214Y-31647D01*
X64157Y-31661D01*
X64114Y-31661D01*
X64057Y-31647D01*
X64028Y-31632D01*
X64000Y-31604D01*
X63985Y-31561D01*
X63985Y-31532D01*
X64000Y-31490D01*
X64014Y-31475D01*
X64014Y-31361D02*
X64000Y-31347D01*
X63985Y-31318D01*
X63985Y-31247D01*
X64000Y-31218D01*
X64014Y-31204D01*
X64042Y-31190D01*
X64071Y-31190D01*
X64114Y-31204D01*
X64285Y-31375D01*
X64285Y-31190D01*
X64285Y-30904D02*
X64285Y-31075D01*
X64285Y-30990D02*
X63985Y-30990D01*
X64028Y-31018D01*
X64057Y-31047D01*
X64071Y-31075D01*
X64285Y-30618D02*
X64285Y-30790D01*
X64285Y-30704D02*
X63985Y-30704D01*
X64028Y-30732D01*
X64057Y-30761D01*
X64071Y-30790D01*
X77395Y-34081D02*
X77095Y-34081D01*
X77095Y-33967D01*
X77110Y-33938D01*
X77124Y-33924D01*
X77152Y-33910D01*
X77195Y-33910D01*
X77224Y-33924D01*
X77238Y-33938D01*
X77252Y-33967D01*
X77252Y-34081D01*
X77195Y-33652D02*
X77395Y-33652D01*
X77081Y-33724D02*
X77295Y-33795D01*
X77295Y-33610D01*
X71175Y-26705D02*
X71175Y-26848D01*
X70875Y-26848D01*
X70904Y-26619D02*
X70890Y-26605D01*
X70875Y-26577D01*
X70875Y-26505D01*
X70890Y-26477D01*
X70904Y-26462D01*
X70932Y-26448D01*
X70961Y-26448D01*
X71004Y-26462D01*
X71175Y-26634D01*
X71175Y-26448D01*
X70875Y-26262D02*
X70875Y-26234D01*
X70890Y-26205D01*
X70904Y-26191D01*
X70932Y-26177D01*
X70990Y-26162D01*
X71061Y-26162D01*
X71118Y-26177D01*
X71147Y-26191D01*
X71161Y-26205D01*
X71175Y-26234D01*
X71175Y-26262D01*
X71161Y-26291D01*
X71147Y-26305D01*
X71118Y-26319D01*
X71061Y-26334D01*
X70990Y-26334D01*
X70932Y-26319D01*
X70904Y-26305D01*
X70890Y-26291D01*
X70875Y-26262D01*
X70904Y-26048D02*
X70890Y-26034D01*
X70875Y-26005D01*
X70875Y-25934D01*
X70890Y-25905D01*
X70904Y-25891D01*
X70932Y-25877D01*
X70961Y-25877D01*
X71004Y-25891D01*
X71175Y-26062D01*
X71175Y-25877D01*
G54D18*
X71475Y-28855D02*
X71475Y-29098D01*
X71490Y-29127D01*
X71504Y-29141D01*
X71532Y-29155D01*
X71590Y-29155D01*
X71618Y-29141D01*
X71632Y-29127D01*
X71647Y-29098D01*
X71647Y-28855D01*
X71775Y-28884D02*
X71790Y-28870D01*
X71818Y-28855D01*
X71890Y-28855D01*
X71918Y-28870D01*
X71932Y-28884D01*
X71947Y-28912D01*
X71947Y-28941D01*
X71932Y-28984D01*
X71761Y-29155D01*
X71947Y-29155D01*
X72132Y-28855D02*
X72161Y-28855D01*
X72190Y-28870D01*
X72204Y-28884D01*
X72218Y-28912D01*
X72232Y-28970D01*
X72232Y-29041D01*
X72218Y-29098D01*
X72204Y-29127D01*
X72190Y-29141D01*
X72161Y-29155D01*
X72132Y-29155D01*
X72104Y-29141D01*
X72090Y-29127D01*
X72075Y-29098D01*
X72061Y-29041D01*
X72061Y-28970D01*
X72075Y-28912D01*
X72090Y-28884D01*
X72104Y-28870D01*
X72132Y-28855D01*
X72347Y-28884D02*
X72361Y-28870D01*
X72390Y-28855D01*
X72461Y-28855D01*
X72490Y-28870D01*
X72504Y-28884D01*
X72518Y-28912D01*
X72518Y-28941D01*
X72504Y-28984D01*
X72332Y-29155D01*
X72518Y-29155D01*
G54D11*
X72064Y-29687D02*
X72050Y-29701D01*
X72007Y-29715D01*
X71978Y-29715D01*
X71935Y-29701D01*
X71907Y-29672D01*
X71892Y-29644D01*
X71878Y-29587D01*
X71878Y-29544D01*
X71892Y-29487D01*
X71907Y-29458D01*
X71935Y-29430D01*
X71978Y-29415D01*
X72007Y-29415D01*
X72050Y-29430D01*
X72064Y-29444D01*
X72178Y-29444D02*
X72192Y-29430D01*
X72221Y-29415D01*
X72292Y-29415D01*
X72321Y-29430D01*
X72335Y-29444D01*
X72350Y-29472D01*
X72350Y-29501D01*
X72335Y-29544D01*
X72164Y-29715D01*
X72350Y-29715D01*
X72635Y-29715D02*
X72464Y-29715D01*
X72550Y-29715D02*
X72550Y-29415D01*
X72521Y-29458D01*
X72492Y-29487D01*
X72464Y-29501D01*
X72750Y-29444D02*
X72764Y-29430D01*
X72792Y-29415D01*
X72864Y-29415D01*
X72892Y-29430D01*
X72907Y-29444D01*
X72921Y-29472D01*
X72921Y-29501D01*
X72907Y-29544D01*
X72735Y-29715D01*
X72921Y-29715D01*
X72064Y-30115D02*
X71964Y-29972D01*
X71892Y-30115D02*
X71892Y-29815D01*
X72007Y-29815D01*
X72035Y-29830D01*
X72050Y-29844D01*
X72064Y-29872D01*
X72064Y-29915D01*
X72050Y-29944D01*
X72035Y-29958D01*
X72007Y-29972D01*
X71892Y-29972D01*
X72178Y-29844D02*
X72192Y-29830D01*
X72221Y-29815D01*
X72292Y-29815D01*
X72321Y-29830D01*
X72335Y-29844D01*
X72350Y-29872D01*
X72350Y-29901D01*
X72335Y-29944D01*
X72164Y-30115D01*
X72350Y-30115D01*
X72535Y-29815D02*
X72564Y-29815D01*
X72592Y-29830D01*
X72607Y-29844D01*
X72621Y-29872D01*
X72635Y-29930D01*
X72635Y-30001D01*
X72621Y-30058D01*
X72607Y-30087D01*
X72592Y-30101D01*
X72564Y-30115D01*
X72535Y-30115D01*
X72507Y-30101D01*
X72492Y-30087D01*
X72478Y-30058D01*
X72464Y-30001D01*
X72464Y-29930D01*
X72478Y-29872D01*
X72492Y-29844D01*
X72507Y-29830D01*
X72535Y-29815D01*
X72735Y-29815D02*
X72921Y-29815D01*
X72821Y-29930D01*
X72864Y-29930D01*
X72892Y-29944D01*
X72907Y-29958D01*
X72921Y-29987D01*
X72921Y-30058D01*
X72907Y-30087D01*
X72892Y-30101D01*
X72864Y-30115D01*
X72778Y-30115D01*
X72750Y-30101D01*
X72735Y-30087D01*
X72064Y-30515D02*
X71964Y-30372D01*
X71892Y-30515D02*
X71892Y-30215D01*
X72007Y-30215D01*
X72035Y-30230D01*
X72050Y-30244D01*
X72064Y-30272D01*
X72064Y-30315D01*
X72050Y-30344D01*
X72035Y-30358D01*
X72007Y-30372D01*
X71892Y-30372D01*
X72178Y-30244D02*
X72192Y-30230D01*
X72221Y-30215D01*
X72292Y-30215D01*
X72321Y-30230D01*
X72335Y-30244D01*
X72350Y-30272D01*
X72350Y-30301D01*
X72335Y-30344D01*
X72164Y-30515D01*
X72350Y-30515D01*
X72535Y-30215D02*
X72564Y-30215D01*
X72592Y-30230D01*
X72607Y-30244D01*
X72621Y-30272D01*
X72635Y-30330D01*
X72635Y-30401D01*
X72621Y-30458D01*
X72607Y-30487D01*
X72592Y-30501D01*
X72564Y-30515D01*
X72535Y-30515D01*
X72507Y-30501D01*
X72492Y-30487D01*
X72478Y-30458D01*
X72464Y-30401D01*
X72464Y-30330D01*
X72478Y-30272D01*
X72492Y-30244D01*
X72507Y-30230D01*
X72535Y-30215D01*
X72892Y-30315D02*
X72892Y-30515D01*
X72821Y-30201D02*
X72750Y-30415D01*
X72935Y-30415D01*
X64325Y-26815D02*
X64497Y-26815D01*
X64411Y-27115D02*
X64411Y-26815D01*
X64597Y-27115D02*
X64597Y-26815D01*
X64711Y-26815D01*
X64740Y-26830D01*
X64754Y-26844D01*
X64768Y-26872D01*
X64768Y-26915D01*
X64754Y-26944D01*
X64740Y-26958D01*
X64711Y-26972D01*
X64597Y-26972D01*
X64882Y-26844D02*
X64897Y-26830D01*
X64925Y-26815D01*
X64997Y-26815D01*
X65025Y-26830D01*
X65040Y-26844D01*
X65054Y-26872D01*
X65054Y-26901D01*
X65040Y-26944D01*
X64868Y-27115D01*
X65054Y-27115D01*
X65240Y-26815D02*
X65268Y-26815D01*
X65297Y-26830D01*
X65311Y-26844D01*
X65325Y-26872D01*
X65340Y-26930D01*
X65340Y-27001D01*
X65325Y-27058D01*
X65311Y-27087D01*
X65297Y-27101D01*
X65268Y-27115D01*
X65240Y-27115D01*
X65211Y-27101D01*
X65197Y-27087D01*
X65182Y-27058D01*
X65168Y-27001D01*
X65168Y-26930D01*
X65182Y-26872D01*
X65197Y-26844D01*
X65211Y-26830D01*
X65240Y-26815D01*
X65454Y-26844D02*
X65468Y-26830D01*
X65497Y-26815D01*
X65568Y-26815D01*
X65597Y-26830D01*
X65611Y-26844D01*
X65625Y-26872D01*
X65625Y-26901D01*
X65611Y-26944D01*
X65440Y-27115D01*
X65625Y-27115D01*
X55227Y-38775D02*
X55241Y-38790D01*
X55255Y-38832D01*
X55255Y-38861D01*
X55241Y-38904D01*
X55212Y-38932D01*
X55184Y-38947D01*
X55127Y-38961D01*
X55084Y-38961D01*
X55027Y-38947D01*
X54998Y-38932D01*
X54970Y-38904D01*
X54955Y-38861D01*
X54955Y-38832D01*
X54970Y-38790D01*
X54984Y-38775D01*
X54984Y-38661D02*
X54970Y-38647D01*
X54955Y-38618D01*
X54955Y-38547D01*
X54970Y-38518D01*
X54984Y-38504D01*
X55012Y-38490D01*
X55041Y-38490D01*
X55084Y-38504D01*
X55255Y-38675D01*
X55255Y-38490D01*
X55255Y-38204D02*
X55255Y-38375D01*
X55255Y-38290D02*
X54955Y-38290D01*
X54998Y-38318D01*
X55027Y-38347D01*
X55041Y-38375D01*
X55055Y-37947D02*
X55255Y-37947D01*
X54941Y-38018D02*
X55155Y-38090D01*
X55155Y-37904D01*
X48407Y-37045D02*
X48421Y-37060D01*
X48435Y-37102D01*
X48435Y-37131D01*
X48421Y-37174D01*
X48392Y-37202D01*
X48364Y-37217D01*
X48307Y-37231D01*
X48264Y-37231D01*
X48207Y-37217D01*
X48178Y-37202D01*
X48150Y-37174D01*
X48135Y-37131D01*
X48135Y-37102D01*
X48150Y-37060D01*
X48164Y-37045D01*
X48435Y-36760D02*
X48435Y-36931D01*
X48435Y-36845D02*
X48135Y-36845D01*
X48178Y-36874D01*
X48207Y-36902D01*
X48221Y-36931D01*
X48135Y-36574D02*
X48135Y-36545D01*
X48150Y-36517D01*
X48164Y-36502D01*
X48192Y-36488D01*
X48250Y-36474D01*
X48321Y-36474D01*
X48378Y-36488D01*
X48407Y-36502D01*
X48421Y-36517D01*
X48435Y-36545D01*
X48435Y-36574D01*
X48421Y-36602D01*
X48407Y-36617D01*
X48378Y-36631D01*
X48321Y-36645D01*
X48250Y-36645D01*
X48192Y-36631D01*
X48164Y-36617D01*
X48150Y-36602D01*
X48135Y-36574D01*
X48135Y-36374D02*
X48135Y-36174D01*
X48435Y-36302D01*
X57197Y-28655D02*
X57211Y-28670D01*
X57225Y-28712D01*
X57225Y-28741D01*
X57211Y-28784D01*
X57182Y-28812D01*
X57154Y-28827D01*
X57097Y-28841D01*
X57054Y-28841D01*
X56997Y-28827D01*
X56968Y-28812D01*
X56940Y-28784D01*
X56925Y-28741D01*
X56925Y-28712D01*
X56940Y-28670D01*
X56954Y-28655D01*
X56954Y-28541D02*
X56940Y-28527D01*
X56925Y-28498D01*
X56925Y-28427D01*
X56940Y-28398D01*
X56954Y-28384D01*
X56982Y-28370D01*
X57011Y-28370D01*
X57054Y-28384D01*
X57225Y-28555D01*
X57225Y-28370D01*
X57225Y-28084D02*
X57225Y-28255D01*
X57225Y-28170D02*
X56925Y-28170D01*
X56968Y-28198D01*
X56997Y-28227D01*
X57011Y-28255D01*
X56925Y-27984D02*
X56925Y-27784D01*
X57225Y-27912D01*
X60367Y-29025D02*
X60381Y-29040D01*
X60395Y-29082D01*
X60395Y-29111D01*
X60381Y-29154D01*
X60352Y-29182D01*
X60324Y-29197D01*
X60267Y-29211D01*
X60224Y-29211D01*
X60167Y-29197D01*
X60138Y-29182D01*
X60110Y-29154D01*
X60095Y-29111D01*
X60095Y-29082D01*
X60110Y-29040D01*
X60124Y-29025D01*
X60124Y-28911D02*
X60110Y-28897D01*
X60095Y-28868D01*
X60095Y-28797D01*
X60110Y-28768D01*
X60124Y-28754D01*
X60152Y-28740D01*
X60181Y-28740D01*
X60224Y-28754D01*
X60395Y-28925D01*
X60395Y-28740D01*
X60395Y-28454D02*
X60395Y-28625D01*
X60395Y-28540D02*
X60095Y-28540D01*
X60138Y-28568D01*
X60167Y-28597D01*
X60181Y-28625D01*
X60224Y-28282D02*
X60210Y-28311D01*
X60195Y-28325D01*
X60167Y-28340D01*
X60152Y-28340D01*
X60124Y-28325D01*
X60110Y-28311D01*
X60095Y-28282D01*
X60095Y-28225D01*
X60110Y-28197D01*
X60124Y-28182D01*
X60152Y-28168D01*
X60167Y-28168D01*
X60195Y-28182D01*
X60210Y-28197D01*
X60224Y-28225D01*
X60224Y-28282D01*
X60238Y-28311D01*
X60252Y-28325D01*
X60281Y-28340D01*
X60338Y-28340D01*
X60367Y-28325D01*
X60381Y-28311D01*
X60395Y-28282D01*
X60395Y-28225D01*
X60381Y-28197D01*
X60367Y-28182D01*
X60338Y-28168D01*
X60281Y-28168D01*
X60252Y-28182D01*
X60238Y-28197D01*
X60224Y-28225D01*
X61757Y-29065D02*
X61771Y-29080D01*
X61785Y-29122D01*
X61785Y-29151D01*
X61771Y-29194D01*
X61742Y-29222D01*
X61714Y-29237D01*
X61657Y-29251D01*
X61614Y-29251D01*
X61557Y-29237D01*
X61528Y-29222D01*
X61500Y-29194D01*
X61485Y-29151D01*
X61485Y-29122D01*
X61500Y-29080D01*
X61514Y-29065D01*
X61514Y-28951D02*
X61500Y-28937D01*
X61485Y-28908D01*
X61485Y-28837D01*
X61500Y-28808D01*
X61514Y-28794D01*
X61542Y-28780D01*
X61571Y-28780D01*
X61614Y-28794D01*
X61785Y-28965D01*
X61785Y-28780D01*
X61785Y-28494D02*
X61785Y-28665D01*
X61785Y-28580D02*
X61485Y-28580D01*
X61528Y-28608D01*
X61557Y-28637D01*
X61571Y-28665D01*
X61485Y-28222D02*
X61485Y-28365D01*
X61628Y-28380D01*
X61614Y-28365D01*
X61600Y-28337D01*
X61600Y-28265D01*
X61614Y-28237D01*
X61628Y-28222D01*
X61657Y-28208D01*
X61728Y-28208D01*
X61757Y-28222D01*
X61771Y-28237D01*
X61785Y-28265D01*
X61785Y-28337D01*
X61771Y-28365D01*
X61757Y-28380D01*
X58177Y-39605D02*
X58191Y-39620D01*
X58205Y-39662D01*
X58205Y-39691D01*
X58191Y-39734D01*
X58162Y-39762D01*
X58134Y-39777D01*
X58077Y-39791D01*
X58034Y-39791D01*
X57977Y-39777D01*
X57948Y-39762D01*
X57920Y-39734D01*
X57905Y-39691D01*
X57905Y-39662D01*
X57920Y-39620D01*
X57934Y-39605D01*
X57934Y-39491D02*
X57920Y-39477D01*
X57905Y-39448D01*
X57905Y-39377D01*
X57920Y-39348D01*
X57934Y-39334D01*
X57962Y-39320D01*
X57991Y-39320D01*
X58034Y-39334D01*
X58205Y-39505D01*
X58205Y-39320D01*
X58205Y-39034D02*
X58205Y-39205D01*
X58205Y-39120D02*
X57905Y-39120D01*
X57948Y-39148D01*
X57977Y-39177D01*
X57991Y-39205D01*
X57905Y-38777D02*
X57905Y-38834D01*
X57920Y-38862D01*
X57934Y-38877D01*
X57977Y-38905D01*
X58034Y-38920D01*
X58148Y-38920D01*
X58177Y-38905D01*
X58191Y-38891D01*
X58205Y-38862D01*
X58205Y-38805D01*
X58191Y-38777D01*
X58177Y-38762D01*
X58148Y-38748D01*
X58077Y-38748D01*
X58048Y-38762D01*
X58034Y-38777D01*
X58020Y-38805D01*
X58020Y-38862D01*
X58034Y-38891D01*
X58048Y-38905D01*
X58077Y-38920D01*
X58417Y-26655D02*
X58617Y-26955D01*
X58617Y-26655D02*
X58417Y-26955D01*
X58888Y-26955D02*
X58717Y-26955D01*
X58802Y-26955D02*
X58802Y-26655D01*
X58774Y-26698D01*
X58745Y-26727D01*
X58717Y-26741D01*
G54D17*
X65894Y-27777D02*
X65880Y-27791D01*
X65837Y-27805D01*
X65808Y-27805D01*
X65765Y-27791D01*
X65737Y-27762D01*
X65722Y-27734D01*
X65708Y-27677D01*
X65708Y-27634D01*
X65722Y-27577D01*
X65737Y-27548D01*
X65765Y-27520D01*
X65808Y-27505D01*
X65837Y-27505D01*
X65880Y-27520D01*
X65894Y-27534D01*
X66008Y-27534D02*
X66022Y-27520D01*
X66051Y-27505D01*
X66122Y-27505D01*
X66151Y-27520D01*
X66165Y-27534D01*
X66180Y-27562D01*
X66180Y-27591D01*
X66165Y-27634D01*
X65994Y-27805D01*
X66180Y-27805D01*
X66465Y-27805D02*
X66294Y-27805D01*
X66380Y-27805D02*
X66380Y-27505D01*
X66351Y-27548D01*
X66322Y-27577D01*
X66294Y-27591D01*
X66608Y-27805D02*
X66665Y-27805D01*
X66694Y-27791D01*
X66708Y-27777D01*
X66737Y-27734D01*
X66751Y-27677D01*
X66751Y-27562D01*
X66737Y-27534D01*
X66722Y-27520D01*
X66694Y-27505D01*
X66637Y-27505D01*
X66608Y-27520D01*
X66594Y-27534D01*
X66580Y-27562D01*
X66580Y-27634D01*
X66594Y-27662D01*
X66608Y-27677D01*
X66637Y-27691D01*
X66694Y-27691D01*
X66722Y-27677D01*
X66737Y-27662D01*
X66751Y-27634D01*
G54D11*
X61157Y-28035D02*
X61171Y-28050D01*
X61185Y-28092D01*
X61185Y-28121D01*
X61171Y-28164D01*
X61142Y-28192D01*
X61114Y-28207D01*
X61057Y-28221D01*
X61014Y-28221D01*
X60957Y-28207D01*
X60928Y-28192D01*
X60900Y-28164D01*
X60885Y-28121D01*
X60885Y-28092D01*
X60900Y-28050D01*
X60914Y-28035D01*
X60914Y-27921D02*
X60900Y-27907D01*
X60885Y-27878D01*
X60885Y-27807D01*
X60900Y-27778D01*
X60914Y-27764D01*
X60942Y-27750D01*
X60971Y-27750D01*
X61014Y-27764D01*
X61185Y-27935D01*
X61185Y-27750D01*
X60914Y-27635D02*
X60900Y-27621D01*
X60885Y-27592D01*
X60885Y-27521D01*
X60900Y-27492D01*
X60914Y-27478D01*
X60942Y-27464D01*
X60971Y-27464D01*
X61014Y-27478D01*
X61185Y-27650D01*
X61185Y-27464D01*
X60885Y-27278D02*
X60885Y-27250D01*
X60900Y-27221D01*
X60914Y-27207D01*
X60942Y-27192D01*
X61000Y-27178D01*
X61071Y-27178D01*
X61128Y-27192D01*
X61157Y-27207D01*
X61171Y-27221D01*
X61185Y-27250D01*
X61185Y-27278D01*
X61171Y-27307D01*
X61157Y-27321D01*
X61128Y-27335D01*
X61071Y-27350D01*
X61000Y-27350D01*
X60942Y-27335D01*
X60914Y-27321D01*
X60900Y-27307D01*
X60885Y-27278D01*
X50795Y-28575D02*
X50795Y-28718D01*
X50495Y-28718D01*
X50795Y-28318D02*
X50795Y-28489D01*
X50795Y-28404D02*
X50495Y-28404D01*
X50538Y-28432D01*
X50567Y-28461D01*
X50581Y-28489D01*
X50495Y-28132D02*
X50495Y-28104D01*
X50510Y-28075D01*
X50524Y-28061D01*
X50552Y-28047D01*
X50610Y-28032D01*
X50681Y-28032D01*
X50738Y-28047D01*
X50767Y-28061D01*
X50781Y-28075D01*
X50795Y-28104D01*
X50795Y-28132D01*
X50781Y-28161D01*
X50767Y-28175D01*
X50738Y-28189D01*
X50681Y-28204D01*
X50610Y-28204D01*
X50552Y-28189D01*
X50524Y-28175D01*
X50510Y-28161D01*
X50495Y-28132D01*
X50524Y-27918D02*
X50510Y-27904D01*
X50495Y-27875D01*
X50495Y-27804D01*
X50510Y-27775D01*
X50524Y-27761D01*
X50552Y-27747D01*
X50581Y-27747D01*
X50624Y-27761D01*
X50795Y-27932D01*
X50795Y-27747D01*
X70414Y-41727D02*
X70400Y-41741D01*
X70357Y-41755D01*
X70328Y-41755D01*
X70285Y-41741D01*
X70257Y-41712D01*
X70242Y-41684D01*
X70228Y-41627D01*
X70228Y-41584D01*
X70242Y-41527D01*
X70257Y-41498D01*
X70285Y-41470D01*
X70328Y-41455D01*
X70357Y-41455D01*
X70400Y-41470D01*
X70414Y-41484D01*
X70700Y-41755D02*
X70528Y-41755D01*
X70614Y-41755D02*
X70614Y-41455D01*
X70585Y-41498D01*
X70557Y-41527D01*
X70528Y-41541D01*
X70971Y-41455D02*
X70828Y-41455D01*
X70814Y-41598D01*
X70828Y-41584D01*
X70857Y-41570D01*
X70928Y-41570D01*
X70957Y-41584D01*
X70971Y-41598D01*
X70985Y-41627D01*
X70985Y-41698D01*
X70971Y-41727D01*
X70957Y-41741D01*
X70928Y-41755D01*
X70857Y-41755D01*
X70828Y-41741D01*
X70814Y-41727D01*
X71271Y-41755D02*
X71100Y-41755D01*
X71185Y-41755D02*
X71185Y-41455D01*
X71157Y-41498D01*
X71128Y-41527D01*
X71100Y-41541D01*
X73834Y-41727D02*
X73820Y-41741D01*
X73777Y-41755D01*
X73748Y-41755D01*
X73705Y-41741D01*
X73677Y-41712D01*
X73662Y-41684D01*
X73648Y-41627D01*
X73648Y-41584D01*
X73662Y-41527D01*
X73677Y-41498D01*
X73705Y-41470D01*
X73748Y-41455D01*
X73777Y-41455D01*
X73820Y-41470D01*
X73834Y-41484D01*
X74120Y-41755D02*
X73948Y-41755D01*
X74034Y-41755D02*
X74034Y-41455D01*
X74005Y-41498D01*
X73977Y-41527D01*
X73948Y-41541D01*
X74391Y-41455D02*
X74248Y-41455D01*
X74234Y-41598D01*
X74248Y-41584D01*
X74277Y-41570D01*
X74348Y-41570D01*
X74377Y-41584D01*
X74391Y-41598D01*
X74405Y-41627D01*
X74405Y-41698D01*
X74391Y-41727D01*
X74377Y-41741D01*
X74348Y-41755D01*
X74277Y-41755D01*
X74248Y-41741D01*
X74234Y-41727D01*
X74520Y-41484D02*
X74534Y-41470D01*
X74562Y-41455D01*
X74634Y-41455D01*
X74662Y-41470D01*
X74677Y-41484D01*
X74691Y-41512D01*
X74691Y-41541D01*
X74677Y-41584D01*
X74505Y-41755D01*
X74691Y-41755D01*
X77674Y-42207D02*
X77660Y-42221D01*
X77617Y-42235D01*
X77588Y-42235D01*
X77545Y-42221D01*
X77517Y-42192D01*
X77502Y-42164D01*
X77488Y-42107D01*
X77488Y-42064D01*
X77502Y-42007D01*
X77517Y-41978D01*
X77545Y-41950D01*
X77588Y-41935D01*
X77617Y-41935D01*
X77660Y-41950D01*
X77674Y-41964D01*
X77960Y-42235D02*
X77788Y-42235D01*
X77874Y-42235D02*
X77874Y-41935D01*
X77845Y-41978D01*
X77817Y-42007D01*
X77788Y-42021D01*
X78231Y-41935D02*
X78088Y-41935D01*
X78074Y-42078D01*
X78088Y-42064D01*
X78117Y-42050D01*
X78188Y-42050D01*
X78217Y-42064D01*
X78231Y-42078D01*
X78245Y-42107D01*
X78245Y-42178D01*
X78231Y-42207D01*
X78217Y-42221D01*
X78188Y-42235D01*
X78117Y-42235D01*
X78088Y-42221D01*
X78074Y-42207D01*
X78345Y-41935D02*
X78531Y-41935D01*
X78431Y-42050D01*
X78474Y-42050D01*
X78502Y-42064D01*
X78517Y-42078D01*
X78531Y-42107D01*
X78531Y-42178D01*
X78517Y-42207D01*
X78502Y-42221D01*
X78474Y-42235D01*
X78388Y-42235D01*
X78360Y-42221D01*
X78345Y-42207D01*
X71557Y-47245D02*
X71571Y-47260D01*
X71585Y-47302D01*
X71585Y-47331D01*
X71571Y-47374D01*
X71542Y-47402D01*
X71514Y-47417D01*
X71457Y-47431D01*
X71414Y-47431D01*
X71357Y-47417D01*
X71328Y-47402D01*
X71300Y-47374D01*
X71285Y-47331D01*
X71285Y-47302D01*
X71300Y-47260D01*
X71314Y-47245D01*
X71585Y-46960D02*
X71585Y-47131D01*
X71585Y-47045D02*
X71285Y-47045D01*
X71328Y-47074D01*
X71357Y-47102D01*
X71371Y-47131D01*
X71285Y-46688D02*
X71285Y-46831D01*
X71428Y-46845D01*
X71414Y-46831D01*
X71400Y-46802D01*
X71400Y-46731D01*
X71414Y-46702D01*
X71428Y-46688D01*
X71457Y-46674D01*
X71528Y-46674D01*
X71557Y-46688D01*
X71571Y-46702D01*
X71585Y-46731D01*
X71585Y-46802D01*
X71571Y-46831D01*
X71557Y-46845D01*
X71385Y-46417D02*
X71585Y-46417D01*
X71271Y-46488D02*
X71485Y-46560D01*
X71485Y-46374D01*
X68774Y-41755D02*
X68674Y-41612D01*
X68602Y-41755D02*
X68602Y-41455D01*
X68717Y-41455D01*
X68745Y-41470D01*
X68760Y-41484D01*
X68774Y-41512D01*
X68774Y-41555D01*
X68760Y-41584D01*
X68745Y-41598D01*
X68717Y-41612D01*
X68602Y-41612D01*
X69060Y-41755D02*
X68888Y-41755D01*
X68974Y-41755D02*
X68974Y-41455D01*
X68945Y-41498D01*
X68917Y-41527D01*
X68888Y-41541D01*
X69331Y-41455D02*
X69188Y-41455D01*
X69174Y-41598D01*
X69188Y-41584D01*
X69217Y-41570D01*
X69288Y-41570D01*
X69317Y-41584D01*
X69331Y-41598D01*
X69345Y-41627D01*
X69345Y-41698D01*
X69331Y-41727D01*
X69317Y-41741D01*
X69288Y-41755D01*
X69217Y-41755D01*
X69188Y-41741D01*
X69174Y-41727D01*
X69631Y-41755D02*
X69460Y-41755D01*
X69545Y-41755D02*
X69545Y-41455D01*
X69517Y-41498D01*
X69488Y-41527D01*
X69460Y-41541D01*
X72254Y-41755D02*
X72154Y-41612D01*
X72082Y-41755D02*
X72082Y-41455D01*
X72197Y-41455D01*
X72225Y-41470D01*
X72240Y-41484D01*
X72254Y-41512D01*
X72254Y-41555D01*
X72240Y-41584D01*
X72225Y-41598D01*
X72197Y-41612D01*
X72082Y-41612D01*
X72540Y-41755D02*
X72368Y-41755D01*
X72454Y-41755D02*
X72454Y-41455D01*
X72425Y-41498D01*
X72397Y-41527D01*
X72368Y-41541D01*
X72811Y-41455D02*
X72668Y-41455D01*
X72654Y-41598D01*
X72668Y-41584D01*
X72697Y-41570D01*
X72768Y-41570D01*
X72797Y-41584D01*
X72811Y-41598D01*
X72825Y-41627D01*
X72825Y-41698D01*
X72811Y-41727D01*
X72797Y-41741D01*
X72768Y-41755D01*
X72697Y-41755D01*
X72668Y-41741D01*
X72654Y-41727D01*
X72940Y-41484D02*
X72954Y-41470D01*
X72982Y-41455D01*
X73054Y-41455D01*
X73082Y-41470D01*
X73097Y-41484D01*
X73111Y-41512D01*
X73111Y-41541D01*
X73097Y-41584D01*
X72925Y-41755D01*
X73111Y-41755D01*
X77384Y-41065D02*
X77284Y-40922D01*
X77212Y-41065D02*
X77212Y-40765D01*
X77327Y-40765D01*
X77355Y-40780D01*
X77370Y-40794D01*
X77384Y-40822D01*
X77384Y-40865D01*
X77370Y-40894D01*
X77355Y-40908D01*
X77327Y-40922D01*
X77212Y-40922D01*
X77670Y-41065D02*
X77498Y-41065D01*
X77584Y-41065D02*
X77584Y-40765D01*
X77555Y-40808D01*
X77527Y-40837D01*
X77498Y-40851D01*
X77941Y-40765D02*
X77798Y-40765D01*
X77784Y-40908D01*
X77798Y-40894D01*
X77827Y-40880D01*
X77898Y-40880D01*
X77927Y-40894D01*
X77941Y-40908D01*
X77955Y-40937D01*
X77955Y-41008D01*
X77941Y-41037D01*
X77927Y-41051D01*
X77898Y-41065D01*
X77827Y-41065D01*
X77798Y-41051D01*
X77784Y-41037D01*
X78055Y-40765D02*
X78241Y-40765D01*
X78141Y-40880D01*
X78184Y-40880D01*
X78212Y-40894D01*
X78227Y-40908D01*
X78241Y-40937D01*
X78241Y-41008D01*
X78227Y-41037D01*
X78212Y-41051D01*
X78184Y-41065D01*
X78098Y-41065D01*
X78070Y-41051D01*
X78055Y-41037D01*
X70985Y-47245D02*
X70842Y-47345D01*
X70985Y-47417D02*
X70685Y-47417D01*
X70685Y-47302D01*
X70700Y-47274D01*
X70714Y-47260D01*
X70742Y-47245D01*
X70785Y-47245D01*
X70814Y-47260D01*
X70828Y-47274D01*
X70842Y-47302D01*
X70842Y-47417D01*
X70985Y-46960D02*
X70985Y-47131D01*
X70985Y-47045D02*
X70685Y-47045D01*
X70728Y-47074D01*
X70757Y-47102D01*
X70771Y-47131D01*
X70685Y-46688D02*
X70685Y-46831D01*
X70828Y-46845D01*
X70814Y-46831D01*
X70800Y-46802D01*
X70800Y-46731D01*
X70814Y-46702D01*
X70828Y-46688D01*
X70857Y-46674D01*
X70928Y-46674D01*
X70957Y-46688D01*
X70971Y-46702D01*
X70985Y-46731D01*
X70985Y-46802D01*
X70971Y-46831D01*
X70957Y-46845D01*
X70785Y-46417D02*
X70985Y-46417D01*
X70671Y-46488D02*
X70885Y-46560D01*
X70885Y-46374D01*
G54D12*
X69066Y-45521D02*
X69123Y-45540D01*
X69219Y-45540D01*
X69257Y-45521D01*
X69276Y-45502D01*
X69295Y-45464D01*
X69295Y-45426D01*
X69276Y-45388D01*
X69257Y-45369D01*
X69219Y-45350D01*
X69142Y-45331D01*
X69104Y-45312D01*
X69085Y-45293D01*
X69066Y-45255D01*
X69066Y-45217D01*
X69085Y-45179D01*
X69104Y-45160D01*
X69142Y-45140D01*
X69238Y-45140D01*
X69295Y-45160D01*
X69428Y-45140D02*
X69523Y-45540D01*
X69600Y-45255D01*
X69676Y-45540D01*
X69771Y-45140D01*
X70133Y-45540D02*
X69904Y-45540D01*
X70019Y-45540D02*
X70019Y-45140D01*
X69980Y-45198D01*
X69942Y-45236D01*
X69904Y-45255D01*
G54D22*
X73100Y-44707D02*
X73145Y-44722D01*
X73220Y-44722D01*
X73250Y-44707D01*
X73265Y-44692D01*
X73280Y-44662D01*
X73280Y-44632D01*
X73265Y-44602D01*
X73250Y-44587D01*
X73220Y-44572D01*
X73160Y-44557D01*
X73130Y-44542D01*
X73115Y-44527D01*
X73100Y-44497D01*
X73100Y-44467D01*
X73115Y-44437D01*
X73130Y-44422D01*
X73160Y-44407D01*
X73235Y-44407D01*
X73280Y-44422D01*
X73385Y-44407D02*
X73460Y-44722D01*
X73520Y-44497D01*
X73580Y-44722D01*
X73655Y-44407D01*
X73760Y-44437D02*
X73775Y-44422D01*
X73805Y-44407D01*
X73880Y-44407D01*
X73910Y-44422D01*
X73925Y-44437D01*
X73940Y-44467D01*
X73940Y-44497D01*
X73925Y-44542D01*
X73745Y-44722D01*
X73940Y-44722D01*
G54D12*
X76416Y-45511D02*
X76473Y-45530D01*
X76569Y-45530D01*
X76607Y-45511D01*
X76626Y-45492D01*
X76645Y-45454D01*
X76645Y-45416D01*
X76626Y-45378D01*
X76607Y-45359D01*
X76569Y-45340D01*
X76492Y-45321D01*
X76454Y-45302D01*
X76435Y-45283D01*
X76416Y-45245D01*
X76416Y-45207D01*
X76435Y-45169D01*
X76454Y-45150D01*
X76492Y-45130D01*
X76588Y-45130D01*
X76645Y-45150D01*
X76778Y-45130D02*
X76873Y-45530D01*
X76950Y-45245D01*
X77026Y-45530D01*
X77121Y-45130D01*
X77235Y-45130D02*
X77483Y-45130D01*
X77350Y-45283D01*
X77407Y-45283D01*
X77445Y-45302D01*
X77464Y-45321D01*
X77483Y-45359D01*
X77483Y-45454D01*
X77464Y-45492D01*
X77445Y-45511D01*
X77407Y-45530D01*
X77292Y-45530D01*
X77254Y-45511D01*
X77235Y-45492D01*
X75206Y-46581D02*
X75263Y-46600D01*
X75359Y-46600D01*
X75397Y-46581D01*
X75416Y-46562D01*
X75435Y-46524D01*
X75435Y-46486D01*
X75416Y-46448D01*
X75397Y-46429D01*
X75359Y-46410D01*
X75282Y-46391D01*
X75244Y-46372D01*
X75225Y-46353D01*
X75206Y-46315D01*
X75206Y-46277D01*
X75225Y-46239D01*
X75244Y-46220D01*
X75282Y-46200D01*
X75378Y-46200D01*
X75435Y-46220D01*
X75568Y-46200D02*
X75663Y-46600D01*
X75740Y-46315D01*
X75816Y-46600D01*
X75911Y-46200D01*
X76235Y-46334D02*
X76235Y-46600D01*
X76140Y-46181D02*
X76044Y-46467D01*
X76292Y-46467D01*
M02*
