G04 (created by PCBNEW (2013-mar-13)-stable) date Fri 20 Nov 2015 04:23:37 PM CET*
%MOIN*%
G04 Gerber Fmt 3.4, Leading zero omitted, Abs format*
%FSLAX34Y34*%
G01*
G70*
G90*
G04 APERTURE LIST*
%ADD10C,0.005906*%
%ADD11C,0.196850*%
%ADD12C,0.051181*%
%ADD13C,0.125984*%
%ADD14C,0.100000*%
%ADD15C,0.050000*%
%ADD16C,0.160000*%
%ADD17C,0.063000*%
%ADD18R,0.086614X0.015748*%
%ADD19C,0.062992*%
%ADD20C,0.070866*%
%ADD21C,0.055100*%
%ADD22R,0.060000X0.060000*%
%ADD23C,0.060000*%
%ADD24C,0.047244*%
%ADD25C,0.031496*%
%ADD26C,0.070900*%
%ADD27C,0.047200*%
G04 APERTURE END LIST*
G54D10*
G54D11*
X40531Y-20885D03*
X77566Y-20885D03*
X40531Y-46881D03*
X77566Y-46881D03*
G54D12*
X44570Y-22810D03*
X45775Y-23510D03*
X44972Y-23510D03*
X43767Y-22810D03*
X44169Y-23510D03*
X45374Y-22810D03*
X46578Y-23510D03*
X46177Y-22810D03*
G54D13*
X47673Y-21810D03*
X42673Y-21810D03*
G54D14*
X48374Y-23160D03*
X41972Y-23160D03*
G54D15*
X47874Y-25424D03*
X46972Y-25424D03*
X43374Y-25424D03*
X42472Y-25424D03*
G54D16*
X49854Y-24190D03*
X59696Y-24190D03*
G54D17*
X56677Y-23190D03*
X56226Y-24190D03*
X55775Y-23190D03*
X54874Y-23190D03*
X53972Y-23190D03*
X53070Y-23190D03*
X55324Y-24190D03*
X54423Y-24190D03*
X53521Y-24190D03*
X52620Y-24190D03*
X56677Y-25190D03*
X55775Y-25190D03*
X54874Y-25190D03*
X53972Y-25190D03*
X53070Y-25190D03*
G54D18*
X54129Y-46279D03*
X54129Y-46023D03*
X54129Y-45767D03*
X54129Y-45511D03*
X54129Y-45255D03*
X54129Y-45000D03*
X54129Y-44744D03*
X54129Y-44488D03*
X54129Y-44232D03*
X54129Y-43976D03*
X54129Y-43720D03*
X54129Y-43464D03*
X54129Y-43208D03*
X54129Y-42952D03*
X54129Y-42696D03*
G54D19*
X73950Y-21660D03*
G54D20*
X73950Y-23431D03*
G54D21*
X47060Y-41360D03*
X46060Y-41360D03*
X41820Y-45570D03*
G54D22*
X46920Y-34480D03*
G54D23*
X46920Y-35480D03*
X46920Y-36480D03*
X46920Y-37480D03*
G54D24*
X74803Y-29881D03*
G54D25*
X74803Y-37834D03*
G54D11*
X63385Y-39763D03*
X63385Y-27952D03*
G54D21*
X65140Y-27560D03*
G54D26*
X71370Y-44606D03*
X68810Y-44606D03*
X71370Y-42834D03*
X68810Y-42834D03*
X74800Y-44606D03*
X72240Y-44606D03*
X74800Y-42834D03*
X72240Y-42834D03*
X78230Y-44606D03*
X75670Y-44606D03*
X78230Y-42834D03*
X75670Y-42834D03*
X74800Y-47306D03*
X72240Y-47306D03*
X74800Y-45534D03*
X72240Y-45534D03*
G54D27*
X43350Y-41590D03*
X43940Y-41590D03*
M02*
