M48
;DRILL file {KiCad 4.0.2-stable} date 27/05/2016 15:34:11
;FORMAT={-:-/ absolute / inch / decimal}
FMAT,2
INCH,TZ
T1C0.012
T2C0.030
T3C0.032
T4C0.040
T5C0.059
%
G90
G05
M72
T1
X6.5835Y-2.727
X6.588Y-2.8635
X6.645Y-2.679
X6.723Y-3.896
X6.754Y-3.124
X6.8505Y-2.9195
X6.8575Y-3.759
X6.8585Y-3.5155
X6.9Y-3.
X6.927Y-3.7215
X7.065Y-3.8985
X7.077Y-3.3265
X7.1551Y-3.6771
X7.2365Y-3.789
X7.2785Y-3.9215
X7.369Y-3.199
X7.515Y-2.9755
X7.5235Y-3.268
X7.5805Y-3.8915
X7.596Y-2.988
X7.6235Y-3.845
T2
X5.862Y-2.969
X6.212Y-2.969
T3
X7.121Y-2.902
X7.121Y-3.102
X7.421Y-2.902
X7.421Y-3.102
T4
X6.135Y-2.407
X6.135Y-2.507
X6.5345Y-4.0125
X6.6345Y-4.0125
X6.7345Y-4.0125
X6.8345Y-4.0125
X6.9345Y-4.0125
X7.0345Y-4.0125
X7.1345Y-4.0125
X7.2345Y-4.0125
X7.3345Y-4.0125
X7.4345Y-4.0125
X7.5345Y-4.0125
X7.6345Y-4.0125
X7.7375Y-2.9095
X7.7375Y-3.0095
X7.7375Y-3.1095
X7.7375Y-3.2095
X7.7375Y-3.3095
X7.7375Y-3.4095
X7.7375Y-3.5095
X7.7375Y-3.6095
X7.7375Y-3.7095
X7.7375Y-3.8095
X7.7375Y-3.9095
X7.7375Y-4.0095
T5
X6.5994Y-2.2728
X6.7962Y-2.0759
X6.9931Y-2.2728
T0
M30
