G04 #@! TF.FileFunction,Legend,Top*
%FSLAX46Y46*%
G04 Gerber Fmt 4.6, Leading zero omitted, Abs format (unit mm)*
G04 Created by KiCad (PCBNEW 4.0.2-stable) date 27/05/2016 15:33:53*
%MOMM*%
G01*
G04 APERTURE LIST*
%ADD10C,0.100000*%
%ADD11C,0.150000*%
G04 APERTURE END LIST*
D10*
D11*
X163372800Y-111353600D02*
X163372800Y-71348600D01*
X163372800Y-71348600D02*
X143306800Y-71348600D01*
X143306800Y-71348600D02*
X143306800Y-111353600D01*
X143306800Y-111353600D02*
X163372800Y-111353600D01*
X154559000Y-62407800D02*
X154559000Y-59867800D01*
X154279000Y-65227800D02*
X154279000Y-63677800D01*
X154559000Y-62407800D02*
X157099000Y-62407800D01*
X157379000Y-63677800D02*
X157379000Y-65227800D01*
X157379000Y-65227800D02*
X154279000Y-65227800D01*
X157099000Y-62407800D02*
X157099000Y-59867800D01*
X157099000Y-59867800D02*
X154559000Y-59867800D01*
X171950000Y-93079200D02*
X170950000Y-93079200D01*
X170950000Y-94779200D02*
X171950000Y-94779200D01*
X187464900Y-94648300D02*
G75*
G03X187464900Y-94648300I-100000J0D01*
G01*
X187614900Y-94098300D02*
X187614900Y-94598300D01*
X190514900Y-94098300D02*
X187614900Y-94098300D01*
X190514900Y-94598300D02*
X190514900Y-94098300D01*
X187614900Y-94598300D02*
X190514900Y-94598300D01*
X183239300Y-94898100D02*
X182714300Y-94898100D01*
X178939300Y-90598100D02*
X179464300Y-90598100D01*
X178939300Y-94898100D02*
X179464300Y-94898100D01*
X183239300Y-90598100D02*
X183239300Y-91123100D01*
X178939300Y-90598100D02*
X178939300Y-91123100D01*
X178939300Y-94898100D02*
X178939300Y-94373100D01*
X183239300Y-94898100D02*
X183239300Y-94373100D01*
X187223400Y-76250800D02*
G75*
G03X187223400Y-76250800I-2540000J0D01*
G01*
X180873400Y-72440800D02*
X188493400Y-72440800D01*
X188493400Y-72440800D02*
X188493400Y-80060800D01*
X188493400Y-80060800D02*
X180873400Y-80060800D01*
X180873400Y-72440800D02*
X180873400Y-80060800D01*
X197802500Y-75171300D02*
X197802500Y-103111300D01*
X197802500Y-103111300D02*
X195262500Y-103111300D01*
X195262500Y-103111300D02*
X195262500Y-75171300D01*
X198082500Y-72351300D02*
X198082500Y-73901300D01*
X197802500Y-75171300D02*
X195262500Y-75171300D01*
X194982500Y-73901300D02*
X194982500Y-72351300D01*
X194982500Y-72351300D02*
X198082500Y-72351300D01*
X187507500Y-89497800D02*
X186507500Y-89497800D01*
X186507500Y-91197800D02*
X187507500Y-91197800D01*
X172013500Y-95238200D02*
X171013500Y-95238200D01*
X171013500Y-96938200D02*
X172013500Y-96938200D01*
X183980200Y-82079200D02*
X184980200Y-82079200D01*
X184980200Y-80379200D02*
X183980200Y-80379200D01*
X183049800Y-97232100D02*
X182049800Y-97232100D01*
X182049800Y-98932100D02*
X183049800Y-98932100D01*
X189326900Y-98360600D02*
X190326900Y-98360600D01*
X190326900Y-96660600D02*
X189326900Y-96660600D01*
X187171700Y-94302200D02*
X187171700Y-93302200D01*
X185471700Y-93302200D02*
X185471700Y-94302200D01*
X194347200Y-73321800D02*
X194347200Y-72321800D01*
X192647200Y-72321800D02*
X192647200Y-73321800D01*
X171614200Y-67276600D02*
X171614200Y-66276600D01*
X169914200Y-66276600D02*
X169914200Y-67276600D01*
X178294400Y-67187700D02*
X178294400Y-66187700D01*
X176594400Y-66187700D02*
X176594400Y-67187700D01*
X189825000Y-73144000D02*
X189825000Y-72144000D01*
X191175000Y-72144000D02*
X191175000Y-73144000D01*
X167246300Y-100647500D02*
X195186300Y-100647500D01*
X195186300Y-100647500D02*
X195186300Y-103187500D01*
X195186300Y-103187500D02*
X167246300Y-103187500D01*
X164426300Y-100367500D02*
X165976300Y-100367500D01*
X167246300Y-100647500D02*
X167246300Y-103187500D01*
X165976300Y-103467500D02*
X164426300Y-103467500D01*
X164426300Y-103467500D02*
X164426300Y-100367500D01*
X174750100Y-82961100D02*
X174750100Y-81961100D01*
X176100100Y-81961100D02*
X176100100Y-82961100D01*
X176553500Y-82923000D02*
X176553500Y-81923000D01*
X177903500Y-81923000D02*
X177903500Y-82923000D01*
X171233200Y-74223500D02*
X171233200Y-73223500D01*
X169533200Y-73223500D02*
X169533200Y-74223500D01*
X176046800Y-75310400D02*
X176046800Y-75095400D01*
X172796800Y-75310400D02*
X172796800Y-75095400D01*
X172796800Y-72060400D02*
X172796800Y-72275400D01*
X176046800Y-72060400D02*
X176046800Y-72275400D01*
X176046800Y-75310400D02*
X172796800Y-75310400D01*
X176046800Y-72060400D02*
X172796800Y-72060400D01*
X176046800Y-75095400D02*
X176971800Y-75095400D01*
X172047800Y-86228300D02*
X172047800Y-87228300D01*
X173747800Y-87228300D02*
X173747800Y-86228300D01*
X175045000Y-85974300D02*
X175045000Y-86974300D01*
X176745000Y-86974300D02*
X176745000Y-85974300D01*
X171178600Y-92188400D02*
X172178600Y-92188400D01*
X172178600Y-90488400D02*
X171178600Y-90488400D01*
X173566200Y-80174200D02*
X174566200Y-80174200D01*
X174566200Y-78474200D02*
X173566200Y-78474200D01*
X160050000Y-62900000D02*
X160050000Y-61900000D01*
X158350000Y-61900000D02*
X158350000Y-62900000D01*
X192174500Y-83481800D02*
X192174500Y-82481800D01*
X193524500Y-82481800D02*
X193524500Y-83481800D01*
X193524500Y-78887700D02*
X193524500Y-79887700D01*
X192174500Y-79887700D02*
X192174500Y-78887700D01*
X166624000Y-46228000D02*
X166624000Y-60228000D01*
X166624000Y-60228000D02*
X178624000Y-60228000D01*
X178624000Y-60228000D02*
X178624000Y-46228000D01*
X178624000Y-46228000D02*
X166624000Y-46228000D01*
X164590362Y-88079105D02*
X164637981Y-87936248D01*
X164637981Y-87698152D01*
X164590362Y-87602914D01*
X164542743Y-87555295D01*
X164447505Y-87507676D01*
X164352267Y-87507676D01*
X164257029Y-87555295D01*
X164209410Y-87602914D01*
X164161790Y-87698152D01*
X164114171Y-87888629D01*
X164066552Y-87983867D01*
X164018933Y-88031486D01*
X163923695Y-88079105D01*
X163828457Y-88079105D01*
X163733219Y-88031486D01*
X163685600Y-87983867D01*
X163637981Y-87888629D01*
X163637981Y-87650533D01*
X163685600Y-87507676D01*
X164637981Y-87079105D02*
X163637981Y-87079105D01*
X163637981Y-86698152D01*
X163685600Y-86602914D01*
X163733219Y-86555295D01*
X163828457Y-86507676D01*
X163971314Y-86507676D01*
X164066552Y-86555295D01*
X164114171Y-86602914D01*
X164161790Y-86698152D01*
X164161790Y-87079105D01*
X164637981Y-85555295D02*
X164637981Y-86126724D01*
X164637981Y-85841010D02*
X163637981Y-85841010D01*
X163780838Y-85936248D01*
X163876076Y-86031486D01*
X163923695Y-86126724D01*
X155090905Y-69230181D02*
X155090905Y-68230181D01*
X155471858Y-68230181D01*
X155567096Y-68277800D01*
X155614715Y-68325419D01*
X155662334Y-68420657D01*
X155662334Y-68563514D01*
X155614715Y-68658752D01*
X155567096Y-68706371D01*
X155471858Y-68753990D01*
X155090905Y-68753990D01*
X155995667Y-68230181D02*
X156614715Y-68230181D01*
X156281381Y-68611133D01*
X156424239Y-68611133D01*
X156519477Y-68658752D01*
X156567096Y-68706371D01*
X156614715Y-68801610D01*
X156614715Y-69039705D01*
X156567096Y-69134943D01*
X156519477Y-69182562D01*
X156424239Y-69230181D01*
X156138524Y-69230181D01*
X156043286Y-69182562D01*
X155995667Y-69134943D01*
X168451234Y-94311743D02*
X168403615Y-94359362D01*
X168260758Y-94406981D01*
X168165520Y-94406981D01*
X168022662Y-94359362D01*
X167927424Y-94264124D01*
X167879805Y-94168886D01*
X167832186Y-93978410D01*
X167832186Y-93835552D01*
X167879805Y-93645076D01*
X167927424Y-93549838D01*
X168022662Y-93454600D01*
X168165520Y-93406981D01*
X168260758Y-93406981D01*
X168403615Y-93454600D01*
X168451234Y-93502219D01*
X169308377Y-93740314D02*
X169308377Y-94406981D01*
X169070281Y-93359362D02*
X168832186Y-94073648D01*
X169451234Y-94073648D01*
X191006481Y-94995905D02*
X191816005Y-94995905D01*
X191911243Y-94948286D01*
X191958862Y-94900667D01*
X192006481Y-94805429D01*
X192006481Y-94614952D01*
X191958862Y-94519714D01*
X191911243Y-94472095D01*
X191816005Y-94424476D01*
X191006481Y-94424476D01*
X191101719Y-93995905D02*
X191054100Y-93948286D01*
X191006481Y-93853048D01*
X191006481Y-93614952D01*
X191054100Y-93519714D01*
X191101719Y-93472095D01*
X191196957Y-93424476D01*
X191292195Y-93424476D01*
X191435052Y-93472095D01*
X192006481Y-94043524D01*
X192006481Y-93424476D01*
X183916681Y-93510005D02*
X184726205Y-93510005D01*
X184821443Y-93462386D01*
X184869062Y-93414767D01*
X184916681Y-93319529D01*
X184916681Y-93129052D01*
X184869062Y-93033814D01*
X184821443Y-92986195D01*
X184726205Y-92938576D01*
X183916681Y-92938576D01*
X184916681Y-91938576D02*
X184916681Y-92510005D01*
X184916681Y-92224291D02*
X183916681Y-92224291D01*
X184059538Y-92319529D01*
X184154776Y-92414767D01*
X184202395Y-92510005D01*
X183172267Y-72134362D02*
X183315124Y-72181981D01*
X183553220Y-72181981D01*
X183648458Y-72134362D01*
X183696077Y-72086743D01*
X183743696Y-71991505D01*
X183743696Y-71896267D01*
X183696077Y-71801029D01*
X183648458Y-71753410D01*
X183553220Y-71705790D01*
X183362743Y-71658171D01*
X183267505Y-71610552D01*
X183219886Y-71562933D01*
X183172267Y-71467695D01*
X183172267Y-71372457D01*
X183219886Y-71277219D01*
X183267505Y-71229600D01*
X183362743Y-71181981D01*
X183600839Y-71181981D01*
X183743696Y-71229600D01*
X184077029Y-71181981D02*
X184315124Y-72181981D01*
X184505601Y-71467695D01*
X184696077Y-72181981D01*
X184934172Y-71181981D01*
X185267505Y-71277219D02*
X185315124Y-71229600D01*
X185410362Y-71181981D01*
X185648458Y-71181981D01*
X185743696Y-71229600D01*
X185791315Y-71277219D01*
X185838934Y-71372457D01*
X185838934Y-71467695D01*
X185791315Y-71610552D01*
X185219886Y-72181981D01*
X185838934Y-72181981D01*
X194406781Y-85980495D02*
X193406781Y-85980495D01*
X193406781Y-85599542D01*
X193454400Y-85504304D01*
X193502019Y-85456685D01*
X193597257Y-85409066D01*
X193740114Y-85409066D01*
X193835352Y-85456685D01*
X193882971Y-85504304D01*
X193930590Y-85599542D01*
X193930590Y-85980495D01*
X194406781Y-84456685D02*
X194406781Y-85028114D01*
X194406781Y-84742400D02*
X193406781Y-84742400D01*
X193549638Y-84837638D01*
X193644876Y-84932876D01*
X193692495Y-85028114D01*
X186840834Y-88604943D02*
X186793215Y-88652562D01*
X186650358Y-88700181D01*
X186555120Y-88700181D01*
X186412262Y-88652562D01*
X186317024Y-88557324D01*
X186269405Y-88462086D01*
X186221786Y-88271610D01*
X186221786Y-88128752D01*
X186269405Y-87938276D01*
X186317024Y-87843038D01*
X186412262Y-87747800D01*
X186555120Y-87700181D01*
X186650358Y-87700181D01*
X186793215Y-87747800D01*
X186840834Y-87795419D01*
X187793215Y-88700181D02*
X187221786Y-88700181D01*
X187507500Y-88700181D02*
X187507500Y-87700181D01*
X187412262Y-87843038D01*
X187317024Y-87938276D01*
X187221786Y-87985895D01*
X167994034Y-96432643D02*
X167946415Y-96480262D01*
X167803558Y-96527881D01*
X167708320Y-96527881D01*
X167565462Y-96480262D01*
X167470224Y-96385024D01*
X167422605Y-96289786D01*
X167374986Y-96099310D01*
X167374986Y-95956452D01*
X167422605Y-95765976D01*
X167470224Y-95670738D01*
X167565462Y-95575500D01*
X167708320Y-95527881D01*
X167803558Y-95527881D01*
X167946415Y-95575500D01*
X167994034Y-95623119D01*
X168327367Y-95527881D02*
X168946415Y-95527881D01*
X168613081Y-95908833D01*
X168755939Y-95908833D01*
X168851177Y-95956452D01*
X168898796Y-96004071D01*
X168946415Y-96099310D01*
X168946415Y-96337405D01*
X168898796Y-96432643D01*
X168851177Y-96480262D01*
X168755939Y-96527881D01*
X168470224Y-96527881D01*
X168374986Y-96480262D01*
X168327367Y-96432643D01*
X184313534Y-83686343D02*
X184265915Y-83733962D01*
X184123058Y-83781581D01*
X184027820Y-83781581D01*
X183884962Y-83733962D01*
X183789724Y-83638724D01*
X183742105Y-83543486D01*
X183694486Y-83353010D01*
X183694486Y-83210152D01*
X183742105Y-83019676D01*
X183789724Y-82924438D01*
X183884962Y-82829200D01*
X184027820Y-82781581D01*
X184123058Y-82781581D01*
X184265915Y-82829200D01*
X184313534Y-82876819D01*
X185218296Y-82781581D02*
X184742105Y-82781581D01*
X184694486Y-83257771D01*
X184742105Y-83210152D01*
X184837343Y-83162533D01*
X185075439Y-83162533D01*
X185170677Y-83210152D01*
X185218296Y-83257771D01*
X185265915Y-83353010D01*
X185265915Y-83591105D01*
X185218296Y-83686343D01*
X185170677Y-83733962D01*
X185075439Y-83781581D01*
X184837343Y-83781581D01*
X184742105Y-83733962D01*
X184694486Y-83686343D01*
X185739043Y-98312266D02*
X185786662Y-98359885D01*
X185834281Y-98502742D01*
X185834281Y-98597980D01*
X185786662Y-98740838D01*
X185691424Y-98836076D01*
X185596186Y-98883695D01*
X185405710Y-98931314D01*
X185262852Y-98931314D01*
X185072376Y-98883695D01*
X184977138Y-98836076D01*
X184881900Y-98740838D01*
X184834281Y-98597980D01*
X184834281Y-98502742D01*
X184881900Y-98359885D01*
X184929519Y-98312266D01*
X184834281Y-97455123D02*
X184834281Y-97645600D01*
X184881900Y-97740838D01*
X184929519Y-97788457D01*
X185072376Y-97883695D01*
X185262852Y-97931314D01*
X185643805Y-97931314D01*
X185739043Y-97883695D01*
X185786662Y-97836076D01*
X185834281Y-97740838D01*
X185834281Y-97550361D01*
X185786662Y-97455123D01*
X185739043Y-97407504D01*
X185643805Y-97359885D01*
X185405710Y-97359885D01*
X185310471Y-97407504D01*
X185262852Y-97455123D01*
X185215233Y-97550361D01*
X185215233Y-97740838D01*
X185262852Y-97836076D01*
X185310471Y-97883695D01*
X185405710Y-97931314D01*
X189622134Y-99671143D02*
X189574515Y-99718762D01*
X189431658Y-99766381D01*
X189336420Y-99766381D01*
X189193562Y-99718762D01*
X189098324Y-99623524D01*
X189050705Y-99528286D01*
X189003086Y-99337810D01*
X189003086Y-99194952D01*
X189050705Y-99004476D01*
X189098324Y-98909238D01*
X189193562Y-98814000D01*
X189336420Y-98766381D01*
X189431658Y-98766381D01*
X189574515Y-98814000D01*
X189622134Y-98861619D01*
X189955467Y-98766381D02*
X190622134Y-98766381D01*
X190193562Y-99766381D01*
X186945543Y-96712066D02*
X186993162Y-96759685D01*
X187040781Y-96902542D01*
X187040781Y-96997780D01*
X186993162Y-97140638D01*
X186897924Y-97235876D01*
X186802686Y-97283495D01*
X186612210Y-97331114D01*
X186469352Y-97331114D01*
X186278876Y-97283495D01*
X186183638Y-97235876D01*
X186088400Y-97140638D01*
X186040781Y-96997780D01*
X186040781Y-96902542D01*
X186088400Y-96759685D01*
X186136019Y-96712066D01*
X186469352Y-96140638D02*
X186421733Y-96235876D01*
X186374114Y-96283495D01*
X186278876Y-96331114D01*
X186231257Y-96331114D01*
X186136019Y-96283495D01*
X186088400Y-96235876D01*
X186040781Y-96140638D01*
X186040781Y-95950161D01*
X186088400Y-95854923D01*
X186136019Y-95807304D01*
X186231257Y-95759685D01*
X186278876Y-95759685D01*
X186374114Y-95807304D01*
X186421733Y-95854923D01*
X186469352Y-95950161D01*
X186469352Y-96140638D01*
X186516971Y-96235876D01*
X186564590Y-96283495D01*
X186659829Y-96331114D01*
X186850305Y-96331114D01*
X186945543Y-96283495D01*
X186993162Y-96235876D01*
X187040781Y-96140638D01*
X187040781Y-95950161D01*
X186993162Y-95854923D01*
X186945543Y-95807304D01*
X186850305Y-95759685D01*
X186659829Y-95759685D01*
X186564590Y-95807304D01*
X186516971Y-95854923D01*
X186469352Y-95950161D01*
X192279543Y-72937666D02*
X192327162Y-72985285D01*
X192374781Y-73128142D01*
X192374781Y-73223380D01*
X192327162Y-73366238D01*
X192231924Y-73461476D01*
X192136686Y-73509095D01*
X191946210Y-73556714D01*
X191803352Y-73556714D01*
X191612876Y-73509095D01*
X191517638Y-73461476D01*
X191422400Y-73366238D01*
X191374781Y-73223380D01*
X191374781Y-73128142D01*
X191422400Y-72985285D01*
X191470019Y-72937666D01*
X192374781Y-72461476D02*
X192374781Y-72271000D01*
X192327162Y-72175761D01*
X192279543Y-72128142D01*
X192136686Y-72032904D01*
X191946210Y-71985285D01*
X191565257Y-71985285D01*
X191470019Y-72032904D01*
X191422400Y-72080523D01*
X191374781Y-72175761D01*
X191374781Y-72366238D01*
X191422400Y-72461476D01*
X191470019Y-72509095D01*
X191565257Y-72556714D01*
X191803352Y-72556714D01*
X191898590Y-72509095D01*
X191946210Y-72461476D01*
X191993829Y-72366238D01*
X191993829Y-72175761D01*
X191946210Y-72080523D01*
X191898590Y-72032904D01*
X191803352Y-71985285D01*
X173221343Y-67419457D02*
X173268962Y-67467076D01*
X173316581Y-67609933D01*
X173316581Y-67705171D01*
X173268962Y-67848029D01*
X173173724Y-67943267D01*
X173078486Y-67990886D01*
X172888010Y-68038505D01*
X172745152Y-68038505D01*
X172554676Y-67990886D01*
X172459438Y-67943267D01*
X172364200Y-67848029D01*
X172316581Y-67705171D01*
X172316581Y-67609933D01*
X172364200Y-67467076D01*
X172411819Y-67419457D01*
X173316581Y-66467076D02*
X173316581Y-67038505D01*
X173316581Y-66752791D02*
X172316581Y-66752791D01*
X172459438Y-66848029D01*
X172554676Y-66943267D01*
X172602295Y-67038505D01*
X172316581Y-65609933D02*
X172316581Y-65800410D01*
X172364200Y-65895648D01*
X172411819Y-65943267D01*
X172554676Y-66038505D01*
X172745152Y-66086124D01*
X173126105Y-66086124D01*
X173221343Y-66038505D01*
X173268962Y-65990886D01*
X173316581Y-65895648D01*
X173316581Y-65705171D01*
X173268962Y-65609933D01*
X173221343Y-65562314D01*
X173126105Y-65514695D01*
X172888010Y-65514695D01*
X172792771Y-65562314D01*
X172745152Y-65609933D01*
X172697533Y-65705171D01*
X172697533Y-65895648D01*
X172745152Y-65990886D01*
X172792771Y-66038505D01*
X172888010Y-66086124D01*
X179901543Y-67330557D02*
X179949162Y-67378176D01*
X179996781Y-67521033D01*
X179996781Y-67616271D01*
X179949162Y-67759129D01*
X179853924Y-67854367D01*
X179758686Y-67901986D01*
X179568210Y-67949605D01*
X179425352Y-67949605D01*
X179234876Y-67901986D01*
X179139638Y-67854367D01*
X179044400Y-67759129D01*
X178996781Y-67616271D01*
X178996781Y-67521033D01*
X179044400Y-67378176D01*
X179092019Y-67330557D01*
X179996781Y-66378176D02*
X179996781Y-66949605D01*
X179996781Y-66663891D02*
X178996781Y-66663891D01*
X179139638Y-66759129D01*
X179234876Y-66854367D01*
X179282495Y-66949605D01*
X178996781Y-66044843D02*
X178996781Y-65378176D01*
X179996781Y-65806748D01*
X188606134Y-71978781D02*
X188272800Y-71502590D01*
X188034705Y-71978781D02*
X188034705Y-70978781D01*
X188415658Y-70978781D01*
X188510896Y-71026400D01*
X188558515Y-71074019D01*
X188606134Y-71169257D01*
X188606134Y-71312114D01*
X188558515Y-71407352D01*
X188510896Y-71454971D01*
X188415658Y-71502590D01*
X188034705Y-71502590D01*
X188987086Y-71074019D02*
X189034705Y-71026400D01*
X189129943Y-70978781D01*
X189368039Y-70978781D01*
X189463277Y-71026400D01*
X189510896Y-71074019D01*
X189558515Y-71169257D01*
X189558515Y-71264495D01*
X189510896Y-71407352D01*
X188939467Y-71978781D01*
X189558515Y-71978781D01*
X174318705Y-100325181D02*
X174318705Y-99325181D01*
X174699658Y-99325181D01*
X174794896Y-99372800D01*
X174842515Y-99420419D01*
X174890134Y-99515657D01*
X174890134Y-99658514D01*
X174842515Y-99753752D01*
X174794896Y-99801371D01*
X174699658Y-99848990D01*
X174318705Y-99848990D01*
X175271086Y-99420419D02*
X175318705Y-99372800D01*
X175413943Y-99325181D01*
X175652039Y-99325181D01*
X175747277Y-99372800D01*
X175794896Y-99420419D01*
X175842515Y-99515657D01*
X175842515Y-99610895D01*
X175794896Y-99753752D01*
X175223467Y-100325181D01*
X175842515Y-100325181D01*
X174416981Y-82742066D02*
X173940790Y-83075400D01*
X174416981Y-83313495D02*
X173416981Y-83313495D01*
X173416981Y-82932542D01*
X173464600Y-82837304D01*
X173512219Y-82789685D01*
X173607457Y-82742066D01*
X173750314Y-82742066D01*
X173845552Y-82789685D01*
X173893171Y-82837304D01*
X173940790Y-82932542D01*
X173940790Y-83313495D01*
X174416981Y-81789685D02*
X174416981Y-82361114D01*
X174416981Y-82075400D02*
X173416981Y-82075400D01*
X173559838Y-82170638D01*
X173655076Y-82265876D01*
X173702695Y-82361114D01*
X179255681Y-82716666D02*
X178779490Y-83050000D01*
X179255681Y-83288095D02*
X178255681Y-83288095D01*
X178255681Y-82907142D01*
X178303300Y-82811904D01*
X178350919Y-82764285D01*
X178446157Y-82716666D01*
X178589014Y-82716666D01*
X178684252Y-82764285D01*
X178731871Y-82811904D01*
X178779490Y-82907142D01*
X178779490Y-83288095D01*
X178255681Y-82383333D02*
X178255681Y-81764285D01*
X178636633Y-82097619D01*
X178636633Y-81954761D01*
X178684252Y-81859523D01*
X178731871Y-81811904D01*
X178827110Y-81764285D01*
X179065205Y-81764285D01*
X179160443Y-81811904D01*
X179208062Y-81859523D01*
X179255681Y-81954761D01*
X179255681Y-82240476D01*
X179208062Y-82335714D01*
X179160443Y-82383333D01*
X168936943Y-74493357D02*
X168984562Y-74540976D01*
X169032181Y-74683833D01*
X169032181Y-74779071D01*
X168984562Y-74921929D01*
X168889324Y-75017167D01*
X168794086Y-75064786D01*
X168603610Y-75112405D01*
X168460752Y-75112405D01*
X168270276Y-75064786D01*
X168175038Y-75017167D01*
X168079800Y-74921929D01*
X168032181Y-74779071D01*
X168032181Y-74683833D01*
X168079800Y-74540976D01*
X168127419Y-74493357D01*
X169032181Y-73540976D02*
X169032181Y-74112405D01*
X169032181Y-73826691D02*
X168032181Y-73826691D01*
X168175038Y-73921929D01*
X168270276Y-74017167D01*
X168317895Y-74112405D01*
X168127419Y-73160024D02*
X168079800Y-73112405D01*
X168032181Y-73017167D01*
X168032181Y-72779071D01*
X168079800Y-72683833D01*
X168127419Y-72636214D01*
X168222657Y-72588595D01*
X168317895Y-72588595D01*
X168460752Y-72636214D01*
X169032181Y-73207643D01*
X169032181Y-72588595D01*
X172669295Y-76058781D02*
X172669295Y-76868305D01*
X172716914Y-76963543D01*
X172764533Y-77011162D01*
X172859771Y-77058781D01*
X173050248Y-77058781D01*
X173145486Y-77011162D01*
X173193105Y-76963543D01*
X173240724Y-76868305D01*
X173240724Y-76058781D01*
X173621676Y-76058781D02*
X174240724Y-76058781D01*
X173907390Y-76439733D01*
X174050248Y-76439733D01*
X174145486Y-76487352D01*
X174193105Y-76534971D01*
X174240724Y-76630210D01*
X174240724Y-76868305D01*
X174193105Y-76963543D01*
X174145486Y-77011162D01*
X174050248Y-77058781D01*
X173764533Y-77058781D01*
X173669295Y-77011162D01*
X173621676Y-76963543D01*
X171154943Y-87371157D02*
X171202562Y-87418776D01*
X171250181Y-87561633D01*
X171250181Y-87656871D01*
X171202562Y-87799729D01*
X171107324Y-87894967D01*
X171012086Y-87942586D01*
X170821610Y-87990205D01*
X170678752Y-87990205D01*
X170488276Y-87942586D01*
X170393038Y-87894967D01*
X170297800Y-87799729D01*
X170250181Y-87656871D01*
X170250181Y-87561633D01*
X170297800Y-87418776D01*
X170345419Y-87371157D01*
X171250181Y-86418776D02*
X171250181Y-86990205D01*
X171250181Y-86704491D02*
X170250181Y-86704491D01*
X170393038Y-86799729D01*
X170488276Y-86894967D01*
X170535895Y-86990205D01*
X171250181Y-85466395D02*
X171250181Y-86037824D01*
X171250181Y-85752110D02*
X170250181Y-85752110D01*
X170393038Y-85847348D01*
X170488276Y-85942586D01*
X170535895Y-86037824D01*
X178347643Y-87117157D02*
X178395262Y-87164776D01*
X178442881Y-87307633D01*
X178442881Y-87402871D01*
X178395262Y-87545729D01*
X178300024Y-87640967D01*
X178204786Y-87688586D01*
X178014310Y-87736205D01*
X177871452Y-87736205D01*
X177680976Y-87688586D01*
X177585738Y-87640967D01*
X177490500Y-87545729D01*
X177442881Y-87402871D01*
X177442881Y-87307633D01*
X177490500Y-87164776D01*
X177538119Y-87117157D01*
X178442881Y-86164776D02*
X178442881Y-86736205D01*
X178442881Y-86450491D02*
X177442881Y-86450491D01*
X177585738Y-86545729D01*
X177680976Y-86640967D01*
X177728595Y-86736205D01*
X177442881Y-85831443D02*
X177442881Y-85212395D01*
X177823833Y-85545729D01*
X177823833Y-85402871D01*
X177871452Y-85307633D01*
X177919071Y-85260014D01*
X178014310Y-85212395D01*
X178252405Y-85212395D01*
X178347643Y-85260014D01*
X178395262Y-85307633D01*
X178442881Y-85402871D01*
X178442881Y-85688586D01*
X178395262Y-85783824D01*
X178347643Y-85831443D01*
X167657543Y-91924143D02*
X167609924Y-91971762D01*
X167467067Y-92019381D01*
X167371829Y-92019381D01*
X167228971Y-91971762D01*
X167133733Y-91876524D01*
X167086114Y-91781286D01*
X167038495Y-91590810D01*
X167038495Y-91447952D01*
X167086114Y-91257476D01*
X167133733Y-91162238D01*
X167228971Y-91067000D01*
X167371829Y-91019381D01*
X167467067Y-91019381D01*
X167609924Y-91067000D01*
X167657543Y-91114619D01*
X168609924Y-92019381D02*
X168038495Y-92019381D01*
X168324209Y-92019381D02*
X168324209Y-91019381D01*
X168228971Y-91162238D01*
X168133733Y-91257476D01*
X168038495Y-91305095D01*
X169228971Y-91019381D02*
X169324210Y-91019381D01*
X169419448Y-91067000D01*
X169467067Y-91114619D01*
X169514686Y-91209857D01*
X169562305Y-91400333D01*
X169562305Y-91638429D01*
X169514686Y-91828905D01*
X169467067Y-91924143D01*
X169419448Y-91971762D01*
X169324210Y-92019381D01*
X169228971Y-92019381D01*
X169133733Y-91971762D01*
X169086114Y-91924143D01*
X169038495Y-91828905D01*
X168990876Y-91638429D01*
X168990876Y-91400333D01*
X169038495Y-91209857D01*
X169086114Y-91114619D01*
X169133733Y-91067000D01*
X169228971Y-91019381D01*
X176750743Y-79706743D02*
X176703124Y-79754362D01*
X176560267Y-79801981D01*
X176465029Y-79801981D01*
X176322171Y-79754362D01*
X176226933Y-79659124D01*
X176179314Y-79563886D01*
X176131695Y-79373410D01*
X176131695Y-79230552D01*
X176179314Y-79040076D01*
X176226933Y-78944838D01*
X176322171Y-78849600D01*
X176465029Y-78801981D01*
X176560267Y-78801981D01*
X176703124Y-78849600D01*
X176750743Y-78897219D01*
X177703124Y-79801981D02*
X177131695Y-79801981D01*
X177417409Y-79801981D02*
X177417409Y-78801981D01*
X177322171Y-78944838D01*
X177226933Y-79040076D01*
X177131695Y-79087695D01*
X178274552Y-79230552D02*
X178179314Y-79182933D01*
X178131695Y-79135314D01*
X178084076Y-79040076D01*
X178084076Y-78992457D01*
X178131695Y-78897219D01*
X178179314Y-78849600D01*
X178274552Y-78801981D01*
X178465029Y-78801981D01*
X178560267Y-78849600D01*
X178607886Y-78897219D01*
X178655505Y-78992457D01*
X178655505Y-79040076D01*
X178607886Y-79135314D01*
X178560267Y-79182933D01*
X178465029Y-79230552D01*
X178274552Y-79230552D01*
X178179314Y-79278171D01*
X178131695Y-79325790D01*
X178084076Y-79421029D01*
X178084076Y-79611505D01*
X178131695Y-79706743D01*
X178179314Y-79754362D01*
X178274552Y-79801981D01*
X178465029Y-79801981D01*
X178560267Y-79754362D01*
X178607886Y-79706743D01*
X178655505Y-79611505D01*
X178655505Y-79421029D01*
X178607886Y-79325790D01*
X178560267Y-79278171D01*
X178465029Y-79230552D01*
X161657143Y-62566666D02*
X161704762Y-62614285D01*
X161752381Y-62757142D01*
X161752381Y-62852380D01*
X161704762Y-62995238D01*
X161609524Y-63090476D01*
X161514286Y-63138095D01*
X161323810Y-63185714D01*
X161180952Y-63185714D01*
X160990476Y-63138095D01*
X160895238Y-63090476D01*
X160800000Y-62995238D01*
X160752381Y-62852380D01*
X160752381Y-62757142D01*
X160800000Y-62614285D01*
X160847619Y-62566666D01*
X160847619Y-62185714D02*
X160800000Y-62138095D01*
X160752381Y-62042857D01*
X160752381Y-61804761D01*
X160800000Y-61709523D01*
X160847619Y-61661904D01*
X160942857Y-61614285D01*
X161038095Y-61614285D01*
X161180952Y-61661904D01*
X161752381Y-62233333D01*
X161752381Y-61614285D01*
X194876681Y-83211966D02*
X194400490Y-83545300D01*
X194876681Y-83783395D02*
X193876681Y-83783395D01*
X193876681Y-83402442D01*
X193924300Y-83307204D01*
X193971919Y-83259585D01*
X194067157Y-83211966D01*
X194210014Y-83211966D01*
X194305252Y-83259585D01*
X194352871Y-83307204D01*
X194400490Y-83402442D01*
X194400490Y-83783395D01*
X194210014Y-82354823D02*
X194876681Y-82354823D01*
X193829062Y-82592919D02*
X194543348Y-82831014D01*
X194543348Y-82211966D01*
X191401881Y-79554366D02*
X190925690Y-79887700D01*
X191401881Y-80125795D02*
X190401881Y-80125795D01*
X190401881Y-79744842D01*
X190449500Y-79649604D01*
X190497119Y-79601985D01*
X190592357Y-79554366D01*
X190735214Y-79554366D01*
X190830452Y-79601985D01*
X190878071Y-79649604D01*
X190925690Y-79744842D01*
X190925690Y-80125795D01*
X190401881Y-78649604D02*
X190401881Y-79125795D01*
X190878071Y-79173414D01*
X190830452Y-79125795D01*
X190782833Y-79030557D01*
X190782833Y-78792461D01*
X190830452Y-78697223D01*
X190878071Y-78649604D01*
X190973310Y-78601985D01*
X191211405Y-78601985D01*
X191306643Y-78649604D01*
X191354262Y-78697223D01*
X191401881Y-78792461D01*
X191401881Y-79030557D01*
X191354262Y-79125795D01*
X191306643Y-79173414D01*
X164766667Y-50404781D02*
X164766667Y-51119067D01*
X164719047Y-51261924D01*
X164623809Y-51357162D01*
X164480952Y-51404781D01*
X164385714Y-51404781D01*
X165766667Y-51404781D02*
X165195238Y-51404781D01*
X165480952Y-51404781D02*
X165480952Y-50404781D01*
X165385714Y-50547638D01*
X165290476Y-50642876D01*
X165195238Y-50690495D01*
M02*
