G04 #@! TF.FileFunction,Soldermask,Top*
%FSLAX46Y46*%
G04 Gerber Fmt 4.6, Leading zero omitted, Abs format (unit mm)*
G04 Created by KiCad (PCBNEW 4.0.2-stable) date 27/05/2016 15:33:53*
%MOMM*%
G01*
G04 APERTURE LIST*
%ADD10C,0.100000*%
%ADD11C,1.924000*%
%ADD12R,2.432000X2.432000*%
%ADD13O,2.432000X2.432000*%
%ADD14R,1.400000X1.650000*%
%ADD15R,1.050000X1.460000*%
%ADD16R,0.700000X1.250000*%
%ADD17R,1.250000X0.700000*%
%ADD18R,1.700000X1.700000*%
%ADD19C,1.797000*%
%ADD20R,2.432000X2.127200*%
%ADD21O,2.432000X2.127200*%
%ADD22R,1.650000X1.400000*%
%ADD23R,1.300000X0.900000*%
%ADD24R,2.127200X2.432000*%
%ADD25O,2.127200X2.432000*%
%ADD26R,1.290000X0.820000*%
%ADD27R,1.240000X1.340000*%
%ADD28C,2.900000*%
%ADD29C,2.924000*%
%ADD30C,1.700000*%
G04 APERTURE END LIST*
D10*
D11*
X148894800Y-75412600D03*
X157784800Y-75412600D03*
D12*
X155829000Y-63677800D03*
D13*
X155829000Y-61137800D03*
D14*
X170450000Y-93929200D03*
X172450000Y-93929200D03*
D15*
X188114900Y-95448300D03*
X189064900Y-95448300D03*
X190014900Y-95448300D03*
X190014900Y-93248300D03*
X188114900Y-93248300D03*
D16*
X182339300Y-90798100D03*
X181839300Y-90798100D03*
X181339300Y-90798100D03*
X180839300Y-90798100D03*
X180339300Y-90798100D03*
X179839300Y-90798100D03*
D17*
X179139300Y-91498100D03*
X179139300Y-91998100D03*
X179139300Y-92498100D03*
X179139300Y-92998100D03*
X179139300Y-93498100D03*
X179139300Y-93998100D03*
D16*
X179839300Y-94698100D03*
X180339300Y-94698100D03*
X180839300Y-94698100D03*
X181339300Y-94698100D03*
X181839300Y-94698100D03*
X182339300Y-94698100D03*
D17*
X183039300Y-93998100D03*
X183039300Y-93498100D03*
X183039300Y-92998100D03*
X183039300Y-92498100D03*
X183039300Y-91998100D03*
X183039300Y-91498100D03*
D18*
X180439300Y-93398100D03*
X181739300Y-93398100D03*
X180439300Y-92098100D03*
X181739300Y-92098100D03*
D19*
X188493400Y-73710800D03*
X188493400Y-78790800D03*
X180873400Y-73710800D03*
X180873400Y-78790800D03*
D20*
X196532500Y-73901300D03*
D21*
X196532500Y-76441300D03*
X196532500Y-78981300D03*
X196532500Y-81521300D03*
X196532500Y-84061300D03*
X196532500Y-86601300D03*
X196532500Y-89141300D03*
X196532500Y-91681300D03*
X196532500Y-94221300D03*
X196532500Y-96761300D03*
X196532500Y-99301300D03*
X196532500Y-101841300D03*
D14*
X186007500Y-90347800D03*
X188007500Y-90347800D03*
X170513500Y-96088200D03*
X172513500Y-96088200D03*
X185480200Y-81229200D03*
X183480200Y-81229200D03*
X181549800Y-98082100D03*
X183549800Y-98082100D03*
X190826900Y-97510600D03*
X188826900Y-97510600D03*
D22*
X186321700Y-92802200D03*
X186321700Y-94802200D03*
X193497200Y-71821800D03*
X193497200Y-73821800D03*
X170764200Y-65776600D03*
X170764200Y-67776600D03*
X177444400Y-65687700D03*
X177444400Y-67687700D03*
D23*
X190500000Y-71894000D03*
X190500000Y-73394000D03*
D24*
X165976300Y-101917500D03*
D25*
X168516300Y-101917500D03*
X171056300Y-101917500D03*
X173596300Y-101917500D03*
X176136300Y-101917500D03*
X178676300Y-101917500D03*
X181216300Y-101917500D03*
X183756300Y-101917500D03*
X186296300Y-101917500D03*
X188836300Y-101917500D03*
X191376300Y-101917500D03*
X193916300Y-101917500D03*
D23*
X175425100Y-81711100D03*
X175425100Y-83211100D03*
X177228500Y-81673000D03*
X177228500Y-83173000D03*
D22*
X170383200Y-72723500D03*
X170383200Y-74723500D03*
D26*
X176526800Y-74660400D03*
X176526800Y-74010400D03*
X176526800Y-73360400D03*
X176526800Y-72710400D03*
X172316800Y-72710400D03*
X172316800Y-73360400D03*
X172316800Y-74010400D03*
X172316800Y-74660400D03*
D27*
X174001800Y-73215400D03*
X174001800Y-74155400D03*
X174841800Y-73215400D03*
X174841800Y-74155400D03*
D22*
X172897800Y-87728300D03*
X172897800Y-85728300D03*
X175895000Y-87474300D03*
X175895000Y-85474300D03*
D14*
X172678600Y-91338400D03*
X170678600Y-91338400D03*
X175066200Y-79324200D03*
X173066200Y-79324200D03*
D22*
X159200000Y-61400000D03*
X159200000Y-63400000D03*
D23*
X192849500Y-82231800D03*
X192849500Y-83731800D03*
X192849500Y-80137700D03*
X192849500Y-78637700D03*
D28*
X172624000Y-52728000D03*
D29*
X167624000Y-57728000D03*
X177624000Y-57728000D03*
D30*
X167624000Y-50228000D03*
X177624000Y-50228000D03*
X167624000Y-52728000D03*
X177624000Y-52728000D03*
X172624000Y-57728000D03*
M02*
