G04 #@! TF.FileFunction,Copper,L1,Top,Signal*
%FSLAX46Y46*%
G04 Gerber Fmt 4.6, Leading zero omitted, Abs format (unit mm)*
G04 Created by KiCad (PCBNEW 4.0.2-stable) date 27/05/2016 15:33:53*
%MOMM*%
G01*
G04 APERTURE LIST*
%ADD10C,0.100000*%
%ADD11C,1.524000*%
%ADD12R,2.032000X2.032000*%
%ADD13O,2.032000X2.032000*%
%ADD14R,1.000000X1.250000*%
%ADD15R,0.650000X1.060000*%
%ADD16R,0.300000X0.850000*%
%ADD17R,0.850000X0.300000*%
%ADD18R,1.300000X1.300000*%
%ADD19C,1.397000*%
%ADD20R,2.032000X1.727200*%
%ADD21O,2.032000X1.727200*%
%ADD22R,1.250000X1.000000*%
%ADD23R,0.900000X0.500000*%
%ADD24R,1.727200X2.032000*%
%ADD25O,1.727200X2.032000*%
%ADD26R,0.890000X0.420000*%
%ADD27R,0.840000X0.940000*%
%ADD28C,2.500000*%
%ADD29C,2.524000*%
%ADD30C,1.300000*%
%ADD31C,1.016000*%
%ADD32C,0.400000*%
%ADD33C,0.250000*%
%ADD34C,0.203200*%
G04 APERTURE END LIST*
D10*
D11*
X148894800Y-75412600D03*
X157784800Y-75412600D03*
D12*
X155829000Y-63677800D03*
D13*
X155829000Y-61137800D03*
D14*
X170450000Y-93929200D03*
X172450000Y-93929200D03*
D15*
X188114900Y-95448300D03*
X189064900Y-95448300D03*
X190014900Y-95448300D03*
X190014900Y-93248300D03*
X188114900Y-93248300D03*
D16*
X182339300Y-90798100D03*
X181839300Y-90798100D03*
X181339300Y-90798100D03*
X180839300Y-90798100D03*
X180339300Y-90798100D03*
X179839300Y-90798100D03*
D17*
X179139300Y-91498100D03*
X179139300Y-91998100D03*
X179139300Y-92498100D03*
X179139300Y-92998100D03*
X179139300Y-93498100D03*
X179139300Y-93998100D03*
D16*
X179839300Y-94698100D03*
X180339300Y-94698100D03*
X180839300Y-94698100D03*
X181339300Y-94698100D03*
X181839300Y-94698100D03*
X182339300Y-94698100D03*
D17*
X183039300Y-93998100D03*
X183039300Y-93498100D03*
X183039300Y-92998100D03*
X183039300Y-92498100D03*
X183039300Y-91998100D03*
X183039300Y-91498100D03*
D18*
X180439300Y-93398100D03*
X181739300Y-93398100D03*
X180439300Y-92098100D03*
X181739300Y-92098100D03*
D19*
X188493400Y-73710800D03*
X188493400Y-78790800D03*
X180873400Y-73710800D03*
X180873400Y-78790800D03*
D20*
X196532500Y-73901300D03*
D21*
X196532500Y-76441300D03*
X196532500Y-78981300D03*
X196532500Y-81521300D03*
X196532500Y-84061300D03*
X196532500Y-86601300D03*
X196532500Y-89141300D03*
X196532500Y-91681300D03*
X196532500Y-94221300D03*
X196532500Y-96761300D03*
X196532500Y-99301300D03*
X196532500Y-101841300D03*
D14*
X186007500Y-90347800D03*
X188007500Y-90347800D03*
X170513500Y-96088200D03*
X172513500Y-96088200D03*
X185480200Y-81229200D03*
X183480200Y-81229200D03*
X181549800Y-98082100D03*
X183549800Y-98082100D03*
X190826900Y-97510600D03*
X188826900Y-97510600D03*
D22*
X186321700Y-92802200D03*
X186321700Y-94802200D03*
X193497200Y-71821800D03*
X193497200Y-73821800D03*
X170764200Y-65776600D03*
X170764200Y-67776600D03*
X177444400Y-65687700D03*
X177444400Y-67687700D03*
D23*
X190500000Y-71894000D03*
X190500000Y-73394000D03*
D24*
X165976300Y-101917500D03*
D25*
X168516300Y-101917500D03*
X171056300Y-101917500D03*
X173596300Y-101917500D03*
X176136300Y-101917500D03*
X178676300Y-101917500D03*
X181216300Y-101917500D03*
X183756300Y-101917500D03*
X186296300Y-101917500D03*
X188836300Y-101917500D03*
X191376300Y-101917500D03*
X193916300Y-101917500D03*
D23*
X175425100Y-81711100D03*
X175425100Y-83211100D03*
X177228500Y-81673000D03*
X177228500Y-83173000D03*
D22*
X170383200Y-72723500D03*
X170383200Y-74723500D03*
D26*
X176526800Y-74660400D03*
X176526800Y-74010400D03*
X176526800Y-73360400D03*
X176526800Y-72710400D03*
X172316800Y-72710400D03*
X172316800Y-73360400D03*
X172316800Y-74010400D03*
X172316800Y-74660400D03*
D27*
X174001800Y-73215400D03*
X174001800Y-74155400D03*
X174841800Y-73215400D03*
X174841800Y-74155400D03*
D22*
X172897800Y-87728300D03*
X172897800Y-85728300D03*
X175895000Y-87474300D03*
X175895000Y-85474300D03*
D14*
X172678600Y-91338400D03*
X170678600Y-91338400D03*
X175066200Y-79324200D03*
X173066200Y-79324200D03*
D22*
X159200000Y-61400000D03*
X159200000Y-63400000D03*
D23*
X192849500Y-82231800D03*
X192849500Y-83731800D03*
X192849500Y-80137700D03*
X192849500Y-78637700D03*
D28*
X172624000Y-52728000D03*
D29*
X167624000Y-57728000D03*
X177624000Y-57728000D03*
D30*
X167624000Y-50228000D03*
X177624000Y-50228000D03*
X167624000Y-52728000D03*
X177624000Y-52728000D03*
X172624000Y-57728000D03*
D31*
X193636900Y-97663000D03*
X190881000Y-75577700D03*
X191096900Y-83007200D03*
X179755800Y-84493100D03*
X175945800Y-94526100D03*
X171551600Y-79349600D03*
X175260000Y-76200000D03*
X192938400Y-75895200D03*
X174001800Y-74155400D03*
X181739300Y-93398100D03*
X184873900Y-99606100D03*
X170764200Y-98958400D03*
X192544700Y-98844100D03*
X187172600Y-81254600D03*
X168783000Y-68046600D03*
X174205900Y-89293700D03*
X174180500Y-95478600D03*
X183807100Y-96240600D03*
X179451000Y-99021900D03*
X167335200Y-72732900D03*
X167220900Y-69265800D03*
D32*
X175945800Y-94526100D02*
X175945800Y-93498100D01*
X175590200Y-93498100D02*
X174473300Y-93498100D01*
X174396400Y-91338400D02*
X172678600Y-91338400D01*
X174485300Y-91427300D02*
X174396400Y-91338400D01*
X174485300Y-93486100D02*
X174485300Y-91427300D01*
X174473300Y-93498100D02*
X174485300Y-93486100D01*
X193497200Y-71821800D02*
X192192400Y-71821800D01*
X192192400Y-71821800D02*
X191973200Y-71602600D01*
X196532500Y-73901300D02*
X196532500Y-71920100D01*
X196434200Y-71821800D02*
X193497200Y-71821800D01*
X196532500Y-71920100D02*
X196434200Y-71821800D01*
X196532500Y-73901300D02*
X196367400Y-73901300D01*
X191439800Y-71602600D02*
X190791400Y-71602600D01*
X190791400Y-71602600D02*
X190500000Y-71894000D01*
X193484500Y-97510600D02*
X190826900Y-97510600D01*
X193636900Y-97663000D02*
X193484500Y-97510600D01*
X192849500Y-82231800D02*
X192849500Y-80137700D01*
X191973200Y-71602600D02*
X191973200Y-73964800D01*
X191973200Y-73964800D02*
X190881000Y-75057000D01*
X190881000Y-75057000D02*
X190881000Y-75577700D01*
X191872300Y-82231800D02*
X192849500Y-82231800D01*
X191096900Y-83007200D02*
X191872300Y-82231800D01*
X191439800Y-71602600D02*
X190221300Y-71602600D01*
X190221300Y-71602600D02*
X190195200Y-71576500D01*
X189033150Y-71602600D02*
X180200300Y-71602600D01*
X179679600Y-72669400D02*
X179679600Y-72123300D01*
X179679600Y-84416900D02*
X179755800Y-84493100D01*
X179679600Y-72669400D02*
X179679600Y-84416900D01*
X180200300Y-71602600D02*
X179679600Y-72123300D01*
X191973200Y-71602600D02*
X191922400Y-71602600D01*
X191719200Y-71602600D02*
X191439800Y-71602600D01*
X191922400Y-71602600D02*
X191719200Y-71602600D01*
X191439800Y-71602600D02*
X189033150Y-71602600D01*
X187706000Y-99209100D02*
X186940700Y-99209100D01*
X190826900Y-99209100D02*
X187706000Y-99209100D01*
X190826900Y-97510600D02*
X190826900Y-99209100D01*
X186940700Y-99209100D02*
X186918600Y-99187000D01*
X186918600Y-99187000D02*
X186918600Y-97294700D01*
X186918600Y-97294700D02*
X188099700Y-96113600D01*
X188099700Y-96113600D02*
X188099700Y-95463500D01*
X188099700Y-95463500D02*
X188114900Y-95448300D01*
D33*
X183489600Y-90360500D02*
X184886600Y-90360500D01*
X184886600Y-90360500D02*
X185994800Y-90360500D01*
X185994800Y-90360500D02*
X186007500Y-90347800D01*
X183039300Y-90810800D02*
X183489600Y-90360500D01*
X183039300Y-91498100D02*
X183039300Y-90810800D01*
D32*
X186007500Y-90347800D02*
X186007500Y-89125300D01*
X186007500Y-89125300D02*
X186074050Y-89058750D01*
X189769750Y-89058750D02*
X186074050Y-89058750D01*
X191017400Y-97624900D02*
X191017400Y-95529400D01*
X191017400Y-95529400D02*
X191017400Y-91271600D01*
X191017400Y-91271600D02*
X191017400Y-90293700D01*
X191004700Y-90293700D02*
X189769750Y-89058750D01*
X191017400Y-90293700D02*
X191004700Y-90293700D01*
X190014900Y-95448300D02*
X190014900Y-96698600D01*
X190014900Y-96698600D02*
X190826900Y-97510600D01*
D34*
X196570600Y-73863200D02*
X196532500Y-73901300D01*
X196481700Y-73952100D02*
X196532500Y-73901300D01*
D33*
X188099700Y-95463500D02*
X188099700Y-96113600D01*
X188099700Y-95463500D02*
X188114900Y-95448300D01*
X188114900Y-95448300D02*
X188114900Y-95768200D01*
X186007500Y-90347800D02*
X186007500Y-90186000D01*
X188114900Y-95448300D02*
X188114900Y-95920600D01*
X190014900Y-96698600D02*
X190826900Y-97510600D01*
X195948300Y-73952100D02*
X196583300Y-73952100D01*
D32*
X175590200Y-93498100D02*
X175945800Y-93498100D01*
X175945800Y-93498100D02*
X176911000Y-93498100D01*
D33*
X176911000Y-93498100D02*
X177038000Y-93498100D01*
X177038000Y-93498100D02*
X179139300Y-93498100D01*
X179139300Y-93498100D02*
X179127300Y-93510100D01*
X196646800Y-74015600D02*
X196583300Y-73952100D01*
D34*
X171551600Y-79349600D02*
X172212000Y-79349600D01*
X172212000Y-79349600D02*
X172237400Y-79324200D01*
X172237400Y-79324200D02*
X173066200Y-79324200D01*
X189064900Y-95448300D02*
X189064900Y-92341700D01*
X189064900Y-92341700D02*
X188442600Y-91719400D01*
X172624000Y-52728000D02*
X172624000Y-54971200D01*
X172624000Y-54971200D02*
X174650400Y-56997600D01*
X174650400Y-56997600D02*
X174650400Y-62026800D01*
X174650400Y-62026800D02*
X174001800Y-62675400D01*
X174001800Y-62675400D02*
X174001800Y-73215400D01*
X172316800Y-74010400D02*
X173856800Y-74010400D01*
X173856800Y-74010400D02*
X174001800Y-74155400D01*
X171201200Y-74010400D02*
X172316800Y-74010400D01*
X170383200Y-74723500D02*
X170488100Y-74723500D01*
X170488100Y-74723500D02*
X171201200Y-74010400D01*
X175260000Y-76200000D02*
X174244000Y-76200000D01*
X174244000Y-76200000D02*
X174002700Y-75958700D01*
X155829000Y-63677800D02*
X158922200Y-63677800D01*
X158922200Y-63677800D02*
X159200000Y-63400000D01*
X156143200Y-63992000D02*
X155829000Y-63677800D01*
X156143200Y-63992000D02*
X155829000Y-63677800D01*
X181739300Y-93398100D02*
X181739300Y-92098100D01*
X180439300Y-93398100D02*
X181739300Y-93398100D01*
X181739300Y-92098100D02*
X180439300Y-92098100D01*
X180439300Y-93398100D02*
X180439300Y-92098100D01*
X170522900Y-91494100D02*
X170522900Y-92557600D01*
X170450000Y-92630500D02*
X170522900Y-92557600D01*
X170450000Y-92630500D02*
X170450000Y-93929200D01*
X170522900Y-91494100D02*
X170678600Y-91338400D01*
X183039300Y-91998100D02*
X184455500Y-91998100D01*
X184455500Y-91998100D02*
X184696100Y-91757500D01*
X193497200Y-73821800D02*
X193497200Y-75336400D01*
X193497200Y-75336400D02*
X192938400Y-75895200D01*
X174841800Y-74155400D02*
X174841800Y-74055400D01*
X174841800Y-74055400D02*
X174001800Y-73215400D01*
X174841800Y-73215400D02*
X174841800Y-74155400D01*
X174001800Y-74155400D02*
X174001800Y-74055400D01*
X174001800Y-74055400D02*
X174841800Y-73215400D01*
X174002700Y-75184000D02*
X174002700Y-74156300D01*
X174002700Y-74156300D02*
X174001800Y-74155400D01*
X174002700Y-75958700D02*
X174002700Y-75184000D01*
X174002700Y-74156300D02*
X174001800Y-74155400D01*
X173856800Y-74010400D02*
X174001800Y-74155400D01*
X173912800Y-74066400D02*
X174001800Y-74155400D01*
X180339300Y-94698100D02*
X180339300Y-93498100D01*
X180339300Y-93498100D02*
X180439300Y-93398100D01*
X183039300Y-91998100D02*
X181839300Y-91998100D01*
X181839300Y-91998100D02*
X181739300Y-92098100D01*
X183039300Y-92998100D02*
X182139300Y-92998100D01*
X182139300Y-92998100D02*
X181739300Y-93398100D01*
X180873400Y-78790800D02*
X181041800Y-78790800D01*
X181041800Y-78790800D02*
X183480200Y-81229200D01*
X188826900Y-97510600D02*
X188826900Y-97266000D01*
X188826900Y-97266000D02*
X189064900Y-97028000D01*
X189064900Y-97028000D02*
X189064900Y-95448300D01*
X186321700Y-94802200D02*
X186321700Y-94754700D01*
X186321700Y-94754700D02*
X186740800Y-94335600D01*
X183039300Y-92998100D02*
X184400000Y-92998100D01*
X184400000Y-92998100D02*
X186204100Y-94802200D01*
X186204100Y-94802200D02*
X186321700Y-94802200D01*
X183664100Y-98005900D02*
X183664100Y-99247200D01*
X183664100Y-99247200D02*
X184023000Y-99606100D01*
X184023000Y-99606100D02*
X184873900Y-99606100D01*
X170383200Y-74396600D02*
X170383200Y-74723500D01*
X188007500Y-91719400D02*
X188442600Y-91719400D01*
X170580050Y-97262950D02*
X170580050Y-98774250D01*
X170580050Y-98774250D02*
X170764200Y-98958400D01*
X170513500Y-96088200D02*
X170513500Y-93992700D01*
X170513500Y-93992700D02*
X170450000Y-93929200D01*
X178598805Y-97369605D02*
X170686705Y-97369605D01*
X180339300Y-95629110D02*
X178598805Y-97369605D01*
X180339300Y-94698100D02*
X180339300Y-95629110D01*
X170686705Y-97369605D02*
X170580050Y-97262950D01*
X170580050Y-97262950D02*
X170513500Y-97196400D01*
X170450000Y-93929200D02*
X170513500Y-93992700D01*
X170513500Y-93992700D02*
X170513500Y-97196400D01*
D33*
X188007500Y-91728800D02*
X188007500Y-91719400D01*
X188007500Y-91719400D02*
X188007500Y-90347800D01*
X188036200Y-91757500D02*
X188007500Y-91728800D01*
X184696100Y-91757500D02*
X188036200Y-91757500D01*
X183039300Y-92998100D02*
X183043300Y-93002100D01*
X180339300Y-94698100D02*
X180326601Y-94710799D01*
D34*
X172513500Y-96088200D02*
X172834300Y-96088200D01*
X172834300Y-96088200D02*
X173558200Y-96812100D01*
X179839300Y-95623700D02*
X179839300Y-94698100D01*
X178650900Y-96812100D02*
X179839300Y-95623700D01*
X173558200Y-96812100D02*
X178650900Y-96812100D01*
D33*
X172513500Y-96088200D02*
X172513500Y-93992700D01*
X172513500Y-93992700D02*
X172450000Y-93929200D01*
X172450000Y-93929200D02*
X172694600Y-93929200D01*
X172513500Y-93992700D02*
X172450000Y-93929200D01*
X172513500Y-96088200D02*
X172894500Y-96469200D01*
X172450000Y-93929200D02*
X172513500Y-93992700D01*
D34*
X196532500Y-99301300D02*
X194144900Y-99301300D01*
X194144900Y-99301300D02*
X193687700Y-98844100D01*
X193687700Y-98844100D02*
X192544700Y-98844100D01*
X186664600Y-99923600D02*
X191465200Y-99923600D01*
X191465200Y-99923600D02*
X192544700Y-98844100D01*
X188493400Y-73710800D02*
X190183200Y-73710800D01*
X190183200Y-73710800D02*
X190500000Y-73394000D01*
X185480200Y-81229200D02*
X187147200Y-81229200D01*
X187147200Y-81229200D02*
X187172600Y-81254600D01*
X185470800Y-73710800D02*
X185470800Y-81219800D01*
X185470800Y-81219800D02*
X185480200Y-81229200D01*
X180873400Y-73710800D02*
X185470800Y-73710800D01*
X185470800Y-73710800D02*
X188493400Y-73710800D01*
X183693500Y-93498100D02*
X183039300Y-93498100D01*
D33*
X183039300Y-93498100D02*
X183642700Y-93498100D01*
X183039300Y-93498100D02*
X183051300Y-93510100D01*
D34*
X184943750Y-94748350D02*
X183693500Y-93498100D01*
D33*
X183642700Y-93498100D02*
X184943750Y-94799150D01*
D34*
X184943750Y-95681800D02*
X184943750Y-98202750D01*
X184943750Y-96697800D02*
X184943750Y-98202750D01*
X184943750Y-96697800D02*
X184943750Y-95681800D01*
X184943750Y-95681800D02*
X184943750Y-94748350D01*
D33*
X184943750Y-94799150D02*
X184943750Y-96697800D01*
X184943750Y-94799150D02*
X184950100Y-94805500D01*
D34*
X186664600Y-99923600D02*
X184943750Y-98202750D01*
D33*
X196583300Y-99352100D02*
X196456300Y-99225100D01*
X181698900Y-97971100D02*
X181698900Y-96964500D01*
X181839300Y-96824100D02*
X181698900Y-96964500D01*
X181839300Y-96824100D02*
X181839300Y-94698100D01*
X181698900Y-97971100D02*
X181664100Y-98005900D01*
X181839300Y-94698100D02*
X181851300Y-94710100D01*
D34*
X186321700Y-92802200D02*
X187668800Y-92802200D01*
X187668800Y-92802200D02*
X188114900Y-93248300D01*
X183039300Y-92498100D02*
X186017600Y-92498100D01*
X186017600Y-92498100D02*
X186321700Y-92802200D01*
D33*
X183039300Y-92498100D02*
X183043300Y-92494100D01*
D32*
X168783000Y-68046600D02*
X169545000Y-68046600D01*
X169545000Y-68046600D02*
X169815000Y-67776600D01*
X169815000Y-67776600D02*
X170764200Y-67776600D01*
X174180500Y-95478600D02*
X176301400Y-95478600D01*
X176301400Y-95478600D02*
X177781900Y-93998100D01*
X177781900Y-93998100D02*
X178326100Y-93998100D01*
D34*
X179139300Y-93998100D02*
X178326100Y-93998100D01*
D32*
X172897800Y-87728300D02*
X172897800Y-89255600D01*
X172897800Y-89255600D02*
X173050200Y-89408000D01*
D33*
X174091600Y-89408000D02*
X174205900Y-89293700D01*
D32*
X173050200Y-89408000D02*
X174091600Y-89408000D01*
D33*
X179139300Y-94075800D02*
X179139300Y-93998100D01*
X172961300Y-87639400D02*
X172999400Y-87601300D01*
D32*
X175895000Y-87474300D02*
X175895000Y-91414600D01*
X175895000Y-91414600D02*
X177478500Y-92998100D01*
X177478500Y-92998100D02*
X178223100Y-92998100D01*
D34*
X179139300Y-92998100D02*
X178223100Y-92998100D01*
D32*
X175768000Y-87300500D02*
X177685000Y-87300500D01*
X178765200Y-69008500D02*
X177444400Y-67687700D01*
X178765200Y-86220300D02*
X178765200Y-69008500D01*
X177685000Y-87300500D02*
X178765200Y-86220300D01*
D34*
X175818800Y-87351300D02*
X175768000Y-87300500D01*
D33*
X177653950Y-67833750D02*
X177488850Y-67668650D01*
D32*
X170764200Y-65776600D02*
X170764200Y-62814200D01*
X167624000Y-59674000D02*
X167624000Y-57728000D01*
X170764200Y-62814200D02*
X167624000Y-59674000D01*
D34*
X170764200Y-65776600D02*
X170221400Y-65776600D01*
D32*
X177444400Y-62687200D02*
X177444400Y-57907600D01*
X177444400Y-57907600D02*
X177624000Y-57728000D01*
X177444400Y-64516000D02*
X177444400Y-62687200D01*
X177444400Y-65687700D02*
X177444400Y-64516000D01*
D34*
X178676300Y-101917500D02*
X178676300Y-100571300D01*
X178676300Y-100571300D02*
X179451000Y-99796600D01*
X179451000Y-99796600D02*
X179451000Y-99021900D01*
X183502300Y-94461100D02*
X183039300Y-93998100D01*
X183502300Y-95935800D02*
X183502300Y-94461100D01*
X183807100Y-96240600D02*
X183502300Y-95935800D01*
D33*
X183039300Y-93998100D02*
X183164800Y-93998100D01*
X178244500Y-101815900D02*
X178168300Y-101892100D01*
X194500500Y-96812100D02*
X194500500Y-94767400D01*
X194322700Y-94589600D02*
X194398900Y-94665800D01*
X194322700Y-94589600D02*
X192239900Y-94589600D01*
X194500500Y-94767400D02*
X194398900Y-94665800D01*
X182397400Y-90740000D02*
X182397400Y-89916000D01*
X183819800Y-88493600D02*
X182397400Y-89916000D01*
X194500500Y-96812100D02*
X196583300Y-96812100D01*
X192239900Y-90728800D02*
X190004700Y-88493600D01*
X192239900Y-94589600D02*
X192239900Y-90728800D01*
X190004700Y-88493600D02*
X183819800Y-88493600D01*
X182397400Y-90740000D02*
X182339300Y-90798100D01*
X182339300Y-90798100D02*
X182359300Y-90778100D01*
X196456300Y-96685100D02*
X196583300Y-96812100D01*
X196418200Y-94107000D02*
X192849500Y-94107000D01*
X192735200Y-93992700D02*
X192849500Y-94107000D01*
X183629300Y-87934800D02*
X190195200Y-87934800D01*
X181839300Y-89724800D02*
X183629300Y-87934800D01*
X181839300Y-89724800D02*
X181839300Y-90798100D01*
X190195200Y-87934800D02*
X192735200Y-90474800D01*
X192735200Y-90474800D02*
X192735200Y-93992700D01*
X196418200Y-94107000D02*
X196583300Y-94272100D01*
X196519800Y-94335600D02*
X196583300Y-94272100D01*
X181339300Y-90798100D02*
X181339300Y-89551700D01*
X183527700Y-87363300D02*
X181343300Y-89547700D01*
X193243200Y-90246200D02*
X193243200Y-91732100D01*
X193243200Y-90246200D02*
X190360300Y-87363300D01*
X190360300Y-87363300D02*
X183527700Y-87363300D01*
X181339300Y-89551700D02*
X181343300Y-89547700D01*
X196583300Y-91732100D02*
X193243200Y-91732100D01*
X193243200Y-91732100D02*
X193230500Y-91719400D01*
X181339300Y-90798100D02*
X181343300Y-90794100D01*
X180835300Y-90794100D02*
X180835300Y-89369900D01*
X183349900Y-86855300D02*
X180835300Y-89369900D01*
X192963800Y-89192100D02*
X196583300Y-89192100D01*
X192963800Y-89192100D02*
X190627000Y-86855300D01*
X190627000Y-86855300D02*
X183349900Y-86855300D01*
X180835300Y-90794100D02*
X180839300Y-90798100D01*
X196583300Y-89192100D02*
X196011800Y-89763600D01*
X190906400Y-86372700D02*
X183159400Y-86372700D01*
X180339300Y-89192800D02*
X183108600Y-86423500D01*
X180339300Y-90798100D02*
X180339300Y-89192800D01*
X191185800Y-86652100D02*
X190906400Y-86372700D01*
X191185800Y-86652100D02*
X196583300Y-86652100D01*
X183159400Y-86372700D02*
X183108600Y-86423500D01*
X180339300Y-90798100D02*
X180327300Y-90786100D01*
D34*
X192849500Y-83731800D02*
X192849500Y-84416900D01*
X192849500Y-84416900D02*
X192100200Y-85166200D01*
D33*
X182435500Y-85166200D02*
X192100200Y-85166200D01*
X179247800Y-91389600D02*
X179247800Y-88366600D01*
D34*
X192849500Y-83731800D02*
X193712400Y-83731800D01*
X193712400Y-83731800D02*
X195922900Y-81521300D01*
X195922900Y-81521300D02*
X196532500Y-81521300D01*
D33*
X196392800Y-81762600D02*
X196583300Y-81572100D01*
X181406800Y-86207600D02*
X181406800Y-86194900D01*
X181406800Y-86194900D02*
X182435500Y-85166200D01*
X181406800Y-86207600D02*
X179247800Y-88366600D01*
X179139300Y-91498100D02*
X179247800Y-91389600D01*
X196583300Y-81572100D02*
X196519800Y-81508600D01*
D34*
X190512700Y-79108300D02*
X190512700Y-79794100D01*
X190512700Y-79794100D02*
X188950600Y-81356200D01*
X188950600Y-81356200D02*
X188950600Y-83693000D01*
X188950600Y-83693000D02*
X188010800Y-84632800D01*
X192849500Y-78637700D02*
X190983300Y-78637700D01*
X182283100Y-84632800D02*
X181152800Y-85763100D01*
X188010800Y-84632800D02*
X182283100Y-84632800D01*
X190983300Y-78637700D02*
X190512700Y-79108300D01*
X196532500Y-78981300D02*
X193193100Y-78981300D01*
X193193100Y-78981300D02*
X192849500Y-78637700D01*
X196152200Y-79361600D02*
X196532500Y-78981300D01*
D33*
X181152800Y-85763100D02*
X181158302Y-85757598D01*
X179139300Y-91998100D02*
X179127300Y-91986100D01*
X179127300Y-91986100D02*
X178041300Y-91986100D01*
X178041300Y-91986100D02*
X178041300Y-88874600D01*
X178041300Y-88874600D02*
X181152800Y-85763100D01*
D34*
X189877700Y-78193900D02*
X189877700Y-79768700D01*
X189877700Y-79768700D02*
X188341000Y-81305400D01*
X177533300Y-88684100D02*
X177533300Y-92138500D01*
X177533300Y-92138500D02*
X177888900Y-92494100D01*
X188341000Y-81305400D02*
X188341000Y-83489800D01*
X188341000Y-83489800D02*
X187680600Y-84150200D01*
X190728600Y-77343000D02*
X194132200Y-77343000D01*
X189877700Y-78193900D02*
X190728600Y-77343000D01*
X194132200Y-77343000D02*
X194132200Y-76441300D01*
X196532500Y-76441300D02*
X194132200Y-76441300D01*
X177888900Y-92494100D02*
X179135300Y-92494100D01*
X177533300Y-88684100D02*
X180898800Y-85318600D01*
D33*
X182129302Y-84150200D02*
X181977601Y-84301901D01*
D34*
X180898800Y-85318600D02*
X180960902Y-85318600D01*
X180960902Y-85318600D02*
X181977601Y-84301901D01*
X187680600Y-84150200D02*
X182129302Y-84150200D01*
D33*
X179139300Y-92498100D02*
X179135300Y-92494100D01*
X182600600Y-85775800D02*
X181660800Y-86715600D01*
X179882800Y-88493600D02*
X181660800Y-86715600D01*
X179819300Y-88493600D02*
X179882800Y-88493600D01*
X179819300Y-88493600D02*
X179819300Y-90778100D01*
X196583300Y-84112100D02*
X196253100Y-84112100D01*
X196253100Y-84112100D02*
X194589400Y-85775800D01*
X194589400Y-85775800D02*
X182600600Y-85775800D01*
X182600600Y-85775800D02*
X182575200Y-85775800D01*
X179839300Y-90798100D02*
X179819300Y-90778100D01*
X196456300Y-84239100D02*
X196583300Y-84112100D01*
D34*
X177444400Y-102768400D02*
X177444400Y-99060000D01*
X177444400Y-99060000D02*
X178206400Y-98298000D01*
X177444400Y-102768400D02*
X176784000Y-103428800D01*
X176784000Y-103428800D02*
X175107600Y-103428800D01*
X175107600Y-103428800D02*
X173596300Y-101917500D01*
X181339300Y-95901700D02*
X181339300Y-94698100D01*
X178943000Y-98298000D02*
X181339300Y-95901700D01*
X178206400Y-98298000D02*
X178943000Y-98298000D01*
D32*
X172316800Y-74660400D02*
X172316800Y-76438100D01*
X159181800Y-76809600D02*
X157784800Y-75412600D01*
X171945300Y-76809600D02*
X159181800Y-76809600D01*
X172316800Y-76438100D02*
X171945300Y-76809600D01*
X148894800Y-75412600D02*
X148894800Y-73266300D01*
X172316800Y-71351800D02*
X172316800Y-72710400D01*
X171831000Y-70866000D02*
X172316800Y-71351800D01*
X166154100Y-70866000D02*
X171831000Y-70866000D01*
X165354000Y-71666100D02*
X166154100Y-70866000D01*
X150495000Y-71666100D02*
X165354000Y-71666100D01*
X148894800Y-73266300D02*
X150495000Y-71666100D01*
D34*
X176136300Y-101917500D02*
X176136300Y-98804707D01*
X176136300Y-98804707D02*
X177215800Y-97725207D01*
X177215800Y-97725207D02*
X177215800Y-97764600D01*
D33*
X175641000Y-101879400D02*
X175628300Y-101892100D01*
X178739800Y-97764600D02*
X177215800Y-97764600D01*
X180839300Y-94698100D02*
X180839300Y-95665100D01*
X178739800Y-97764600D02*
X180839300Y-95665100D01*
X175628300Y-101892100D02*
X175628300Y-101511100D01*
D34*
X181216300Y-101917500D02*
X181216300Y-100317300D01*
X181216300Y-100317300D02*
X182575200Y-98958400D01*
X182339300Y-94698100D02*
X182339300Y-96246000D01*
X182575200Y-96481900D02*
X182575200Y-98958400D01*
X182339300Y-96246000D02*
X182575200Y-96481900D01*
D33*
X180898800Y-101701600D02*
X180708300Y-101892100D01*
D34*
X171373800Y-89725500D02*
X169354500Y-89725500D01*
X169240200Y-89839800D02*
X169240200Y-90347800D01*
X169354500Y-89725500D02*
X169240200Y-89839800D01*
X175066200Y-79324200D02*
X175066200Y-78171800D01*
X175666400Y-77571600D02*
X175666400Y-77584300D01*
X175066200Y-78171800D02*
X175666400Y-77571600D01*
X171754800Y-83870800D02*
X173456600Y-83870800D01*
X174790800Y-80187100D02*
X174790800Y-79400400D01*
X174040800Y-80937100D02*
X174790800Y-80187100D01*
X174040800Y-83286600D02*
X174040800Y-80937100D01*
X173456600Y-83870800D02*
X174040800Y-83286600D01*
X175666400Y-77584300D02*
X176491900Y-76758800D01*
X176491900Y-76758800D02*
X176491900Y-74695300D01*
X176491900Y-74695300D02*
X176526800Y-74660400D01*
X171793600Y-83832000D02*
X171754800Y-83870800D01*
X171754800Y-83870800D02*
X171373800Y-84251800D01*
X171373800Y-89725500D02*
X171373800Y-84251800D01*
X169240200Y-99644200D02*
X170548300Y-100952300D01*
X169240200Y-90347800D02*
X169240200Y-99644200D01*
X170548300Y-100952300D02*
X170548300Y-101892100D01*
D32*
X159200000Y-61400000D02*
X156091200Y-61400000D01*
X156091200Y-61400000D02*
X155829000Y-61137800D01*
X159200000Y-61400000D02*
X161200000Y-61400000D01*
X164400000Y-64600000D02*
X164400000Y-64590700D01*
X161200000Y-61400000D02*
X164400000Y-64600000D01*
X158937800Y-61137800D02*
X159200000Y-61400000D01*
X167220900Y-67411600D02*
X167220900Y-69265800D01*
X167335200Y-72732900D02*
X167344600Y-72723500D01*
X167344600Y-72723500D02*
X170383200Y-72723500D01*
X164400000Y-64590700D02*
X167220900Y-67411600D01*
X170383200Y-72723500D02*
X170869100Y-72723500D01*
X170869100Y-72723500D02*
X171506000Y-73360400D01*
X171506000Y-73360400D02*
X172316800Y-73360400D01*
D34*
X173786800Y-84861400D02*
X173786800Y-84849400D01*
D32*
X172919900Y-85728300D02*
X173786800Y-84861400D01*
X173786800Y-84849400D02*
X175425100Y-83211100D01*
D34*
X172897800Y-85728300D02*
X172919900Y-85728300D01*
X172923200Y-85525100D02*
X172999400Y-85601300D01*
D33*
X173024800Y-85575900D02*
X172999400Y-85601300D01*
D32*
X177228500Y-83173000D02*
X177228500Y-83972400D01*
X177228500Y-83972400D02*
X175895000Y-85305900D01*
D34*
X175895000Y-85305900D02*
X175895000Y-85474300D01*
D33*
X175657000Y-85563200D02*
X176009300Y-85563200D01*
D32*
X176526800Y-73360400D02*
X177570298Y-73360400D01*
X177571400Y-79564800D02*
X175425100Y-81711100D01*
X177571400Y-73361502D02*
X177571400Y-79564800D01*
X177570298Y-73360400D02*
X177571400Y-73361502D01*
X177228500Y-81673000D02*
X177228500Y-81559400D01*
X177228500Y-81559400D02*
X178181000Y-80606900D01*
X178181000Y-80606900D02*
X178181000Y-72961500D01*
X178181000Y-72961500D02*
X177929900Y-72710400D01*
X177929900Y-72710400D02*
X176526800Y-72710400D01*
M02*
