G04 #@! TF.FileFunction,Paste,Top*
%FSLAX46Y46*%
G04 Gerber Fmt 4.6, Leading zero omitted, Abs format (unit mm)*
G04 Created by KiCad (PCBNEW 4.0.2-stable) date 27/05/2016 15:33:53*
%MOMM*%
G01*
G04 APERTURE LIST*
%ADD10C,0.100000*%
%ADD11R,1.000000X1.250000*%
%ADD12R,0.650000X1.060000*%
%ADD13R,0.300000X0.850000*%
%ADD14R,0.850000X0.300000*%
%ADD15R,0.780000X0.780000*%
%ADD16R,1.250000X1.000000*%
%ADD17R,0.900000X0.500000*%
%ADD18R,0.890000X0.420000*%
%ADD19R,0.504000X0.564000*%
G04 APERTURE END LIST*
D10*
D11*
X170450000Y-93929200D03*
X172450000Y-93929200D03*
D12*
X188114900Y-95448300D03*
X189064900Y-95448300D03*
X190014900Y-95448300D03*
X190014900Y-93248300D03*
X188114900Y-93248300D03*
D13*
X182339300Y-90798100D03*
X181839300Y-90798100D03*
X181339300Y-90798100D03*
X180839300Y-90798100D03*
X180339300Y-90798100D03*
X179839300Y-90798100D03*
D14*
X179139300Y-91498100D03*
X179139300Y-91998100D03*
X179139300Y-92498100D03*
X179139300Y-92998100D03*
X179139300Y-93498100D03*
X179139300Y-93998100D03*
D13*
X179839300Y-94698100D03*
X180339300Y-94698100D03*
X180839300Y-94698100D03*
X181339300Y-94698100D03*
X181839300Y-94698100D03*
X182339300Y-94698100D03*
D14*
X183039300Y-93998100D03*
X183039300Y-93498100D03*
X183039300Y-92998100D03*
X183039300Y-92498100D03*
X183039300Y-91998100D03*
X183039300Y-91498100D03*
D15*
X180439300Y-93398100D03*
X181739300Y-93398100D03*
X180439300Y-92098100D03*
X181739300Y-92098100D03*
D11*
X186007500Y-90347800D03*
X188007500Y-90347800D03*
X170513500Y-96088200D03*
X172513500Y-96088200D03*
X185480200Y-81229200D03*
X183480200Y-81229200D03*
X181549800Y-98082100D03*
X183549800Y-98082100D03*
X190826900Y-97510600D03*
X188826900Y-97510600D03*
D16*
X186321700Y-92802200D03*
X186321700Y-94802200D03*
X193497200Y-71821800D03*
X193497200Y-73821800D03*
X170764200Y-65776600D03*
X170764200Y-67776600D03*
X177444400Y-65687700D03*
X177444400Y-67687700D03*
D17*
X190500000Y-71894000D03*
X190500000Y-73394000D03*
X175425100Y-81711100D03*
X175425100Y-83211100D03*
X177228500Y-81673000D03*
X177228500Y-83173000D03*
D16*
X170383200Y-72723500D03*
X170383200Y-74723500D03*
D18*
X176526800Y-74660400D03*
X176526800Y-74010400D03*
X176526800Y-73360400D03*
X176526800Y-72710400D03*
X172316800Y-72710400D03*
X172316800Y-73360400D03*
X172316800Y-74010400D03*
X172316800Y-74660400D03*
D19*
X174001800Y-73215400D03*
X174001800Y-74155400D03*
X174841800Y-73215400D03*
X174841800Y-74155400D03*
D16*
X172897800Y-87728300D03*
X172897800Y-85728300D03*
X175895000Y-87474300D03*
X175895000Y-85474300D03*
D11*
X172678600Y-91338400D03*
X170678600Y-91338400D03*
X175066200Y-79324200D03*
X173066200Y-79324200D03*
D16*
X159200000Y-61400000D03*
X159200000Y-63400000D03*
D17*
X192849500Y-82231800D03*
X192849500Y-83731800D03*
X192849500Y-80137700D03*
X192849500Y-78637700D03*
M02*
