M48
;DRILL file {Pcbnew (2013-mar-13)-stable} date Fri 20 Nov 2015 04:23:39 PM CET
;FORMAT={-:-/ absolute / metric / decimal}
FMAT,2
METRIC,TZ
T1C0.305
T2C0.899
T3C0.900
T4C1.001
T5C1.016
T6C1.191
T7C1.200
T8C1.600
T9C3.200
T10C3.200
%
G90
G05
M71
T1
X100.584Y-56.388
X100.584Y-57.658
X100.584Y-58.928
X100.584Y-60.198
X100.584Y-61.468
X100.584Y-62.738
X100.584Y-64.008
X100.584Y-65.278
X100.584Y-66.548
X100.584Y-67.818
X100.584Y-69.088
X100.584Y-70.358
X100.584Y-71.628
X100.584Y-72.898
X100.584Y-74.168
X100.584Y-75.438
X100.584Y-76.708
X100.584Y-77.978
X100.584Y-79.248
X100.584Y-80.518
X100.584Y-81.788
X100.584Y-83.058
X100.584Y-84.328
X100.584Y-85.598
X100.584Y-86.868
X100.584Y-88.138
X100.584Y-89.408
X100.584Y-90.678
X100.584Y-91.948
X100.584Y-93.218
X100.584Y-94.488
X100.584Y-95.758
X100.584Y-97.028
X100.584Y-98.298
X100.584Y-99.568
X100.584Y-100.838
X100.584Y-102.108
X100.584Y-103.378
X101.422Y-108.788
X102.235Y-84.099
X102.235Y-85.319
X102.311Y-93.218
X102.946Y-113.335
X103.327Y-93.269
X103.48Y-77.191
X104.343Y-94.285
X104.419Y-111.836
X104.597Y-66.904
X104.699Y-102.641
X104.851Y-110.211
X105.893Y-77.191
X107.112Y-76.2
X107.29Y-99.847
X107.315Y-112.293
X107.696Y-90.322
X107.696Y-93.574
X107.925Y-100.482
X107.925Y-101.752
X107.925Y-103.022
X108.433Y-68.58
X108.56Y-102.387
X108.56Y-103.657
X108.737Y-114.325
X109.195Y-101.117
X109.245Y-78.232
X109.322Y-96.596
X109.682Y-99.725
X109.931Y-86.716
X109.957Y-95.885
X110.109Y-105.639
X110.592Y-96.596
X110.642Y-114.325
X110.693Y-108.56
X111.227Y-95.885
X111.608Y-105.639
X111.862Y-96.596
X111.912Y-119.507
X111.989Y-115.672
X112.497Y-95.885
X112.725Y-111.252
X112.827Y-118.339
X112.903Y-113.233
X112.903Y-114.325
X113.03Y-101.778
X113.132Y-96.596
X113.64Y-116.738
X113.767Y-95.885
X114.656Y-97.13
X114.656Y-98.044
X114.783Y-86.97
X114.833Y-81.305
X115.57Y-94.005
X115.595Y-108.56
X115.595Y-111.252
X115.621Y-98.044
X115.621Y-101.6
X115.646Y-83.033
X115.926Y-117.069
X116.078Y-94.945
X116.078Y-95.885
X116.256Y-114.325
X116.472Y-86.741
X116.484Y-90.602
X116.484Y-94.005
X117.094Y-80.62
X117.094Y-96.876
X117.551Y-107.848
X117.551Y-111.252
X117.551Y-117.069
X118.212Y-114.325
X118.212Y-120.066
X118.262Y-101.6
X118.262Y-104.369
X118.364Y-97.028
X118.77Y-79.604
X119.405Y-108.56
X119.405Y-111.252
X120.117Y-72.212
X120.117Y-78.257
X120.193Y-86.233
X120.777Y-116.256
X120.904Y-80.518
X120.904Y-81.788
X120.904Y-83.058
X120.904Y-84.328
X120.904Y-85.598
X120.904Y-86.868
X120.904Y-88.138
X120.904Y-89.408
X120.904Y-90.678
X120.904Y-91.948
X120.904Y-93.218
X120.904Y-94.488
X120.904Y-95.758
X121.031Y-68.58
X121.615Y-63.017
X121.691Y-96.774
X121.869Y-108.56
X121.869Y-111.252
X122.301Y-77.978
X122.301Y-79.248
X122.352Y-76.2
X123.495Y-106.172
X123.495Y-111.938
X125.07Y-106.172
X126.848Y-108.61
X130.988Y-71.933
X131.191Y-82.829
X131.191Y-84.15
X131.191Y-85.471
X131.851Y-83.49
X131.851Y-84.811
X131.928Y-103.53
X133.045Y-106.401
X134.036Y-70.307
X135.128Y-115.595
X135.458Y-109.093
X135.56Y-71.933
X135.788Y-116.256
X136.474Y-106.401
X137.465Y-97.307
X137.566Y-76.479
X137.795Y-84.099
X139.065Y-71.069
X139.192Y-109.753
X139.192Y-113.64
X139.192Y-114.96
X139.192Y-117.551
X139.624Y-108.458
X139.852Y-116.891
X139.903Y-106.401
X140.538Y-79.248
X140.538Y-83.49
X140.538Y-94.259
X141.072Y-100.457
X141.199Y-89.586
X141.199Y-91.034
X141.249Y-74.041
X141.732Y-76.556
X142.24Y-74.041
X142.494Y-77.216
X143.256Y-76.556
X143.739Y-74.041
X143.916Y-71.171
X143.993Y-94.818
X144.247Y-77.216
X144.983Y-94.818
X145.034Y-91.034
X146.253Y-93.523
X146.279Y-70.155
X146.38Y-88.57
X146.38Y-90.805
X146.583Y-106.147
X147.244Y-76.556
X147.897Y-72.72
X147.93Y-103.124
X147.93Y-104.445
X148.209Y-93.523
X148.565Y-103.784
X148.565Y-105.08
X149.835Y-100.508
X151.282Y-70.18
X151.74Y-71.247
X152.248Y-94.183
X152.248Y-95.453
X152.883Y-94.818
X153.746Y-67.716
X155.067Y-65.913
X155.372Y-98.755
X155.372Y-99.797
X155.372Y-100.686
X155.486Y-115.202
X156.375Y-95.453
X157.099Y-98.298
X157.15Y-99.797
X157.15Y-100.686
X157.251Y-95.453
X157.759Y-71.526
X158.953Y-98.45
X158.966Y-110.884
X159.398Y-109.741
X159.436Y-79.756
X159.436Y-81.255
X159.436Y-86.741
X159.461Y-88.24
X159.461Y-118.796
X161.493Y-75.54
X164.338Y-95.961
X165.379Y-76.098
X170.231Y-72.238
X171.298Y-69.012
X171.298Y-73.889
X174.828Y-118.796
X180.924Y-106.934
X181.407Y-71.095
X182.333Y-55.016
X182.601Y-117.17
X182.855Y-71.095
X183.845Y-106.934
X184.302Y-71.095
X184.937Y-109.601
X185.242Y-78.918
X185.242Y-81.305
X185.242Y-83.718
X185.268Y-86.081
X185.268Y-88.494
X185.268Y-90.907
X185.877Y-79.553
X185.877Y-81.966
X185.877Y-84.353
X185.877Y-86.716
X185.877Y-89.129
X185.877Y-91.542
X187.528Y-66.98
X187.63Y-73.127
X187.655Y-69.901
X189.179Y-71.907
X189.687Y-106.934
X189.992Y-80.67
X189.992Y-83.058
X189.992Y-85.471
X189.992Y-86.411
X189.992Y-87.859
X189.992Y-88.798
X189.992Y-90.272
X189.992Y-91.211
X189.992Y-92.786
X190.17Y-79.197
X190.17Y-81.585
X190.17Y-83.972
X190.652Y-80.01
X190.652Y-82.398
X190.652Y-84.811
X190.652Y-87.198
X190.652Y-89.611
X190.652Y-91.999
X192.329Y-65.659
X192.329Y-67.107
X192.329Y-68.631
X193.333Y-55.016
X193.333Y-61.166
X193.802Y-80.797
X193.802Y-83.21
X193.802Y-85.598
X193.802Y-88.011
X193.802Y-90.399
X193.802Y-93.599
X196.215Y-108.052
X198.679Y-55.778
X198.679Y-59.284
X199.009Y-70.256
T2
X106.223Y-115.748
X111.17Y-57.937
X112.19Y-59.717
X113.21Y-57.937
X114.23Y-59.717
X115.25Y-57.937
X116.27Y-59.717
X116.992Y-105.054
X117.29Y-57.937
X118.31Y-59.717
X119.532Y-105.054
X165.456Y-70.002
T3
X107.88Y-64.577
X110.17Y-64.577
X119.31Y-64.577
X121.6Y-64.577
T4
X174.777Y-108.798
X174.777Y-113.299
X181.28Y-108.798
X181.28Y-113.299
X183.49Y-108.798
X183.49Y-113.299
X183.49Y-115.656
X183.49Y-120.157
X189.992Y-108.798
X189.992Y-113.299
X189.992Y-115.656
X189.992Y-120.157
X192.202Y-108.798
X192.202Y-113.299
X198.704Y-108.798
X198.704Y-113.299
T5
X119.177Y-87.579
X119.177Y-90.119
X119.177Y-92.659
X119.177Y-95.199
T6
X134.8Y-58.903
X134.8Y-63.983
X135.945Y-61.443
X137.09Y-58.903
X137.09Y-63.983
X138.235Y-61.443
X139.38Y-58.903
X139.38Y-63.983
X140.525Y-61.443
X141.67Y-58.903
X141.67Y-63.983
X142.815Y-61.443
X143.96Y-58.903
X143.96Y-63.983
T7
X133.655Y-61.443
T8
X106.61Y-58.827
X122.87Y-58.827
T9
X102.95Y-53.048
X102.95Y-119.08
X161.Y-71.
X161.Y-101.
X197.02Y-53.048
X197.02Y-119.08
T10
X126.631Y-61.443
X151.629Y-61.443
T0
M30
