G04 (created by PCBNEW (2013-mar-13)-stable) date Fri 20 Nov 2015 04:23:37 PM CET*
%MOIN*%
G04 Gerber Fmt 3.4, Leading zero omitted, Abs format*
%FSLAX34Y34*%
G01*
G70*
G90*
G04 APERTURE LIST*
%ADD10C,0.005906*%
%ADD11C,0.004000*%
%ADD12C,0.196850*%
%ADD13C,0.051181*%
%ADD14C,0.100000*%
%ADD15C,0.050000*%
%ADD16C,0.160000*%
%ADD17C,0.063000*%
%ADD18R,0.053100X0.011400*%
%ADD19R,0.011400X0.053100*%
%ADD20R,0.031500X0.074800*%
%ADD21R,0.008063X0.047200*%
%ADD22R,0.047200X0.008063*%
%ADD23R,0.033500X0.011000*%
%ADD24R,0.011000X0.033500*%
%ADD25R,0.118100X0.118100*%
%ADD26R,0.045000X0.025000*%
%ADD27R,0.025000X0.045000*%
%ADD28R,0.055118X0.048800*%
%ADD29R,0.050000X0.023622*%
%ADD30R,0.027600X0.039400*%
%ADD31R,0.051181X0.133858*%
%ADD32R,0.020000X0.045000*%
%ADD33R,0.055000X0.035000*%
%ADD34R,0.035000X0.055000*%
%ADD35R,0.059055X0.078740*%
%ADD36R,0.011800X0.070100*%
%ADD37R,0.080000X0.060000*%
%ADD38R,0.078740X0.078740*%
%ADD39R,0.060000X0.080000*%
%ADD40R,0.133858X0.051181*%
%ADD41R,0.039400X0.027600*%
%ADD42R,0.047200X0.078700*%
%ADD43C,0.055100*%
%ADD44R,0.055100X0.047200*%
%ADD45R,0.036000X0.036000*%
%ADD46R,0.060000X0.060000*%
%ADD47C,0.060000*%
%ADD48R,0.078740X0.019685*%
%ADD49R,0.078700X0.047200*%
%ADD50R,0.047200X0.055100*%
%ADD51C,0.070900*%
%ADD52C,0.028000*%
%ADD53C,0.016000*%
%ADD54C,0.008000*%
%ADD55C,0.012000*%
%ADD56C,0.006000*%
G04 APERTURE END LIST*
G54D10*
G54D11*
X46934Y-47730D02*
X47077Y-47730D01*
X46905Y-47815D02*
X47005Y-47515D01*
X47105Y-47815D01*
X47334Y-47615D02*
X47334Y-47858D01*
X47320Y-47887D01*
X47305Y-47901D01*
X47277Y-47915D01*
X47234Y-47915D01*
X47205Y-47901D01*
X47334Y-47801D02*
X47305Y-47815D01*
X47248Y-47815D01*
X47220Y-47801D01*
X47205Y-47787D01*
X47191Y-47758D01*
X47191Y-47672D01*
X47205Y-47644D01*
X47220Y-47630D01*
X47248Y-47615D01*
X47305Y-47615D01*
X47334Y-47630D01*
X47477Y-47815D02*
X47477Y-47615D01*
X47477Y-47515D02*
X47462Y-47530D01*
X47477Y-47544D01*
X47491Y-47530D01*
X47477Y-47515D01*
X47477Y-47544D01*
X47662Y-47815D02*
X47634Y-47801D01*
X47620Y-47772D01*
X47620Y-47515D01*
X47905Y-47815D02*
X47905Y-47658D01*
X47891Y-47630D01*
X47862Y-47615D01*
X47805Y-47615D01*
X47777Y-47630D01*
X47905Y-47801D02*
X47877Y-47815D01*
X47805Y-47815D01*
X47777Y-47801D01*
X47762Y-47772D01*
X47762Y-47744D01*
X47777Y-47715D01*
X47805Y-47701D01*
X47877Y-47701D01*
X47905Y-47687D01*
X48177Y-47801D02*
X48148Y-47815D01*
X48091Y-47815D01*
X48062Y-47801D01*
X48048Y-47787D01*
X48034Y-47758D01*
X48034Y-47672D01*
X48048Y-47644D01*
X48062Y-47630D01*
X48091Y-47615D01*
X48148Y-47615D01*
X48177Y-47630D01*
X48305Y-47815D02*
X48305Y-47515D01*
X48334Y-47701D02*
X48420Y-47815D01*
X48420Y-47615D02*
X48305Y-47730D01*
X48762Y-47544D02*
X48777Y-47530D01*
X48805Y-47515D01*
X48877Y-47515D01*
X48905Y-47530D01*
X48920Y-47544D01*
X48934Y-47572D01*
X48934Y-47601D01*
X48920Y-47644D01*
X48748Y-47815D01*
X48934Y-47815D01*
X49120Y-47515D02*
X49148Y-47515D01*
X49177Y-47530D01*
X49191Y-47544D01*
X49205Y-47572D01*
X49220Y-47630D01*
X49220Y-47701D01*
X49205Y-47758D01*
X49191Y-47787D01*
X49177Y-47801D01*
X49148Y-47815D01*
X49120Y-47815D01*
X49091Y-47801D01*
X49077Y-47787D01*
X49062Y-47758D01*
X49048Y-47701D01*
X49048Y-47630D01*
X49062Y-47572D01*
X49077Y-47544D01*
X49091Y-47530D01*
X49120Y-47515D01*
X49505Y-47815D02*
X49334Y-47815D01*
X49420Y-47815D02*
X49420Y-47515D01*
X49391Y-47558D01*
X49362Y-47587D01*
X49334Y-47601D01*
X49777Y-47515D02*
X49634Y-47515D01*
X49620Y-47658D01*
X49634Y-47644D01*
X49662Y-47630D01*
X49734Y-47630D01*
X49762Y-47644D01*
X49777Y-47658D01*
X49791Y-47687D01*
X49791Y-47758D01*
X49777Y-47787D01*
X49762Y-47801D01*
X49734Y-47815D01*
X49662Y-47815D01*
X49634Y-47801D01*
X49620Y-47787D01*
X50319Y-47787D02*
X50305Y-47801D01*
X50262Y-47815D01*
X50234Y-47815D01*
X50191Y-47801D01*
X50162Y-47772D01*
X50148Y-47744D01*
X50134Y-47687D01*
X50134Y-47644D01*
X50148Y-47587D01*
X50162Y-47558D01*
X50191Y-47530D01*
X50234Y-47515D01*
X50262Y-47515D01*
X50305Y-47530D01*
X50319Y-47544D01*
X50619Y-47787D02*
X50605Y-47801D01*
X50562Y-47815D01*
X50534Y-47815D01*
X50491Y-47801D01*
X50462Y-47772D01*
X50448Y-47744D01*
X50434Y-47687D01*
X50434Y-47644D01*
X50448Y-47587D01*
X50462Y-47558D01*
X50491Y-47530D01*
X50534Y-47515D01*
X50562Y-47515D01*
X50605Y-47530D01*
X50619Y-47544D01*
X50748Y-47701D02*
X50977Y-47701D01*
X51120Y-47815D02*
X51120Y-47515D01*
X51120Y-47630D02*
X51148Y-47615D01*
X51205Y-47615D01*
X51234Y-47630D01*
X51248Y-47644D01*
X51262Y-47672D01*
X51262Y-47758D01*
X51248Y-47787D01*
X51234Y-47801D01*
X51205Y-47815D01*
X51148Y-47815D01*
X51120Y-47801D01*
X51362Y-47615D02*
X51434Y-47815D01*
X51505Y-47615D02*
X51434Y-47815D01*
X51405Y-47887D01*
X51391Y-47901D01*
X51362Y-47915D01*
X51620Y-47701D02*
X51848Y-47701D01*
X51977Y-47801D02*
X52020Y-47815D01*
X52091Y-47815D01*
X52120Y-47801D01*
X52134Y-47787D01*
X52148Y-47758D01*
X52148Y-47730D01*
X52134Y-47701D01*
X52120Y-47687D01*
X52091Y-47672D01*
X52034Y-47658D01*
X52005Y-47644D01*
X51991Y-47630D01*
X51977Y-47601D01*
X51977Y-47572D01*
X51991Y-47544D01*
X52005Y-47530D01*
X52034Y-47515D01*
X52105Y-47515D01*
X52148Y-47530D01*
X52262Y-47730D02*
X52405Y-47730D01*
X52234Y-47815D02*
X52334Y-47515D01*
X52434Y-47815D01*
X47607Y-47261D02*
X47578Y-47275D01*
X47521Y-47275D01*
X47492Y-47261D01*
X47478Y-47232D01*
X47478Y-47118D01*
X47492Y-47090D01*
X47521Y-47075D01*
X47578Y-47075D01*
X47607Y-47090D01*
X47621Y-47118D01*
X47621Y-47147D01*
X47478Y-47175D01*
X47921Y-47247D02*
X47907Y-47261D01*
X47864Y-47275D01*
X47835Y-47275D01*
X47792Y-47261D01*
X47764Y-47232D01*
X47750Y-47204D01*
X47735Y-47147D01*
X47735Y-47104D01*
X47750Y-47047D01*
X47764Y-47018D01*
X47792Y-46990D01*
X47835Y-46975D01*
X47864Y-46975D01*
X47907Y-46990D01*
X47921Y-47004D01*
X48092Y-47275D02*
X48064Y-47261D01*
X48050Y-47247D01*
X48035Y-47218D01*
X48035Y-47132D01*
X48050Y-47104D01*
X48064Y-47090D01*
X48092Y-47075D01*
X48135Y-47075D01*
X48164Y-47090D01*
X48178Y-47104D01*
X48192Y-47132D01*
X48192Y-47218D01*
X48178Y-47247D01*
X48164Y-47261D01*
X48135Y-47275D01*
X48092Y-47275D01*
X48292Y-47075D02*
X48350Y-47275D01*
X48407Y-47132D01*
X48464Y-47275D01*
X48521Y-47075D01*
X48635Y-47161D02*
X48864Y-47161D01*
X49150Y-47275D02*
X49007Y-47275D01*
X49007Y-46975D01*
X49292Y-47275D02*
X49264Y-47261D01*
X49250Y-47247D01*
X49235Y-47218D01*
X49235Y-47132D01*
X49250Y-47104D01*
X49264Y-47090D01*
X49292Y-47075D01*
X49335Y-47075D01*
X49364Y-47090D01*
X49378Y-47104D01*
X49392Y-47132D01*
X49392Y-47218D01*
X49378Y-47247D01*
X49364Y-47261D01*
X49335Y-47275D01*
X49292Y-47275D01*
X49650Y-47075D02*
X49650Y-47318D01*
X49635Y-47347D01*
X49621Y-47361D01*
X49592Y-47375D01*
X49550Y-47375D01*
X49521Y-47361D01*
X49650Y-47261D02*
X49621Y-47275D01*
X49564Y-47275D01*
X49535Y-47261D01*
X49521Y-47247D01*
X49507Y-47218D01*
X49507Y-47132D01*
X49521Y-47104D01*
X49535Y-47090D01*
X49564Y-47075D01*
X49621Y-47075D01*
X49650Y-47090D01*
X49792Y-47275D02*
X49792Y-47075D01*
X49792Y-46975D02*
X49778Y-46990D01*
X49792Y-47004D01*
X49807Y-46990D01*
X49792Y-46975D01*
X49792Y-47004D01*
X50064Y-47261D02*
X50035Y-47275D01*
X49978Y-47275D01*
X49950Y-47261D01*
X49935Y-47247D01*
X49921Y-47218D01*
X49921Y-47132D01*
X49935Y-47104D01*
X49950Y-47090D01*
X49978Y-47075D01*
X50035Y-47075D01*
X50064Y-47090D01*
X50421Y-47275D02*
X50421Y-47075D01*
X50421Y-46975D02*
X50407Y-46990D01*
X50421Y-47004D01*
X50435Y-46990D01*
X50421Y-46975D01*
X50421Y-47004D01*
X50692Y-47261D02*
X50664Y-47275D01*
X50607Y-47275D01*
X50578Y-47261D01*
X50564Y-47247D01*
X50550Y-47218D01*
X50550Y-47132D01*
X50564Y-47104D01*
X50578Y-47090D01*
X50607Y-47075D01*
X50664Y-47075D01*
X50692Y-47090D01*
X50935Y-47261D02*
X50907Y-47275D01*
X50850Y-47275D01*
X50821Y-47261D01*
X50807Y-47232D01*
X50807Y-47118D01*
X50821Y-47090D01*
X50850Y-47075D01*
X50907Y-47075D01*
X50935Y-47090D01*
X50950Y-47118D01*
X50950Y-47147D01*
X50807Y-47175D01*
X51207Y-47075D02*
X51207Y-47275D01*
X51135Y-46961D02*
X51064Y-47175D01*
X51250Y-47175D01*
X51421Y-46975D02*
X51450Y-46975D01*
X51478Y-46990D01*
X51492Y-47004D01*
X51507Y-47032D01*
X51521Y-47090D01*
X51521Y-47161D01*
X51507Y-47218D01*
X51492Y-47247D01*
X51478Y-47261D01*
X51450Y-47275D01*
X51421Y-47275D01*
X51392Y-47261D01*
X51378Y-47247D01*
X51364Y-47218D01*
X51350Y-47161D01*
X51350Y-47090D01*
X51364Y-47032D01*
X51378Y-47004D01*
X51392Y-46990D01*
X51421Y-46975D01*
X51650Y-47161D02*
X51878Y-47161D01*
X52178Y-47275D02*
X52007Y-47275D01*
X52092Y-47275D02*
X52092Y-46975D01*
X52064Y-47018D01*
X52035Y-47047D01*
X52007Y-47061D01*
X52307Y-47275D02*
X52307Y-46975D01*
X52335Y-47161D02*
X52421Y-47275D01*
X52421Y-47075D02*
X52307Y-47190D01*
G54D12*
X40531Y-20885D03*
X77566Y-20885D03*
X40531Y-46881D03*
X77566Y-46881D03*
G54D13*
X44570Y-22810D03*
X45775Y-23510D03*
X44972Y-23510D03*
X43767Y-22810D03*
X44169Y-23510D03*
X45374Y-22810D03*
X46578Y-23510D03*
X46177Y-22810D03*
G54D14*
X48374Y-23160D03*
X41972Y-23160D03*
G54D15*
X47874Y-25424D03*
X46972Y-25424D03*
X43374Y-25424D03*
X42472Y-25424D03*
G54D16*
X49854Y-24190D03*
X59696Y-24190D03*
G54D17*
X56677Y-23190D03*
X56226Y-24190D03*
X55775Y-23190D03*
X54874Y-23190D03*
X53972Y-23190D03*
X53070Y-23190D03*
X55324Y-24190D03*
X54423Y-24190D03*
X53521Y-24190D03*
X52620Y-24190D03*
X56677Y-25190D03*
X55775Y-25190D03*
X54874Y-25190D03*
X53972Y-25190D03*
X53070Y-25190D03*
G54D18*
X54833Y-30413D03*
X54833Y-30610D03*
X54833Y-30807D03*
X54833Y-31004D03*
X54833Y-31201D03*
X54833Y-31397D03*
X54833Y-31594D03*
X54833Y-31791D03*
X54833Y-31988D03*
X54833Y-32185D03*
X54833Y-32382D03*
X54833Y-32578D03*
X54833Y-32775D03*
X54833Y-32972D03*
X54833Y-33169D03*
X54833Y-33366D03*
X54833Y-33563D03*
X54833Y-33760D03*
X54833Y-33956D03*
X54833Y-34153D03*
X54833Y-34350D03*
X54833Y-34547D03*
X54833Y-34744D03*
X54833Y-34941D03*
X54833Y-35138D03*
X54833Y-35334D03*
X54833Y-35531D03*
X54833Y-35728D03*
X54833Y-35925D03*
X54833Y-36122D03*
X54833Y-36319D03*
X54833Y-36515D03*
X54833Y-36712D03*
X54833Y-36909D03*
X54833Y-37106D03*
X54833Y-37303D03*
G54D19*
X55610Y-38080D03*
X55807Y-38080D03*
X56004Y-38080D03*
X56201Y-38080D03*
X56398Y-38080D03*
X56594Y-38080D03*
X56791Y-38080D03*
X56988Y-38080D03*
X57185Y-38080D03*
X57382Y-38080D03*
X57579Y-38080D03*
X57775Y-38080D03*
X57972Y-38080D03*
X58169Y-38080D03*
X58366Y-38080D03*
X58563Y-38080D03*
X58760Y-38080D03*
X58957Y-38080D03*
X59153Y-38080D03*
X59350Y-38080D03*
X59547Y-38080D03*
X59744Y-38080D03*
X59941Y-38080D03*
X60138Y-38080D03*
X60335Y-38080D03*
X60531Y-38080D03*
X60728Y-38080D03*
X60925Y-38080D03*
X61122Y-38080D03*
X61319Y-38080D03*
X61516Y-38080D03*
X61712Y-38080D03*
X61909Y-38080D03*
X62106Y-38080D03*
X62303Y-38080D03*
X62500Y-38080D03*
G54D18*
X63277Y-37303D03*
X63277Y-37106D03*
X63277Y-36909D03*
X63277Y-36712D03*
X63277Y-36515D03*
X63277Y-36319D03*
X63277Y-36122D03*
X63277Y-35925D03*
X63277Y-35728D03*
X63277Y-35531D03*
X63277Y-35334D03*
X63277Y-35138D03*
X63277Y-34941D03*
X63277Y-34744D03*
X63277Y-34547D03*
X63277Y-34350D03*
X63277Y-34153D03*
X63277Y-33956D03*
X63277Y-33760D03*
X63277Y-33563D03*
X63277Y-33366D03*
X63277Y-33169D03*
X63277Y-32972D03*
X63277Y-32775D03*
X63277Y-32578D03*
X63277Y-32382D03*
X63277Y-32185D03*
X63277Y-31988D03*
X63277Y-31791D03*
X63277Y-31594D03*
X63277Y-31397D03*
X63277Y-31201D03*
X63277Y-31004D03*
X63277Y-30807D03*
X63277Y-30610D03*
X63277Y-30413D03*
G54D19*
X62500Y-29636D03*
X62303Y-29636D03*
X62106Y-29636D03*
X61909Y-29636D03*
X61712Y-29636D03*
X61516Y-29636D03*
X61319Y-29636D03*
X61122Y-29636D03*
X60925Y-29636D03*
X60728Y-29636D03*
X60531Y-29636D03*
X60335Y-29636D03*
X60138Y-29636D03*
X59941Y-29636D03*
X59744Y-29636D03*
X59547Y-29636D03*
X59350Y-29636D03*
X59153Y-29636D03*
X58957Y-29636D03*
X58760Y-29636D03*
X58563Y-29636D03*
X58366Y-29636D03*
X58169Y-29636D03*
X57972Y-29636D03*
X57775Y-29636D03*
X57579Y-29636D03*
X57382Y-29636D03*
X57185Y-29636D03*
X56988Y-29636D03*
X56791Y-29636D03*
X56594Y-29636D03*
X56398Y-29636D03*
X56201Y-29636D03*
X56004Y-29636D03*
X55807Y-29636D03*
X55610Y-29636D03*
G54D20*
X44923Y-30154D03*
X45423Y-30154D03*
X45923Y-30154D03*
X44423Y-30154D03*
X46423Y-30154D03*
X43923Y-30154D03*
X43423Y-30154D03*
X46923Y-30154D03*
X43423Y-26706D03*
X46923Y-26706D03*
X46423Y-26706D03*
X45923Y-26706D03*
X45423Y-26706D03*
X44923Y-26706D03*
X44423Y-26706D03*
X43923Y-26706D03*
G54D21*
X44521Y-38817D03*
X44363Y-38817D03*
X44206Y-38817D03*
X44048Y-38817D03*
X43891Y-38817D03*
X43733Y-38817D03*
X43576Y-38817D03*
X43418Y-38817D03*
X43261Y-38817D03*
X43103Y-38817D03*
X42946Y-38817D03*
X42788Y-38817D03*
X42631Y-38817D03*
X42473Y-38817D03*
X42316Y-38817D03*
X42158Y-38817D03*
G54D22*
X41667Y-39308D03*
X41667Y-39466D03*
X41667Y-39623D03*
X41667Y-39781D03*
X41667Y-39938D03*
X41667Y-40096D03*
X41667Y-40253D03*
X41667Y-40411D03*
G54D21*
X42158Y-42163D03*
X42316Y-42163D03*
X42473Y-42163D03*
X42631Y-42163D03*
X42788Y-42163D03*
X42946Y-42163D03*
X43103Y-42163D03*
X43261Y-42163D03*
X43418Y-42163D03*
X43576Y-42163D03*
X43733Y-42163D03*
X43891Y-42163D03*
G54D22*
X45013Y-41671D03*
X45013Y-41513D03*
X45013Y-41356D03*
X45013Y-41198D03*
X45013Y-41041D03*
X45013Y-40883D03*
X45013Y-40726D03*
X45013Y-40568D03*
X45013Y-40411D03*
X45013Y-40253D03*
X45013Y-40096D03*
X45013Y-39938D03*
X41667Y-40568D03*
X41667Y-40726D03*
X41667Y-40883D03*
X41667Y-41041D03*
X41667Y-41198D03*
X41667Y-41356D03*
X41667Y-41513D03*
X41667Y-41671D03*
G54D21*
X44048Y-42163D03*
X44206Y-42163D03*
X44363Y-42163D03*
X44521Y-42163D03*
G54D22*
X45013Y-39781D03*
X45013Y-39623D03*
X45013Y-39466D03*
X45013Y-39308D03*
G54D23*
X42296Y-34829D03*
G54D24*
X42591Y-35124D03*
G54D23*
X44264Y-34829D03*
X44264Y-34632D03*
X44264Y-34435D03*
X44264Y-34238D03*
X44264Y-33845D03*
X44264Y-33648D03*
G54D24*
X43182Y-33156D03*
G54D23*
X44264Y-33451D03*
G54D24*
X43969Y-33156D03*
X43772Y-33156D03*
X43575Y-33156D03*
X43378Y-33156D03*
X42985Y-33156D03*
X42788Y-33156D03*
X42591Y-33156D03*
G54D23*
X42296Y-33451D03*
X42296Y-33648D03*
X42296Y-33845D03*
X42296Y-34042D03*
X42296Y-34238D03*
X42296Y-34435D03*
X42296Y-34632D03*
G54D25*
X43280Y-34140D03*
G54D23*
X44264Y-34042D03*
G54D24*
X43969Y-35124D03*
X43772Y-35124D03*
X43575Y-35124D03*
X43378Y-35124D03*
X43182Y-35124D03*
X42985Y-35124D03*
X42788Y-35124D03*
G54D26*
X42170Y-29060D03*
X42170Y-29660D03*
X48170Y-29060D03*
X48170Y-29660D03*
X51570Y-27380D03*
X51570Y-27980D03*
X52170Y-27980D03*
X52170Y-27380D03*
X52170Y-26980D03*
X52170Y-26380D03*
X52770Y-26980D03*
X52770Y-26380D03*
X53370Y-27380D03*
X53370Y-27980D03*
X53970Y-27980D03*
X53970Y-27380D03*
X53970Y-26980D03*
X53970Y-26380D03*
X54590Y-26980D03*
X54590Y-26380D03*
X55190Y-27380D03*
X55190Y-27980D03*
X55790Y-27980D03*
X55790Y-27380D03*
X55790Y-26980D03*
X55790Y-26380D03*
X56390Y-26980D03*
X56390Y-26380D03*
X48170Y-27200D03*
X48170Y-27800D03*
X42170Y-27800D03*
X42170Y-27200D03*
X42170Y-26800D03*
X42170Y-26200D03*
X48170Y-26200D03*
X48170Y-26800D03*
X45530Y-33710D03*
X45530Y-33110D03*
G54D27*
X44430Y-32690D03*
X45030Y-32690D03*
X46760Y-32340D03*
X46160Y-32340D03*
X40850Y-34030D03*
X40250Y-34030D03*
G54D26*
X46130Y-33110D03*
X46130Y-33710D03*
G54D27*
X44220Y-32010D03*
X44820Y-32010D03*
G54D26*
X45660Y-32340D03*
X45660Y-31740D03*
G54D28*
X40767Y-32110D03*
X40767Y-33110D03*
X41692Y-33110D03*
X41692Y-32110D03*
G54D29*
X49126Y-31608D03*
X49126Y-32108D03*
X49126Y-32608D03*
X49126Y-33108D03*
X49126Y-33608D03*
X49126Y-35608D03*
X49126Y-36108D03*
X49126Y-36608D03*
X49126Y-37108D03*
X49126Y-37608D03*
X53693Y-37608D03*
X53693Y-37108D03*
X53693Y-36608D03*
X53693Y-36108D03*
X53693Y-35608D03*
X53693Y-33608D03*
X53693Y-33108D03*
X53693Y-32608D03*
X53693Y-32108D03*
X53693Y-31608D03*
X53693Y-31108D03*
X53693Y-30608D03*
X53693Y-30108D03*
X53693Y-35108D03*
X53693Y-34608D03*
X53693Y-34108D03*
X49126Y-35108D03*
X49126Y-34608D03*
X49126Y-34108D03*
X49126Y-31108D03*
X49126Y-30608D03*
X49126Y-30108D03*
G54D27*
X53460Y-47160D03*
X52860Y-47160D03*
X54800Y-47160D03*
X55400Y-47160D03*
X53330Y-41890D03*
X52730Y-41890D03*
X60785Y-43205D03*
X61385Y-43205D03*
X61815Y-43205D03*
X62415Y-43205D03*
X54680Y-41890D03*
X54080Y-41890D03*
G54D30*
X60840Y-43935D03*
X61215Y-43935D03*
X61590Y-43935D03*
X61590Y-44935D03*
X61215Y-44935D03*
X60840Y-44935D03*
G54D31*
X61923Y-46055D03*
X60506Y-46055D03*
G54D32*
X42560Y-44480D03*
X42560Y-46580D03*
X43060Y-44480D03*
X43560Y-44480D03*
X44060Y-44480D03*
X43060Y-46580D03*
X43560Y-46580D03*
X44060Y-46580D03*
G54D27*
X64360Y-37780D03*
X63760Y-37780D03*
G54D33*
X62585Y-44810D03*
X62585Y-44060D03*
G54D34*
X58865Y-41790D03*
X58115Y-41790D03*
G54D27*
X56030Y-41890D03*
X55430Y-41890D03*
X40530Y-42360D03*
X39930Y-42360D03*
X39930Y-41760D03*
X40530Y-41760D03*
G54D35*
X40700Y-45272D03*
X40700Y-43147D03*
G54D36*
X44744Y-46699D03*
X45000Y-46699D03*
X45256Y-46699D03*
X45512Y-46699D03*
X45767Y-46699D03*
X46023Y-46699D03*
X46279Y-46699D03*
X46535Y-46699D03*
X46535Y-44361D03*
X46279Y-44361D03*
X46023Y-44361D03*
X45767Y-44361D03*
X45512Y-44361D03*
X45256Y-44361D03*
X45000Y-44361D03*
X44744Y-44361D03*
G54D37*
X45860Y-35020D03*
X45860Y-36320D03*
G54D27*
X40530Y-40440D03*
X39930Y-40440D03*
X39930Y-41040D03*
X40530Y-41040D03*
G54D35*
X40280Y-37377D03*
X40280Y-39502D03*
G54D38*
X76115Y-21660D03*
X71784Y-21660D03*
X76115Y-24081D03*
X71784Y-24081D03*
G54D33*
X68340Y-46015D03*
X68340Y-46765D03*
G54D26*
X67850Y-44310D03*
X67850Y-44910D03*
G54D33*
X63300Y-46015D03*
X63300Y-46765D03*
G54D26*
X63790Y-44310D03*
X63790Y-44910D03*
X67270Y-44310D03*
X67270Y-44910D03*
X66690Y-44310D03*
X66690Y-44910D03*
X66110Y-44310D03*
X66110Y-44910D03*
X65530Y-44310D03*
X65530Y-44910D03*
X64950Y-44310D03*
X64950Y-44910D03*
X64370Y-44310D03*
X64370Y-44910D03*
G54D33*
X67620Y-46015D03*
X67620Y-46765D03*
X66900Y-46015D03*
X66900Y-46765D03*
X66180Y-46015D03*
X66180Y-46765D03*
X65460Y-46015D03*
X65460Y-46765D03*
X64740Y-46015D03*
X64740Y-46765D03*
X64020Y-46015D03*
X64020Y-46765D03*
G54D26*
X57540Y-39600D03*
X57540Y-39000D03*
G54D39*
X76920Y-22600D03*
X78220Y-22600D03*
X76920Y-24070D03*
X78220Y-24070D03*
G54D26*
X75720Y-27970D03*
X75720Y-27370D03*
G54D40*
X77330Y-25801D03*
X77330Y-27218D03*
G54D26*
X75100Y-27970D03*
X75100Y-27370D03*
X74480Y-27370D03*
X74480Y-27970D03*
G54D41*
X75220Y-26795D03*
X75220Y-26045D03*
X76220Y-26045D03*
X76220Y-26420D03*
X76220Y-26795D03*
G54D42*
X77328Y-28340D03*
X78352Y-28340D03*
G54D43*
X47060Y-41360D03*
X46060Y-41360D03*
G54D44*
X47100Y-38597D03*
X46100Y-38597D03*
X46100Y-39463D03*
X47100Y-39463D03*
G54D26*
X41690Y-31330D03*
X41690Y-30730D03*
X47910Y-39030D03*
X47910Y-38430D03*
X42400Y-35900D03*
X42400Y-36500D03*
G54D39*
X47940Y-41160D03*
X49240Y-41160D03*
G54D27*
X48670Y-28430D03*
X48070Y-28430D03*
G54D26*
X41180Y-27300D03*
X41180Y-26700D03*
G54D45*
X40740Y-29990D03*
X40040Y-29990D03*
X40390Y-29190D03*
G54D26*
X40140Y-31270D03*
X40140Y-30670D03*
X41820Y-44810D03*
X41820Y-44210D03*
G54D43*
X41820Y-45570D03*
G54D46*
X46920Y-34480D03*
G54D47*
X46920Y-35480D03*
X46920Y-36480D03*
X46920Y-37480D03*
G54D41*
X64610Y-30335D03*
X64610Y-29585D03*
X65610Y-29585D03*
X65610Y-29960D03*
X65610Y-30335D03*
G54D26*
X64010Y-30340D03*
X64010Y-29740D03*
G54D48*
X73937Y-36850D03*
X75669Y-36850D03*
X73937Y-36535D03*
X75669Y-36535D03*
X73937Y-36220D03*
X75669Y-36220D03*
X73937Y-35905D03*
X75669Y-35905D03*
X73937Y-35590D03*
X75669Y-35590D03*
X73937Y-35275D03*
X75669Y-35275D03*
X73937Y-34960D03*
X75669Y-34960D03*
X73937Y-34645D03*
X75669Y-34645D03*
X73937Y-34330D03*
X75669Y-34330D03*
X73937Y-34015D03*
X75669Y-34015D03*
X73937Y-33700D03*
X75669Y-33700D03*
X73937Y-33385D03*
X75669Y-33385D03*
X73937Y-33070D03*
X75669Y-33070D03*
X73937Y-32755D03*
X75669Y-32755D03*
X73937Y-32440D03*
X75669Y-32440D03*
X73937Y-32125D03*
X75669Y-32125D03*
X73937Y-31811D03*
X75669Y-31811D03*
X73937Y-31496D03*
X75669Y-31496D03*
X73937Y-31181D03*
X75669Y-31181D03*
X73937Y-30866D03*
X75669Y-30866D03*
G54D31*
X71611Y-26370D03*
X73028Y-26370D03*
G54D30*
X72365Y-28490D03*
X71615Y-28490D03*
X71615Y-27490D03*
X71990Y-27490D03*
X72365Y-27490D03*
G54D27*
X72930Y-27520D03*
X73530Y-27520D03*
G54D49*
X73830Y-25858D03*
X73830Y-26882D03*
G54D27*
X73530Y-28190D03*
X72930Y-28190D03*
X72930Y-28790D03*
X73530Y-28790D03*
G54D12*
X63385Y-39763D03*
X63385Y-27952D03*
G54D43*
X65140Y-27560D03*
G54D26*
X54560Y-37710D03*
X54560Y-38310D03*
G54D27*
X48600Y-37610D03*
X48000Y-37610D03*
G54D26*
X57590Y-28620D03*
X57590Y-28020D03*
X59740Y-28990D03*
X59740Y-28390D03*
X62110Y-29100D03*
X62110Y-28500D03*
X58550Y-38970D03*
X58550Y-39570D03*
G54D50*
X58227Y-27630D03*
X58227Y-28630D03*
X59093Y-28630D03*
X59093Y-27630D03*
G54D39*
X65140Y-28440D03*
X66440Y-28440D03*
G54D26*
X61050Y-26890D03*
X61050Y-26290D03*
X50660Y-27480D03*
X50660Y-26880D03*
G54D27*
X70290Y-42100D03*
X70890Y-42100D03*
X73720Y-42100D03*
X74320Y-42100D03*
X76650Y-42100D03*
X77250Y-42100D03*
G54D26*
X71450Y-45530D03*
X71450Y-46130D03*
G54D27*
X69290Y-42100D03*
X69890Y-42100D03*
X72720Y-42100D03*
X73320Y-42100D03*
X77670Y-41450D03*
X77070Y-41450D03*
G54D26*
X70850Y-46130D03*
X70850Y-45530D03*
G54D51*
X71370Y-44606D03*
X68810Y-44606D03*
X71370Y-42834D03*
X68810Y-42834D03*
X74800Y-44606D03*
X72240Y-44606D03*
X74800Y-42834D03*
X72240Y-42834D03*
X78230Y-44606D03*
X75670Y-44606D03*
X78230Y-42834D03*
X75670Y-42834D03*
X74800Y-47306D03*
X72240Y-47306D03*
X74800Y-45534D03*
X72240Y-45534D03*
G54D52*
X62770Y-34150D03*
X62770Y-31990D03*
X72810Y-43150D03*
X72380Y-42100D03*
X60530Y-26660D03*
X59560Y-27630D03*
X67440Y-29090D03*
X67440Y-27170D03*
X57630Y-34870D03*
X55590Y-35840D03*
X55590Y-35270D03*
X57630Y-35750D03*
X57100Y-35840D03*
X58350Y-36820D03*
X57580Y-36820D03*
X45500Y-37010D03*
X45860Y-35670D03*
X45520Y-40000D03*
X45520Y-38600D03*
X44450Y-45010D03*
X44420Y-46590D03*
X47290Y-28430D03*
X47290Y-30810D03*
X54800Y-44740D03*
X48620Y-44070D03*
X48620Y-41800D03*
X46560Y-40000D03*
X46560Y-41090D03*
X46760Y-31340D03*
X43010Y-30800D03*
X42400Y-35560D03*
X45190Y-34240D03*
X54800Y-45260D03*
X76115Y-24081D03*
X76115Y-21660D03*
X62580Y-38760D03*
X61170Y-38880D03*
X45700Y-37750D03*
X45140Y-38600D03*
X45700Y-37380D03*
X45140Y-38240D03*
X45855Y-34150D03*
X47320Y-33950D03*
X47880Y-24810D03*
X75060Y-36220D03*
X73180Y-36040D03*
X72940Y-35790D03*
X74800Y-35910D03*
X75060Y-35280D03*
X73180Y-35090D03*
X72940Y-34840D03*
X74800Y-34960D03*
X75060Y-34330D03*
X73180Y-34140D03*
X72940Y-33890D03*
X74800Y-34020D03*
X73180Y-33210D03*
X75060Y-33390D03*
X74870Y-33060D03*
X72930Y-32960D03*
X75060Y-32440D03*
X73180Y-32270D03*
X74870Y-32120D03*
X72930Y-32010D03*
X75060Y-31500D03*
X73180Y-31320D03*
X74870Y-31180D03*
X72930Y-31070D03*
X77250Y-42540D03*
X71890Y-46130D03*
X74680Y-42100D03*
X68830Y-46770D03*
X71230Y-42100D03*
X74800Y-31760D03*
X74800Y-32700D03*
X74800Y-36530D03*
X74800Y-33650D03*
X74800Y-34590D03*
X74800Y-35540D03*
X44500Y-40070D03*
X76300Y-31810D03*
X76300Y-32760D03*
X76300Y-33700D03*
X76300Y-34650D03*
X76300Y-35590D03*
X64700Y-37780D03*
X76300Y-36850D03*
X61050Y-25950D03*
X71420Y-27990D03*
X67020Y-28440D03*
X58227Y-28630D03*
X62110Y-28160D03*
X57590Y-27620D03*
X59740Y-28050D03*
X57710Y-41790D03*
X58990Y-39570D03*
X51570Y-28320D03*
X47600Y-37700D03*
X54160Y-30110D03*
X54120Y-38310D03*
X55330Y-31200D03*
X54750Y-27980D03*
X53370Y-28320D03*
X55330Y-32870D03*
X56400Y-30140D03*
X62770Y-31400D03*
X39600Y-31200D03*
X39600Y-32200D03*
X39600Y-33200D03*
X39600Y-32700D03*
X39600Y-31700D03*
X39600Y-36200D03*
X39600Y-35700D03*
X39600Y-34700D03*
X39600Y-34200D03*
X39600Y-35200D03*
X39600Y-33700D03*
X65110Y-29960D03*
X63580Y-29740D03*
X73870Y-28790D03*
X72560Y-27990D03*
X73880Y-27520D03*
X71990Y-27990D03*
X71784Y-21660D03*
X73830Y-26370D03*
X78350Y-27660D03*
X78220Y-23340D03*
X78220Y-21960D03*
X75720Y-25850D03*
X75720Y-26420D03*
X57970Y-30140D03*
X47600Y-37200D03*
X45860Y-37010D03*
X47600Y-36700D03*
X47600Y-35700D03*
X47600Y-34700D03*
X47600Y-33700D03*
X47600Y-34200D03*
X47600Y-35200D03*
X47600Y-36200D03*
X42250Y-44210D03*
X48150Y-31200D03*
X48150Y-30700D03*
X40740Y-30390D03*
X39600Y-22700D03*
X39600Y-23700D03*
X39600Y-24700D03*
X39600Y-25700D03*
X39600Y-26700D03*
X39600Y-27700D03*
X39600Y-28700D03*
X39600Y-29700D03*
X39600Y-30200D03*
X39600Y-29200D03*
X39600Y-28200D03*
X39600Y-27200D03*
X39600Y-26200D03*
X39600Y-25200D03*
X39600Y-24200D03*
X39600Y-23200D03*
X39600Y-22200D03*
X39600Y-39700D03*
X39600Y-39200D03*
X39600Y-38200D03*
X39600Y-37200D03*
X39600Y-37700D03*
X39600Y-38700D03*
X39600Y-40200D03*
X39600Y-40700D03*
X62780Y-46770D03*
X55540Y-39550D03*
X49240Y-41800D03*
X51940Y-40760D03*
X49940Y-42760D03*
X43182Y-39262D03*
X47910Y-38100D03*
X47600Y-33200D03*
X47600Y-32200D03*
X47600Y-32700D03*
X40530Y-44620D03*
X47600Y-31700D03*
X41690Y-30390D03*
X42400Y-36840D03*
X39600Y-36700D03*
X40280Y-36700D03*
X39600Y-30700D03*
X40250Y-33110D03*
X40250Y-33590D03*
X46100Y-38140D03*
X46600Y-38200D03*
X75720Y-27020D03*
X74480Y-28310D03*
X61215Y-45355D03*
X62585Y-43655D03*
X62755Y-43205D03*
X39930Y-42830D03*
X44060Y-47050D03*
X46540Y-47270D03*
X55080Y-41890D03*
X53730Y-41890D03*
X52380Y-41890D03*
X55330Y-37110D03*
X59940Y-37580D03*
X61910Y-37580D03*
X62780Y-34740D03*
X42690Y-27000D03*
X47650Y-27000D03*
X42170Y-30000D03*
X48170Y-30000D03*
X43280Y-34140D03*
X45530Y-32690D03*
X46100Y-31740D03*
X45210Y-32010D03*
X46280Y-43800D03*
X46280Y-42460D03*
X47980Y-42740D03*
X47980Y-43800D03*
X45640Y-46090D03*
X43580Y-42740D03*
X47010Y-42740D03*
X47010Y-43800D03*
X44740Y-45960D03*
X44380Y-43800D03*
X45510Y-43800D03*
X45510Y-42740D03*
X41110Y-44030D03*
X41280Y-43390D03*
X40680Y-36720D03*
X41080Y-37120D03*
X44790Y-37750D03*
X42740Y-40810D03*
X43040Y-38030D03*
X42240Y-39310D03*
X43290Y-37750D03*
X42490Y-39560D03*
X43790Y-37750D03*
X42990Y-39810D03*
X42490Y-40060D03*
X44040Y-38030D03*
X42740Y-40310D03*
X44290Y-37750D03*
X44540Y-38030D03*
X42490Y-40560D03*
X41220Y-40410D03*
X43540Y-38030D03*
X44450Y-44580D03*
X42810Y-45010D03*
X41180Y-26340D03*
X43940Y-41590D03*
X43350Y-41590D03*
X53330Y-42950D03*
X54800Y-43210D03*
X46280Y-46090D03*
X54970Y-42700D03*
X47550Y-45770D03*
X45770Y-45010D03*
X46540Y-45010D03*
X53460Y-45770D03*
X54800Y-46280D03*
X53200Y-45510D03*
X55060Y-46020D03*
X61870Y-39640D03*
X58490Y-41370D03*
X60190Y-37330D03*
X57080Y-37330D03*
X58490Y-40860D03*
X61850Y-38700D03*
X61565Y-37580D03*
X61170Y-39640D03*
X58240Y-40600D03*
X61170Y-39290D03*
X56690Y-37330D03*
X59940Y-37080D03*
X61870Y-39290D03*
X58240Y-41120D03*
X56000Y-29150D03*
X51910Y-32870D03*
X51910Y-33390D03*
X55800Y-30140D03*
X54250Y-33110D03*
X56790Y-30400D03*
X51650Y-33650D03*
X56100Y-30400D03*
X51650Y-32610D03*
X55610Y-29150D03*
X56590Y-29150D03*
X51650Y-33130D03*
X44090Y-45540D03*
X43560Y-45010D03*
X56660Y-28020D03*
X52770Y-27680D03*
G54D53*
X63720Y-29190D02*
X64490Y-29190D01*
X62760Y-30150D02*
X63720Y-29190D01*
X62450Y-30460D02*
X62760Y-30150D01*
X65140Y-28540D02*
X65140Y-28440D01*
X64490Y-29190D02*
X65140Y-28540D01*
X65140Y-28440D02*
X65140Y-27560D01*
X68860Y-27530D02*
X66280Y-27530D01*
X73470Y-25120D02*
X71270Y-25120D01*
X73830Y-25480D02*
X73470Y-25120D01*
X73830Y-25480D02*
X73830Y-25858D01*
X68860Y-27530D02*
X71270Y-25120D01*
X66280Y-27530D02*
X65820Y-27990D01*
X65820Y-27990D02*
X65820Y-28210D01*
X65820Y-28210D02*
X65590Y-28440D01*
X65590Y-28440D02*
X65140Y-28440D01*
G54D54*
X58366Y-38080D02*
X58366Y-38566D01*
X58550Y-38750D02*
X58550Y-38970D01*
X58366Y-38566D02*
X58550Y-38750D01*
X62106Y-29636D02*
X62106Y-29303D01*
X62110Y-29300D02*
X62110Y-29100D01*
X62106Y-29303D02*
X62110Y-29300D01*
X54440Y-37350D02*
X54440Y-37590D01*
X54486Y-37303D02*
X54440Y-37350D01*
X54833Y-37303D02*
X54486Y-37303D01*
X54440Y-37590D02*
X54560Y-37710D01*
G54D53*
X57378Y-35531D02*
X62450Y-30460D01*
G54D54*
X62110Y-30030D02*
X62110Y-29640D01*
G54D53*
X62110Y-30030D02*
X62110Y-30120D01*
X62450Y-30460D02*
X62110Y-30120D01*
G54D54*
X62110Y-29640D02*
X62106Y-29636D01*
G54D53*
X62450Y-30460D02*
X62450Y-33150D01*
G54D54*
X62920Y-33560D02*
X62923Y-33563D01*
X62860Y-33560D02*
X62920Y-33560D01*
X62923Y-33563D02*
X63277Y-33563D01*
X62760Y-33460D02*
X62860Y-33560D01*
G54D53*
X62450Y-33150D02*
X62760Y-33460D01*
G54D54*
X58366Y-38080D02*
X58366Y-37218D01*
X58366Y-37218D02*
X57378Y-36231D01*
X54833Y-37303D02*
X55173Y-37303D01*
X57378Y-36231D02*
X57378Y-35531D01*
X56250Y-37360D02*
X57378Y-36231D01*
X55230Y-37360D02*
X56250Y-37360D01*
X55173Y-37303D02*
X55230Y-37360D01*
X54833Y-35531D02*
X57378Y-35531D01*
G54D55*
X72930Y-27520D02*
X73140Y-27520D01*
X73320Y-28190D02*
X73230Y-28100D01*
X73320Y-28190D02*
X73530Y-28190D01*
X73230Y-27610D02*
X73230Y-28100D01*
X73140Y-27520D02*
X73230Y-27610D01*
G54D53*
X72930Y-27520D02*
X72930Y-26468D01*
X72930Y-26468D02*
X73028Y-26370D01*
X73830Y-25858D02*
X73322Y-25858D01*
X73028Y-26151D02*
X73028Y-26370D01*
X73322Y-25858D02*
X73028Y-26151D01*
G54D54*
X64010Y-30340D02*
X64605Y-30340D01*
X64605Y-30340D02*
X64610Y-30335D01*
X63277Y-30413D02*
X63626Y-30413D01*
X63700Y-30340D02*
X64010Y-30340D01*
X63626Y-30413D02*
X63700Y-30340D01*
G54D55*
X62770Y-34150D02*
X61790Y-34150D01*
X61110Y-34830D02*
X61110Y-36010D01*
X61790Y-34150D02*
X61110Y-34830D01*
G54D54*
X62770Y-34150D02*
X62930Y-34150D01*
X63277Y-31988D02*
X62911Y-31988D01*
X62910Y-31990D02*
X62770Y-31990D01*
X62911Y-31988D02*
X62910Y-31990D01*
X62933Y-34153D02*
X63277Y-34153D01*
X62930Y-34150D02*
X62933Y-34153D01*
X70850Y-46130D02*
X70850Y-46430D01*
X70850Y-46430D02*
X71190Y-46770D01*
G54D53*
X69530Y-46770D02*
X71190Y-46770D01*
X71190Y-46770D02*
X71930Y-46770D01*
X71930Y-46770D02*
X72290Y-46410D01*
G54D54*
X72810Y-43720D02*
X76550Y-43720D01*
X76550Y-43720D02*
X76930Y-43340D01*
G54D53*
X76930Y-45320D02*
X76930Y-43340D01*
X76930Y-45320D02*
X75840Y-46410D01*
X75840Y-46410D02*
X72290Y-46410D01*
X62810Y-47430D02*
X63120Y-47740D01*
X68560Y-47740D02*
X63120Y-47740D01*
X69530Y-46770D02*
X68560Y-47740D01*
X78170Y-42100D02*
X78170Y-41270D01*
X76930Y-43340D02*
X78170Y-42100D01*
G54D54*
X77670Y-41450D02*
X77990Y-41450D01*
X77990Y-41450D02*
X78170Y-41270D01*
G54D53*
X64660Y-38840D02*
X75860Y-38840D01*
X76930Y-37770D02*
X76930Y-30450D01*
X75860Y-38840D02*
X76930Y-37770D01*
X64040Y-38220D02*
X63320Y-38220D01*
X64660Y-38840D02*
X64040Y-38220D01*
X63320Y-38220D02*
X61110Y-36010D01*
X59060Y-36010D02*
X61110Y-36010D01*
X78170Y-41270D02*
X78170Y-30334D01*
X78170Y-30334D02*
X77328Y-29492D01*
G54D54*
X72810Y-43720D02*
X72810Y-43150D01*
X72380Y-42100D02*
X72720Y-42100D01*
X69290Y-42100D02*
X68700Y-42100D01*
X70010Y-43720D02*
X72810Y-43720D01*
X69780Y-43490D02*
X70010Y-43720D01*
X68660Y-43490D02*
X69780Y-43490D01*
X68330Y-43160D02*
X68660Y-43490D01*
X68330Y-42470D02*
X68330Y-43160D01*
X68700Y-42100D02*
X68330Y-42470D01*
X73937Y-31181D02*
X74518Y-31181D01*
X74518Y-31181D02*
X74833Y-30866D01*
X62500Y-38080D02*
X62500Y-37700D01*
X62500Y-37700D02*
X61500Y-36700D01*
G54D53*
X75669Y-30866D02*
X76513Y-30866D01*
X76513Y-30866D02*
X76930Y-30450D01*
X73937Y-30866D02*
X74833Y-30866D01*
X74833Y-30866D02*
X75669Y-30866D01*
X61050Y-26890D02*
X60760Y-26890D01*
X59560Y-27630D02*
X59093Y-27630D01*
X60760Y-26890D02*
X60530Y-26660D01*
X61050Y-26890D02*
X62270Y-26890D01*
X66930Y-26660D02*
X67440Y-27170D01*
X62500Y-26660D02*
X66930Y-26660D01*
X62270Y-26890D02*
X62500Y-26660D01*
G54D54*
X59744Y-29636D02*
X59744Y-29265D01*
X59740Y-29261D02*
X59740Y-28990D01*
X59744Y-29265D02*
X59740Y-29261D01*
X57775Y-29636D02*
X57775Y-29115D01*
X57590Y-28930D02*
X57590Y-28620D01*
X57775Y-29115D02*
X57590Y-28930D01*
G54D55*
X48600Y-37610D02*
X49124Y-37610D01*
X49124Y-37610D02*
X49126Y-37608D01*
G54D54*
X48600Y-37610D02*
X48600Y-37060D01*
X52440Y-36360D02*
X51940Y-36860D01*
X51940Y-36860D02*
X48800Y-36860D01*
X54367Y-36122D02*
X54833Y-36122D01*
X54367Y-36122D02*
X54130Y-36360D01*
X54130Y-36360D02*
X52440Y-36360D01*
X48600Y-37060D02*
X48800Y-36860D01*
X59460Y-33040D02*
X57630Y-34870D01*
X59460Y-33040D02*
X59460Y-30500D01*
X57775Y-29636D02*
X57775Y-29974D01*
X57775Y-29974D02*
X57710Y-30040D01*
X57710Y-30040D02*
X57710Y-30290D01*
X57710Y-30290D02*
X57920Y-30500D01*
X57920Y-30500D02*
X59460Y-30500D01*
X59744Y-30215D02*
X59744Y-29636D01*
X59460Y-30500D02*
X59744Y-30215D01*
X54833Y-36122D02*
X55307Y-36122D01*
X55307Y-36122D02*
X55590Y-35840D01*
X54833Y-31397D02*
X55177Y-31397D01*
X55590Y-31810D02*
X55590Y-35270D01*
X55177Y-31397D02*
X55590Y-31810D01*
X55590Y-35840D02*
X57100Y-35840D01*
X58800Y-35750D02*
X57630Y-35750D01*
X58800Y-35750D02*
X59060Y-36010D01*
X59060Y-36700D02*
X59060Y-36010D01*
X58350Y-36820D02*
X58620Y-36820D01*
X57382Y-37017D02*
X57580Y-36820D01*
X57382Y-38080D02*
X57382Y-37017D01*
X59294Y-36700D02*
X59547Y-36952D01*
X58740Y-36700D02*
X59060Y-36700D01*
X59060Y-36700D02*
X59294Y-36700D01*
X58620Y-36820D02*
X58740Y-36700D01*
X61500Y-36700D02*
X59800Y-36700D01*
X59547Y-38080D02*
X59547Y-36952D01*
X59547Y-36952D02*
X59800Y-36700D01*
X65610Y-30335D02*
X66195Y-30335D01*
X66475Y-30055D02*
X66475Y-29585D01*
X66195Y-30335D02*
X66475Y-30055D01*
G54D53*
X77328Y-28340D02*
X77328Y-27220D01*
X77328Y-27220D02*
X77330Y-27218D01*
G54D55*
X77330Y-27218D02*
X76911Y-27218D01*
X76911Y-27218D02*
X76160Y-27970D01*
X76160Y-27970D02*
X75720Y-27970D01*
G54D53*
X77330Y-28338D02*
X77328Y-28340D01*
X75580Y-29320D02*
X76560Y-28340D01*
X72240Y-29090D02*
X72470Y-29320D01*
X72470Y-29320D02*
X75580Y-29320D01*
X77328Y-28340D02*
X76560Y-28340D01*
X72240Y-29090D02*
X71880Y-29090D01*
G54D54*
X72365Y-27490D02*
X72365Y-25825D01*
X71170Y-28490D02*
X71615Y-28490D01*
X70980Y-28300D02*
X71170Y-28490D01*
X70980Y-25780D02*
X70980Y-28300D01*
X71300Y-25460D02*
X70980Y-25780D01*
X72000Y-25460D02*
X71300Y-25460D01*
X72365Y-25825D02*
X72000Y-25460D01*
G54D53*
X71615Y-28490D02*
X71615Y-28825D01*
X71615Y-28825D02*
X71880Y-29090D01*
X66475Y-29585D02*
X65610Y-29585D01*
X71880Y-29090D02*
X67440Y-29090D01*
X67440Y-29090D02*
X66970Y-29090D01*
X66970Y-29090D02*
X66475Y-29585D01*
X76930Y-30450D02*
X76930Y-29890D01*
X76930Y-29890D02*
X77328Y-29492D01*
X77328Y-29492D02*
X77328Y-28340D01*
G54D55*
X45420Y-38230D02*
X45420Y-37280D01*
X45520Y-38330D02*
X45420Y-38230D01*
X45860Y-35670D02*
X45860Y-35020D01*
X45500Y-37200D02*
X45500Y-37010D01*
X45420Y-37280D02*
X45500Y-37200D01*
X45520Y-38600D02*
X45520Y-38330D01*
X45520Y-40000D02*
X46560Y-40000D01*
X46920Y-37480D02*
X46370Y-37480D01*
X45520Y-38330D02*
X46370Y-37480D01*
X41480Y-43770D02*
X41390Y-43860D01*
X41390Y-43860D02*
X41390Y-45770D01*
X41480Y-43770D02*
X41800Y-43770D01*
X41800Y-43770D02*
X42025Y-43545D01*
X44420Y-46590D02*
X44420Y-47120D01*
X44420Y-47120D02*
X44050Y-47490D01*
X44050Y-47490D02*
X42570Y-47490D01*
X42570Y-47490D02*
X42130Y-47050D01*
X42130Y-47050D02*
X42130Y-46510D01*
X42130Y-46510D02*
X41390Y-45770D01*
X44744Y-44830D02*
X44744Y-44925D01*
X44744Y-44925D02*
X44660Y-45010D01*
X44660Y-45010D02*
X44450Y-45010D01*
G54D54*
X44744Y-44361D02*
X44744Y-44830D01*
G54D55*
X48070Y-28430D02*
X47290Y-28430D01*
X47290Y-30810D02*
X46760Y-31340D01*
X41180Y-27300D02*
X41180Y-30830D01*
X42410Y-30800D02*
X43010Y-30800D01*
X42180Y-31030D02*
X42410Y-30800D01*
X41380Y-31030D02*
X42180Y-31030D01*
X41180Y-30830D02*
X41380Y-31030D01*
X39930Y-41760D02*
X39930Y-41040D01*
G54D54*
X54800Y-44740D02*
X54480Y-44740D01*
X54320Y-45400D02*
X54560Y-45640D01*
X54320Y-44900D02*
X54320Y-45400D01*
X54480Y-44740D02*
X54320Y-44900D01*
G54D53*
X62585Y-44810D02*
X62585Y-46485D01*
X62585Y-46485D02*
X62470Y-46600D01*
X62470Y-46600D02*
X62470Y-47090D01*
X62470Y-47090D02*
X62810Y-47430D01*
X46590Y-41800D02*
X47400Y-41800D01*
X46590Y-41800D02*
X46230Y-42160D01*
X46230Y-42160D02*
X45010Y-42160D01*
X44090Y-41240D02*
X45010Y-42160D01*
X47940Y-41260D02*
X47940Y-41160D01*
X47400Y-41800D02*
X47940Y-41260D01*
X48620Y-41800D02*
X48620Y-41400D01*
X48380Y-41160D02*
X47940Y-41160D01*
X48620Y-41400D02*
X48380Y-41160D01*
X62810Y-47430D02*
X57430Y-47430D01*
X55640Y-45640D02*
X54560Y-45640D01*
X57430Y-47430D02*
X55640Y-45640D01*
X54560Y-45640D02*
X53960Y-45640D01*
X53960Y-45640D02*
X52390Y-44070D01*
X52390Y-44070D02*
X48620Y-44070D01*
X46730Y-40920D02*
X47700Y-40920D01*
X46730Y-40920D02*
X46560Y-41090D01*
G54D55*
X46560Y-39230D02*
X46560Y-40000D01*
G54D53*
X47700Y-40920D02*
X47940Y-41160D01*
G54D55*
X42025Y-43545D02*
X41650Y-43170D01*
X41650Y-43170D02*
X41650Y-42180D01*
X42590Y-41240D02*
X44090Y-41240D01*
X41650Y-42180D02*
X42590Y-41240D01*
X47100Y-39463D02*
X47727Y-39463D01*
X47910Y-39280D02*
X47910Y-39030D01*
X47727Y-39463D02*
X47910Y-39280D01*
X46760Y-39030D02*
X47910Y-39030D01*
X46560Y-39230D02*
X46760Y-39030D01*
G54D54*
X44090Y-41240D02*
X44090Y-40120D01*
X44670Y-39781D02*
X44428Y-39781D01*
G54D56*
X45013Y-39781D02*
X44670Y-39781D01*
G54D54*
X44090Y-40120D02*
X44428Y-39781D01*
X39930Y-41760D02*
X40130Y-41760D01*
X40410Y-43770D02*
X41480Y-43770D01*
X40230Y-43590D02*
X40410Y-43770D01*
X40230Y-41860D02*
X40230Y-43590D01*
X40130Y-41760D02*
X40230Y-41860D01*
X42560Y-44080D02*
X42560Y-44480D01*
X42025Y-43545D02*
X42560Y-44080D01*
G54D55*
X46760Y-32340D02*
X46760Y-31340D01*
X42480Y-31330D02*
X41690Y-31330D01*
X42480Y-31330D02*
X43010Y-30800D01*
X46635Y-33255D02*
X46635Y-33955D01*
X46160Y-34240D02*
X45855Y-34545D01*
X46350Y-34240D02*
X46160Y-34240D01*
X46635Y-33955D02*
X46350Y-34240D01*
X45855Y-34545D02*
X45550Y-34240D01*
X45550Y-34240D02*
X45190Y-34240D01*
X45860Y-34550D02*
X45855Y-34545D01*
X45860Y-35020D02*
X45860Y-34550D01*
X42400Y-35900D02*
X42400Y-35560D01*
G54D54*
X42591Y-35369D02*
X42400Y-35560D01*
X42591Y-35369D02*
X42591Y-35124D01*
G54D55*
X41692Y-32110D02*
X41692Y-31332D01*
X41692Y-31332D02*
X41690Y-31330D01*
G54D53*
X75720Y-27970D02*
X75100Y-27970D01*
G54D55*
X61590Y-44935D02*
X61590Y-44435D01*
X62585Y-44810D02*
X62585Y-44555D01*
X62465Y-44435D02*
X61590Y-44435D01*
X61590Y-44435D02*
X61015Y-44435D01*
X62585Y-44555D02*
X62465Y-44435D01*
G54D53*
X62585Y-44810D02*
X62200Y-44810D01*
X61923Y-45086D02*
X62200Y-44810D01*
X61923Y-45086D02*
X61923Y-46055D01*
G54D55*
X46760Y-32340D02*
X46760Y-33130D01*
X46760Y-33130D02*
X46635Y-33255D01*
X46130Y-33110D02*
X46490Y-33110D01*
X46490Y-33110D02*
X46635Y-33255D01*
X60840Y-44260D02*
X61015Y-44435D01*
X60840Y-44260D02*
X60840Y-43935D01*
X58865Y-41790D02*
X58865Y-42255D01*
X54800Y-45260D02*
X55860Y-45260D01*
X58865Y-42255D02*
X55860Y-45260D01*
G54D53*
X58865Y-41790D02*
X60270Y-41790D01*
X60270Y-41790D02*
X60785Y-42305D01*
X60785Y-42305D02*
X60785Y-43205D01*
G54D54*
X61215Y-43935D02*
X61215Y-43665D01*
X60785Y-43235D02*
X60785Y-43205D01*
X61215Y-43665D02*
X60785Y-43235D01*
G54D53*
X45660Y-32340D02*
X46160Y-32340D01*
G54D54*
X44610Y-32350D02*
X45650Y-32350D01*
X44520Y-32100D02*
X44520Y-32260D01*
X44430Y-32010D02*
X44520Y-32100D01*
X44220Y-32010D02*
X44430Y-32010D01*
X44520Y-32260D02*
X44610Y-32350D01*
X45650Y-32350D02*
X45660Y-32340D01*
X43575Y-33156D02*
X43575Y-32825D01*
X44000Y-32010D02*
X44220Y-32010D01*
X43770Y-32240D02*
X44000Y-32010D01*
X43770Y-32630D02*
X43770Y-32240D01*
X43575Y-32825D02*
X43770Y-32630D01*
G54D55*
X76115Y-24081D02*
X74878Y-24081D01*
X50310Y-27480D02*
X50660Y-27480D01*
X50190Y-27360D02*
X50310Y-27480D01*
X50190Y-25730D02*
X50190Y-27360D01*
X51510Y-24410D02*
X50190Y-25730D01*
X51510Y-23080D02*
X51510Y-24410D01*
X52140Y-22450D02*
X51510Y-23080D01*
X57330Y-22450D02*
X52140Y-22450D01*
X57990Y-23110D02*
X57330Y-22450D01*
X57990Y-24350D02*
X57990Y-23110D01*
X59310Y-25670D02*
X57990Y-24350D01*
X61200Y-25670D02*
X59310Y-25670D01*
X61970Y-26440D02*
X61200Y-25670D01*
X69640Y-26440D02*
X61970Y-26440D01*
X71180Y-24900D02*
X69640Y-26440D01*
X74060Y-24900D02*
X71180Y-24900D01*
X74878Y-24081D02*
X74060Y-24900D01*
G54D54*
X76220Y-26795D02*
X76515Y-26795D01*
X77270Y-25060D02*
X76920Y-24710D01*
X77870Y-25060D02*
X77270Y-25060D01*
X78230Y-25420D02*
X77870Y-25060D01*
X78230Y-26270D02*
X78230Y-25420D01*
X77990Y-26510D02*
X78230Y-26270D01*
X76800Y-26510D02*
X77990Y-26510D01*
X76515Y-26795D02*
X76800Y-26510D01*
G54D53*
X76920Y-24070D02*
X76920Y-24710D01*
X76080Y-25550D02*
X75420Y-25550D01*
X75420Y-25550D02*
X75220Y-25750D01*
X75220Y-25750D02*
X75220Y-26045D01*
X76920Y-24710D02*
X76080Y-25550D01*
X76115Y-24081D02*
X76908Y-24081D01*
X76908Y-24081D02*
X76920Y-24070D01*
X76115Y-24081D02*
X76115Y-22924D01*
X76115Y-22924D02*
X76440Y-22600D01*
X76920Y-22600D02*
X76440Y-22600D01*
X76115Y-22275D02*
X76115Y-21660D01*
X76440Y-22600D02*
X76115Y-22275D01*
G54D54*
X40530Y-42360D02*
X40530Y-42977D01*
X40530Y-42977D02*
X40700Y-43147D01*
X41667Y-41356D02*
X41163Y-41356D01*
X40760Y-41760D02*
X40530Y-41760D01*
X41163Y-41356D02*
X40760Y-41760D01*
X40530Y-42360D02*
X40530Y-41760D01*
X69890Y-42100D02*
X69890Y-41590D01*
X69890Y-41590D02*
X69400Y-41100D01*
X70290Y-42100D02*
X69890Y-42100D01*
X70290Y-42100D02*
X70290Y-42430D01*
X70290Y-42430D02*
X70090Y-42630D01*
X70090Y-42630D02*
X70090Y-42834D01*
G54D53*
X68810Y-42834D02*
X70090Y-42834D01*
X70090Y-42834D02*
X71370Y-42834D01*
G54D54*
X60531Y-38080D02*
X60531Y-39621D01*
X62010Y-41100D02*
X69400Y-41100D01*
X60531Y-39621D02*
X62010Y-41100D01*
X62080Y-40940D02*
X72990Y-40940D01*
X60728Y-39588D02*
X62080Y-40940D01*
X60728Y-38080D02*
X60728Y-39588D01*
X73320Y-41270D02*
X73320Y-42100D01*
X72990Y-40940D02*
X73320Y-41270D01*
X73720Y-42100D02*
X73320Y-42100D01*
X73720Y-42100D02*
X73720Y-42430D01*
X73520Y-42630D02*
X73520Y-42834D01*
X73720Y-42430D02*
X73520Y-42630D01*
G54D53*
X72240Y-42834D02*
X73520Y-42834D01*
X73520Y-42834D02*
X74800Y-42834D01*
G54D54*
X75670Y-42834D02*
X75670Y-42360D01*
X75930Y-42100D02*
X76650Y-42100D01*
X75670Y-42360D02*
X75930Y-42100D01*
X76650Y-42100D02*
X76650Y-41970D01*
X76650Y-41970D02*
X77070Y-41550D01*
X77070Y-41550D02*
X77070Y-41450D01*
X77070Y-41450D02*
X75230Y-41450D01*
X75230Y-41450D02*
X74560Y-40780D01*
X62580Y-38760D02*
X62790Y-38760D01*
X60925Y-38635D02*
X61170Y-38880D01*
X60925Y-38080D02*
X60925Y-38635D01*
X66050Y-40780D02*
X74560Y-40780D01*
X63870Y-38600D02*
X66050Y-40780D01*
X62950Y-38600D02*
X63870Y-38600D01*
X62790Y-38760D02*
X62950Y-38600D01*
X68590Y-43720D02*
X69500Y-43720D01*
X60335Y-38080D02*
X60335Y-39645D01*
X67770Y-41260D02*
X61950Y-41260D01*
X61950Y-41260D02*
X60335Y-39645D01*
X68590Y-43720D02*
X68170Y-43300D01*
X68170Y-43300D02*
X68170Y-41660D01*
X68170Y-41660D02*
X67770Y-41260D01*
X70850Y-45070D02*
X70850Y-45530D01*
X69500Y-43720D02*
X70850Y-45070D01*
X71450Y-45530D02*
X70850Y-45530D01*
X71450Y-45530D02*
X71780Y-45530D01*
X71784Y-45534D02*
X72240Y-45534D01*
X71780Y-45530D02*
X71784Y-45534D01*
G54D53*
X72240Y-45534D02*
X74800Y-45534D01*
G54D54*
X58563Y-29636D02*
X58563Y-29066D01*
X58227Y-27667D02*
X58227Y-27630D01*
X58600Y-28040D02*
X58227Y-27667D01*
X58600Y-29030D02*
X58600Y-28040D01*
X58563Y-29066D02*
X58600Y-29030D01*
X58760Y-29636D02*
X58760Y-28999D01*
X59093Y-28667D02*
X59093Y-28630D01*
X58760Y-28999D02*
X59093Y-28667D01*
X42296Y-33451D02*
X42033Y-33451D01*
X42033Y-33451D02*
X41692Y-33110D01*
X45895Y-37555D02*
X45700Y-37750D01*
X46920Y-36900D02*
X46810Y-37010D01*
X46810Y-37010D02*
X46440Y-37010D01*
X46920Y-36480D02*
X46920Y-36900D01*
X46440Y-37010D02*
X46340Y-37110D01*
X46035Y-37555D02*
X46340Y-37250D01*
X46340Y-37250D02*
X46340Y-37110D01*
X45895Y-37555D02*
X46035Y-37555D01*
X44840Y-38900D02*
X45140Y-38600D01*
G54D56*
X44048Y-39148D02*
X44048Y-38817D01*
G54D54*
X44510Y-39320D02*
X44840Y-38990D01*
X44160Y-39320D02*
X44510Y-39320D01*
X44050Y-39210D02*
X44160Y-39320D01*
X44050Y-39150D02*
X44050Y-39210D01*
X44048Y-39148D02*
X44050Y-39150D01*
X44840Y-38990D02*
X44840Y-38900D01*
X45950Y-37380D02*
X46150Y-37180D01*
X46150Y-37180D02*
X46150Y-37040D01*
X46150Y-37040D02*
X46450Y-36740D01*
X46450Y-36740D02*
X46450Y-35950D01*
X46920Y-35480D02*
X46450Y-35950D01*
X45700Y-37380D02*
X45950Y-37380D01*
X44206Y-38463D02*
X44240Y-38430D01*
X44240Y-38430D02*
X44950Y-38430D01*
X44950Y-38430D02*
X45140Y-38240D01*
G54D56*
X44206Y-38463D02*
X44206Y-38817D01*
G54D54*
X47320Y-31480D02*
X47570Y-31230D01*
X44785Y-33845D02*
X44920Y-33980D01*
X44920Y-33980D02*
X45685Y-33980D01*
X45685Y-33980D02*
X45855Y-34150D01*
X44264Y-33845D02*
X44785Y-33845D01*
X48120Y-24810D02*
X47880Y-24810D01*
X48970Y-25660D02*
X48120Y-24810D01*
X48970Y-29080D02*
X48970Y-25660D01*
X48690Y-29360D02*
X48970Y-29080D01*
X47770Y-29360D02*
X48690Y-29360D01*
X47570Y-29560D02*
X47770Y-29360D01*
X47570Y-29560D02*
X47570Y-31230D01*
X47320Y-33950D02*
X47320Y-31480D01*
X41667Y-41198D02*
X41021Y-41198D01*
X41021Y-41198D02*
X40820Y-41400D01*
X40820Y-41400D02*
X40310Y-41400D01*
X39970Y-31580D02*
X40300Y-31250D01*
X39970Y-36740D02*
X39970Y-31580D01*
X39860Y-36850D02*
X39970Y-36740D01*
X39860Y-39980D02*
X39860Y-36850D01*
X39940Y-40060D02*
X39860Y-39980D01*
X40130Y-40060D02*
X39940Y-40060D01*
X40230Y-40160D02*
X40130Y-40060D01*
X40230Y-41320D02*
X40230Y-40160D01*
X40310Y-41400D02*
X40230Y-41320D01*
X45530Y-33710D02*
X46130Y-33710D01*
X44264Y-33451D02*
X44731Y-33451D01*
X44990Y-33710D02*
X45320Y-33710D01*
X44731Y-33451D02*
X44990Y-33710D01*
X73350Y-36450D02*
X73000Y-36450D01*
X73350Y-36450D02*
X73435Y-36535D01*
X73937Y-36535D02*
X73435Y-36535D01*
X73000Y-36450D02*
X72146Y-37303D01*
X63277Y-37303D02*
X72146Y-37303D01*
X73350Y-36300D02*
X72920Y-36300D01*
X73350Y-36300D02*
X73429Y-36220D01*
X73937Y-36220D02*
X73429Y-36220D01*
X72113Y-37106D02*
X63277Y-37106D01*
X72920Y-36300D02*
X72113Y-37106D01*
X73180Y-36040D02*
X72730Y-36040D01*
X75669Y-36220D02*
X75668Y-36220D01*
X75060Y-36220D02*
X75668Y-36220D01*
X63730Y-36909D02*
X63277Y-36909D01*
X63900Y-36740D02*
X63730Y-36909D01*
X72030Y-36740D02*
X63900Y-36740D01*
X72730Y-36040D02*
X72030Y-36740D01*
X71970Y-36590D02*
X63840Y-36590D01*
X72770Y-35790D02*
X72940Y-35790D01*
X71970Y-36590D02*
X72770Y-35790D01*
X74800Y-35910D02*
X75080Y-35910D01*
X75669Y-35905D02*
X75084Y-35905D01*
X75080Y-35910D02*
X75084Y-35905D01*
X63717Y-36712D02*
X63277Y-36712D01*
X63840Y-36590D02*
X63717Y-36712D01*
X73350Y-35510D02*
X72490Y-35510D01*
X73937Y-35590D02*
X73430Y-35590D01*
X63650Y-36319D02*
X63277Y-36319D01*
X63650Y-36319D02*
X63670Y-36300D01*
X63670Y-36300D02*
X71700Y-36300D01*
X73350Y-35510D02*
X73430Y-35590D01*
X72490Y-35510D02*
X71700Y-36300D01*
X73937Y-35275D02*
X73434Y-35275D01*
X63652Y-36122D02*
X63680Y-36150D01*
X63652Y-36122D02*
X63277Y-36122D01*
X63680Y-36150D02*
X71640Y-36150D01*
X72430Y-35360D02*
X71640Y-36150D01*
X73350Y-35360D02*
X72430Y-35360D01*
X73434Y-35275D02*
X73350Y-35360D01*
X73180Y-35090D02*
X72080Y-35090D01*
X75200Y-35280D02*
X75204Y-35275D01*
X75669Y-35275D02*
X75204Y-35275D01*
X75060Y-35280D02*
X75200Y-35280D01*
X63694Y-35925D02*
X63277Y-35925D01*
X64100Y-35520D02*
X63694Y-35925D01*
X71650Y-35520D02*
X64100Y-35520D01*
X72080Y-35090D02*
X71650Y-35520D01*
X71595Y-35365D02*
X64045Y-35365D01*
X63681Y-35728D02*
X63277Y-35728D01*
X64045Y-35365D02*
X63681Y-35728D01*
X72800Y-34840D02*
X72940Y-34840D01*
X72700Y-34940D02*
X72800Y-34840D01*
X72020Y-34940D02*
X72700Y-34940D01*
X74800Y-34960D02*
X75070Y-34960D01*
X71595Y-35365D02*
X72020Y-34940D01*
X75070Y-34960D02*
X75070Y-34960D01*
X75070Y-34960D02*
X75669Y-34960D01*
X75070Y-34960D02*
X75070Y-34960D01*
X63277Y-34547D02*
X64067Y-34547D01*
X73435Y-34645D02*
X73937Y-34645D01*
X73350Y-34560D02*
X73435Y-34645D01*
X64080Y-34560D02*
X73350Y-34560D01*
X64067Y-34547D02*
X64080Y-34560D01*
X64250Y-34410D02*
X73360Y-34410D01*
X73360Y-34410D02*
X73439Y-34330D01*
X73439Y-34330D02*
X73937Y-34330D01*
X63277Y-34350D02*
X64190Y-34350D01*
X64190Y-34350D02*
X64250Y-34410D01*
X75060Y-34330D02*
X75668Y-34330D01*
X63277Y-33956D02*
X63866Y-33956D01*
X72720Y-34140D02*
X73180Y-34140D01*
X72650Y-34070D02*
X72720Y-34140D01*
X63980Y-34070D02*
X72650Y-34070D01*
X63866Y-33956D02*
X63980Y-34070D01*
X75668Y-34330D02*
X75669Y-34330D01*
X75665Y-34020D02*
X74800Y-34020D01*
X63880Y-33760D02*
X64040Y-33920D01*
X64040Y-33920D02*
X72730Y-33920D01*
X72730Y-33920D02*
X72760Y-33890D01*
X72760Y-33890D02*
X72940Y-33890D01*
X63880Y-33760D02*
X63277Y-33760D01*
X75665Y-34020D02*
X75669Y-34015D01*
X75669Y-34015D02*
X75665Y-34020D01*
X73937Y-33700D02*
X73430Y-33700D01*
X63996Y-33366D02*
X63277Y-33366D01*
X64250Y-33620D02*
X63996Y-33366D01*
X73350Y-33620D02*
X64250Y-33620D01*
X73430Y-33700D02*
X73350Y-33620D01*
X73937Y-33385D02*
X73434Y-33385D01*
X64009Y-33169D02*
X63277Y-33169D01*
X64310Y-33470D02*
X64009Y-33169D01*
X73350Y-33470D02*
X64310Y-33470D01*
X73434Y-33385D02*
X73350Y-33470D01*
X75669Y-33385D02*
X75665Y-33390D01*
X64342Y-32972D02*
X64580Y-33210D01*
X64580Y-33210D02*
X73180Y-33210D01*
X64342Y-32972D02*
X63277Y-32972D01*
X75060Y-33390D02*
X75665Y-33390D01*
X74870Y-33060D02*
X75658Y-33060D01*
X63277Y-32775D02*
X64355Y-32775D01*
X72750Y-32960D02*
X72930Y-32960D01*
X72650Y-33060D02*
X72750Y-32960D01*
X64640Y-33060D02*
X72650Y-33060D01*
X64355Y-32775D02*
X64640Y-33060D01*
X75658Y-33060D02*
X75669Y-33070D01*
X63277Y-32578D02*
X64938Y-32578D01*
X73435Y-32755D02*
X73937Y-32755D01*
X73360Y-32680D02*
X73435Y-32755D01*
X65040Y-32680D02*
X73360Y-32680D01*
X64938Y-32578D02*
X65040Y-32680D01*
X63277Y-32382D02*
X64952Y-32382D01*
X73429Y-32440D02*
X73937Y-32440D01*
X73340Y-32530D02*
X73429Y-32440D01*
X65100Y-32530D02*
X73340Y-32530D01*
X64952Y-32382D02*
X65100Y-32530D01*
X75060Y-32440D02*
X75668Y-32440D01*
X63277Y-31791D02*
X65161Y-31791D01*
X65640Y-32270D02*
X73180Y-32270D01*
X65161Y-31791D02*
X65640Y-32270D01*
X75668Y-32440D02*
X75669Y-32440D01*
X74870Y-32120D02*
X75110Y-32120D01*
X63277Y-31594D02*
X65174Y-31594D01*
X72750Y-32010D02*
X72930Y-32010D01*
X72640Y-32120D02*
X72750Y-32010D01*
X65700Y-32120D02*
X72640Y-32120D01*
X65174Y-31594D02*
X65700Y-32120D01*
X75115Y-32125D02*
X75669Y-32125D01*
X75110Y-32120D02*
X75115Y-32125D01*
X63277Y-31201D02*
X65381Y-31201D01*
X73431Y-31811D02*
X73937Y-31811D01*
X73350Y-31730D02*
X73431Y-31811D01*
X65910Y-31730D02*
X73350Y-31730D01*
X65381Y-31201D02*
X65910Y-31730D01*
X63277Y-31004D02*
X63724Y-31004D01*
X73433Y-31496D02*
X73937Y-31496D01*
X73350Y-31580D02*
X73433Y-31496D01*
X65970Y-31580D02*
X73350Y-31580D01*
X65440Y-31050D02*
X65970Y-31580D01*
X63770Y-31050D02*
X65440Y-31050D01*
X63724Y-31004D02*
X63770Y-31050D01*
X75060Y-31500D02*
X75210Y-31500D01*
X63277Y-30807D02*
X65757Y-30807D01*
X66270Y-31320D02*
X73180Y-31320D01*
X65757Y-30807D02*
X66270Y-31320D01*
X75213Y-31496D02*
X75669Y-31496D01*
X75210Y-31500D02*
X75213Y-31496D01*
X74870Y-31180D02*
X75668Y-31180D01*
X63277Y-30610D02*
X63660Y-30610D01*
X72780Y-31070D02*
X72930Y-31070D01*
X72680Y-31170D02*
X72780Y-31070D01*
X66330Y-31170D02*
X72680Y-31170D01*
X65820Y-30660D02*
X66330Y-31170D01*
X63710Y-30660D02*
X65820Y-30660D01*
X63660Y-30610D02*
X63710Y-30660D01*
X75668Y-31180D02*
X75669Y-31181D01*
X77250Y-42100D02*
X77250Y-42540D01*
X71450Y-46130D02*
X71890Y-46130D01*
X74320Y-42100D02*
X74680Y-42100D01*
G54D53*
X68345Y-46770D02*
X68340Y-46765D01*
X68830Y-46770D02*
X68345Y-46770D01*
G54D54*
X70890Y-42100D02*
X71230Y-42100D01*
G54D53*
X74510Y-32125D02*
X74510Y-32050D01*
G54D54*
X75121Y-31811D02*
X75669Y-31811D01*
X75070Y-31760D02*
X74800Y-31760D01*
X75121Y-31811D02*
X75070Y-31760D01*
G54D53*
X74510Y-32050D02*
X74800Y-31760D01*
G54D54*
X73937Y-35905D02*
X74510Y-35905D01*
G54D53*
X74510Y-32700D02*
X74800Y-32700D01*
G54D55*
X75020Y-32755D02*
X74964Y-32700D01*
X74964Y-32700D02*
X74800Y-32700D01*
X75020Y-32755D02*
X75669Y-32755D01*
G54D53*
X74510Y-35540D02*
X74510Y-35905D01*
X74510Y-35905D02*
X74510Y-36240D01*
G54D55*
X75120Y-36850D02*
X74800Y-36530D01*
X75669Y-36850D02*
X75120Y-36850D01*
X75155Y-36535D02*
X75150Y-36530D01*
X75150Y-36530D02*
X74800Y-36530D01*
X75155Y-36535D02*
X75669Y-36535D01*
X74479Y-36850D02*
X74800Y-36530D01*
X73937Y-36850D02*
X74479Y-36850D01*
G54D53*
X74510Y-36240D02*
X74800Y-36530D01*
G54D55*
X75669Y-35590D02*
X75000Y-35590D01*
X74950Y-35540D02*
X74800Y-35540D01*
X75000Y-35590D02*
X74950Y-35540D01*
G54D53*
X74510Y-33650D02*
X74800Y-33650D01*
G54D54*
X75160Y-33700D02*
X75110Y-33650D01*
X75160Y-33700D02*
X75669Y-33700D01*
X75110Y-33650D02*
X74800Y-33650D01*
G54D53*
X74510Y-34590D02*
X74800Y-34590D01*
G54D54*
X75155Y-34645D02*
X75100Y-34590D01*
X75100Y-34590D02*
X74800Y-34590D01*
X75155Y-34645D02*
X75669Y-34645D01*
G54D53*
X74510Y-35540D02*
X74800Y-35540D01*
G54D54*
X73937Y-32125D02*
X74510Y-32125D01*
X73937Y-33070D02*
X74510Y-33070D01*
X73937Y-34015D02*
X74510Y-34015D01*
X73937Y-34960D02*
X74510Y-34960D01*
G54D53*
X74510Y-32125D02*
X74510Y-32700D01*
X74510Y-32700D02*
X74510Y-33070D01*
X74510Y-33070D02*
X74510Y-33650D01*
X74510Y-33650D02*
X74510Y-34015D01*
X74510Y-34015D02*
X74510Y-34590D01*
X74510Y-34590D02*
X74510Y-34960D01*
X74510Y-34960D02*
X74510Y-35540D01*
G54D55*
X76300Y-31810D02*
X76140Y-31810D01*
X76300Y-32760D02*
X76300Y-31810D01*
X76138Y-31811D02*
X75669Y-31811D01*
X76140Y-31810D02*
X76138Y-31811D01*
X76300Y-32760D02*
X76140Y-32760D01*
X76135Y-32755D02*
X75669Y-32755D01*
X76140Y-32760D02*
X76135Y-32755D01*
X76140Y-33700D02*
X76139Y-33700D01*
X76139Y-33700D02*
X75669Y-33700D01*
X76300Y-33700D02*
X76140Y-33700D01*
X76300Y-33700D02*
X76300Y-32760D01*
X76140Y-34650D02*
X76135Y-34645D01*
X76135Y-34645D02*
X75669Y-34645D01*
X76300Y-34650D02*
X76140Y-34650D01*
X76300Y-34650D02*
X76300Y-33700D01*
X76300Y-35590D02*
X76300Y-34650D01*
X76300Y-35590D02*
X76300Y-36420D01*
X76300Y-36420D02*
X76184Y-36535D01*
X76300Y-35590D02*
X75669Y-35590D01*
X75669Y-35590D02*
X75669Y-35590D01*
X75669Y-36535D02*
X76184Y-36535D01*
X76184Y-36535D02*
X76205Y-36535D01*
X76300Y-36630D02*
X76300Y-36850D01*
X76205Y-36535D02*
X76300Y-36630D01*
G54D54*
X64360Y-37780D02*
X64700Y-37780D01*
G54D53*
X76140Y-36850D02*
X76139Y-36850D01*
X76300Y-36850D02*
X76140Y-36850D01*
X75669Y-36850D02*
X76139Y-36850D01*
X61050Y-25950D02*
X61050Y-26290D01*
X71990Y-27990D02*
X71420Y-27990D01*
X67020Y-28440D02*
X66440Y-28440D01*
G54D54*
X57972Y-29257D02*
X58227Y-29003D01*
X58227Y-29003D02*
X58227Y-28630D01*
X57972Y-29636D02*
X57972Y-29257D01*
X62110Y-28500D02*
X62110Y-28160D01*
G54D53*
X57590Y-27620D02*
X57590Y-28020D01*
G54D54*
X59740Y-28050D02*
X59740Y-28390D01*
G54D55*
X57710Y-41790D02*
X58115Y-41790D01*
G54D54*
X58550Y-39570D02*
X58990Y-39570D01*
G54D55*
X51570Y-27980D02*
X51570Y-28320D01*
X47600Y-37700D02*
X47910Y-37700D01*
X47910Y-37700D02*
X48000Y-37610D01*
G54D54*
X53693Y-30108D02*
X54008Y-30108D01*
X54010Y-30110D02*
X54008Y-30108D01*
X54160Y-30110D02*
X54010Y-30110D01*
G54D55*
X54560Y-38310D02*
X54120Y-38310D01*
G54D54*
X54833Y-31201D02*
X55168Y-31201D01*
X55170Y-31200D02*
X55330Y-31200D01*
X55168Y-31201D02*
X55170Y-31200D01*
G54D55*
X55190Y-27980D02*
X54750Y-27980D01*
X53370Y-27980D02*
X53370Y-28320D01*
G54D54*
X54833Y-32972D02*
X55227Y-32972D01*
X55227Y-32972D02*
X55330Y-32870D01*
X54833Y-32775D02*
X55235Y-32775D01*
X55235Y-32775D02*
X55330Y-32870D01*
X56400Y-30140D02*
X56400Y-29990D01*
X56398Y-29988D02*
X56398Y-29636D01*
X56400Y-29990D02*
X56398Y-29988D01*
X62927Y-31397D02*
X62924Y-31400D01*
X62924Y-31400D02*
X62770Y-31400D01*
X63277Y-31397D02*
X62927Y-31397D01*
G54D53*
X39600Y-30700D02*
X39600Y-31200D01*
X39600Y-31700D02*
X39600Y-32200D01*
X39600Y-32700D02*
X39600Y-33200D01*
X39600Y-33200D02*
X39600Y-33700D01*
X39600Y-32200D02*
X39600Y-32700D01*
X39600Y-31200D02*
X39600Y-31700D01*
X39600Y-33700D02*
X39600Y-34200D01*
G54D55*
X39600Y-36200D02*
X39600Y-35700D01*
X39600Y-36200D02*
X39600Y-36700D01*
X39600Y-35200D02*
X39600Y-34700D01*
X39600Y-34700D02*
X39600Y-34200D01*
X39600Y-35200D02*
X39600Y-35700D01*
X65610Y-29960D02*
X65110Y-29960D01*
G54D54*
X63580Y-29740D02*
X64010Y-29740D01*
G54D55*
X73530Y-28790D02*
X73870Y-28790D01*
G54D53*
X71990Y-27990D02*
X72560Y-27990D01*
X73880Y-27520D02*
X73530Y-27520D01*
X71990Y-27490D02*
X71990Y-27990D01*
X73830Y-26882D02*
X73830Y-26370D01*
X78350Y-27660D02*
X78350Y-28338D01*
X78350Y-28338D02*
X78352Y-28340D01*
X78220Y-24070D02*
X78220Y-23340D01*
X78220Y-22600D02*
X78220Y-21960D01*
X75720Y-26420D02*
X75720Y-25850D01*
G54D54*
X57972Y-29636D02*
X57972Y-30137D01*
X57972Y-30137D02*
X57970Y-30140D01*
G54D55*
X45860Y-36320D02*
X45860Y-37010D01*
X47600Y-37700D02*
X47600Y-38010D01*
X47600Y-37200D02*
X47600Y-36700D01*
X47600Y-36200D02*
X47600Y-35700D01*
X47600Y-35200D02*
X47600Y-34700D01*
X47600Y-33700D02*
X47600Y-34200D01*
X47600Y-34700D02*
X47600Y-34200D01*
X47600Y-35700D02*
X47600Y-35200D01*
X47600Y-36700D02*
X47600Y-36200D01*
X47600Y-37700D02*
X47600Y-37200D01*
X47690Y-38100D02*
X47910Y-38100D01*
X47600Y-38010D02*
X47690Y-38100D01*
G54D54*
X41820Y-44210D02*
X42250Y-44210D01*
G54D55*
X48170Y-30000D02*
X48170Y-30330D01*
X48170Y-30330D02*
X48150Y-30350D01*
X48150Y-30350D02*
X48150Y-30700D01*
X48150Y-30700D02*
X48150Y-31200D01*
X47650Y-31700D02*
X47600Y-31700D01*
X47650Y-31700D02*
X48150Y-31200D01*
X40740Y-30390D02*
X40740Y-29990D01*
X39600Y-22200D02*
X39600Y-22700D01*
X39600Y-23200D02*
X39600Y-23700D01*
X39600Y-24200D02*
X39600Y-24700D01*
X39600Y-25200D02*
X39600Y-25700D01*
X39600Y-26200D02*
X39600Y-26700D01*
X39600Y-27200D02*
X39600Y-27700D01*
X39600Y-28200D02*
X39600Y-28700D01*
X39600Y-29200D02*
X39600Y-29700D01*
X39600Y-30200D02*
X39600Y-30700D01*
X39600Y-29700D02*
X39600Y-30200D01*
X39600Y-28700D02*
X39600Y-29200D01*
X39600Y-27700D02*
X39600Y-28200D01*
X39600Y-26700D02*
X39600Y-27200D01*
X39600Y-25700D02*
X39600Y-26200D01*
X39600Y-24700D02*
X39600Y-25200D01*
X39600Y-23700D02*
X39600Y-24200D01*
X39600Y-22700D02*
X39600Y-23200D01*
X39930Y-40440D02*
X39600Y-40440D01*
X39600Y-40700D02*
X39600Y-40440D01*
X39600Y-40440D02*
X39600Y-40200D01*
X39600Y-39700D02*
X39600Y-40200D01*
X39600Y-38700D02*
X39600Y-38200D01*
X39600Y-37700D02*
X39600Y-37200D01*
X39600Y-37200D02*
X39600Y-36700D01*
X39600Y-38200D02*
X39600Y-37700D01*
X39600Y-39200D02*
X39600Y-38700D01*
X39600Y-39700D02*
X39600Y-39200D01*
G54D53*
X62780Y-46770D02*
X63295Y-46770D01*
X63300Y-46765D02*
X63295Y-46770D01*
X49240Y-41160D02*
X49880Y-41160D01*
X51490Y-39550D02*
X55540Y-39550D01*
X49880Y-41160D02*
X51490Y-39550D01*
X49240Y-41160D02*
X49240Y-41800D01*
X49940Y-42760D02*
X51940Y-40760D01*
G54D55*
X47910Y-38430D02*
X47910Y-38100D01*
G54D53*
X47600Y-33700D02*
X47600Y-33200D01*
X47600Y-32700D02*
X47600Y-32200D01*
X47600Y-32200D02*
X47600Y-31700D01*
X47600Y-33200D02*
X47600Y-32700D01*
G54D54*
X40700Y-45272D02*
X40700Y-44790D01*
X40700Y-44790D02*
X40530Y-44620D01*
G54D55*
X41690Y-30730D02*
X41690Y-30390D01*
G54D54*
X42400Y-36500D02*
X42400Y-36840D01*
G54D55*
X40280Y-36700D02*
X40280Y-37377D01*
G54D54*
X40767Y-33110D02*
X40250Y-33110D01*
G54D55*
X40250Y-33590D02*
X40250Y-34030D01*
G54D53*
X46100Y-38140D02*
X46100Y-38597D01*
X75720Y-26420D02*
X75720Y-27020D01*
X76220Y-26420D02*
X75720Y-26420D01*
X74480Y-27970D02*
X74480Y-28310D01*
X75720Y-27020D02*
X75720Y-27370D01*
X67620Y-46765D02*
X68340Y-46765D01*
X66900Y-46765D02*
X67620Y-46765D01*
X66180Y-46765D02*
X66900Y-46765D01*
X65460Y-46765D02*
X66180Y-46765D01*
X64740Y-46765D02*
X65460Y-46765D01*
X64020Y-46765D02*
X64740Y-46765D01*
X63300Y-46765D02*
X64020Y-46765D01*
G54D55*
X61215Y-44935D02*
X61215Y-45355D01*
G54D54*
X62585Y-44060D02*
X62585Y-43655D01*
X62755Y-43205D02*
X62415Y-43205D01*
X39930Y-42830D02*
X39930Y-42360D01*
X44060Y-46580D02*
X44060Y-47050D01*
X46540Y-47270D02*
X46540Y-47120D01*
X46535Y-47115D02*
X46535Y-46699D01*
X46540Y-47120D02*
X46535Y-47115D01*
X55430Y-41890D02*
X55080Y-41890D01*
X54080Y-41890D02*
X53730Y-41890D01*
X52380Y-41890D02*
X52730Y-41890D01*
X55166Y-37106D02*
X55170Y-37110D01*
X55170Y-37110D02*
X55330Y-37110D01*
X54833Y-37106D02*
X55166Y-37106D01*
X59941Y-37741D02*
X59940Y-37740D01*
X59940Y-37740D02*
X59940Y-37580D01*
X59941Y-38080D02*
X59941Y-37741D01*
X61909Y-37740D02*
X61910Y-37740D01*
X61910Y-37740D02*
X61910Y-37580D01*
X61909Y-38080D02*
X61909Y-37740D01*
X62944Y-34744D02*
X62940Y-34740D01*
X62940Y-34740D02*
X62780Y-34740D01*
X62944Y-34744D02*
X63277Y-34744D01*
G54D56*
X45013Y-39623D02*
X44680Y-39623D01*
G54D54*
X44680Y-39623D02*
X43543Y-39623D01*
X43543Y-39623D02*
X43182Y-39262D01*
G54D56*
X43103Y-38817D02*
X43103Y-39183D01*
X43103Y-39183D02*
X43182Y-39262D01*
X43261Y-39182D02*
X43182Y-39262D01*
X43261Y-39182D02*
X43261Y-38817D01*
G54D53*
X56677Y-25190D02*
X56677Y-24640D01*
X56677Y-24640D02*
X56226Y-24190D01*
X53521Y-24190D02*
X52620Y-24190D01*
X54423Y-24190D02*
X53521Y-24190D01*
G54D55*
X48170Y-26800D02*
X47850Y-26800D01*
X47850Y-27200D02*
X47650Y-27000D01*
X47850Y-27200D02*
X48170Y-27200D01*
X47850Y-26800D02*
X47650Y-27000D01*
X42170Y-26800D02*
X42490Y-26800D01*
X42490Y-26800D02*
X42690Y-27000D01*
X42490Y-27200D02*
X42690Y-27000D01*
X42490Y-27200D02*
X42170Y-27200D01*
X42170Y-29660D02*
X42170Y-30000D01*
X48170Y-30000D02*
X48170Y-29660D01*
G54D54*
X43969Y-33451D02*
X43280Y-34140D01*
X43969Y-33156D02*
X43969Y-33451D01*
X43969Y-33156D02*
X44664Y-33156D01*
X45030Y-32790D02*
X45030Y-32690D01*
X44664Y-33156D02*
X45030Y-32790D01*
G54D53*
X45030Y-32690D02*
X45530Y-32690D01*
X45530Y-32690D02*
X45530Y-33110D01*
G54D54*
X45660Y-31740D02*
X46100Y-31740D01*
G54D53*
X45210Y-32010D02*
X44820Y-32010D01*
G54D54*
X56004Y-38080D02*
X56004Y-39445D01*
X46280Y-43800D02*
X46280Y-44360D01*
X46280Y-44360D02*
X46279Y-44361D01*
X46680Y-42060D02*
X46280Y-42460D01*
X49340Y-42060D02*
X46680Y-42060D01*
X51590Y-39810D02*
X49340Y-42060D01*
X55640Y-39810D02*
X51590Y-39810D01*
X56004Y-39445D02*
X55640Y-39810D01*
X47980Y-42740D02*
X49590Y-42740D01*
X46023Y-46699D02*
X46023Y-45976D01*
X47980Y-44940D02*
X47980Y-43800D01*
X47100Y-45820D02*
X47980Y-44940D01*
X46180Y-45820D02*
X47100Y-45820D01*
X46023Y-45976D02*
X46180Y-45820D01*
X56791Y-39428D02*
X56791Y-38080D01*
X55870Y-40350D02*
X56791Y-39428D01*
X51980Y-40350D02*
X55870Y-40350D01*
X49590Y-42740D02*
X51980Y-40350D01*
G54D56*
X43418Y-42163D02*
X43418Y-42500D01*
G54D54*
X43418Y-42578D02*
X43580Y-42740D01*
X45767Y-46217D02*
X45640Y-46090D01*
X45767Y-46217D02*
X45767Y-46699D01*
X43418Y-42500D02*
X43418Y-42578D01*
X47010Y-42740D02*
X47340Y-42410D01*
X45256Y-46699D02*
X45256Y-45853D01*
X47010Y-45280D02*
X47010Y-43800D01*
X46870Y-45420D02*
X47010Y-45280D01*
X46070Y-45420D02*
X46870Y-45420D01*
X45790Y-45700D02*
X46070Y-45420D01*
X45410Y-45700D02*
X45790Y-45700D01*
X45256Y-45853D02*
X45410Y-45700D01*
X56594Y-39375D02*
X56594Y-38080D01*
X55800Y-40170D02*
X56594Y-39375D01*
X51860Y-40170D02*
X55800Y-40170D01*
X49620Y-42410D02*
X51860Y-40170D01*
X47340Y-42410D02*
X49620Y-42410D01*
G54D56*
X43261Y-42163D02*
X43261Y-42500D01*
G54D54*
X43261Y-42851D02*
X43950Y-43540D01*
X43950Y-43540D02*
X44120Y-43540D01*
X44120Y-43540D02*
X44380Y-43800D01*
X45000Y-46220D02*
X44740Y-45960D01*
X45000Y-46220D02*
X45000Y-46699D01*
X43261Y-42500D02*
X43261Y-42851D01*
X56398Y-38080D02*
X56398Y-39311D01*
X45510Y-43800D02*
X45510Y-44358D01*
X45510Y-44358D02*
X45512Y-44361D01*
X46590Y-42740D02*
X45510Y-42740D01*
X47090Y-42240D02*
X46590Y-42740D01*
X49470Y-42240D02*
X47090Y-42240D01*
X51700Y-40010D02*
X49470Y-42240D01*
X55700Y-40010D02*
X51700Y-40010D01*
X56398Y-39311D02*
X55700Y-40010D01*
G54D56*
X43891Y-42163D02*
X43891Y-42500D01*
G54D54*
X43891Y-42901D02*
X44690Y-43700D01*
X45000Y-43860D02*
X45000Y-44361D01*
X44840Y-43700D02*
X44690Y-43700D01*
X45000Y-43860D02*
X44840Y-43700D01*
X43891Y-42500D02*
X43891Y-42901D01*
X41110Y-44030D02*
X41110Y-44470D01*
X41667Y-41513D02*
X41286Y-41513D01*
X41160Y-43270D02*
X41280Y-43390D01*
X41160Y-41640D02*
X41160Y-43270D01*
X41286Y-41513D02*
X41160Y-41640D01*
X44744Y-47235D02*
X44744Y-46699D01*
X44270Y-47710D02*
X44744Y-47235D01*
X42350Y-47710D02*
X44270Y-47710D01*
X41810Y-47170D02*
X42350Y-47710D01*
X41810Y-46470D02*
X41810Y-47170D01*
X41190Y-45850D02*
X41810Y-46470D01*
X41190Y-44550D02*
X41190Y-45850D01*
X41110Y-44470D02*
X41190Y-44550D01*
X60138Y-38080D02*
X60138Y-39678D01*
X67850Y-42500D02*
X67850Y-44310D01*
X66770Y-41420D02*
X67850Y-42500D01*
X61880Y-41420D02*
X66770Y-41420D01*
X60138Y-39678D02*
X61880Y-41420D01*
X59744Y-38080D02*
X59744Y-39524D01*
X67270Y-42400D02*
X67270Y-44310D01*
X66450Y-41580D02*
X67270Y-42400D01*
X61800Y-41580D02*
X66450Y-41580D01*
X59744Y-39524D02*
X61800Y-41580D01*
X59350Y-38080D02*
X59350Y-39340D01*
X66690Y-42330D02*
X66690Y-44310D01*
X66100Y-41740D02*
X66690Y-42330D01*
X61750Y-41740D02*
X66100Y-41740D01*
X59350Y-39340D02*
X61750Y-41740D01*
X59150Y-39370D02*
X59150Y-38910D01*
X59150Y-39370D02*
X61680Y-41900D01*
X61680Y-41900D02*
X65580Y-41900D01*
X65580Y-41900D02*
X66110Y-42430D01*
X66110Y-44310D02*
X66110Y-42430D01*
X58563Y-38463D02*
X58563Y-38080D01*
X58690Y-38590D02*
X58563Y-38463D01*
X58830Y-38590D02*
X58690Y-38590D01*
X59150Y-38910D02*
X58830Y-38590D01*
X58080Y-38770D02*
X58080Y-39670D01*
X58240Y-39830D02*
X59370Y-39830D01*
X58080Y-39670D02*
X58240Y-39830D01*
X57775Y-38080D02*
X57775Y-38465D01*
X61600Y-42060D02*
X59370Y-39830D01*
X65530Y-42460D02*
X65530Y-44310D01*
X65130Y-42060D02*
X65530Y-42460D01*
X65130Y-42060D02*
X61600Y-42060D01*
X58080Y-38770D02*
X57775Y-38465D01*
X57920Y-38820D02*
X57920Y-39740D01*
X58170Y-39990D02*
X59310Y-39990D01*
X57920Y-39740D02*
X58170Y-39990D01*
X57579Y-38080D02*
X57579Y-38479D01*
X61540Y-42220D02*
X59310Y-39990D01*
X64950Y-42790D02*
X64950Y-44310D01*
X64380Y-42220D02*
X64950Y-42790D01*
X64380Y-42220D02*
X61540Y-42220D01*
X57920Y-38820D02*
X57579Y-38479D01*
X57185Y-38080D02*
X57185Y-39915D01*
X64370Y-42880D02*
X64370Y-44310D01*
X63870Y-42380D02*
X64370Y-42880D01*
X61470Y-42380D02*
X63870Y-42380D01*
X59240Y-40150D02*
X61470Y-42380D01*
X57420Y-40150D02*
X59240Y-40150D01*
X57185Y-39915D02*
X57420Y-40150D01*
X59210Y-40340D02*
X57300Y-40340D01*
X61410Y-42540D02*
X63450Y-42540D01*
X63450Y-42540D02*
X63790Y-42880D01*
X63790Y-44310D02*
X63790Y-42880D01*
X56988Y-40028D02*
X56988Y-38080D01*
X59210Y-40340D02*
X61410Y-42540D01*
X57300Y-40340D02*
X56988Y-40028D01*
X41667Y-40883D02*
X41033Y-40883D01*
X41658Y-34042D02*
X40940Y-34760D01*
X41658Y-34042D02*
X42296Y-34042D01*
X40940Y-36870D02*
X40940Y-34760D01*
X40780Y-37030D02*
X40940Y-36870D01*
X40780Y-40630D02*
X40780Y-37030D01*
X41033Y-40883D02*
X40780Y-40630D01*
X40680Y-36720D02*
X40680Y-34780D01*
X42296Y-33845D02*
X41615Y-33845D01*
X40680Y-34780D02*
X41615Y-33845D01*
X40940Y-37510D02*
X41080Y-37370D01*
X41080Y-37370D02*
X41080Y-37120D01*
X41136Y-40726D02*
X41667Y-40726D01*
X41136Y-40726D02*
X40940Y-40530D01*
X40940Y-40530D02*
X40940Y-37510D01*
X44588Y-34238D02*
X45080Y-34730D01*
X45080Y-34730D02*
X45080Y-36870D01*
X45080Y-36870D02*
X44790Y-37160D01*
X44790Y-37160D02*
X44790Y-37750D01*
X44264Y-34238D02*
X44588Y-34238D01*
X42008Y-40568D02*
X42250Y-40810D01*
X42250Y-40810D02*
X42740Y-40810D01*
X42008Y-40568D02*
X41667Y-40568D01*
X44660Y-38280D02*
X43130Y-38280D01*
X44612Y-34042D02*
X45240Y-34670D01*
X45240Y-34670D02*
X45240Y-37700D01*
X45240Y-37700D02*
X44660Y-38280D01*
X42946Y-38817D02*
X42946Y-38463D01*
X42946Y-38463D02*
X43130Y-38280D01*
X44612Y-34042D02*
X44264Y-34042D01*
X42985Y-35395D02*
X43040Y-35450D01*
X43040Y-35450D02*
X43040Y-38030D01*
X42985Y-35124D02*
X42985Y-35395D01*
G54D56*
X42240Y-39310D02*
X41980Y-39310D01*
X41980Y-39310D02*
X41978Y-39308D01*
X41667Y-39308D02*
X41978Y-39308D01*
X41978Y-39308D02*
X41980Y-39310D01*
G54D54*
X42631Y-38817D02*
X42631Y-37791D01*
X41920Y-37080D02*
X41920Y-34940D01*
X41920Y-34940D02*
X42031Y-34829D01*
X42031Y-34829D02*
X42296Y-34829D01*
X42631Y-37791D02*
X41920Y-37080D01*
X42473Y-38817D02*
X42473Y-37923D01*
X41760Y-37210D02*
X41760Y-34840D01*
X41760Y-34840D02*
X41968Y-34632D01*
X41968Y-34632D02*
X42296Y-34632D01*
X42473Y-37923D02*
X41760Y-37210D01*
X42316Y-38817D02*
X42316Y-38046D01*
X41580Y-37310D02*
X41580Y-34690D01*
X41580Y-34690D02*
X41835Y-34435D01*
X41835Y-34435D02*
X42296Y-34435D01*
X42316Y-38046D02*
X41580Y-37310D01*
X42158Y-38817D02*
X42158Y-38178D01*
X41340Y-37360D02*
X41340Y-34640D01*
X41340Y-34640D02*
X41742Y-34238D01*
X41742Y-34238D02*
X42296Y-34238D01*
X42158Y-38178D02*
X41340Y-37360D01*
X42788Y-38817D02*
X42788Y-35124D01*
X42788Y-35124D02*
X42788Y-35124D01*
X43575Y-36555D02*
X43290Y-36840D01*
X43290Y-36840D02*
X43290Y-37750D01*
X43575Y-35124D02*
X43575Y-36555D01*
G54D56*
X41960Y-39620D02*
X41956Y-39623D01*
X41956Y-39623D02*
X41667Y-39623D01*
G54D54*
X42490Y-39560D02*
X42290Y-39560D01*
X42230Y-39620D02*
X42000Y-39620D01*
X42290Y-39560D02*
X42230Y-39620D01*
G54D56*
X42000Y-39620D02*
X41960Y-39620D01*
G54D54*
X43969Y-35124D02*
X43969Y-36841D01*
X43790Y-37020D02*
X43790Y-37750D01*
X43969Y-36841D02*
X43790Y-37020D01*
X42321Y-39781D02*
X41667Y-39781D01*
X42321Y-39781D02*
X42350Y-39810D01*
X42990Y-39810D02*
X42350Y-39810D01*
X42188Y-39938D02*
X42310Y-40060D01*
X42490Y-40060D02*
X42310Y-40060D01*
X41667Y-39938D02*
X42188Y-39938D01*
X44539Y-34829D02*
X44600Y-34890D01*
X44600Y-34890D02*
X44600Y-36500D01*
X44600Y-36500D02*
X44040Y-37060D01*
X44040Y-37060D02*
X44040Y-38030D01*
X44539Y-34829D02*
X44264Y-34829D01*
G54D56*
X42340Y-40310D02*
X42126Y-40096D01*
X41667Y-40096D02*
X42126Y-40096D01*
G54D54*
X44552Y-34632D02*
X44264Y-34632D01*
X44290Y-37130D02*
X44290Y-37750D01*
X44750Y-36670D02*
X44290Y-37130D01*
X44750Y-34830D02*
X44750Y-36670D01*
X44552Y-34632D02*
X44750Y-34830D01*
G54D56*
X42740Y-40310D02*
X42340Y-40310D01*
X42490Y-40560D02*
X42310Y-40560D01*
G54D54*
X44565Y-34435D02*
X44910Y-34780D01*
X44910Y-34780D02*
X44910Y-36760D01*
X44910Y-36760D02*
X44540Y-37130D01*
X44540Y-37130D02*
X44540Y-38030D01*
X44264Y-34435D02*
X44565Y-34435D01*
G54D56*
X42003Y-40253D02*
X41667Y-40253D01*
X42310Y-40560D02*
X42003Y-40253D01*
X41360Y-40410D02*
X41361Y-40411D01*
X41667Y-40411D02*
X41361Y-40411D01*
X41220Y-40410D02*
X41360Y-40410D01*
G54D54*
X43772Y-36788D02*
X43540Y-37020D01*
X43540Y-38030D02*
X43540Y-37020D01*
X43772Y-36788D02*
X43772Y-35124D01*
X47060Y-41360D02*
X46690Y-41360D01*
X46690Y-41360D02*
X46250Y-41800D01*
X45350Y-41670D02*
X45670Y-41670D01*
G54D56*
X45350Y-41670D02*
X45014Y-41670D01*
G54D54*
X45800Y-41800D02*
X46250Y-41800D01*
X45670Y-41670D02*
X45800Y-41800D01*
G54D56*
X45014Y-41670D02*
X45013Y-41671D01*
G54D54*
X45014Y-41670D02*
X45013Y-41671D01*
X46060Y-41360D02*
X45680Y-41360D01*
X45680Y-41360D02*
X45526Y-41513D01*
X45526Y-41513D02*
X45350Y-41513D01*
G54D56*
X45350Y-41513D02*
X45013Y-41513D01*
G54D54*
X43378Y-33156D02*
X43378Y-32072D01*
X46923Y-30776D02*
X46923Y-30154D01*
X46220Y-31480D02*
X46923Y-30776D01*
X43970Y-31480D02*
X46220Y-31480D01*
X43378Y-32072D02*
X43970Y-31480D01*
X42985Y-33156D02*
X42985Y-31725D01*
X44423Y-30656D02*
X44423Y-30154D01*
X44140Y-30940D02*
X44423Y-30656D01*
X43770Y-30940D02*
X44140Y-30940D01*
X42985Y-31725D02*
X43770Y-30940D01*
G54D55*
X40390Y-29190D02*
X40390Y-26480D01*
X41445Y-25424D02*
X40390Y-26480D01*
X41445Y-25424D02*
X42472Y-25424D01*
G54D54*
X40040Y-29990D02*
X40040Y-30310D01*
X40140Y-30410D02*
X40140Y-30670D01*
X40040Y-30310D02*
X40140Y-30410D01*
G54D56*
X43103Y-42163D02*
X43103Y-42500D01*
G54D54*
X44450Y-44580D02*
X44450Y-44280D01*
X42160Y-44810D02*
X42360Y-45010D01*
X42360Y-45010D02*
X42810Y-45010D01*
X43103Y-42933D02*
X43103Y-42500D01*
X42160Y-44810D02*
X41820Y-44810D01*
X44450Y-44280D02*
X43103Y-42933D01*
X41820Y-45570D02*
X41820Y-44810D01*
G54D55*
X41180Y-26700D02*
X41180Y-26340D01*
G54D56*
X43733Y-41830D02*
X43733Y-42163D01*
G54D54*
X43733Y-41796D02*
X43940Y-41590D01*
X43733Y-41830D02*
X43733Y-41796D01*
X43576Y-41830D02*
X43576Y-41816D01*
X43576Y-41816D02*
X43350Y-41590D01*
G54D56*
X43576Y-42163D02*
X43576Y-41830D01*
G54D54*
X43576Y-41830D02*
X43576Y-41830D01*
G54D56*
X45013Y-39466D02*
X45350Y-39466D01*
G54D54*
X45547Y-39463D02*
X45543Y-39466D01*
X45543Y-39466D02*
X45350Y-39466D01*
X45547Y-39463D02*
X46100Y-39463D01*
G54D55*
X48670Y-28430D02*
X48670Y-25790D01*
X48304Y-25424D02*
X47874Y-25424D01*
X48670Y-25790D02*
X48304Y-25424D01*
X43923Y-30154D02*
X43923Y-29603D01*
X43380Y-29060D02*
X42170Y-29060D01*
X43923Y-29603D02*
X43380Y-29060D01*
G54D53*
X45775Y-23510D02*
X45775Y-24955D01*
X46923Y-26103D02*
X46923Y-26706D01*
X45775Y-24955D02*
X46923Y-26103D01*
X44169Y-23510D02*
X44169Y-24959D01*
X44423Y-25213D02*
X44423Y-26706D01*
X44169Y-24959D02*
X44423Y-25213D01*
G54D55*
X44570Y-23300D02*
X44570Y-23790D01*
G54D53*
X44570Y-23790D02*
X44570Y-24150D01*
X45270Y-24850D02*
X45270Y-25320D01*
X45270Y-25320D02*
X45923Y-25973D01*
X45923Y-26706D02*
X45923Y-25973D01*
X44570Y-23149D02*
X44570Y-22810D01*
X44570Y-23150D02*
X44570Y-23300D01*
X44570Y-23149D02*
X44570Y-23150D01*
X44570Y-24150D02*
X45270Y-24850D01*
G54D55*
X46423Y-30154D02*
X46423Y-29596D01*
X46960Y-29060D02*
X48170Y-29060D01*
X46423Y-29596D02*
X46960Y-29060D01*
G54D54*
X42788Y-33156D02*
X42788Y-31542D01*
X43423Y-30906D02*
X43423Y-30154D01*
X42788Y-31542D02*
X43423Y-30906D01*
G54D55*
X46423Y-26706D02*
X46423Y-27373D01*
X46850Y-27800D02*
X48170Y-27800D01*
X46423Y-27373D02*
X46850Y-27800D01*
X43770Y-23300D02*
X43770Y-23790D01*
G54D53*
X43767Y-23137D02*
X43770Y-23140D01*
X43770Y-23140D02*
X43770Y-23300D01*
X43767Y-22810D02*
X43767Y-23137D01*
X43920Y-25200D02*
X43770Y-25050D01*
X43770Y-25050D02*
X43770Y-23790D01*
X43423Y-26156D02*
X43423Y-26706D01*
X43920Y-25660D02*
X43423Y-26156D01*
X43920Y-25660D02*
X43920Y-25200D01*
G54D54*
X43182Y-33156D02*
X43182Y-31958D01*
X45923Y-30856D02*
X45923Y-30154D01*
X45520Y-31260D02*
X45923Y-30856D01*
X43880Y-31260D02*
X45520Y-31260D01*
X43182Y-31958D02*
X43880Y-31260D01*
G54D55*
X43923Y-26706D02*
X43923Y-27376D01*
X43500Y-27800D02*
X42170Y-27800D01*
X43923Y-27376D02*
X43500Y-27800D01*
X42170Y-26200D02*
X42610Y-26200D01*
X45374Y-22424D02*
X45374Y-22810D01*
X45070Y-22120D02*
X45374Y-22424D01*
X43670Y-22120D02*
X45070Y-22120D01*
X43210Y-22580D02*
X43670Y-22120D01*
X43210Y-24610D02*
X43210Y-22580D01*
X42920Y-24900D02*
X43210Y-24610D01*
X42920Y-25890D02*
X42920Y-24900D01*
X42610Y-26200D02*
X42920Y-25890D01*
X45374Y-22810D02*
X45374Y-23109D01*
X45374Y-23109D02*
X44972Y-23510D01*
X48170Y-26200D02*
X47760Y-26200D01*
X47420Y-24352D02*
X46578Y-23510D01*
X47420Y-25860D02*
X47420Y-24352D01*
X47760Y-26200D02*
X47420Y-25860D01*
X46177Y-22810D02*
X46177Y-23109D01*
X46177Y-23109D02*
X46578Y-23510D01*
G54D54*
X40850Y-34030D02*
X41150Y-34030D01*
X41532Y-33648D02*
X41150Y-34030D01*
X41532Y-33648D02*
X42296Y-33648D01*
X44430Y-32690D02*
X43970Y-32690D01*
X43772Y-32888D02*
X43772Y-33156D01*
X43970Y-32690D02*
X43772Y-32888D01*
X53330Y-42950D02*
X53330Y-41890D01*
X54680Y-41890D02*
X54680Y-42850D01*
X54800Y-42970D02*
X54800Y-43210D01*
X54680Y-42850D02*
X54800Y-42970D01*
X46280Y-46090D02*
X46280Y-46270D01*
X46279Y-46270D02*
X46279Y-46699D01*
X46280Y-46270D02*
X46279Y-46270D01*
X56030Y-42220D02*
X55550Y-42700D01*
X55550Y-42700D02*
X54970Y-42700D01*
X56030Y-41890D02*
X56030Y-42220D01*
X45512Y-46699D02*
X45512Y-47182D01*
X47550Y-46680D02*
X47550Y-45770D01*
X46700Y-47530D02*
X47550Y-46680D01*
X45860Y-47530D02*
X46700Y-47530D01*
X45512Y-47182D02*
X45860Y-47530D01*
X45770Y-44790D02*
X45767Y-44787D01*
X45767Y-44787D02*
X45767Y-44361D01*
X45770Y-45010D02*
X45770Y-44790D01*
X46540Y-45010D02*
X46540Y-44820D01*
X46535Y-44815D02*
X46535Y-44361D01*
X46540Y-44820D02*
X46535Y-44815D01*
G54D53*
X60506Y-46055D02*
X60506Y-45268D01*
X60506Y-45268D02*
X60840Y-44935D01*
G54D54*
X61385Y-43205D02*
X61385Y-43325D01*
X61385Y-43325D02*
X61590Y-43530D01*
X61590Y-43935D02*
X61590Y-43530D01*
X61815Y-43305D02*
X61815Y-43205D01*
X61590Y-43530D02*
X61815Y-43305D01*
X66900Y-46015D02*
X66900Y-45390D01*
X66690Y-45180D02*
X66900Y-45390D01*
X66690Y-45180D02*
X66690Y-44910D01*
X67620Y-46015D02*
X67620Y-45530D01*
X67270Y-45180D02*
X67620Y-45530D01*
X67270Y-45180D02*
X67270Y-44910D01*
X64020Y-46015D02*
X64020Y-45530D01*
X64370Y-45180D02*
X64020Y-45530D01*
X64370Y-45180D02*
X64370Y-44910D01*
X64740Y-46015D02*
X64740Y-45390D01*
X64950Y-45180D02*
X64740Y-45390D01*
X64950Y-45180D02*
X64950Y-44910D01*
X65460Y-46015D02*
X65460Y-45250D01*
X65530Y-45180D02*
X65460Y-45250D01*
X65530Y-45180D02*
X65530Y-44910D01*
X66180Y-46015D02*
X66180Y-45250D01*
X66110Y-45180D02*
X66180Y-45250D01*
X66110Y-45180D02*
X66110Y-44910D01*
G54D55*
X50660Y-26880D02*
X50660Y-26500D01*
X54824Y-24690D02*
X55324Y-24190D01*
X52470Y-24690D02*
X54824Y-24690D01*
X50660Y-26500D02*
X52470Y-24690D01*
G54D54*
X68340Y-46015D02*
X68340Y-45670D01*
X67850Y-45180D02*
X68340Y-45670D01*
X67850Y-45180D02*
X67850Y-44910D01*
X63300Y-46015D02*
X63300Y-45670D01*
X63790Y-45180D02*
X63300Y-45670D01*
X63790Y-45180D02*
X63790Y-44910D01*
G54D53*
X53970Y-27380D02*
X53970Y-26980D01*
X53370Y-27380D02*
X53970Y-27380D01*
G54D54*
X63277Y-36515D02*
X62874Y-36515D01*
X63170Y-37780D02*
X63760Y-37780D01*
X62690Y-37300D02*
X63170Y-37780D01*
X62690Y-36700D02*
X62690Y-37300D01*
X62874Y-36515D02*
X62690Y-36700D01*
G54D53*
X55790Y-27380D02*
X55790Y-26980D01*
X55190Y-27380D02*
X55790Y-27380D01*
X52170Y-27380D02*
X52170Y-26980D01*
X51570Y-27380D02*
X52170Y-27380D01*
G54D54*
X53460Y-47160D02*
X53460Y-45770D01*
X54800Y-47160D02*
X54800Y-46280D01*
X52860Y-45850D02*
X53200Y-45510D01*
X52860Y-47160D02*
X52860Y-45850D01*
X55400Y-46360D02*
X55060Y-46020D01*
X55400Y-47160D02*
X55400Y-46360D01*
X72930Y-28790D02*
X72630Y-28490D01*
X72365Y-28490D02*
X72630Y-28490D01*
X72630Y-28490D02*
X72930Y-28190D01*
G54D53*
X76220Y-26045D02*
X76515Y-26045D01*
X76758Y-25801D02*
X77330Y-25801D01*
X76515Y-26045D02*
X76758Y-25801D01*
X74790Y-27160D02*
X74790Y-26930D01*
X74925Y-26795D02*
X75220Y-26795D01*
X74790Y-26930D02*
X74925Y-26795D01*
X75100Y-27370D02*
X75000Y-27370D01*
X74580Y-27370D02*
X74790Y-27160D01*
X74580Y-27370D02*
X74480Y-27370D01*
X75000Y-27370D02*
X74790Y-27160D01*
X71615Y-27490D02*
X71615Y-26373D01*
X71615Y-26373D02*
X71611Y-26370D01*
G54D55*
X40530Y-41040D02*
X40530Y-40440D01*
G54D56*
X41667Y-41041D02*
X41330Y-41041D01*
G54D54*
X41033Y-41040D02*
X41034Y-41041D01*
X41034Y-41041D02*
X41330Y-41041D01*
X41033Y-41040D02*
X40530Y-41040D01*
X40530Y-40440D02*
X40530Y-40140D01*
X40530Y-40140D02*
X40445Y-40055D01*
X40445Y-40055D02*
X40355Y-40055D01*
X40280Y-39980D02*
X40280Y-39502D01*
X40280Y-39980D02*
X40355Y-40055D01*
G54D56*
X45013Y-40726D02*
X45350Y-40726D01*
G54D54*
X55807Y-38632D02*
X55807Y-38080D01*
X48990Y-39170D02*
X47433Y-40726D01*
X55270Y-39170D02*
X48990Y-39170D01*
X55807Y-38632D02*
X55270Y-39170D01*
X45350Y-40726D02*
X47433Y-40726D01*
G54D56*
X45013Y-40568D02*
X45350Y-40568D01*
G54D54*
X47371Y-40568D02*
X48930Y-39010D01*
X48930Y-39010D02*
X55180Y-39010D01*
X55180Y-39010D02*
X55610Y-38579D01*
X55610Y-38579D02*
X55610Y-38080D01*
X45350Y-40568D02*
X47371Y-40568D01*
X62303Y-38080D02*
X62303Y-39206D01*
X44790Y-43550D02*
X50360Y-43550D01*
X44048Y-42808D02*
X44048Y-42163D01*
X44790Y-43550D02*
X44048Y-42808D01*
X52540Y-41370D02*
X50360Y-43550D01*
X58490Y-41370D02*
X52540Y-41370D01*
X62303Y-39206D02*
X61870Y-39640D01*
X48860Y-38850D02*
X54950Y-38850D01*
X60870Y-37330D02*
X61122Y-37582D01*
X61122Y-38080D02*
X61122Y-37582D01*
X55430Y-37670D02*
X56740Y-37670D01*
X47298Y-40411D02*
X45350Y-40411D01*
X48860Y-38850D02*
X47298Y-40411D01*
G54D56*
X45350Y-40411D02*
X45013Y-40411D01*
G54D54*
X56740Y-37670D02*
X57080Y-37330D01*
X60190Y-37330D02*
X60870Y-37330D01*
X55320Y-37780D02*
X55430Y-37670D01*
X55320Y-38480D02*
X55320Y-37780D01*
X54950Y-38850D02*
X55320Y-38480D01*
X58490Y-40860D02*
X52470Y-40860D01*
X50130Y-43200D02*
X44920Y-43200D01*
X44920Y-43200D02*
X44363Y-42643D01*
X44363Y-42163D02*
X44363Y-42643D01*
X61850Y-38700D02*
X61850Y-38960D01*
X61516Y-37628D02*
X61516Y-38080D01*
X61516Y-37628D02*
X61565Y-37580D01*
X61850Y-38960D02*
X61170Y-39640D01*
X52470Y-40860D02*
X50130Y-43200D01*
X58240Y-40600D02*
X52460Y-40600D01*
X44521Y-42163D02*
X44521Y-42581D01*
X44960Y-43020D02*
X44521Y-42581D01*
X50040Y-43020D02*
X44960Y-43020D01*
X61590Y-38590D02*
X61590Y-38870D01*
X61712Y-38467D02*
X61712Y-38080D01*
X61712Y-38467D02*
X61590Y-38590D01*
X61590Y-38870D02*
X61170Y-39290D01*
X52460Y-40600D02*
X50040Y-43020D01*
X48780Y-38690D02*
X54810Y-38690D01*
X56510Y-37510D02*
X56690Y-37330D01*
X61319Y-38080D02*
X61319Y-37449D01*
X61319Y-37449D02*
X60950Y-37080D01*
G54D56*
X45350Y-40253D02*
X45013Y-40253D01*
G54D54*
X48780Y-38690D02*
X47216Y-40253D01*
X47216Y-40253D02*
X45350Y-40253D01*
X55340Y-37510D02*
X56510Y-37510D01*
X59940Y-37080D02*
X60950Y-37080D01*
X55090Y-37760D02*
X55340Y-37510D01*
X55090Y-38410D02*
X55090Y-37760D01*
X54810Y-38690D02*
X55090Y-38410D01*
X62106Y-38080D02*
X62106Y-39053D01*
X52490Y-41120D02*
X50230Y-43380D01*
X44860Y-43380D02*
X44206Y-42726D01*
X44206Y-42726D02*
X44206Y-42163D01*
X50230Y-43380D02*
X44860Y-43380D01*
X52490Y-41120D02*
X58240Y-41120D01*
X62106Y-39053D02*
X61870Y-39290D01*
X54833Y-31988D02*
X54291Y-31988D01*
X54171Y-32108D02*
X53693Y-32108D01*
X54291Y-31988D02*
X54171Y-32108D01*
X54833Y-32382D02*
X54437Y-32382D01*
X54211Y-32608D02*
X53693Y-32608D01*
X54437Y-32382D02*
X54211Y-32608D01*
X56000Y-29300D02*
X56004Y-29304D01*
X56004Y-29636D02*
X56004Y-29304D01*
X56000Y-29150D02*
X56000Y-29300D01*
X50361Y-33108D02*
X50600Y-32870D01*
X50600Y-32870D02*
X51910Y-32870D01*
X50361Y-33108D02*
X49126Y-33108D01*
X49126Y-34108D02*
X50551Y-34108D01*
X55800Y-30140D02*
X55800Y-29980D01*
X55807Y-29972D02*
X55807Y-29636D01*
X55800Y-29980D02*
X55807Y-29972D01*
X51270Y-33390D02*
X51910Y-33390D01*
X50551Y-34108D02*
X51270Y-33390D01*
X54833Y-35925D02*
X54304Y-35925D01*
X54121Y-36108D02*
X53693Y-36108D01*
X54304Y-35925D02*
X54121Y-36108D01*
X49126Y-35608D02*
X51551Y-35608D01*
X54170Y-34860D02*
X52300Y-34860D01*
X54285Y-34744D02*
X54170Y-34860D01*
X54285Y-34744D02*
X54833Y-34744D01*
X51551Y-35608D02*
X52300Y-34860D01*
X53693Y-36608D02*
X54131Y-36608D01*
X54420Y-36319D02*
X54833Y-36319D01*
X54131Y-36608D02*
X54420Y-36319D01*
X54833Y-36515D02*
X54434Y-36515D01*
X54090Y-36860D02*
X52310Y-36860D01*
X54434Y-36515D02*
X54090Y-36860D01*
X52061Y-37108D02*
X49126Y-37108D01*
X52310Y-36860D02*
X52061Y-37108D01*
X54833Y-36712D02*
X54437Y-36712D01*
X54041Y-37108D02*
X53693Y-37108D01*
X54437Y-36712D02*
X54041Y-37108D01*
X54833Y-35728D02*
X54271Y-35728D01*
X51611Y-36608D02*
X49126Y-36608D01*
X52360Y-35860D02*
X51611Y-36608D01*
X54140Y-35860D02*
X52360Y-35860D01*
X54271Y-35728D02*
X54140Y-35860D01*
X54833Y-36909D02*
X54460Y-36909D01*
X54051Y-37608D02*
X53693Y-37608D01*
X54280Y-37380D02*
X54051Y-37608D01*
X54280Y-37090D02*
X54280Y-37380D01*
X54460Y-36909D02*
X54280Y-37090D01*
X54060Y-33110D02*
X54058Y-33108D01*
X53693Y-33108D02*
X54058Y-33108D01*
X54250Y-33110D02*
X54060Y-33110D01*
X56790Y-30000D02*
X56791Y-29998D01*
X56791Y-29998D02*
X56791Y-29636D01*
X56790Y-30400D02*
X56790Y-30000D01*
X54833Y-33956D02*
X54446Y-33956D01*
X54098Y-33608D02*
X53693Y-33608D01*
X54446Y-33956D02*
X54098Y-33608D01*
X54833Y-34153D02*
X54243Y-34153D01*
X54198Y-34108D02*
X53693Y-34108D01*
X54243Y-34153D02*
X54198Y-34108D01*
X54833Y-34547D02*
X54262Y-34547D01*
X54201Y-34608D02*
X53693Y-34608D01*
X54262Y-34547D02*
X54201Y-34608D01*
X54833Y-34941D02*
X54328Y-34941D01*
X54161Y-35108D02*
X53693Y-35108D01*
X54328Y-34941D02*
X54161Y-35108D01*
X54833Y-35334D02*
X54455Y-35334D01*
X54181Y-35608D02*
X53693Y-35608D01*
X54455Y-35334D02*
X54181Y-35608D01*
X49126Y-35108D02*
X51471Y-35108D01*
X54449Y-34350D02*
X54440Y-34360D01*
X54440Y-34360D02*
X52220Y-34360D01*
X54449Y-34350D02*
X54833Y-34350D01*
X51471Y-35108D02*
X52220Y-34360D01*
X50691Y-34608D02*
X51650Y-33650D01*
X50691Y-34608D02*
X49126Y-34608D01*
X56100Y-30400D02*
X56100Y-30080D01*
X56201Y-29978D02*
X56201Y-29636D01*
X56100Y-30080D02*
X56201Y-29978D01*
X51650Y-32610D02*
X49128Y-32610D01*
X55610Y-29636D02*
X55610Y-29309D01*
X55610Y-29309D02*
X55610Y-29150D01*
X55610Y-29309D02*
X55610Y-29309D01*
X49128Y-32610D02*
X49126Y-32608D01*
X54833Y-31594D02*
X54135Y-31594D01*
X54121Y-31608D02*
X53693Y-31608D01*
X54135Y-31594D02*
X54121Y-31608D01*
X54833Y-31004D02*
X54225Y-31004D01*
X54121Y-31108D02*
X53693Y-31108D01*
X54225Y-31004D02*
X54121Y-31108D01*
X54833Y-30610D02*
X54279Y-30610D01*
X54277Y-30608D02*
X53693Y-30608D01*
X54279Y-30610D02*
X54277Y-30608D01*
X54833Y-30413D02*
X54433Y-30413D01*
X52658Y-30108D02*
X49126Y-30108D01*
X52910Y-30360D02*
X52658Y-30108D01*
X54380Y-30360D02*
X52910Y-30360D01*
X54433Y-30413D02*
X54380Y-30360D01*
X54833Y-30807D02*
X54162Y-30807D01*
X52588Y-30608D02*
X49126Y-30608D01*
X52840Y-30860D02*
X52588Y-30608D01*
X54110Y-30860D02*
X52840Y-30860D01*
X54162Y-30807D02*
X54110Y-30860D01*
X54833Y-31791D02*
X54198Y-31791D01*
X52058Y-31108D02*
X49126Y-31108D01*
X52810Y-31860D02*
X52058Y-31108D01*
X54130Y-31860D02*
X52810Y-31860D01*
X54198Y-31791D02*
X54130Y-31860D01*
X54833Y-32185D02*
X54384Y-32185D01*
X51958Y-31608D02*
X49126Y-31608D01*
X52710Y-32360D02*
X51958Y-31608D01*
X54210Y-32360D02*
X52710Y-32360D01*
X54384Y-32185D02*
X54210Y-32360D01*
X54833Y-32578D02*
X54471Y-32578D01*
X51768Y-32108D02*
X49126Y-32108D01*
X52520Y-32860D02*
X51768Y-32108D01*
X54190Y-32860D02*
X52520Y-32860D01*
X54471Y-32578D02*
X54190Y-32860D01*
X49126Y-33608D02*
X50521Y-33608D01*
X51000Y-33130D02*
X51650Y-33130D01*
X50521Y-33608D02*
X51000Y-33130D01*
X56590Y-29300D02*
X56594Y-29304D01*
X56594Y-29636D02*
X56594Y-29304D01*
X56590Y-29150D02*
X56590Y-29300D01*
X49126Y-36108D02*
X51501Y-36108D01*
X54381Y-35138D02*
X54160Y-35360D01*
X54381Y-35138D02*
X54833Y-35138D01*
X54160Y-35360D02*
X52250Y-35360D01*
X51501Y-36108D02*
X52250Y-35360D01*
G54D56*
X42158Y-42163D02*
X42158Y-42500D01*
G54D54*
X42158Y-42978D02*
X43310Y-44130D01*
X43310Y-44130D02*
X43310Y-45320D01*
X43310Y-45320D02*
X42560Y-46070D01*
X42560Y-46070D02*
X42560Y-46580D01*
X42158Y-42500D02*
X42158Y-42978D01*
G54D56*
X42473Y-42163D02*
X42473Y-42500D01*
G54D54*
X42473Y-42823D02*
X43810Y-44160D01*
X43810Y-44160D02*
X43810Y-45330D01*
X43810Y-45330D02*
X43060Y-46080D01*
X43060Y-46080D02*
X43060Y-46580D01*
X42473Y-42500D02*
X42473Y-42823D01*
X44060Y-44480D02*
X44060Y-45050D01*
X45256Y-45013D02*
X45256Y-44361D01*
X44990Y-45280D02*
X45256Y-45013D01*
X44290Y-45280D02*
X44990Y-45280D01*
X44060Y-45050D02*
X44290Y-45280D01*
G54D56*
X42631Y-42163D02*
X42631Y-42500D01*
G54D54*
X42631Y-42721D02*
X44060Y-44150D01*
X44060Y-44150D02*
X44060Y-44480D01*
X42631Y-42500D02*
X42631Y-42721D01*
X44090Y-45540D02*
X45610Y-45540D01*
X43560Y-44480D02*
X43560Y-45010D01*
X46023Y-45126D02*
X46023Y-44361D01*
X45610Y-45540D02*
X46023Y-45126D01*
G54D56*
X42316Y-42163D02*
X42316Y-42490D01*
G54D54*
X43560Y-44480D02*
X43560Y-44160D01*
X42316Y-42916D02*
X42316Y-42490D01*
X43560Y-44160D02*
X42316Y-42916D01*
X57579Y-29636D02*
X57579Y-29169D01*
X55790Y-28210D02*
X55790Y-27980D01*
X55960Y-28380D02*
X55790Y-28210D01*
X56790Y-28380D02*
X55960Y-28380D01*
X57579Y-29169D02*
X56790Y-28380D01*
X60531Y-29636D02*
X60531Y-27771D01*
X57040Y-26980D02*
X56390Y-26980D01*
X57330Y-26690D02*
X57040Y-26980D01*
X59450Y-26690D02*
X57330Y-26690D01*
X60531Y-27771D02*
X59450Y-26690D01*
G54D55*
X55790Y-26380D02*
X55790Y-26105D01*
X55790Y-26105D02*
X54874Y-25190D01*
G54D53*
X55790Y-26380D02*
X56390Y-26380D01*
G54D54*
X57382Y-29636D02*
X57382Y-29212D01*
X53970Y-28320D02*
X54190Y-28540D01*
X53970Y-28320D02*
X53970Y-27980D01*
X56710Y-28540D02*
X54190Y-28540D01*
X57382Y-29212D02*
X56710Y-28540D01*
X56690Y-27680D02*
X54820Y-27680D01*
X54820Y-27680D02*
X54590Y-27450D01*
X54590Y-26980D02*
X54590Y-27450D01*
X60335Y-27805D02*
X59380Y-26850D01*
X59380Y-26850D02*
X57520Y-26850D01*
X57520Y-26850D02*
X56690Y-27680D01*
X60335Y-27805D02*
X60335Y-29636D01*
G54D55*
X53972Y-25190D02*
X53972Y-26377D01*
X53972Y-26377D02*
X53970Y-26380D01*
G54D53*
X53970Y-26380D02*
X54590Y-26380D01*
G54D54*
X60728Y-29636D02*
X60728Y-27478D01*
X57160Y-24460D02*
X56420Y-23720D01*
X56420Y-23720D02*
X55404Y-23720D01*
X55404Y-23720D02*
X54874Y-23190D01*
X57160Y-24460D02*
X57160Y-24890D01*
X58680Y-26410D02*
X57160Y-24890D01*
X59660Y-26410D02*
X58680Y-26410D01*
X60728Y-27478D02*
X59660Y-26410D01*
X57185Y-29636D02*
X57185Y-29265D01*
X52170Y-28420D02*
X52170Y-27980D01*
X52480Y-28730D02*
X52170Y-28420D01*
X56650Y-28730D02*
X52480Y-28730D01*
X57185Y-29265D02*
X56650Y-28730D01*
X60180Y-29220D02*
X60180Y-27870D01*
X60138Y-29636D02*
X60138Y-29261D01*
X60138Y-29261D02*
X60180Y-29220D01*
X57670Y-27010D02*
X56660Y-28020D01*
X59320Y-27010D02*
X57670Y-27010D01*
X52770Y-27680D02*
X52770Y-26980D01*
X60180Y-27870D02*
X59320Y-27010D01*
G54D55*
X53070Y-25190D02*
X53070Y-25799D01*
X52770Y-26100D02*
X52770Y-26380D01*
X53070Y-25799D02*
X52770Y-26100D01*
G54D53*
X52170Y-26380D02*
X52770Y-26380D01*
G54D54*
X60925Y-29636D02*
X60925Y-27425D01*
X56145Y-23560D02*
X55775Y-23190D01*
X56470Y-23560D02*
X56145Y-23560D01*
X57410Y-24500D02*
X56470Y-23560D01*
X57410Y-24500D02*
X57410Y-24790D01*
X58830Y-26210D02*
X57410Y-24790D01*
X59710Y-26210D02*
X58830Y-26210D01*
X60925Y-27425D02*
X59710Y-26210D01*
M02*
