G04 (created by PCBNEW (2013-mar-13)-stable) date Fri 20 Nov 2015 04:23:37 PM CET*
%MOIN*%
G04 Gerber Fmt 3.4, Leading zero omitted, Abs format*
%FSLAX34Y34*%
G01*
G70*
G90*
G04 APERTURE LIST*
%ADD10C,0.005906*%
%ADD11C,0.196850*%
%ADD12C,0.051181*%
%ADD13C,0.100000*%
%ADD14C,0.050000*%
%ADD15C,0.160000*%
%ADD16C,0.063000*%
%ADD17R,0.086614X0.015748*%
%ADD18C,0.055100*%
%ADD19R,0.060000X0.060000*%
%ADD20C,0.060000*%
%ADD21C,0.070900*%
%ADD22C,0.047200*%
%ADD23C,0.028000*%
%ADD24C,0.008000*%
%ADD25C,0.016000*%
%ADD26C,0.012000*%
%ADD27C,0.006000*%
G04 APERTURE END LIST*
G54D10*
G54D11*
X40531Y-20885D03*
X77566Y-20885D03*
X40531Y-46881D03*
X77566Y-46881D03*
G54D12*
X44570Y-22810D03*
X45775Y-23510D03*
X44972Y-23510D03*
X43767Y-22810D03*
X44169Y-23510D03*
X45374Y-22810D03*
X46578Y-23510D03*
X46177Y-22810D03*
G54D13*
X48374Y-23160D03*
X41972Y-23160D03*
G54D14*
X47874Y-25424D03*
X46972Y-25424D03*
X43374Y-25424D03*
X42472Y-25424D03*
G54D15*
X49854Y-24190D03*
X59696Y-24190D03*
G54D16*
X56677Y-23190D03*
X56226Y-24190D03*
X55775Y-23190D03*
X54874Y-23190D03*
X53972Y-23190D03*
X53070Y-23190D03*
X55324Y-24190D03*
X54423Y-24190D03*
X53521Y-24190D03*
X52620Y-24190D03*
X56677Y-25190D03*
X55775Y-25190D03*
X54874Y-25190D03*
X53972Y-25190D03*
X53070Y-25190D03*
G54D17*
X54129Y-46279D03*
X54129Y-46023D03*
X54129Y-45767D03*
X54129Y-45511D03*
X54129Y-45255D03*
X54129Y-45000D03*
X54129Y-44744D03*
X54129Y-44488D03*
X54129Y-44232D03*
X54129Y-43976D03*
X54129Y-43720D03*
X54129Y-43464D03*
X54129Y-43208D03*
X54129Y-42952D03*
X54129Y-42696D03*
G54D18*
X47060Y-41360D03*
X46060Y-41360D03*
X41820Y-45570D03*
G54D19*
X46920Y-34480D03*
G54D20*
X46920Y-35480D03*
X46920Y-36480D03*
X46920Y-37480D03*
G54D11*
X63385Y-39763D03*
X63385Y-27952D03*
G54D18*
X65140Y-27560D03*
G54D21*
X71370Y-44606D03*
X68810Y-44606D03*
X71370Y-42834D03*
X68810Y-42834D03*
X74800Y-44606D03*
X72240Y-44606D03*
X74800Y-42834D03*
X72240Y-42834D03*
X78230Y-44606D03*
X75670Y-44606D03*
X78230Y-42834D03*
X75670Y-42834D03*
X74800Y-47306D03*
X72240Y-47306D03*
X74800Y-45534D03*
X72240Y-45534D03*
G54D22*
X43350Y-41590D03*
X43940Y-41590D03*
G54D23*
X62770Y-34150D03*
X62770Y-31990D03*
X72810Y-43150D03*
X72380Y-42100D03*
X60530Y-26660D03*
X59560Y-27630D03*
X67440Y-29090D03*
X67440Y-27170D03*
X57630Y-34870D03*
X55590Y-35840D03*
X55590Y-35270D03*
X57630Y-35750D03*
X57100Y-35840D03*
X58350Y-36820D03*
X57580Y-36820D03*
X45500Y-37010D03*
X45860Y-35670D03*
X45520Y-40000D03*
X45520Y-38600D03*
X44450Y-45010D03*
X44420Y-46590D03*
X47290Y-28430D03*
X47290Y-30810D03*
X54800Y-44740D03*
X48620Y-44070D03*
X48620Y-41800D03*
X46560Y-40000D03*
X46560Y-41090D03*
X46760Y-31340D03*
X43010Y-30800D03*
X42400Y-35560D03*
X45190Y-34240D03*
X54800Y-45260D03*
X76115Y-24081D03*
X76115Y-21660D03*
X62580Y-38760D03*
X61170Y-38880D03*
X45700Y-37750D03*
X45140Y-38600D03*
X45700Y-37380D03*
X45140Y-38240D03*
X45855Y-34150D03*
X47320Y-33950D03*
X47880Y-24810D03*
X75060Y-36220D03*
X73180Y-36040D03*
X72940Y-35790D03*
X74800Y-35910D03*
X75060Y-35280D03*
X73180Y-35090D03*
X72940Y-34840D03*
X74800Y-34960D03*
X75060Y-34330D03*
X73180Y-34140D03*
X72940Y-33890D03*
X74800Y-34020D03*
X73180Y-33210D03*
X75060Y-33390D03*
X74870Y-33060D03*
X72930Y-32960D03*
X75060Y-32440D03*
X73180Y-32270D03*
X74870Y-32120D03*
X72930Y-32010D03*
X75060Y-31500D03*
X73180Y-31320D03*
X74870Y-31180D03*
X72930Y-31070D03*
X77250Y-42540D03*
X71890Y-46130D03*
X74680Y-42100D03*
X68830Y-46770D03*
X71230Y-42100D03*
X74800Y-31760D03*
X74800Y-32700D03*
X74800Y-36530D03*
X74800Y-33650D03*
X74800Y-34590D03*
X74800Y-35540D03*
X44500Y-40070D03*
X76300Y-31810D03*
X76300Y-32760D03*
X76300Y-33700D03*
X76300Y-34650D03*
X76300Y-35590D03*
X64700Y-37780D03*
X76300Y-36850D03*
X61050Y-25950D03*
X71420Y-27990D03*
X67020Y-28440D03*
X58227Y-28630D03*
X62110Y-28160D03*
X57590Y-27620D03*
X59740Y-28050D03*
X57710Y-41790D03*
X58990Y-39570D03*
X51570Y-28320D03*
X47600Y-37700D03*
X54160Y-30110D03*
X54120Y-38310D03*
X55330Y-31200D03*
X54750Y-27980D03*
X53370Y-28320D03*
X55330Y-32870D03*
X56400Y-30140D03*
X62770Y-31400D03*
X39600Y-31200D03*
X39600Y-32200D03*
X39600Y-33200D03*
X39600Y-32700D03*
X39600Y-31700D03*
X39600Y-36200D03*
X39600Y-35700D03*
X39600Y-34700D03*
X39600Y-34200D03*
X39600Y-35200D03*
X39600Y-33700D03*
X65110Y-29960D03*
X63580Y-29740D03*
X73870Y-28790D03*
X72560Y-27990D03*
X73880Y-27520D03*
X71990Y-27990D03*
X71784Y-21660D03*
X73830Y-26370D03*
X78350Y-27660D03*
X78220Y-23340D03*
X78220Y-21960D03*
X75720Y-25850D03*
X75720Y-26420D03*
X57970Y-30140D03*
X47600Y-37200D03*
X45860Y-37010D03*
X47600Y-36700D03*
X47600Y-35700D03*
X47600Y-34700D03*
X47600Y-33700D03*
X47600Y-34200D03*
X47600Y-35200D03*
X47600Y-36200D03*
X42250Y-44210D03*
X48150Y-31200D03*
X48150Y-30700D03*
X40740Y-30390D03*
X39600Y-22700D03*
X39600Y-23700D03*
X39600Y-24700D03*
X39600Y-25700D03*
X39600Y-26700D03*
X39600Y-27700D03*
X39600Y-28700D03*
X39600Y-29700D03*
X39600Y-30200D03*
X39600Y-29200D03*
X39600Y-28200D03*
X39600Y-27200D03*
X39600Y-26200D03*
X39600Y-25200D03*
X39600Y-24200D03*
X39600Y-23200D03*
X39600Y-22200D03*
X39600Y-39700D03*
X39600Y-39200D03*
X39600Y-38200D03*
X39600Y-37200D03*
X39600Y-37700D03*
X39600Y-38700D03*
X39600Y-40200D03*
X39600Y-40700D03*
X62780Y-46770D03*
X55540Y-39550D03*
X49240Y-41800D03*
X51940Y-40760D03*
X49940Y-42760D03*
X43182Y-39262D03*
X47910Y-38100D03*
X47600Y-33200D03*
X47600Y-32200D03*
X47600Y-32700D03*
X40530Y-44620D03*
X47600Y-31700D03*
X41690Y-30390D03*
X42400Y-36840D03*
X39600Y-36700D03*
X40280Y-36700D03*
X39600Y-30700D03*
X40250Y-33110D03*
X40250Y-33590D03*
X46100Y-38140D03*
X46600Y-38200D03*
X75720Y-27020D03*
X74480Y-28310D03*
X61215Y-45355D03*
X62585Y-43655D03*
X62755Y-43205D03*
X39930Y-42830D03*
X44060Y-47050D03*
X46540Y-47270D03*
X55080Y-41890D03*
X53730Y-41890D03*
X52380Y-41890D03*
X55330Y-37110D03*
X59940Y-37580D03*
X61910Y-37580D03*
X62780Y-34740D03*
X42690Y-27000D03*
X47650Y-27000D03*
X42170Y-30000D03*
X48170Y-30000D03*
X43280Y-34140D03*
X45530Y-32690D03*
X46100Y-31740D03*
X45210Y-32010D03*
X46280Y-43800D03*
X46280Y-42460D03*
X47980Y-42740D03*
X47980Y-43800D03*
X45640Y-46090D03*
X43580Y-42740D03*
X47010Y-42740D03*
X47010Y-43800D03*
X44740Y-45960D03*
X44380Y-43800D03*
X45510Y-43800D03*
X45510Y-42740D03*
X41110Y-44030D03*
X41280Y-43390D03*
X40680Y-36720D03*
X41080Y-37120D03*
X44790Y-37750D03*
X42740Y-40810D03*
X43040Y-38030D03*
X42240Y-39310D03*
X43290Y-37750D03*
X42490Y-39560D03*
X43790Y-37750D03*
X42990Y-39810D03*
X42490Y-40060D03*
X44040Y-38030D03*
X42740Y-40310D03*
X44290Y-37750D03*
X44540Y-38030D03*
X42490Y-40560D03*
X41220Y-40410D03*
X43540Y-38030D03*
X44450Y-44580D03*
X42810Y-45010D03*
X41180Y-26340D03*
X43940Y-41590D03*
X43350Y-41590D03*
X53330Y-42950D03*
X54800Y-43210D03*
X46280Y-46090D03*
X54970Y-42700D03*
X47550Y-45770D03*
X45770Y-45010D03*
X46540Y-45010D03*
X53460Y-45770D03*
X54800Y-46280D03*
X53200Y-45510D03*
X55060Y-46020D03*
X61870Y-39640D03*
X58490Y-41370D03*
X60190Y-37330D03*
X57080Y-37330D03*
X58490Y-40860D03*
X61850Y-38700D03*
X61565Y-37580D03*
X61170Y-39640D03*
X58240Y-40600D03*
X61170Y-39290D03*
X56690Y-37330D03*
X59940Y-37080D03*
X61870Y-39290D03*
X58240Y-41120D03*
X56000Y-29150D03*
X51910Y-32870D03*
X51910Y-33390D03*
X55800Y-30140D03*
X54250Y-33110D03*
X56790Y-30400D03*
X51650Y-33650D03*
X56100Y-30400D03*
X51650Y-32610D03*
X55610Y-29150D03*
X56590Y-29150D03*
X51650Y-33130D03*
X44090Y-45540D03*
X43560Y-45010D03*
X56660Y-28020D03*
X52770Y-27680D03*
G54D24*
X62770Y-34150D02*
X62770Y-31990D01*
X72570Y-42100D02*
X72810Y-42340D01*
X72810Y-42340D02*
X72810Y-43150D01*
X72380Y-42100D02*
X72570Y-42100D01*
G54D25*
X60530Y-26660D02*
X59560Y-27630D01*
X67440Y-27170D02*
X67440Y-29090D01*
G54D24*
X57630Y-35750D02*
X57630Y-34870D01*
X55590Y-35840D02*
X55590Y-35270D01*
X57100Y-35840D02*
X57300Y-35840D01*
X57300Y-35840D02*
X57390Y-35750D01*
X57390Y-35750D02*
X57630Y-35750D01*
X58350Y-36820D02*
X57580Y-36820D01*
G54D26*
X45500Y-37010D02*
X45500Y-36030D01*
X45500Y-36030D02*
X45860Y-35670D01*
X45520Y-40000D02*
X45520Y-38600D01*
X44450Y-45010D02*
X44450Y-45740D01*
X44420Y-45770D02*
X44420Y-46590D01*
X44450Y-45740D02*
X44420Y-45770D01*
X47290Y-28430D02*
X47290Y-30810D01*
G54D24*
X54630Y-44740D02*
X54625Y-44744D01*
X54129Y-44744D02*
X54625Y-44744D01*
X54800Y-44740D02*
X54630Y-44740D01*
G54D25*
X48620Y-41800D02*
X48620Y-44070D01*
X46560Y-40000D02*
X46560Y-41090D01*
G54D26*
X46220Y-30800D02*
X46760Y-31340D01*
X43010Y-30800D02*
X46220Y-30800D01*
X45190Y-34240D02*
X44190Y-34240D01*
X42400Y-35170D02*
X42400Y-35560D01*
X42730Y-34840D02*
X42400Y-35170D01*
X43590Y-34840D02*
X42730Y-34840D01*
X44190Y-34240D02*
X43590Y-34840D01*
X54640Y-45260D02*
X54635Y-45255D01*
X54635Y-45255D02*
X54129Y-45255D01*
X54800Y-45260D02*
X54640Y-45260D01*
G54D25*
X75670Y-42834D02*
X78230Y-42834D01*
G54D24*
X62350Y-38990D02*
X62580Y-38760D01*
X61170Y-38880D02*
X61460Y-38880D01*
X61460Y-38880D02*
X61570Y-38990D01*
X61570Y-38990D02*
X62350Y-38990D01*
X45700Y-37750D02*
X45700Y-38040D01*
X45700Y-38040D02*
X45140Y-38600D01*
X45440Y-37640D02*
X45440Y-37940D01*
X45700Y-37380D02*
X45440Y-37640D01*
X45440Y-37940D02*
X45140Y-38240D01*
X45855Y-34150D02*
X46250Y-34150D01*
X46450Y-33950D02*
X47320Y-33950D01*
X46250Y-34150D02*
X46450Y-33950D01*
X47586Y-24810D02*
X46972Y-25424D01*
X47880Y-24810D02*
X47586Y-24810D01*
X73370Y-36040D02*
X73390Y-36060D01*
X73390Y-36060D02*
X74600Y-36060D01*
X74600Y-36060D02*
X74760Y-36220D01*
X74760Y-36220D02*
X75060Y-36220D01*
X73180Y-36040D02*
X73370Y-36040D01*
X73330Y-35790D02*
X73450Y-35910D01*
X73450Y-35910D02*
X74800Y-35910D01*
X72940Y-35790D02*
X73330Y-35790D01*
X74730Y-35280D02*
X75060Y-35280D01*
X74540Y-35090D02*
X74730Y-35280D01*
X73180Y-35090D02*
X74540Y-35090D01*
X74590Y-34940D02*
X74610Y-34960D01*
X74610Y-34960D02*
X74800Y-34960D01*
X72940Y-34840D02*
X73290Y-34840D01*
X73290Y-34840D02*
X73390Y-34940D01*
X73390Y-34940D02*
X74590Y-34940D01*
X73390Y-34170D02*
X74590Y-34170D01*
X73390Y-34170D02*
X73360Y-34140D01*
X73360Y-34140D02*
X73180Y-34140D01*
X74750Y-34330D02*
X75060Y-34330D01*
X74590Y-34170D02*
X74750Y-34330D01*
X73460Y-34020D02*
X74800Y-34020D01*
X73460Y-34020D02*
X73330Y-33890D01*
X73330Y-33890D02*
X72940Y-33890D01*
X75060Y-33390D02*
X74800Y-33390D01*
X73180Y-33210D02*
X74620Y-33210D01*
X74800Y-33390D02*
X74620Y-33210D01*
X73290Y-32960D02*
X73390Y-33060D01*
X73390Y-33060D02*
X74870Y-33060D01*
X72930Y-32960D02*
X73290Y-32960D01*
X74430Y-32270D02*
X74600Y-32440D01*
X74600Y-32440D02*
X75060Y-32440D01*
X73180Y-32270D02*
X74430Y-32270D01*
X73330Y-32010D02*
X73440Y-32120D01*
X73440Y-32120D02*
X74870Y-32120D01*
X72930Y-32010D02*
X73330Y-32010D01*
X74280Y-31320D02*
X74460Y-31500D01*
X74460Y-31500D02*
X75060Y-31500D01*
X73180Y-31320D02*
X74280Y-31320D01*
X73360Y-31070D02*
X73460Y-31170D01*
X73460Y-31170D02*
X74650Y-31170D01*
X74650Y-31170D02*
X74660Y-31180D01*
X74660Y-31180D02*
X74870Y-31180D01*
X72930Y-31070D02*
X73360Y-31070D01*
X77250Y-42540D02*
X76160Y-42540D01*
X75720Y-42100D02*
X74680Y-42100D01*
X76160Y-42540D02*
X75720Y-42100D01*
X71890Y-46130D02*
X73624Y-46130D01*
X73624Y-46130D02*
X74800Y-47306D01*
X74680Y-42100D02*
X74180Y-42600D01*
X74180Y-43460D02*
X74800Y-44080D01*
X74180Y-42600D02*
X74180Y-43460D01*
G54D25*
X68810Y-44606D02*
X68810Y-45440D01*
X68830Y-45460D02*
X68830Y-46770D01*
X68810Y-45440D02*
X68830Y-45460D01*
X72240Y-44606D02*
X72240Y-44070D01*
X71370Y-44100D02*
X71370Y-44606D01*
X71510Y-43960D02*
X71370Y-44100D01*
X72130Y-43960D02*
X71510Y-43960D01*
X72240Y-44070D02*
X72130Y-43960D01*
X75670Y-44606D02*
X75670Y-44080D01*
X74800Y-44080D02*
X74800Y-44606D01*
X74930Y-43950D02*
X74800Y-44080D01*
X75540Y-43950D02*
X74930Y-43950D01*
X75670Y-44080D02*
X75540Y-43950D01*
X74800Y-44606D02*
X72240Y-44606D01*
X75670Y-44606D02*
X78230Y-44606D01*
X74800Y-47306D02*
X75314Y-47306D01*
X75670Y-46950D02*
X75670Y-44606D01*
X75314Y-47306D02*
X75670Y-46950D01*
X72240Y-47306D02*
X74800Y-47306D01*
G54D24*
X68810Y-44606D02*
X71370Y-44606D01*
X71230Y-42100D02*
X70760Y-42570D01*
X70760Y-42570D02*
X70760Y-43996D01*
X70760Y-43996D02*
X71370Y-44606D01*
X74990Y-35540D02*
X74800Y-35540D01*
X74990Y-35540D02*
X76300Y-36850D01*
X41290Y-40700D02*
X41680Y-41090D01*
X43480Y-41090D02*
X44500Y-40070D01*
X41680Y-41090D02*
X43480Y-41090D01*
X63140Y-37580D02*
X63340Y-37780D01*
X63340Y-37780D02*
X64700Y-37780D01*
X63140Y-37580D02*
X61910Y-37580D01*
G54D25*
X76300Y-36850D02*
X77180Y-36850D01*
X77180Y-36850D02*
X78350Y-35680D01*
X78350Y-35680D02*
X78350Y-27660D01*
X61050Y-25950D02*
X60310Y-25950D01*
X60310Y-25950D02*
X59860Y-25500D01*
X64230Y-25950D02*
X61050Y-25950D01*
X71420Y-27990D02*
X70170Y-27990D01*
X67020Y-26990D02*
X67020Y-27990D01*
X67330Y-26680D02*
X67020Y-26990D01*
X68860Y-26680D02*
X67330Y-26680D01*
X70170Y-27990D02*
X68860Y-26680D01*
X67020Y-27990D02*
X67020Y-28440D01*
G54D24*
X58227Y-28630D02*
X58227Y-28257D01*
X58227Y-28257D02*
X57590Y-27620D01*
X62110Y-28160D02*
X61170Y-28160D01*
X61060Y-28050D02*
X59740Y-28050D01*
X61170Y-28160D02*
X61060Y-28050D01*
G54D26*
X57150Y-28860D02*
X57150Y-28060D01*
X57150Y-28060D02*
X57590Y-27620D01*
X57970Y-30140D02*
X57970Y-29680D01*
X57150Y-28860D02*
X57970Y-29680D01*
G54D24*
X59740Y-28050D02*
X59740Y-28550D01*
X59510Y-29400D02*
X59510Y-28780D01*
X59740Y-28550D02*
X59510Y-28780D01*
X62585Y-43655D02*
X60625Y-43655D01*
X60000Y-41790D02*
X57710Y-41790D01*
X60340Y-42130D02*
X60000Y-41790D01*
X60340Y-43370D02*
X60340Y-42130D01*
X60625Y-43655D02*
X60340Y-43370D01*
X57710Y-41790D02*
X57030Y-41790D01*
X56390Y-42430D02*
X57030Y-41790D01*
X58990Y-39570D02*
X59690Y-39570D01*
X59940Y-39320D02*
X59940Y-37580D01*
X59690Y-39570D02*
X59940Y-39320D01*
G54D25*
X56226Y-24190D02*
X57460Y-24190D01*
X57460Y-24190D02*
X58770Y-25500D01*
X58770Y-25500D02*
X59860Y-25500D01*
X64230Y-25950D02*
X66270Y-27990D01*
X51570Y-28320D02*
X51230Y-28320D01*
X51070Y-25740D02*
X52620Y-24190D01*
X51070Y-28160D02*
X51070Y-25740D01*
X51230Y-28320D02*
X51070Y-28160D01*
G54D24*
X59510Y-29400D02*
X58710Y-29400D01*
X58710Y-29400D02*
X57970Y-30140D01*
X51570Y-28320D02*
X52390Y-28320D01*
X53140Y-28320D02*
X53370Y-28320D01*
X53030Y-28210D02*
X53140Y-28320D01*
X53030Y-27580D02*
X53030Y-28210D01*
X52870Y-27420D02*
X53030Y-27580D01*
X52670Y-27420D02*
X52870Y-27420D01*
X52510Y-27580D02*
X52670Y-27420D01*
X52510Y-28200D02*
X52510Y-27580D01*
X52390Y-28320D02*
X52510Y-28200D01*
G54D26*
X56677Y-25190D02*
X56677Y-27612D01*
X56310Y-27980D02*
X54750Y-27980D01*
X56677Y-27612D02*
X56310Y-27980D01*
G54D25*
X54160Y-30110D02*
X48740Y-30110D01*
X48740Y-30110D02*
X48610Y-30110D01*
X48500Y-30000D02*
X48170Y-30000D01*
X48610Y-30110D02*
X48500Y-30000D01*
G54D26*
X54120Y-38310D02*
X54120Y-37540D01*
X54550Y-37110D02*
X55330Y-37110D01*
X54120Y-37540D02*
X54550Y-37110D01*
G54D24*
X55330Y-31200D02*
X55890Y-31200D01*
X56400Y-30690D02*
X56400Y-30140D01*
X55890Y-31200D02*
X56400Y-30690D01*
G54D26*
X55716Y-23680D02*
X54933Y-23680D01*
X56226Y-24190D02*
X55716Y-23680D01*
X54933Y-23680D02*
X54423Y-24190D01*
X54410Y-28320D02*
X54750Y-27980D01*
X54410Y-28320D02*
X53370Y-28320D01*
G54D24*
X55330Y-32870D02*
X55330Y-37110D01*
X57970Y-32870D02*
X57970Y-33590D01*
X56300Y-36380D02*
X55570Y-37110D01*
X56300Y-35260D02*
X56300Y-36380D01*
X57970Y-33590D02*
X56300Y-35260D01*
X55330Y-32870D02*
X57970Y-32870D01*
X57970Y-30140D02*
X56400Y-30140D01*
X62770Y-31400D02*
X62770Y-30550D01*
X62770Y-30550D02*
X63580Y-29740D01*
G54D26*
X39950Y-33700D02*
X40060Y-33590D01*
X39600Y-33700D02*
X39950Y-33700D01*
X40250Y-33590D02*
X40060Y-33590D01*
X65110Y-29960D02*
X65110Y-29150D01*
G54D25*
X66270Y-27990D02*
X65190Y-29070D01*
G54D26*
X65110Y-29150D02*
X65190Y-29070D01*
G54D25*
X67020Y-27990D02*
X66270Y-27990D01*
G54D26*
X65110Y-29960D02*
X63800Y-29960D01*
X63800Y-29960D02*
X63580Y-29740D01*
G54D24*
X63580Y-29740D02*
X63140Y-29740D01*
X63140Y-29740D02*
X62800Y-29400D01*
X59510Y-29400D02*
X62800Y-29400D01*
G54D26*
X73870Y-28790D02*
X74270Y-28790D01*
X74480Y-28580D02*
X74480Y-28310D01*
X74270Y-28790D02*
X74480Y-28580D01*
G54D25*
X74480Y-28310D02*
X73730Y-28310D01*
X73730Y-28310D02*
X73410Y-27990D01*
X72560Y-27990D02*
X73410Y-27990D01*
X73410Y-27990D02*
X73880Y-27520D01*
X71784Y-21660D02*
X71784Y-22884D01*
X71784Y-22884D02*
X71990Y-23090D01*
X71990Y-23090D02*
X71990Y-27990D01*
X73630Y-22540D02*
X72750Y-21660D01*
X72750Y-21660D02*
X71784Y-21660D01*
X73830Y-26370D02*
X74510Y-26370D01*
X74510Y-26370D02*
X75160Y-27020D01*
X77920Y-24940D02*
X78350Y-25370D01*
X76150Y-24940D02*
X77920Y-24940D01*
X75720Y-25370D02*
X76150Y-24940D01*
X78350Y-25370D02*
X78350Y-27660D01*
X75290Y-24940D02*
X73730Y-24940D01*
X75720Y-25370D02*
X75290Y-24940D01*
X73160Y-23010D02*
X73630Y-22540D01*
X73160Y-24370D02*
X73160Y-23010D01*
X73730Y-24940D02*
X73160Y-24370D01*
X78220Y-23340D02*
X75070Y-23340D01*
X75070Y-23340D02*
X74270Y-22540D01*
X78030Y-22150D02*
X74660Y-22150D01*
X78030Y-22150D02*
X78220Y-21960D01*
X74270Y-22540D02*
X73630Y-22540D01*
X74660Y-22150D02*
X74270Y-22540D01*
X75720Y-25850D02*
X75720Y-25370D01*
G54D24*
X57970Y-30140D02*
X57970Y-32870D01*
G54D26*
X46920Y-34480D02*
X45790Y-34480D01*
X45530Y-34220D02*
X45530Y-32690D01*
X45790Y-34480D02*
X45530Y-34220D01*
X45860Y-37010D02*
X47410Y-37010D01*
X47410Y-37010D02*
X47600Y-37200D01*
G54D24*
X42250Y-44210D02*
X42040Y-44210D01*
X42040Y-44210D02*
X41630Y-44620D01*
G54D26*
X42170Y-30000D02*
X45990Y-30000D01*
X47190Y-31200D02*
X48150Y-31200D01*
X45990Y-30000D02*
X47190Y-31200D01*
X40740Y-30390D02*
X39910Y-30390D01*
X41690Y-30390D02*
X40740Y-30390D01*
G54D24*
X54129Y-45000D02*
X55020Y-45000D01*
X56390Y-43630D02*
X56390Y-42430D01*
X55020Y-45000D02*
X56390Y-43630D01*
X55080Y-42300D02*
X55080Y-41890D01*
X56390Y-42430D02*
X55210Y-42430D01*
X55210Y-42430D02*
X55080Y-42300D01*
G54D25*
X62780Y-46770D02*
X61490Y-46770D01*
X61215Y-46495D02*
X61215Y-45355D01*
X61490Y-46770D02*
X61215Y-46495D01*
X49240Y-41800D02*
X49650Y-42210D01*
X49650Y-42210D02*
X49650Y-42470D01*
X49650Y-42470D02*
X49940Y-42760D01*
G54D24*
X52380Y-41200D02*
X52380Y-41890D01*
X52380Y-41200D02*
X51940Y-40760D01*
X55740Y-37880D02*
X55740Y-39350D01*
X56040Y-37580D02*
X55740Y-37880D01*
X55740Y-39350D02*
X55540Y-39550D01*
X55540Y-39550D02*
X55540Y-40680D01*
X55080Y-41890D02*
X55080Y-41140D01*
X55540Y-40680D02*
X55080Y-41140D01*
X39600Y-40700D02*
X41290Y-40700D01*
X42934Y-39510D02*
X43182Y-39262D01*
X42920Y-39510D02*
X42934Y-39510D01*
X42620Y-39810D02*
X42920Y-39510D01*
X42180Y-39810D02*
X42620Y-39810D01*
X41290Y-40700D02*
X42180Y-39810D01*
G54D26*
X47910Y-38100D02*
X47060Y-38100D01*
X47060Y-38100D02*
X46960Y-38200D01*
X46960Y-38200D02*
X46600Y-38200D01*
G54D24*
X39600Y-40700D02*
X39600Y-42500D01*
X39600Y-42500D02*
X39930Y-42830D01*
G54D26*
X45530Y-32690D02*
X44730Y-32690D01*
X44730Y-32690D02*
X43280Y-34140D01*
X46100Y-31740D02*
X47300Y-31740D01*
X47300Y-31740D02*
X47340Y-31700D01*
X47340Y-31700D02*
X47600Y-31700D01*
X41690Y-30390D02*
X42000Y-30390D01*
X42170Y-30220D02*
X42170Y-30000D01*
X42000Y-30390D02*
X42170Y-30220D01*
G54D24*
X42400Y-36840D02*
X41460Y-36840D01*
X40280Y-36510D02*
X40280Y-36700D01*
X40460Y-36330D02*
X40280Y-36510D01*
X40950Y-36330D02*
X40460Y-36330D01*
X41460Y-36840D02*
X40950Y-36330D01*
G54D26*
X39600Y-36700D02*
X40280Y-36700D01*
X39910Y-30390D02*
X39600Y-30700D01*
G54D24*
X43280Y-34140D02*
X41440Y-34140D01*
X41440Y-34140D02*
X40890Y-33590D01*
X40890Y-33590D02*
X40250Y-33590D01*
G54D26*
X40250Y-33110D02*
X40250Y-33590D01*
G54D25*
X46100Y-38140D02*
X46320Y-38140D01*
X46320Y-38140D02*
X46380Y-38200D01*
X46380Y-38200D02*
X46600Y-38200D01*
X74480Y-28310D02*
X74480Y-27700D01*
X75160Y-27020D02*
X75720Y-27020D01*
X74480Y-27700D02*
X75160Y-27020D01*
G54D26*
X62585Y-43655D02*
X62585Y-44435D01*
X62585Y-44435D02*
X61665Y-45355D01*
X61665Y-45355D02*
X61215Y-45355D01*
G54D24*
X62755Y-43205D02*
X62755Y-43485D01*
X62755Y-43485D02*
X62585Y-43655D01*
X39930Y-44020D02*
X39930Y-42830D01*
X39930Y-44020D02*
X40530Y-44620D01*
X40530Y-44620D02*
X41630Y-44620D01*
X41630Y-44620D02*
X44060Y-47050D01*
X54129Y-45000D02*
X53100Y-45000D01*
X47330Y-46480D02*
X46540Y-47270D01*
X51620Y-46480D02*
X47330Y-46480D01*
X53100Y-45000D02*
X51620Y-46480D01*
X44280Y-47270D02*
X44060Y-47050D01*
X46540Y-47270D02*
X44280Y-47270D01*
X55080Y-41890D02*
X53730Y-41890D01*
X53730Y-41890D02*
X52380Y-41890D01*
X55330Y-37110D02*
X55570Y-37110D01*
X55570Y-37110D02*
X56040Y-37580D01*
X56040Y-37580D02*
X59940Y-37580D01*
X59940Y-37580D02*
X60670Y-37580D01*
X61020Y-37230D02*
X61910Y-37230D01*
X60670Y-37580D02*
X61020Y-37230D01*
X62780Y-34740D02*
X62550Y-34740D01*
X61910Y-35380D02*
X61910Y-37230D01*
X61910Y-37230D02*
X61910Y-37580D01*
X62550Y-34740D02*
X61910Y-35380D01*
G54D26*
X47650Y-27000D02*
X47650Y-29480D01*
X47650Y-29480D02*
X48170Y-30000D01*
X47650Y-27000D02*
X42690Y-27000D01*
G54D25*
X46100Y-31740D02*
X46100Y-32120D01*
X46100Y-32120D02*
X45530Y-32690D01*
G54D24*
X46100Y-31740D02*
X45480Y-31740D01*
X45480Y-31740D02*
X45210Y-32010D01*
X46280Y-43800D02*
X46280Y-42460D01*
X47980Y-42740D02*
X47980Y-43800D01*
X45640Y-46090D02*
X45640Y-45690D01*
X44180Y-43340D02*
X43580Y-42740D01*
X44280Y-43340D02*
X44180Y-43340D01*
X45000Y-44060D02*
X44280Y-43340D01*
X45000Y-45050D02*
X45000Y-44060D01*
X45640Y-45690D02*
X45000Y-45050D01*
X47010Y-42740D02*
X47010Y-43800D01*
X44740Y-45960D02*
X44740Y-44160D01*
X44740Y-44160D02*
X44380Y-43800D01*
X45510Y-43800D02*
X45510Y-42740D01*
X41280Y-43590D02*
X41110Y-43760D01*
X41110Y-43760D02*
X41110Y-44030D01*
X41280Y-43390D02*
X41280Y-43590D01*
X41080Y-37120D02*
X40680Y-36720D01*
X42740Y-40810D02*
X43270Y-40810D01*
X44790Y-39290D02*
X44790Y-37750D01*
X43270Y-40810D02*
X44790Y-39290D01*
X43040Y-38030D02*
X43040Y-38510D01*
X43040Y-38510D02*
X42240Y-39310D01*
X43290Y-37750D02*
X43290Y-38760D01*
X43290Y-38760D02*
X42490Y-39560D01*
X43790Y-37750D02*
X43790Y-39010D01*
X43790Y-39010D02*
X42990Y-39810D01*
X44040Y-38030D02*
X44040Y-39140D01*
X43120Y-40060D02*
X42490Y-40060D01*
X44040Y-39140D02*
X43120Y-40060D01*
X44290Y-37750D02*
X44290Y-39190D01*
X43170Y-40310D02*
X42740Y-40310D01*
X44290Y-39190D02*
X43170Y-40310D01*
X44540Y-38030D02*
X44540Y-39250D01*
X43230Y-40560D02*
X42490Y-40560D01*
X44540Y-39250D02*
X43230Y-40560D01*
X43540Y-38030D02*
X43540Y-37640D01*
X41820Y-39810D02*
X41220Y-40410D01*
X41820Y-38860D02*
X41820Y-39810D01*
X43180Y-37500D02*
X41820Y-38860D01*
X43400Y-37500D02*
X43180Y-37500D01*
X43540Y-37640D02*
X43400Y-37500D01*
X44450Y-44580D02*
X43240Y-44580D01*
X43240Y-44580D02*
X42810Y-45010D01*
G54D26*
X41180Y-26340D02*
X42458Y-26340D01*
X42458Y-26340D02*
X43374Y-25424D01*
G54D24*
X53330Y-42950D02*
X53510Y-42950D01*
X54129Y-42952D02*
X53512Y-42952D01*
X53510Y-42950D02*
X53512Y-42952D01*
X54800Y-43210D02*
X54640Y-43210D01*
X54638Y-43208D02*
X54129Y-43208D01*
X54640Y-43210D02*
X54638Y-43208D01*
X53261Y-44488D02*
X51660Y-46090D01*
X51660Y-46090D02*
X46280Y-46090D01*
X54129Y-44488D02*
X53261Y-44488D01*
X54970Y-42700D02*
X54720Y-42700D01*
X54716Y-42696D02*
X54129Y-42696D01*
X54720Y-42700D02*
X54716Y-42696D01*
X53273Y-43976D02*
X51480Y-45770D01*
X54129Y-43976D02*
X53273Y-43976D01*
X51480Y-45770D02*
X47550Y-45770D01*
X54129Y-43464D02*
X52955Y-43464D01*
X46020Y-44760D02*
X45770Y-45010D01*
X51660Y-44760D02*
X46020Y-44760D01*
X52955Y-43464D02*
X51660Y-44760D01*
X53109Y-43720D02*
X51820Y-45010D01*
X51820Y-45010D02*
X46540Y-45010D01*
X54129Y-43720D02*
X53109Y-43720D01*
X53620Y-45770D02*
X53622Y-45767D01*
X53622Y-45767D02*
X54129Y-45767D01*
X53460Y-45770D02*
X53620Y-45770D01*
X54640Y-46280D02*
X54639Y-46279D01*
X54639Y-46279D02*
X54129Y-46279D01*
X54800Y-46280D02*
X54640Y-46280D01*
X53200Y-45510D02*
X53490Y-45510D01*
X53491Y-45511D02*
X54129Y-45511D01*
X53490Y-45510D02*
X53491Y-45511D01*
X55060Y-46020D02*
X54780Y-46020D01*
X54776Y-46023D02*
X54129Y-46023D01*
X54780Y-46020D02*
X54776Y-46023D01*
X61870Y-39640D02*
X60140Y-41370D01*
X58490Y-41370D02*
X60140Y-41370D01*
X57080Y-37330D02*
X60190Y-37330D01*
X59950Y-40860D02*
X61170Y-39640D01*
X61565Y-38415D02*
X61850Y-38700D01*
X61565Y-37580D02*
X61565Y-38415D01*
X58490Y-40860D02*
X59950Y-40860D01*
X59860Y-40600D02*
X61170Y-39290D01*
X58240Y-40600D02*
X59860Y-40600D01*
X56940Y-37080D02*
X56690Y-37330D01*
X59940Y-37080D02*
X56940Y-37080D01*
X61870Y-39290D02*
X60040Y-41120D01*
X58240Y-41120D02*
X60040Y-41120D01*
X51910Y-32870D02*
X52280Y-32870D01*
X52280Y-32870D02*
X56000Y-29150D01*
X52550Y-33390D02*
X55800Y-30140D01*
X51910Y-33390D02*
X52550Y-33390D01*
X56570Y-30790D02*
X56570Y-30620D01*
X56570Y-30620D02*
X56790Y-30400D01*
X56570Y-30790D02*
X54250Y-33110D01*
X52690Y-33650D02*
X51650Y-33650D01*
X52690Y-33650D02*
X55050Y-31290D01*
X55050Y-31290D02*
X55050Y-31120D01*
X55050Y-31120D02*
X55340Y-30830D01*
X55340Y-30830D02*
X55670Y-30830D01*
X55670Y-30830D02*
X56100Y-30400D01*
X51650Y-32610D02*
X52150Y-32610D01*
X52150Y-32610D02*
X55610Y-29150D01*
X56090Y-29650D02*
X55910Y-29650D01*
X56590Y-29150D02*
X56090Y-29650D01*
X52430Y-33130D02*
X51650Y-33130D01*
X55910Y-29650D02*
X52430Y-33130D01*
X44090Y-45540D02*
X43560Y-45010D01*
X56040Y-28640D02*
X56660Y-28020D01*
X52940Y-28640D02*
X52770Y-28470D01*
X52770Y-28470D02*
X52770Y-27680D01*
X52940Y-28640D02*
X56040Y-28640D01*
G54D10*
G36*
X43640Y-38947D02*
X43027Y-39560D01*
X42940Y-39559D01*
X42848Y-39597D01*
X42778Y-39668D01*
X42740Y-39760D01*
X42739Y-39859D01*
X42760Y-39910D01*
X42693Y-39910D01*
X42631Y-39848D01*
X42539Y-39810D01*
X42539Y-39810D01*
X42631Y-39772D01*
X42701Y-39701D01*
X42739Y-39609D01*
X42740Y-39522D01*
X43396Y-38866D01*
X43428Y-38817D01*
X43428Y-38817D01*
X43440Y-38760D01*
X43440Y-38259D01*
X43490Y-38279D01*
X43589Y-38280D01*
X43640Y-38259D01*
X43640Y-38947D01*
X43640Y-38947D01*
G37*
G54D27*
X43640Y-38947D02*
X43027Y-39560D01*
X42940Y-39559D01*
X42848Y-39597D01*
X42778Y-39668D01*
X42740Y-39760D01*
X42739Y-39859D01*
X42760Y-39910D01*
X42693Y-39910D01*
X42631Y-39848D01*
X42539Y-39810D01*
X42539Y-39810D01*
X42631Y-39772D01*
X42701Y-39701D01*
X42739Y-39609D01*
X42740Y-39522D01*
X43396Y-38866D01*
X43428Y-38817D01*
X43428Y-38817D01*
X43440Y-38760D01*
X43440Y-38259D01*
X43490Y-38279D01*
X43589Y-38280D01*
X43640Y-38259D01*
X43640Y-38947D01*
G54D10*
G36*
X78600Y-46517D02*
X78495Y-46262D01*
X78481Y-46248D01*
X78481Y-44956D01*
X78230Y-44704D01*
X78131Y-44803D01*
X78131Y-44606D01*
X77879Y-44354D01*
X77826Y-44399D01*
X77778Y-44569D01*
X77798Y-44745D01*
X77826Y-44812D01*
X77879Y-44857D01*
X78131Y-44606D01*
X78131Y-44803D01*
X77978Y-44956D01*
X78023Y-45009D01*
X78193Y-45057D01*
X78369Y-45037D01*
X78436Y-45009D01*
X78481Y-44956D01*
X78481Y-46248D01*
X78187Y-45954D01*
X77785Y-45787D01*
X77350Y-45787D01*
X76947Y-45953D01*
X76639Y-46261D01*
X76472Y-46663D01*
X76472Y-47098D01*
X76638Y-47500D01*
X76946Y-47809D01*
X77144Y-47891D01*
X76121Y-47891D01*
X76121Y-44642D01*
X76101Y-44466D01*
X76073Y-44399D01*
X76020Y-44354D01*
X75921Y-44453D01*
X75921Y-44255D01*
X75876Y-44202D01*
X75706Y-44154D01*
X75530Y-44174D01*
X75463Y-44202D01*
X75418Y-44255D01*
X75670Y-44507D01*
X75921Y-44255D01*
X75921Y-44453D01*
X75768Y-44606D01*
X76020Y-44857D01*
X76073Y-44812D01*
X76121Y-44642D01*
X76121Y-47891D01*
X75921Y-47891D01*
X75921Y-44956D01*
X75670Y-44704D01*
X75571Y-44803D01*
X75571Y-44606D01*
X75319Y-44354D01*
X75266Y-44399D01*
X75235Y-44507D01*
X75231Y-44466D01*
X75203Y-44399D01*
X75150Y-44354D01*
X75051Y-44453D01*
X75051Y-44255D01*
X75006Y-44202D01*
X74836Y-44154D01*
X74660Y-44174D01*
X74593Y-44202D01*
X74548Y-44255D01*
X74800Y-44507D01*
X75051Y-44255D01*
X75051Y-44453D01*
X74898Y-44606D01*
X75150Y-44857D01*
X75203Y-44812D01*
X75234Y-44704D01*
X75238Y-44745D01*
X75266Y-44812D01*
X75319Y-44857D01*
X75571Y-44606D01*
X75571Y-44803D01*
X75418Y-44956D01*
X75463Y-45009D01*
X75633Y-45057D01*
X75809Y-45037D01*
X75876Y-45009D01*
X75921Y-44956D01*
X75921Y-47891D01*
X75264Y-47891D01*
X75264Y-45442D01*
X75194Y-45271D01*
X75063Y-45140D01*
X75051Y-45135D01*
X75051Y-44956D01*
X74800Y-44704D01*
X74701Y-44803D01*
X74701Y-44606D01*
X74449Y-44354D01*
X74396Y-44399D01*
X74348Y-44569D01*
X74368Y-44745D01*
X74396Y-44812D01*
X74449Y-44857D01*
X74701Y-44606D01*
X74701Y-44803D01*
X74548Y-44956D01*
X74593Y-45009D01*
X74763Y-45057D01*
X74939Y-45037D01*
X75006Y-45009D01*
X75051Y-44956D01*
X75051Y-45135D01*
X74892Y-45069D01*
X74708Y-45069D01*
X74537Y-45139D01*
X74406Y-45270D01*
X74335Y-45441D01*
X74335Y-45625D01*
X74405Y-45796D01*
X74536Y-45927D01*
X74707Y-45998D01*
X74891Y-45998D01*
X75062Y-45928D01*
X75193Y-45797D01*
X75264Y-45626D01*
X75264Y-45442D01*
X75264Y-47891D01*
X75251Y-47891D01*
X75251Y-47342D01*
X75231Y-47166D01*
X75203Y-47099D01*
X75150Y-47054D01*
X75051Y-47153D01*
X75051Y-46955D01*
X75006Y-46902D01*
X74836Y-46854D01*
X74660Y-46874D01*
X74593Y-46902D01*
X74548Y-46955D01*
X74800Y-47207D01*
X75051Y-46955D01*
X75051Y-47153D01*
X74898Y-47306D01*
X75150Y-47557D01*
X75203Y-47512D01*
X75251Y-47342D01*
X75251Y-47891D01*
X75051Y-47891D01*
X75051Y-47656D01*
X74800Y-47404D01*
X74701Y-47503D01*
X74701Y-47306D01*
X74449Y-47054D01*
X74396Y-47099D01*
X74348Y-47269D01*
X74368Y-47445D01*
X74396Y-47512D01*
X74449Y-47557D01*
X74701Y-47306D01*
X74701Y-47503D01*
X74548Y-47656D01*
X74593Y-47709D01*
X74763Y-47757D01*
X74939Y-47737D01*
X75006Y-47709D01*
X75051Y-47656D01*
X75051Y-47891D01*
X73060Y-47891D01*
X73060Y-43100D01*
X73022Y-43008D01*
X72960Y-42946D01*
X72960Y-42340D01*
X72960Y-42340D01*
X72960Y-42340D01*
X72948Y-42282D01*
X72916Y-42233D01*
X72916Y-42233D01*
X72916Y-42233D01*
X72676Y-41993D01*
X72627Y-41961D01*
X72586Y-41953D01*
X72521Y-41888D01*
X72429Y-41850D01*
X72330Y-41849D01*
X72238Y-41887D01*
X72168Y-41958D01*
X72130Y-42050D01*
X72129Y-42149D01*
X72167Y-42241D01*
X72238Y-42311D01*
X72330Y-42349D01*
X72429Y-42350D01*
X72521Y-42312D01*
X72545Y-42287D01*
X72660Y-42402D01*
X72660Y-42634D01*
X72634Y-42571D01*
X72503Y-42440D01*
X72332Y-42369D01*
X72148Y-42369D01*
X71977Y-42439D01*
X71846Y-42570D01*
X71804Y-42670D01*
X71764Y-42571D01*
X71633Y-42440D01*
X71462Y-42369D01*
X71278Y-42369D01*
X71107Y-42439D01*
X70976Y-42570D01*
X70905Y-42741D01*
X70905Y-42925D01*
X70975Y-43096D01*
X71106Y-43227D01*
X71277Y-43298D01*
X71461Y-43298D01*
X71632Y-43228D01*
X71763Y-43097D01*
X71805Y-42997D01*
X71845Y-43096D01*
X71976Y-43227D01*
X72147Y-43298D01*
X72331Y-43298D01*
X72502Y-43228D01*
X72559Y-43170D01*
X72559Y-43199D01*
X72597Y-43291D01*
X72668Y-43361D01*
X72760Y-43399D01*
X72859Y-43400D01*
X72951Y-43362D01*
X73021Y-43291D01*
X73059Y-43199D01*
X73060Y-43100D01*
X73060Y-47891D01*
X72704Y-47891D01*
X72704Y-45442D01*
X72691Y-45410D01*
X72691Y-44642D01*
X72671Y-44466D01*
X72643Y-44399D01*
X72590Y-44354D01*
X72491Y-44453D01*
X72491Y-44255D01*
X72446Y-44202D01*
X72276Y-44154D01*
X72100Y-44174D01*
X72033Y-44202D01*
X71988Y-44255D01*
X72240Y-44507D01*
X72491Y-44255D01*
X72491Y-44453D01*
X72338Y-44606D01*
X72590Y-44857D01*
X72643Y-44812D01*
X72691Y-44642D01*
X72691Y-45410D01*
X72634Y-45271D01*
X72503Y-45140D01*
X72491Y-45135D01*
X72491Y-44956D01*
X72240Y-44704D01*
X72141Y-44803D01*
X72141Y-44606D01*
X71889Y-44354D01*
X71836Y-44399D01*
X71805Y-44507D01*
X71801Y-44466D01*
X71773Y-44399D01*
X71720Y-44354D01*
X71621Y-44453D01*
X71621Y-44255D01*
X71576Y-44202D01*
X71406Y-44154D01*
X71230Y-44174D01*
X71163Y-44202D01*
X71118Y-44255D01*
X71370Y-44507D01*
X71621Y-44255D01*
X71621Y-44453D01*
X71468Y-44606D01*
X71720Y-44857D01*
X71773Y-44812D01*
X71804Y-44704D01*
X71808Y-44745D01*
X71836Y-44812D01*
X71889Y-44857D01*
X72141Y-44606D01*
X72141Y-44803D01*
X71988Y-44956D01*
X72033Y-45009D01*
X72203Y-45057D01*
X72379Y-45037D01*
X72446Y-45009D01*
X72491Y-44956D01*
X72491Y-45135D01*
X72332Y-45069D01*
X72148Y-45069D01*
X71977Y-45139D01*
X71846Y-45270D01*
X71775Y-45441D01*
X71775Y-45625D01*
X71845Y-45796D01*
X71976Y-45927D01*
X72147Y-45998D01*
X72331Y-45998D01*
X72502Y-45928D01*
X72633Y-45797D01*
X72704Y-45626D01*
X72704Y-45442D01*
X72704Y-47891D01*
X72691Y-47891D01*
X72691Y-47342D01*
X72671Y-47166D01*
X72643Y-47099D01*
X72590Y-47054D01*
X72491Y-47153D01*
X72491Y-46955D01*
X72446Y-46902D01*
X72276Y-46854D01*
X72100Y-46874D01*
X72033Y-46902D01*
X71988Y-46955D01*
X72240Y-47207D01*
X72491Y-46955D01*
X72491Y-47153D01*
X72338Y-47306D01*
X72590Y-47557D01*
X72643Y-47512D01*
X72691Y-47342D01*
X72691Y-47891D01*
X72491Y-47891D01*
X72491Y-47656D01*
X72240Y-47404D01*
X72141Y-47503D01*
X72141Y-47306D01*
X71889Y-47054D01*
X71836Y-47099D01*
X71788Y-47269D01*
X71808Y-47445D01*
X71836Y-47512D01*
X71889Y-47557D01*
X72141Y-47306D01*
X72141Y-47503D01*
X71988Y-47656D01*
X72033Y-47709D01*
X72203Y-47757D01*
X72379Y-47737D01*
X72446Y-47709D01*
X72491Y-47656D01*
X72491Y-47891D01*
X71621Y-47891D01*
X71621Y-44956D01*
X71370Y-44704D01*
X71271Y-44803D01*
X71271Y-44606D01*
X71019Y-44354D01*
X70966Y-44399D01*
X70918Y-44569D01*
X70938Y-44745D01*
X70966Y-44812D01*
X71019Y-44857D01*
X71271Y-44606D01*
X71271Y-44803D01*
X71118Y-44956D01*
X71163Y-45009D01*
X71333Y-45057D01*
X71509Y-45037D01*
X71576Y-45009D01*
X71621Y-44956D01*
X71621Y-47891D01*
X69274Y-47891D01*
X69274Y-42742D01*
X69204Y-42571D01*
X69073Y-42440D01*
X68902Y-42369D01*
X68718Y-42369D01*
X68547Y-42439D01*
X68416Y-42570D01*
X68345Y-42741D01*
X68345Y-42925D01*
X68415Y-43096D01*
X68546Y-43227D01*
X68717Y-43298D01*
X68901Y-43298D01*
X69072Y-43228D01*
X69203Y-43097D01*
X69274Y-42926D01*
X69274Y-42742D01*
X69274Y-47891D01*
X69261Y-47891D01*
X69261Y-44642D01*
X69241Y-44466D01*
X69213Y-44399D01*
X69160Y-44354D01*
X69061Y-44453D01*
X69061Y-44255D01*
X69016Y-44202D01*
X68846Y-44154D01*
X68670Y-44174D01*
X68603Y-44202D01*
X68558Y-44255D01*
X68810Y-44507D01*
X69061Y-44255D01*
X69061Y-44453D01*
X68908Y-44606D01*
X69160Y-44857D01*
X69213Y-44812D01*
X69261Y-44642D01*
X69261Y-47891D01*
X69061Y-47891D01*
X69061Y-44956D01*
X68810Y-44704D01*
X68711Y-44803D01*
X68711Y-44606D01*
X68459Y-44354D01*
X68406Y-44399D01*
X68358Y-44569D01*
X68378Y-44745D01*
X68406Y-44812D01*
X68459Y-44857D01*
X68711Y-44606D01*
X68711Y-44803D01*
X68558Y-44956D01*
X68603Y-45009D01*
X68773Y-45057D01*
X68949Y-45037D01*
X69016Y-45009D01*
X69061Y-44956D01*
X69061Y-47891D01*
X67690Y-47891D01*
X67690Y-29040D01*
X67652Y-28948D01*
X67630Y-28926D01*
X67630Y-27333D01*
X67651Y-27311D01*
X67689Y-27219D01*
X67690Y-27120D01*
X67652Y-27028D01*
X67581Y-26958D01*
X67489Y-26920D01*
X67390Y-26919D01*
X67298Y-26957D01*
X67228Y-27028D01*
X67190Y-27120D01*
X67189Y-27219D01*
X67227Y-27311D01*
X67250Y-27333D01*
X67250Y-28926D01*
X67228Y-28948D01*
X67190Y-29040D01*
X67189Y-29139D01*
X67227Y-29231D01*
X67298Y-29301D01*
X67390Y-29339D01*
X67489Y-29340D01*
X67581Y-29302D01*
X67651Y-29231D01*
X67689Y-29139D01*
X67690Y-29040D01*
X67690Y-47891D01*
X65525Y-47891D01*
X65525Y-27483D01*
X65467Y-27341D01*
X65358Y-27233D01*
X65217Y-27174D01*
X65063Y-27174D01*
X64921Y-27232D01*
X64813Y-27341D01*
X64754Y-27482D01*
X64754Y-27636D01*
X64812Y-27778D01*
X64921Y-27886D01*
X65062Y-27945D01*
X65216Y-27945D01*
X65358Y-27887D01*
X65466Y-27778D01*
X65525Y-27637D01*
X65525Y-27483D01*
X65525Y-47891D01*
X64480Y-47891D01*
X64480Y-39547D01*
X64480Y-27736D01*
X64314Y-27333D01*
X64006Y-27025D01*
X63604Y-26858D01*
X63169Y-26858D01*
X62766Y-27024D01*
X62458Y-27332D01*
X62291Y-27734D01*
X62291Y-28169D01*
X62457Y-28571D01*
X62765Y-28879D01*
X63167Y-29046D01*
X63602Y-29047D01*
X64004Y-28880D01*
X64312Y-28573D01*
X64479Y-28171D01*
X64480Y-27736D01*
X64480Y-39547D01*
X64314Y-39144D01*
X64006Y-38836D01*
X63604Y-38669D01*
X63169Y-38669D01*
X63020Y-38730D01*
X63020Y-34100D01*
X62982Y-34008D01*
X62920Y-33946D01*
X62920Y-32193D01*
X62981Y-32131D01*
X63019Y-32039D01*
X63020Y-31940D01*
X62982Y-31848D01*
X62911Y-31778D01*
X62819Y-31740D01*
X62720Y-31739D01*
X62628Y-31777D01*
X62558Y-31848D01*
X62520Y-31940D01*
X62519Y-32039D01*
X62557Y-32131D01*
X62620Y-32193D01*
X62620Y-33946D01*
X62558Y-34008D01*
X62520Y-34100D01*
X62519Y-34199D01*
X62557Y-34291D01*
X62628Y-34361D01*
X62720Y-34399D01*
X62819Y-34400D01*
X62911Y-34362D01*
X62981Y-34291D01*
X63019Y-34199D01*
X63020Y-34100D01*
X63020Y-38730D01*
X62829Y-38809D01*
X62830Y-38710D01*
X62792Y-38618D01*
X62721Y-38548D01*
X62629Y-38510D01*
X62530Y-38509D01*
X62438Y-38547D01*
X62368Y-38618D01*
X62330Y-38710D01*
X62329Y-38797D01*
X62287Y-38840D01*
X62062Y-38840D01*
X62099Y-38749D01*
X62100Y-38650D01*
X62062Y-38558D01*
X61991Y-38488D01*
X61899Y-38450D01*
X61812Y-38449D01*
X61715Y-38352D01*
X61715Y-37783D01*
X61776Y-37721D01*
X61814Y-37629D01*
X61815Y-37530D01*
X61777Y-37438D01*
X61706Y-37368D01*
X61614Y-37330D01*
X61515Y-37329D01*
X61423Y-37367D01*
X61353Y-37438D01*
X61315Y-37530D01*
X61314Y-37629D01*
X61352Y-37721D01*
X61415Y-37783D01*
X61415Y-38415D01*
X61426Y-38472D01*
X61458Y-38521D01*
X61600Y-38662D01*
X61599Y-38749D01*
X61637Y-38840D01*
X61632Y-38840D01*
X61566Y-38773D01*
X61517Y-38741D01*
X61460Y-38730D01*
X61373Y-38730D01*
X61311Y-38668D01*
X61219Y-38630D01*
X61120Y-38629D01*
X61028Y-38667D01*
X60958Y-38738D01*
X60920Y-38830D01*
X60919Y-38929D01*
X60957Y-39021D01*
X61021Y-39085D01*
X60958Y-39148D01*
X60920Y-39240D01*
X60919Y-39327D01*
X60780Y-39467D01*
X60780Y-26610D01*
X60742Y-26518D01*
X60671Y-26448D01*
X60606Y-26421D01*
X60606Y-24009D01*
X60468Y-23675D01*
X60212Y-23418D01*
X59878Y-23280D01*
X59516Y-23279D01*
X59181Y-23418D01*
X58925Y-23673D01*
X58786Y-24008D01*
X58786Y-24370D01*
X58924Y-24704D01*
X59180Y-24961D01*
X59514Y-25099D01*
X59876Y-25100D01*
X60211Y-24961D01*
X60467Y-24706D01*
X60606Y-24371D01*
X60606Y-24009D01*
X60606Y-26421D01*
X60579Y-26410D01*
X60480Y-26409D01*
X60388Y-26447D01*
X60318Y-26518D01*
X60280Y-26610D01*
X60280Y-26641D01*
X59541Y-27379D01*
X59510Y-27379D01*
X59418Y-27417D01*
X59348Y-27488D01*
X59310Y-27580D01*
X59309Y-27679D01*
X59347Y-27771D01*
X59418Y-27841D01*
X59510Y-27879D01*
X59609Y-27880D01*
X59701Y-27842D01*
X59771Y-27771D01*
X59809Y-27679D01*
X59809Y-27648D01*
X60548Y-26910D01*
X60579Y-26910D01*
X60671Y-26872D01*
X60741Y-26801D01*
X60779Y-26709D01*
X60780Y-26610D01*
X60780Y-39467D01*
X60440Y-39807D01*
X60440Y-37280D01*
X60402Y-37188D01*
X60331Y-37118D01*
X60239Y-37080D01*
X60189Y-37080D01*
X60190Y-37030D01*
X60152Y-36938D01*
X60081Y-36868D01*
X59989Y-36830D01*
X59890Y-36829D01*
X59798Y-36867D01*
X59736Y-36930D01*
X58575Y-36930D01*
X58599Y-36869D01*
X58600Y-36770D01*
X58562Y-36678D01*
X58491Y-36608D01*
X58399Y-36570D01*
X58300Y-36569D01*
X58208Y-36607D01*
X58146Y-36670D01*
X57880Y-36670D01*
X57880Y-35700D01*
X57842Y-35608D01*
X57780Y-35546D01*
X57780Y-35073D01*
X57841Y-35011D01*
X57879Y-34919D01*
X57880Y-34820D01*
X57842Y-34728D01*
X57771Y-34658D01*
X57679Y-34620D01*
X57580Y-34619D01*
X57488Y-34657D01*
X57418Y-34728D01*
X57380Y-34820D01*
X57379Y-34919D01*
X57417Y-35011D01*
X57480Y-35073D01*
X57480Y-35546D01*
X57426Y-35600D01*
X57390Y-35600D01*
X57332Y-35611D01*
X57283Y-35643D01*
X57270Y-35657D01*
X57241Y-35628D01*
X57149Y-35590D01*
X57102Y-35590D01*
X57102Y-23105D01*
X57037Y-22949D01*
X56918Y-22829D01*
X56762Y-22765D01*
X56592Y-22764D01*
X56436Y-22829D01*
X56317Y-22948D01*
X56252Y-23105D01*
X56252Y-23274D01*
X56316Y-23430D01*
X56436Y-23550D01*
X56592Y-23614D01*
X56761Y-23615D01*
X56917Y-23550D01*
X57037Y-23431D01*
X57102Y-23274D01*
X57102Y-23105D01*
X57102Y-35590D01*
X57089Y-35589D01*
X57089Y-25216D01*
X57068Y-25057D01*
X57047Y-25007D01*
X56998Y-24967D01*
X56899Y-25066D01*
X56899Y-24868D01*
X56859Y-24819D01*
X56704Y-24777D01*
X56638Y-24786D01*
X56638Y-24216D01*
X56617Y-24057D01*
X56596Y-24007D01*
X56547Y-23967D01*
X56448Y-24066D01*
X56448Y-23868D01*
X56408Y-23819D01*
X56253Y-23777D01*
X56200Y-23784D01*
X56200Y-23105D01*
X56136Y-22949D01*
X56016Y-22829D01*
X55860Y-22765D01*
X55691Y-22764D01*
X55535Y-22829D01*
X55415Y-22948D01*
X55350Y-23105D01*
X55350Y-23274D01*
X55415Y-23430D01*
X55534Y-23550D01*
X55690Y-23614D01*
X55859Y-23615D01*
X56016Y-23550D01*
X56135Y-23431D01*
X56200Y-23274D01*
X56200Y-23105D01*
X56200Y-23784D01*
X56093Y-23799D01*
X56043Y-23819D01*
X56004Y-23868D01*
X56226Y-24091D01*
X56448Y-23868D01*
X56448Y-24066D01*
X56325Y-24190D01*
X56547Y-24412D01*
X56596Y-24372D01*
X56638Y-24216D01*
X56638Y-24786D01*
X56544Y-24799D01*
X56494Y-24819D01*
X56455Y-24868D01*
X56677Y-25091D01*
X56899Y-24868D01*
X56899Y-25066D01*
X56776Y-25190D01*
X56998Y-25412D01*
X57047Y-25372D01*
X57089Y-25216D01*
X57089Y-35589D01*
X57050Y-35589D01*
X57040Y-35594D01*
X57040Y-30350D01*
X57002Y-30258D01*
X56931Y-30188D01*
X56910Y-30179D01*
X56910Y-27970D01*
X56899Y-27944D01*
X56899Y-25511D01*
X56677Y-25288D01*
X56578Y-25387D01*
X56578Y-25190D01*
X56448Y-25060D01*
X56448Y-24511D01*
X56226Y-24288D01*
X56127Y-24387D01*
X56127Y-24190D01*
X55905Y-23967D01*
X55855Y-24007D01*
X55814Y-24163D01*
X55835Y-24322D01*
X55855Y-24372D01*
X55905Y-24412D01*
X56127Y-24190D01*
X56127Y-24387D01*
X56004Y-24511D01*
X56043Y-24560D01*
X56199Y-24602D01*
X56359Y-24580D01*
X56408Y-24560D01*
X56448Y-24511D01*
X56448Y-25060D01*
X56356Y-24967D01*
X56306Y-25007D01*
X56265Y-25163D01*
X56286Y-25322D01*
X56306Y-25372D01*
X56356Y-25412D01*
X56578Y-25190D01*
X56578Y-25387D01*
X56455Y-25511D01*
X56494Y-25560D01*
X56650Y-25602D01*
X56809Y-25580D01*
X56859Y-25560D01*
X56899Y-25511D01*
X56899Y-27944D01*
X56872Y-27878D01*
X56801Y-27808D01*
X56709Y-27770D01*
X56610Y-27769D01*
X56518Y-27807D01*
X56448Y-27878D01*
X56410Y-27970D01*
X56409Y-28057D01*
X56200Y-28267D01*
X56200Y-25105D01*
X56136Y-24949D01*
X56016Y-24829D01*
X55860Y-24765D01*
X55749Y-24764D01*
X55749Y-24105D01*
X55685Y-23949D01*
X55565Y-23829D01*
X55409Y-23765D01*
X55299Y-23764D01*
X55299Y-23105D01*
X55234Y-22949D01*
X55115Y-22829D01*
X54958Y-22765D01*
X54789Y-22764D01*
X54633Y-22829D01*
X54513Y-22948D01*
X54449Y-23105D01*
X54448Y-23274D01*
X54513Y-23430D01*
X54632Y-23550D01*
X54789Y-23614D01*
X54958Y-23615D01*
X55114Y-23550D01*
X55234Y-23431D01*
X55298Y-23274D01*
X55299Y-23105D01*
X55299Y-23764D01*
X55240Y-23764D01*
X55084Y-23829D01*
X54964Y-23948D01*
X54899Y-24105D01*
X54899Y-24274D01*
X54964Y-24430D01*
X55083Y-24550D01*
X55239Y-24614D01*
X55408Y-24615D01*
X55565Y-24550D01*
X55684Y-24431D01*
X55749Y-24274D01*
X55749Y-24105D01*
X55749Y-24764D01*
X55691Y-24764D01*
X55535Y-24829D01*
X55415Y-24948D01*
X55350Y-25105D01*
X55350Y-25274D01*
X55415Y-25430D01*
X55534Y-25550D01*
X55690Y-25614D01*
X55859Y-25615D01*
X56016Y-25550D01*
X56135Y-25431D01*
X56200Y-25274D01*
X56200Y-25105D01*
X56200Y-28267D01*
X55977Y-28490D01*
X55299Y-28490D01*
X55299Y-25105D01*
X55234Y-24949D01*
X55115Y-24829D01*
X54958Y-24765D01*
X54835Y-24764D01*
X54835Y-24216D01*
X54814Y-24057D01*
X54793Y-24007D01*
X54744Y-23967D01*
X54645Y-24066D01*
X54645Y-23868D01*
X54605Y-23819D01*
X54450Y-23777D01*
X54397Y-23784D01*
X54397Y-23105D01*
X54332Y-22949D01*
X54213Y-22829D01*
X54057Y-22765D01*
X53888Y-22764D01*
X53732Y-22829D01*
X53612Y-22948D01*
X53547Y-23105D01*
X53547Y-23274D01*
X53611Y-23430D01*
X53731Y-23550D01*
X53887Y-23614D01*
X54056Y-23615D01*
X54212Y-23550D01*
X54332Y-23431D01*
X54397Y-23274D01*
X54397Y-23105D01*
X54397Y-23784D01*
X54290Y-23799D01*
X54240Y-23819D01*
X54201Y-23868D01*
X54423Y-24091D01*
X54645Y-23868D01*
X54645Y-24066D01*
X54522Y-24190D01*
X54744Y-24412D01*
X54793Y-24372D01*
X54835Y-24216D01*
X54835Y-24764D01*
X54789Y-24764D01*
X54645Y-24824D01*
X54645Y-24511D01*
X54423Y-24288D01*
X54324Y-24387D01*
X54324Y-24190D01*
X54102Y-23967D01*
X54052Y-24007D01*
X54011Y-24163D01*
X54032Y-24322D01*
X54052Y-24372D01*
X54102Y-24412D01*
X54324Y-24190D01*
X54324Y-24387D01*
X54201Y-24511D01*
X54240Y-24560D01*
X54396Y-24602D01*
X54556Y-24580D01*
X54605Y-24560D01*
X54645Y-24511D01*
X54645Y-24824D01*
X54633Y-24829D01*
X54513Y-24948D01*
X54449Y-25105D01*
X54448Y-25274D01*
X54513Y-25430D01*
X54632Y-25550D01*
X54789Y-25614D01*
X54958Y-25615D01*
X55114Y-25550D01*
X55234Y-25431D01*
X55298Y-25274D01*
X55299Y-25105D01*
X55299Y-28490D01*
X54397Y-28490D01*
X54397Y-25105D01*
X54332Y-24949D01*
X54213Y-24829D01*
X54057Y-24765D01*
X53933Y-24764D01*
X53933Y-24216D01*
X53912Y-24057D01*
X53892Y-24007D01*
X53842Y-23967D01*
X53743Y-24066D01*
X53743Y-23868D01*
X53704Y-23819D01*
X53548Y-23777D01*
X53495Y-23784D01*
X53495Y-23105D01*
X53431Y-22949D01*
X53311Y-22829D01*
X53155Y-22765D01*
X52986Y-22764D01*
X52830Y-22829D01*
X52710Y-22948D01*
X52645Y-23105D01*
X52645Y-23274D01*
X52710Y-23430D01*
X52829Y-23550D01*
X52985Y-23614D01*
X53155Y-23615D01*
X53311Y-23550D01*
X53430Y-23431D01*
X53495Y-23274D01*
X53495Y-23105D01*
X53495Y-23784D01*
X53388Y-23799D01*
X53339Y-23819D01*
X53299Y-23868D01*
X53521Y-24091D01*
X53743Y-23868D01*
X53743Y-24066D01*
X53620Y-24190D01*
X53842Y-24412D01*
X53892Y-24372D01*
X53933Y-24216D01*
X53933Y-24764D01*
X53888Y-24764D01*
X53743Y-24824D01*
X53743Y-24511D01*
X53521Y-24288D01*
X53422Y-24387D01*
X53422Y-24190D01*
X53200Y-23967D01*
X53151Y-24007D01*
X53109Y-24163D01*
X53130Y-24322D01*
X53151Y-24372D01*
X53200Y-24412D01*
X53422Y-24190D01*
X53422Y-24387D01*
X53299Y-24511D01*
X53339Y-24560D01*
X53494Y-24602D01*
X53654Y-24580D01*
X53704Y-24560D01*
X53743Y-24511D01*
X53743Y-24824D01*
X53732Y-24829D01*
X53612Y-24948D01*
X53547Y-25105D01*
X53547Y-25274D01*
X53611Y-25430D01*
X53731Y-25550D01*
X53887Y-25614D01*
X54056Y-25615D01*
X54212Y-25550D01*
X54332Y-25431D01*
X54397Y-25274D01*
X54397Y-25105D01*
X54397Y-28490D01*
X53495Y-28490D01*
X53495Y-25105D01*
X53431Y-24949D01*
X53311Y-24829D01*
X53155Y-24765D01*
X53032Y-24764D01*
X53032Y-24216D01*
X53011Y-24057D01*
X52990Y-24007D01*
X52941Y-23967D01*
X52842Y-24066D01*
X52842Y-23868D01*
X52802Y-23819D01*
X52647Y-23777D01*
X52487Y-23799D01*
X52437Y-23819D01*
X52397Y-23868D01*
X52620Y-24091D01*
X52842Y-23868D01*
X52842Y-24066D01*
X52719Y-24190D01*
X52941Y-24412D01*
X52990Y-24372D01*
X53032Y-24216D01*
X53032Y-24764D01*
X52986Y-24764D01*
X52842Y-24824D01*
X52842Y-24511D01*
X52620Y-24288D01*
X52521Y-24387D01*
X52521Y-24190D01*
X52298Y-23967D01*
X52249Y-24007D01*
X52208Y-24163D01*
X52229Y-24322D01*
X52249Y-24372D01*
X52298Y-24412D01*
X52521Y-24190D01*
X52521Y-24387D01*
X52397Y-24511D01*
X52437Y-24560D01*
X52593Y-24602D01*
X52752Y-24580D01*
X52802Y-24560D01*
X52842Y-24511D01*
X52842Y-24824D01*
X52830Y-24829D01*
X52710Y-24948D01*
X52645Y-25105D01*
X52645Y-25274D01*
X52710Y-25430D01*
X52829Y-25550D01*
X52985Y-25614D01*
X53155Y-25615D01*
X53311Y-25550D01*
X53430Y-25431D01*
X53495Y-25274D01*
X53495Y-25105D01*
X53495Y-28490D01*
X53002Y-28490D01*
X52920Y-28407D01*
X52920Y-27883D01*
X52981Y-27821D01*
X53019Y-27729D01*
X53020Y-27630D01*
X52982Y-27538D01*
X52911Y-27468D01*
X52819Y-27430D01*
X52720Y-27429D01*
X52628Y-27467D01*
X52558Y-27538D01*
X52520Y-27630D01*
X52519Y-27729D01*
X52557Y-27821D01*
X52620Y-27883D01*
X52620Y-28470D01*
X52631Y-28527D01*
X52663Y-28576D01*
X52833Y-28746D01*
X52833Y-28746D01*
X52882Y-28778D01*
X52882Y-28778D01*
X52940Y-28790D01*
X56040Y-28790D01*
X56097Y-28778D01*
X56097Y-28778D01*
X56146Y-28746D01*
X56622Y-28269D01*
X56709Y-28270D01*
X56801Y-28232D01*
X56871Y-28161D01*
X56909Y-28069D01*
X56910Y-27970D01*
X56910Y-30179D01*
X56840Y-30150D01*
X56840Y-29100D01*
X56802Y-29008D01*
X56731Y-28938D01*
X56639Y-28900D01*
X56540Y-28899D01*
X56448Y-28937D01*
X56378Y-29008D01*
X56340Y-29100D01*
X56339Y-29187D01*
X56027Y-29500D01*
X55910Y-29500D01*
X55910Y-29499D01*
X55852Y-29511D01*
X55846Y-29515D01*
X55962Y-29399D01*
X56049Y-29400D01*
X56141Y-29362D01*
X56211Y-29291D01*
X56249Y-29199D01*
X56250Y-29100D01*
X56212Y-29008D01*
X56141Y-28938D01*
X56049Y-28900D01*
X55950Y-28899D01*
X55858Y-28937D01*
X55804Y-28991D01*
X55751Y-28938D01*
X55659Y-28900D01*
X55560Y-28899D01*
X55468Y-28937D01*
X55398Y-29008D01*
X55360Y-29100D01*
X55359Y-29187D01*
X52087Y-32460D01*
X51853Y-32460D01*
X51791Y-32398D01*
X51699Y-32360D01*
X51600Y-32359D01*
X51508Y-32397D01*
X51438Y-32468D01*
X51400Y-32560D01*
X51399Y-32659D01*
X51437Y-32751D01*
X51508Y-32821D01*
X51600Y-32859D01*
X51660Y-32860D01*
X51659Y-32880D01*
X51600Y-32879D01*
X51508Y-32917D01*
X51438Y-32988D01*
X51400Y-33080D01*
X51399Y-33179D01*
X51437Y-33271D01*
X51508Y-33341D01*
X51600Y-33379D01*
X51660Y-33380D01*
X51659Y-33400D01*
X51600Y-33399D01*
X51508Y-33437D01*
X51438Y-33508D01*
X51400Y-33600D01*
X51399Y-33699D01*
X51437Y-33791D01*
X51508Y-33861D01*
X51600Y-33899D01*
X51699Y-33900D01*
X51791Y-33862D01*
X51853Y-33800D01*
X52690Y-33800D01*
X52747Y-33788D01*
X52747Y-33788D01*
X52796Y-33756D01*
X55156Y-31396D01*
X55188Y-31347D01*
X55200Y-31290D01*
X55200Y-31290D01*
X55200Y-31289D01*
X55200Y-31182D01*
X55402Y-30980D01*
X55670Y-30980D01*
X55727Y-30968D01*
X55727Y-30968D01*
X55776Y-30936D01*
X56062Y-30649D01*
X56149Y-30650D01*
X56241Y-30612D01*
X56311Y-30541D01*
X56349Y-30449D01*
X56350Y-30350D01*
X56312Y-30258D01*
X56241Y-30188D01*
X56149Y-30150D01*
X56050Y-30149D01*
X56049Y-30150D01*
X56050Y-30090D01*
X56012Y-29998D01*
X55941Y-29928D01*
X55872Y-29899D01*
X55972Y-29800D01*
X56090Y-29800D01*
X56147Y-29788D01*
X56147Y-29788D01*
X56196Y-29756D01*
X56552Y-29399D01*
X56639Y-29400D01*
X56731Y-29362D01*
X56801Y-29291D01*
X56839Y-29199D01*
X56840Y-29100D01*
X56840Y-30150D01*
X56839Y-30150D01*
X56740Y-30149D01*
X56648Y-30187D01*
X56578Y-30258D01*
X56540Y-30350D01*
X56539Y-30437D01*
X56463Y-30513D01*
X56431Y-30562D01*
X56420Y-30620D01*
X56420Y-30727D01*
X54287Y-32860D01*
X54200Y-32859D01*
X54108Y-32897D01*
X54038Y-32968D01*
X54000Y-33060D01*
X53999Y-33159D01*
X54037Y-33251D01*
X54108Y-33321D01*
X54200Y-33359D01*
X54299Y-33360D01*
X54391Y-33322D01*
X54461Y-33251D01*
X54499Y-33159D01*
X54500Y-33072D01*
X56676Y-30896D01*
X56676Y-30896D01*
X56676Y-30896D01*
X56708Y-30847D01*
X56720Y-30790D01*
X56720Y-30790D01*
X56720Y-30789D01*
X56720Y-30682D01*
X56752Y-30649D01*
X56839Y-30650D01*
X56931Y-30612D01*
X57001Y-30541D01*
X57039Y-30449D01*
X57040Y-30350D01*
X57040Y-35594D01*
X56958Y-35627D01*
X56888Y-35698D01*
X56850Y-35790D01*
X56849Y-35889D01*
X56887Y-35981D01*
X56958Y-36051D01*
X57050Y-36089D01*
X57149Y-36090D01*
X57241Y-36052D01*
X57304Y-35989D01*
X57357Y-35978D01*
X57357Y-35978D01*
X57406Y-35946D01*
X57439Y-35912D01*
X57488Y-35961D01*
X57580Y-35999D01*
X57679Y-36000D01*
X57771Y-35962D01*
X57841Y-35891D01*
X57879Y-35799D01*
X57880Y-35700D01*
X57880Y-36670D01*
X57783Y-36670D01*
X57721Y-36608D01*
X57629Y-36570D01*
X57530Y-36569D01*
X57438Y-36607D01*
X57368Y-36678D01*
X57330Y-36770D01*
X57329Y-36869D01*
X57354Y-36930D01*
X56940Y-36930D01*
X56940Y-36929D01*
X56882Y-36941D01*
X56833Y-36973D01*
X56833Y-36973D01*
X56727Y-37080D01*
X56640Y-37079D01*
X56548Y-37117D01*
X56478Y-37188D01*
X56440Y-37280D01*
X56439Y-37379D01*
X56477Y-37471D01*
X56548Y-37541D01*
X56640Y-37579D01*
X56739Y-37580D01*
X56831Y-37542D01*
X56885Y-37488D01*
X56938Y-37541D01*
X57030Y-37579D01*
X57129Y-37580D01*
X57221Y-37542D01*
X57283Y-37480D01*
X59986Y-37480D01*
X60048Y-37541D01*
X60140Y-37579D01*
X60239Y-37580D01*
X60331Y-37542D01*
X60401Y-37471D01*
X60439Y-37379D01*
X60440Y-37280D01*
X60440Y-39807D01*
X59797Y-40450D01*
X58443Y-40450D01*
X58381Y-40388D01*
X58289Y-40350D01*
X58190Y-40349D01*
X58098Y-40387D01*
X58028Y-40458D01*
X57990Y-40550D01*
X57989Y-40649D01*
X58027Y-40741D01*
X58098Y-40811D01*
X58190Y-40849D01*
X58240Y-40850D01*
X58239Y-40869D01*
X58190Y-40869D01*
X58098Y-40907D01*
X58028Y-40978D01*
X57990Y-41070D01*
X57989Y-41169D01*
X58027Y-41261D01*
X58098Y-41331D01*
X58190Y-41369D01*
X58240Y-41369D01*
X58239Y-41419D01*
X58277Y-41511D01*
X58348Y-41581D01*
X58440Y-41619D01*
X58539Y-41620D01*
X58631Y-41582D01*
X58693Y-41520D01*
X60140Y-41520D01*
X60197Y-41508D01*
X60197Y-41508D01*
X60246Y-41476D01*
X61832Y-39889D01*
X61919Y-39890D01*
X62011Y-39852D01*
X62081Y-39781D01*
X62119Y-39689D01*
X62120Y-39590D01*
X62082Y-39498D01*
X62048Y-39465D01*
X62081Y-39431D01*
X62119Y-39339D01*
X62120Y-39240D01*
X62082Y-39148D01*
X62073Y-39140D01*
X62350Y-39140D01*
X62407Y-39128D01*
X62407Y-39128D01*
X62456Y-39096D01*
X62542Y-39009D01*
X62592Y-39010D01*
X62458Y-39143D01*
X62291Y-39545D01*
X62291Y-39980D01*
X62457Y-40382D01*
X62765Y-40690D01*
X63167Y-40857D01*
X63602Y-40858D01*
X64004Y-40691D01*
X64312Y-40384D01*
X64479Y-39982D01*
X64480Y-39547D01*
X64480Y-47891D01*
X60169Y-47891D01*
X60169Y-46850D01*
X60169Y-42224D01*
X60159Y-42174D01*
X60131Y-42132D01*
X60088Y-42104D01*
X60039Y-42094D01*
X59251Y-42094D01*
X59202Y-42104D01*
X59160Y-42132D01*
X59132Y-42174D01*
X59122Y-42224D01*
X59122Y-46850D01*
X59132Y-46900D01*
X59160Y-46942D01*
X59202Y-46970D01*
X59251Y-46980D01*
X60039Y-46980D01*
X60088Y-46970D01*
X60131Y-46942D01*
X60159Y-46900D01*
X60169Y-46850D01*
X60169Y-47891D01*
X55840Y-47891D01*
X55840Y-35790D01*
X55802Y-35698D01*
X55740Y-35636D01*
X55740Y-35473D01*
X55801Y-35411D01*
X55839Y-35319D01*
X55840Y-35220D01*
X55802Y-35128D01*
X55731Y-35058D01*
X55639Y-35020D01*
X55540Y-35019D01*
X55448Y-35057D01*
X55378Y-35128D01*
X55340Y-35220D01*
X55339Y-35319D01*
X55377Y-35411D01*
X55440Y-35473D01*
X55440Y-35636D01*
X55378Y-35698D01*
X55340Y-35790D01*
X55339Y-35889D01*
X55377Y-35981D01*
X55448Y-36051D01*
X55540Y-36089D01*
X55639Y-36090D01*
X55731Y-36052D01*
X55801Y-35981D01*
X55839Y-35889D01*
X55840Y-35790D01*
X55840Y-47891D01*
X55310Y-47891D01*
X55310Y-45970D01*
X55272Y-45878D01*
X55220Y-45826D01*
X55220Y-42650D01*
X55182Y-42558D01*
X55111Y-42488D01*
X55019Y-42450D01*
X54920Y-42449D01*
X54828Y-42487D01*
X54766Y-42550D01*
X54732Y-42550D01*
X54716Y-42546D01*
X54647Y-42546D01*
X54625Y-42524D01*
X54584Y-42508D01*
X54540Y-42508D01*
X53674Y-42508D01*
X53634Y-42524D01*
X53603Y-42555D01*
X53586Y-42596D01*
X53586Y-42639D01*
X53586Y-42797D01*
X53588Y-42802D01*
X53536Y-42802D01*
X53471Y-42738D01*
X53379Y-42700D01*
X53280Y-42699D01*
X53188Y-42737D01*
X53118Y-42808D01*
X53080Y-42900D01*
X53079Y-42999D01*
X53117Y-43091D01*
X53188Y-43161D01*
X53280Y-43199D01*
X53379Y-43200D01*
X53471Y-43162D01*
X53530Y-43102D01*
X53588Y-43102D01*
X53586Y-43108D01*
X53586Y-43151D01*
X53586Y-43309D01*
X53588Y-43314D01*
X52955Y-43314D01*
X52898Y-43325D01*
X52878Y-43339D01*
X52849Y-43358D01*
X52849Y-43358D01*
X51597Y-44610D01*
X50764Y-44610D01*
X50764Y-24009D01*
X50626Y-23675D01*
X50370Y-23418D01*
X50036Y-23280D01*
X49674Y-23279D01*
X49339Y-23418D01*
X49083Y-23673D01*
X48984Y-23913D01*
X48984Y-23039D01*
X48891Y-22815D01*
X48720Y-22643D01*
X48495Y-22550D01*
X48413Y-22550D01*
X48413Y-21663D01*
X48300Y-21391D01*
X48092Y-21183D01*
X47821Y-21070D01*
X47526Y-21069D01*
X47254Y-21182D01*
X47046Y-21390D01*
X46933Y-21662D01*
X46933Y-21956D01*
X47045Y-22228D01*
X47253Y-22436D01*
X47525Y-22549D01*
X47819Y-22550D01*
X48091Y-22437D01*
X48300Y-22229D01*
X48413Y-21957D01*
X48413Y-21663D01*
X48413Y-22550D01*
X48253Y-22550D01*
X48028Y-22642D01*
X47857Y-22814D01*
X47764Y-23038D01*
X47763Y-23281D01*
X47856Y-23505D01*
X48028Y-23677D01*
X48252Y-23770D01*
X48494Y-23770D01*
X48719Y-23677D01*
X48890Y-23506D01*
X48983Y-23282D01*
X48984Y-23039D01*
X48984Y-23913D01*
X48944Y-24008D01*
X48944Y-24370D01*
X49082Y-24704D01*
X49338Y-24961D01*
X49672Y-25099D01*
X50034Y-25100D01*
X50369Y-24961D01*
X50625Y-24706D01*
X50764Y-24371D01*
X50764Y-24009D01*
X50764Y-44610D01*
X48870Y-44610D01*
X48870Y-44020D01*
X48832Y-43928D01*
X48810Y-43906D01*
X48810Y-41963D01*
X48831Y-41941D01*
X48869Y-41849D01*
X48870Y-41750D01*
X48832Y-41658D01*
X48761Y-41588D01*
X48669Y-41550D01*
X48570Y-41549D01*
X48478Y-41587D01*
X48408Y-41658D01*
X48370Y-41750D01*
X48369Y-41849D01*
X48407Y-41941D01*
X48430Y-41963D01*
X48430Y-43906D01*
X48408Y-43928D01*
X48370Y-44020D01*
X48369Y-44119D01*
X48407Y-44211D01*
X48478Y-44281D01*
X48570Y-44319D01*
X48669Y-44320D01*
X48761Y-44282D01*
X48831Y-44211D01*
X48869Y-44119D01*
X48870Y-44020D01*
X48870Y-44610D01*
X48234Y-44610D01*
X48234Y-25352D01*
X48179Y-25220D01*
X48130Y-25171D01*
X48130Y-24760D01*
X48092Y-24668D01*
X48021Y-24598D01*
X47929Y-24560D01*
X47830Y-24559D01*
X47738Y-24597D01*
X47676Y-24660D01*
X47586Y-24660D01*
X47529Y-24671D01*
X47480Y-24703D01*
X47097Y-25086D01*
X47044Y-25064D01*
X46944Y-25064D01*
X46944Y-23438D01*
X46889Y-23303D01*
X46786Y-23200D01*
X46651Y-23144D01*
X46543Y-23144D01*
X46543Y-22737D01*
X46487Y-22603D01*
X46384Y-22499D01*
X46250Y-22444D01*
X46104Y-22444D01*
X45970Y-22499D01*
X45867Y-22602D01*
X45811Y-22736D01*
X45811Y-22882D01*
X45866Y-23016D01*
X45969Y-23120D01*
X46104Y-23175D01*
X46249Y-23175D01*
X46384Y-23120D01*
X46487Y-23017D01*
X46543Y-22883D01*
X46543Y-22737D01*
X46543Y-23144D01*
X46506Y-23144D01*
X46371Y-23200D01*
X46268Y-23303D01*
X46212Y-23437D01*
X46212Y-23583D01*
X46268Y-23717D01*
X46371Y-23820D01*
X46505Y-23876D01*
X46651Y-23876D01*
X46785Y-23821D01*
X46888Y-23718D01*
X46944Y-23583D01*
X46944Y-23438D01*
X46944Y-25064D01*
X46901Y-25064D01*
X46768Y-25118D01*
X46667Y-25219D01*
X46612Y-25352D01*
X46612Y-25495D01*
X46667Y-25627D01*
X46768Y-25729D01*
X46900Y-25784D01*
X47043Y-25784D01*
X47176Y-25729D01*
X47277Y-25628D01*
X47332Y-25496D01*
X47332Y-25352D01*
X47310Y-25298D01*
X47648Y-24960D01*
X47676Y-24960D01*
X47738Y-25021D01*
X47830Y-25059D01*
X47929Y-25060D01*
X48021Y-25022D01*
X48091Y-24951D01*
X48129Y-24859D01*
X48130Y-24760D01*
X48130Y-25171D01*
X48078Y-25119D01*
X47945Y-25064D01*
X47802Y-25064D01*
X47670Y-25118D01*
X47569Y-25219D01*
X47514Y-25352D01*
X47513Y-25495D01*
X47568Y-25627D01*
X47669Y-25729D01*
X47802Y-25784D01*
X47945Y-25784D01*
X48077Y-25729D01*
X48179Y-25628D01*
X48233Y-25496D01*
X48234Y-25352D01*
X48234Y-44610D01*
X48230Y-44610D01*
X48230Y-43750D01*
X48192Y-43658D01*
X48130Y-43596D01*
X48130Y-42943D01*
X48191Y-42881D01*
X48229Y-42789D01*
X48230Y-42690D01*
X48192Y-42598D01*
X48121Y-42528D01*
X48029Y-42490D01*
X47930Y-42489D01*
X47838Y-42527D01*
X47768Y-42598D01*
X47730Y-42690D01*
X47729Y-42789D01*
X47767Y-42881D01*
X47830Y-42943D01*
X47830Y-43596D01*
X47768Y-43658D01*
X47730Y-43750D01*
X47729Y-43849D01*
X47767Y-43941D01*
X47838Y-44011D01*
X47930Y-44049D01*
X48029Y-44050D01*
X48121Y-44012D01*
X48191Y-43941D01*
X48229Y-43849D01*
X48230Y-43750D01*
X48230Y-44610D01*
X47570Y-44610D01*
X47570Y-33900D01*
X47540Y-33827D01*
X47540Y-30760D01*
X47502Y-30668D01*
X47460Y-30626D01*
X47460Y-28613D01*
X47501Y-28571D01*
X47539Y-28479D01*
X47540Y-28380D01*
X47502Y-28288D01*
X47431Y-28218D01*
X47339Y-28180D01*
X47240Y-28179D01*
X47148Y-28217D01*
X47078Y-28288D01*
X47040Y-28380D01*
X47039Y-28479D01*
X47077Y-28571D01*
X47120Y-28613D01*
X47120Y-30626D01*
X47078Y-30668D01*
X47040Y-30760D01*
X47039Y-30859D01*
X47077Y-30951D01*
X47148Y-31021D01*
X47240Y-31059D01*
X47339Y-31060D01*
X47431Y-31022D01*
X47501Y-30951D01*
X47539Y-30859D01*
X47540Y-30760D01*
X47540Y-33827D01*
X47532Y-33808D01*
X47461Y-33738D01*
X47369Y-33700D01*
X47270Y-33699D01*
X47178Y-33737D01*
X47116Y-33800D01*
X47010Y-33800D01*
X47010Y-31290D01*
X46972Y-31198D01*
X46901Y-31128D01*
X46809Y-31090D01*
X46750Y-31089D01*
X46340Y-30679D01*
X46285Y-30642D01*
X46220Y-30630D01*
X46141Y-30630D01*
X46141Y-23438D01*
X46085Y-23303D01*
X45983Y-23200D01*
X45848Y-23144D01*
X45739Y-23144D01*
X45739Y-22737D01*
X45684Y-22603D01*
X45581Y-22499D01*
X45447Y-22444D01*
X45301Y-22444D01*
X45167Y-22499D01*
X45063Y-22602D01*
X45008Y-22736D01*
X45008Y-22882D01*
X45063Y-23016D01*
X45166Y-23120D01*
X45300Y-23175D01*
X45446Y-23175D01*
X45581Y-23120D01*
X45684Y-23017D01*
X45739Y-22883D01*
X45739Y-22737D01*
X45739Y-23144D01*
X45703Y-23144D01*
X45568Y-23200D01*
X45465Y-23303D01*
X45409Y-23437D01*
X45409Y-23583D01*
X45465Y-23717D01*
X45568Y-23820D01*
X45702Y-23876D01*
X45848Y-23876D01*
X45982Y-23821D01*
X46085Y-23718D01*
X46141Y-23583D01*
X46141Y-23438D01*
X46141Y-30630D01*
X45338Y-30630D01*
X45338Y-23438D01*
X45282Y-23303D01*
X45179Y-23200D01*
X45045Y-23144D01*
X44936Y-23144D01*
X44936Y-22737D01*
X44881Y-22603D01*
X44778Y-22499D01*
X44643Y-22444D01*
X44498Y-22444D01*
X44363Y-22499D01*
X44260Y-22602D01*
X44205Y-22736D01*
X44204Y-22882D01*
X44260Y-23016D01*
X44363Y-23120D01*
X44497Y-23175D01*
X44643Y-23175D01*
X44777Y-23120D01*
X44880Y-23017D01*
X44936Y-22883D01*
X44936Y-22737D01*
X44936Y-23144D01*
X44899Y-23144D01*
X44765Y-23200D01*
X44662Y-23303D01*
X44606Y-23437D01*
X44606Y-23583D01*
X44662Y-23717D01*
X44764Y-23820D01*
X44899Y-23876D01*
X45044Y-23876D01*
X45179Y-23821D01*
X45282Y-23718D01*
X45338Y-23583D01*
X45338Y-23438D01*
X45338Y-30630D01*
X44535Y-30630D01*
X44535Y-23438D01*
X44479Y-23303D01*
X44376Y-23200D01*
X44242Y-23144D01*
X44133Y-23144D01*
X44133Y-22737D01*
X44078Y-22603D01*
X43975Y-22499D01*
X43840Y-22444D01*
X43695Y-22444D01*
X43560Y-22499D01*
X43457Y-22602D01*
X43413Y-22709D01*
X43413Y-21663D01*
X43300Y-21391D01*
X43092Y-21183D01*
X42821Y-21070D01*
X42526Y-21069D01*
X42254Y-21182D01*
X42046Y-21390D01*
X41933Y-21662D01*
X41933Y-21956D01*
X42045Y-22228D01*
X42253Y-22436D01*
X42525Y-22549D01*
X42819Y-22550D01*
X43091Y-22437D01*
X43300Y-22229D01*
X43413Y-21957D01*
X43413Y-21663D01*
X43413Y-22709D01*
X43401Y-22736D01*
X43401Y-22882D01*
X43457Y-23016D01*
X43560Y-23120D01*
X43694Y-23175D01*
X43840Y-23175D01*
X43974Y-23120D01*
X44077Y-23017D01*
X44133Y-22883D01*
X44133Y-22737D01*
X44133Y-23144D01*
X44096Y-23144D01*
X43962Y-23200D01*
X43859Y-23303D01*
X43803Y-23437D01*
X43803Y-23583D01*
X43858Y-23717D01*
X43961Y-23820D01*
X44096Y-23876D01*
X44241Y-23876D01*
X44376Y-23821D01*
X44479Y-23718D01*
X44535Y-23583D01*
X44535Y-23438D01*
X44535Y-30630D01*
X43734Y-30630D01*
X43734Y-25352D01*
X43679Y-25220D01*
X43578Y-25119D01*
X43445Y-25064D01*
X43302Y-25064D01*
X43170Y-25118D01*
X43069Y-25219D01*
X43014Y-25352D01*
X43013Y-25495D01*
X43028Y-25529D01*
X42832Y-25725D01*
X42832Y-25352D01*
X42777Y-25220D01*
X42676Y-25119D01*
X42582Y-25080D01*
X42582Y-23039D01*
X42489Y-22815D01*
X42318Y-22643D01*
X42094Y-22550D01*
X41851Y-22550D01*
X41627Y-22642D01*
X41455Y-22814D01*
X41362Y-23038D01*
X41362Y-23281D01*
X41455Y-23505D01*
X41626Y-23677D01*
X41850Y-23770D01*
X42093Y-23770D01*
X42317Y-23677D01*
X42489Y-23506D01*
X42582Y-23282D01*
X42582Y-23039D01*
X42582Y-25080D01*
X42544Y-25064D01*
X42401Y-25064D01*
X42268Y-25118D01*
X42167Y-25219D01*
X42112Y-25352D01*
X42112Y-25495D01*
X42167Y-25627D01*
X42268Y-25729D01*
X42400Y-25784D01*
X42543Y-25784D01*
X42676Y-25729D01*
X42777Y-25628D01*
X42832Y-25496D01*
X42832Y-25352D01*
X42832Y-25725D01*
X42387Y-26170D01*
X41363Y-26170D01*
X41321Y-26128D01*
X41229Y-26090D01*
X41130Y-26089D01*
X41038Y-26127D01*
X40968Y-26198D01*
X40930Y-26290D01*
X40929Y-26389D01*
X40967Y-26481D01*
X41038Y-26551D01*
X41130Y-26589D01*
X41229Y-26590D01*
X41321Y-26552D01*
X41363Y-26510D01*
X42458Y-26510D01*
X42523Y-26497D01*
X42523Y-26497D01*
X42578Y-26460D01*
X43268Y-25770D01*
X43302Y-25784D01*
X43445Y-25784D01*
X43577Y-25729D01*
X43679Y-25628D01*
X43733Y-25496D01*
X43734Y-25352D01*
X43734Y-30630D01*
X43193Y-30630D01*
X43151Y-30588D01*
X43059Y-30550D01*
X42960Y-30549D01*
X42868Y-30587D01*
X42798Y-30658D01*
X42760Y-30750D01*
X42759Y-30849D01*
X42797Y-30941D01*
X42868Y-31011D01*
X42960Y-31049D01*
X43059Y-31050D01*
X43151Y-31012D01*
X43193Y-30970D01*
X46149Y-30970D01*
X46510Y-31330D01*
X46509Y-31389D01*
X46547Y-31481D01*
X46618Y-31551D01*
X46710Y-31589D01*
X46809Y-31590D01*
X46901Y-31552D01*
X46971Y-31481D01*
X47009Y-31389D01*
X47010Y-31290D01*
X47010Y-33800D01*
X46450Y-33800D01*
X46392Y-33811D01*
X46343Y-33843D01*
X46343Y-33843D01*
X46187Y-34000D01*
X46058Y-34000D01*
X45996Y-33938D01*
X45904Y-33900D01*
X45805Y-33899D01*
X45713Y-33937D01*
X45643Y-34008D01*
X45605Y-34100D01*
X45604Y-34199D01*
X45642Y-34291D01*
X45713Y-34361D01*
X45805Y-34399D01*
X45904Y-34400D01*
X45996Y-34362D01*
X46058Y-34300D01*
X46250Y-34300D01*
X46307Y-34288D01*
X46307Y-34288D01*
X46356Y-34256D01*
X46512Y-34100D01*
X46577Y-34100D01*
X46569Y-34103D01*
X46543Y-34129D01*
X46530Y-34162D01*
X46530Y-34387D01*
X46552Y-34410D01*
X46850Y-34410D01*
X46850Y-34402D01*
X46990Y-34402D01*
X46990Y-34410D01*
X47287Y-34410D01*
X47310Y-34387D01*
X47310Y-34199D01*
X47369Y-34200D01*
X47461Y-34162D01*
X47531Y-34091D01*
X47569Y-33999D01*
X47570Y-33900D01*
X47570Y-44610D01*
X47445Y-44610D01*
X47445Y-41283D01*
X47387Y-41141D01*
X47330Y-41084D01*
X47330Y-37398D01*
X47330Y-36398D01*
X47330Y-35398D01*
X47310Y-35350D01*
X47310Y-34797D01*
X47310Y-34572D01*
X47287Y-34550D01*
X46990Y-34550D01*
X46990Y-34847D01*
X47012Y-34870D01*
X47202Y-34870D01*
X47237Y-34870D01*
X47270Y-34856D01*
X47296Y-34830D01*
X47310Y-34797D01*
X47310Y-35350D01*
X47267Y-35248D01*
X47152Y-35132D01*
X47001Y-35070D01*
X46850Y-35069D01*
X46850Y-34847D01*
X46850Y-34550D01*
X46552Y-34550D01*
X46530Y-34572D01*
X46530Y-34797D01*
X46543Y-34830D01*
X46569Y-34856D01*
X46602Y-34870D01*
X46637Y-34870D01*
X46827Y-34870D01*
X46850Y-34847D01*
X46850Y-35069D01*
X46838Y-35069D01*
X46688Y-35132D01*
X46572Y-35247D01*
X46510Y-35398D01*
X46509Y-35561D01*
X46572Y-35711D01*
X46687Y-35827D01*
X46838Y-35889D01*
X47001Y-35890D01*
X47151Y-35827D01*
X47267Y-35712D01*
X47329Y-35561D01*
X47330Y-35398D01*
X47330Y-36398D01*
X47267Y-36248D01*
X47152Y-36132D01*
X47001Y-36070D01*
X46838Y-36069D01*
X46688Y-36132D01*
X46572Y-36247D01*
X46510Y-36398D01*
X46509Y-36561D01*
X46572Y-36711D01*
X46687Y-36827D01*
X46838Y-36889D01*
X47001Y-36890D01*
X47151Y-36827D01*
X47267Y-36712D01*
X47329Y-36561D01*
X47330Y-36398D01*
X47330Y-37398D01*
X47267Y-37248D01*
X47152Y-37132D01*
X47001Y-37070D01*
X46838Y-37069D01*
X46688Y-37132D01*
X46572Y-37247D01*
X46510Y-37398D01*
X46509Y-37561D01*
X46572Y-37711D01*
X46687Y-37827D01*
X46838Y-37889D01*
X47001Y-37890D01*
X47151Y-37827D01*
X47267Y-37712D01*
X47329Y-37561D01*
X47330Y-37398D01*
X47330Y-41084D01*
X47278Y-41033D01*
X47137Y-40974D01*
X46983Y-40974D01*
X46841Y-41032D01*
X46810Y-41064D01*
X46810Y-41040D01*
X46772Y-40948D01*
X46750Y-40926D01*
X46750Y-40163D01*
X46771Y-40141D01*
X46809Y-40049D01*
X46810Y-39950D01*
X46772Y-39858D01*
X46701Y-39788D01*
X46609Y-39750D01*
X46510Y-39749D01*
X46418Y-39787D01*
X46348Y-39858D01*
X46310Y-39950D01*
X46309Y-40049D01*
X46347Y-40141D01*
X46370Y-40163D01*
X46370Y-40926D01*
X46348Y-40948D01*
X46310Y-41040D01*
X46310Y-41064D01*
X46278Y-41033D01*
X46137Y-40974D01*
X46110Y-40974D01*
X46110Y-35620D01*
X46072Y-35528D01*
X46001Y-35458D01*
X45909Y-35420D01*
X45810Y-35419D01*
X45718Y-35457D01*
X45648Y-35528D01*
X45610Y-35620D01*
X45609Y-35679D01*
X45440Y-35849D01*
X45440Y-34190D01*
X45402Y-34098D01*
X45331Y-34028D01*
X45239Y-33990D01*
X45140Y-33989D01*
X45048Y-34027D01*
X45006Y-34070D01*
X44190Y-34070D01*
X44124Y-34082D01*
X44069Y-34119D01*
X44069Y-34119D01*
X43519Y-34670D01*
X42730Y-34670D01*
X42730Y-34669D01*
X42675Y-34680D01*
X42664Y-34682D01*
X42609Y-34719D01*
X42279Y-35049D01*
X42242Y-35104D01*
X42230Y-35170D01*
X42230Y-35376D01*
X42188Y-35418D01*
X42150Y-35510D01*
X42149Y-35609D01*
X42187Y-35701D01*
X42258Y-35771D01*
X42350Y-35809D01*
X42449Y-35810D01*
X42541Y-35772D01*
X42611Y-35701D01*
X42649Y-35609D01*
X42650Y-35510D01*
X42612Y-35418D01*
X42570Y-35376D01*
X42570Y-35240D01*
X42800Y-35010D01*
X43590Y-35010D01*
X43655Y-34997D01*
X43655Y-34997D01*
X43710Y-34960D01*
X44260Y-34410D01*
X45006Y-34410D01*
X45048Y-34451D01*
X45140Y-34489D01*
X45239Y-34490D01*
X45331Y-34452D01*
X45401Y-34381D01*
X45439Y-34289D01*
X45440Y-34190D01*
X45440Y-35849D01*
X45379Y-35909D01*
X45342Y-35964D01*
X45330Y-36030D01*
X45330Y-36826D01*
X45288Y-36868D01*
X45250Y-36960D01*
X45249Y-37059D01*
X45287Y-37151D01*
X45358Y-37221D01*
X45450Y-37259D01*
X45479Y-37259D01*
X45450Y-37330D01*
X45449Y-37417D01*
X45333Y-37533D01*
X45301Y-37582D01*
X45290Y-37640D01*
X45290Y-37877D01*
X45177Y-37990D01*
X45090Y-37989D01*
X44998Y-38027D01*
X44940Y-38086D01*
X44940Y-37953D01*
X45001Y-37891D01*
X45039Y-37799D01*
X45040Y-37700D01*
X45002Y-37608D01*
X44931Y-37538D01*
X44839Y-37500D01*
X44740Y-37499D01*
X44648Y-37537D01*
X44578Y-37608D01*
X44540Y-37700D01*
X44540Y-37700D01*
X44502Y-37608D01*
X44431Y-37538D01*
X44339Y-37500D01*
X44240Y-37499D01*
X44148Y-37537D01*
X44078Y-37608D01*
X44040Y-37700D01*
X44040Y-37700D01*
X44002Y-37608D01*
X43931Y-37538D01*
X43839Y-37500D01*
X43740Y-37499D01*
X43648Y-37537D01*
X43646Y-37533D01*
X43646Y-37533D01*
X43506Y-37393D01*
X43457Y-37361D01*
X43400Y-37350D01*
X43180Y-37350D01*
X43122Y-37361D01*
X43103Y-37374D01*
X43073Y-37393D01*
X43073Y-37393D01*
X41713Y-38753D01*
X41681Y-38802D01*
X41670Y-38860D01*
X41670Y-39747D01*
X41330Y-40087D01*
X41330Y-37070D01*
X41292Y-36978D01*
X41221Y-36908D01*
X41129Y-36870D01*
X41042Y-36869D01*
X40929Y-36757D01*
X40930Y-36670D01*
X40892Y-36578D01*
X40821Y-36508D01*
X40729Y-36470D01*
X40630Y-36469D01*
X40538Y-36507D01*
X40468Y-36578D01*
X40430Y-36670D01*
X40429Y-36769D01*
X40467Y-36861D01*
X40538Y-36931D01*
X40630Y-36969D01*
X40717Y-36970D01*
X40830Y-37082D01*
X40829Y-37169D01*
X40867Y-37261D01*
X40938Y-37331D01*
X41030Y-37369D01*
X41129Y-37370D01*
X41221Y-37332D01*
X41291Y-37261D01*
X41329Y-37169D01*
X41330Y-37070D01*
X41330Y-40087D01*
X41257Y-40160D01*
X41170Y-40159D01*
X41078Y-40197D01*
X41008Y-40268D01*
X40970Y-40360D01*
X40969Y-40459D01*
X41007Y-40551D01*
X41078Y-40621D01*
X41170Y-40659D01*
X41269Y-40660D01*
X41361Y-40622D01*
X41431Y-40551D01*
X41469Y-40459D01*
X41470Y-40372D01*
X41926Y-39916D01*
X41926Y-39916D01*
X41926Y-39916D01*
X41958Y-39867D01*
X41958Y-39867D01*
X41970Y-39810D01*
X41970Y-38922D01*
X42796Y-38095D01*
X42827Y-38171D01*
X42890Y-38233D01*
X42890Y-38447D01*
X42277Y-39060D01*
X42190Y-39059D01*
X42098Y-39097D01*
X42028Y-39168D01*
X41990Y-39260D01*
X41989Y-39359D01*
X42027Y-39451D01*
X42098Y-39521D01*
X42190Y-39559D01*
X42240Y-39559D01*
X42239Y-39609D01*
X42277Y-39701D01*
X42348Y-39771D01*
X42440Y-39809D01*
X42539Y-39810D01*
X42440Y-39809D01*
X42348Y-39847D01*
X42278Y-39918D01*
X42240Y-40010D01*
X42239Y-40109D01*
X42277Y-40201D01*
X42348Y-40271D01*
X42440Y-40309D01*
X42490Y-40309D01*
X42490Y-40310D01*
X42440Y-40309D01*
X42348Y-40347D01*
X42278Y-40418D01*
X42240Y-40510D01*
X42239Y-40609D01*
X42277Y-40701D01*
X42348Y-40771D01*
X42440Y-40809D01*
X42490Y-40809D01*
X42489Y-40859D01*
X42527Y-40951D01*
X42598Y-41021D01*
X42690Y-41059D01*
X42789Y-41060D01*
X42881Y-41022D01*
X42943Y-40960D01*
X43270Y-40960D01*
X43327Y-40948D01*
X43327Y-40948D01*
X43376Y-40916D01*
X44896Y-39396D01*
X44896Y-39396D01*
X44896Y-39396D01*
X44928Y-39347D01*
X44940Y-39290D01*
X44940Y-39290D01*
X44940Y-39289D01*
X44940Y-38753D01*
X44998Y-38811D01*
X45090Y-38849D01*
X45189Y-38850D01*
X45281Y-38812D01*
X45330Y-38763D01*
X45350Y-38783D01*
X45350Y-39816D01*
X45308Y-39858D01*
X45270Y-39950D01*
X45269Y-40049D01*
X45307Y-40141D01*
X45378Y-40211D01*
X45470Y-40249D01*
X45569Y-40250D01*
X45661Y-40212D01*
X45731Y-40141D01*
X45769Y-40049D01*
X45770Y-39950D01*
X45732Y-39858D01*
X45690Y-39816D01*
X45690Y-38783D01*
X45731Y-38741D01*
X45769Y-38649D01*
X45770Y-38550D01*
X45732Y-38458D01*
X45661Y-38388D01*
X45592Y-38359D01*
X45806Y-38146D01*
X45806Y-38146D01*
X45806Y-38146D01*
X45838Y-38097D01*
X45838Y-38097D01*
X45850Y-38040D01*
X45850Y-37953D01*
X45911Y-37891D01*
X45949Y-37799D01*
X45950Y-37700D01*
X45912Y-37608D01*
X45868Y-37564D01*
X45911Y-37521D01*
X45949Y-37429D01*
X45950Y-37330D01*
X45912Y-37238D01*
X45841Y-37168D01*
X45749Y-37130D01*
X45720Y-37130D01*
X45749Y-37059D01*
X45750Y-36960D01*
X45712Y-36868D01*
X45670Y-36826D01*
X45670Y-36100D01*
X45850Y-35919D01*
X45909Y-35920D01*
X46001Y-35882D01*
X46071Y-35811D01*
X46109Y-35719D01*
X46110Y-35620D01*
X46110Y-40974D01*
X45983Y-40974D01*
X45841Y-41032D01*
X45733Y-41141D01*
X45674Y-41282D01*
X45674Y-41436D01*
X45732Y-41578D01*
X45841Y-41686D01*
X45982Y-41745D01*
X46136Y-41745D01*
X46278Y-41687D01*
X46386Y-41578D01*
X46445Y-41437D01*
X46445Y-41313D01*
X46510Y-41339D01*
X46609Y-41340D01*
X46674Y-41313D01*
X46674Y-41436D01*
X46732Y-41578D01*
X46841Y-41686D01*
X46982Y-41745D01*
X47136Y-41745D01*
X47278Y-41687D01*
X47386Y-41578D01*
X47445Y-41437D01*
X47445Y-41283D01*
X47445Y-44610D01*
X47260Y-44610D01*
X47260Y-43750D01*
X47222Y-43658D01*
X47160Y-43596D01*
X47160Y-42943D01*
X47221Y-42881D01*
X47259Y-42789D01*
X47260Y-42690D01*
X47222Y-42598D01*
X47151Y-42528D01*
X47059Y-42490D01*
X46960Y-42489D01*
X46868Y-42527D01*
X46798Y-42598D01*
X46760Y-42690D01*
X46759Y-42789D01*
X46797Y-42881D01*
X46860Y-42943D01*
X46860Y-43596D01*
X46798Y-43658D01*
X46760Y-43750D01*
X46759Y-43849D01*
X46797Y-43941D01*
X46868Y-44011D01*
X46960Y-44049D01*
X47059Y-44050D01*
X47151Y-44012D01*
X47221Y-43941D01*
X47259Y-43849D01*
X47260Y-43750D01*
X47260Y-44610D01*
X46530Y-44610D01*
X46530Y-43750D01*
X46492Y-43658D01*
X46430Y-43596D01*
X46430Y-42663D01*
X46491Y-42601D01*
X46529Y-42509D01*
X46530Y-42410D01*
X46492Y-42318D01*
X46421Y-42248D01*
X46329Y-42210D01*
X46230Y-42209D01*
X46138Y-42247D01*
X46068Y-42318D01*
X46030Y-42410D01*
X46029Y-42509D01*
X46067Y-42601D01*
X46130Y-42663D01*
X46130Y-43596D01*
X46068Y-43658D01*
X46030Y-43750D01*
X46029Y-43849D01*
X46067Y-43941D01*
X46138Y-44011D01*
X46230Y-44049D01*
X46329Y-44050D01*
X46421Y-44012D01*
X46491Y-43941D01*
X46529Y-43849D01*
X46530Y-43750D01*
X46530Y-44610D01*
X46020Y-44610D01*
X46020Y-44609D01*
X45962Y-44621D01*
X45913Y-44653D01*
X45913Y-44653D01*
X45807Y-44760D01*
X45760Y-44759D01*
X45760Y-43750D01*
X45722Y-43658D01*
X45660Y-43596D01*
X45660Y-42943D01*
X45721Y-42881D01*
X45759Y-42789D01*
X45760Y-42690D01*
X45722Y-42598D01*
X45651Y-42528D01*
X45559Y-42490D01*
X45460Y-42489D01*
X45368Y-42527D01*
X45298Y-42598D01*
X45260Y-42690D01*
X45259Y-42789D01*
X45297Y-42881D01*
X45360Y-42943D01*
X45360Y-43596D01*
X45298Y-43658D01*
X45260Y-43750D01*
X45259Y-43849D01*
X45297Y-43941D01*
X45368Y-44011D01*
X45460Y-44049D01*
X45559Y-44050D01*
X45651Y-44012D01*
X45721Y-43941D01*
X45759Y-43849D01*
X45760Y-43750D01*
X45760Y-44759D01*
X45720Y-44759D01*
X45628Y-44797D01*
X45558Y-44868D01*
X45520Y-44960D01*
X45519Y-45059D01*
X45557Y-45151D01*
X45628Y-45221D01*
X45720Y-45259D01*
X45819Y-45260D01*
X45911Y-45222D01*
X45981Y-45151D01*
X46019Y-45059D01*
X46020Y-44972D01*
X46082Y-44910D01*
X46310Y-44910D01*
X46290Y-44960D01*
X46289Y-45059D01*
X46327Y-45151D01*
X46398Y-45221D01*
X46490Y-45259D01*
X46589Y-45260D01*
X46681Y-45222D01*
X46743Y-45160D01*
X51820Y-45160D01*
X51877Y-45148D01*
X51877Y-45148D01*
X51913Y-45124D01*
X51417Y-45620D01*
X47753Y-45620D01*
X47691Y-45558D01*
X47599Y-45520D01*
X47500Y-45519D01*
X47408Y-45557D01*
X47338Y-45628D01*
X47300Y-45720D01*
X47299Y-45819D01*
X47337Y-45911D01*
X47366Y-45940D01*
X46483Y-45940D01*
X46421Y-45878D01*
X46329Y-45840D01*
X46230Y-45839D01*
X46138Y-45877D01*
X46068Y-45948D01*
X46030Y-46040D01*
X46029Y-46139D01*
X46067Y-46231D01*
X46138Y-46301D01*
X46230Y-46339D01*
X46329Y-46340D01*
X46421Y-46302D01*
X46483Y-46240D01*
X51660Y-46240D01*
X51717Y-46228D01*
X51717Y-46228D01*
X51766Y-46196D01*
X53323Y-44638D01*
X53588Y-44638D01*
X53586Y-44643D01*
X53586Y-44687D01*
X53586Y-44844D01*
X53603Y-44885D01*
X53610Y-44892D01*
X53606Y-44903D01*
X53606Y-44938D01*
X53629Y-44960D01*
X54059Y-44960D01*
X54059Y-44932D01*
X54199Y-44932D01*
X54199Y-44960D01*
X54630Y-44960D01*
X54648Y-44942D01*
X54658Y-44951D01*
X54750Y-44989D01*
X54849Y-44990D01*
X54941Y-44952D01*
X55011Y-44881D01*
X55049Y-44789D01*
X55050Y-44690D01*
X55012Y-44598D01*
X54941Y-44528D01*
X54849Y-44490D01*
X54750Y-44489D01*
X54672Y-44522D01*
X54672Y-44387D01*
X54661Y-44360D01*
X54672Y-44332D01*
X54672Y-44289D01*
X54672Y-44131D01*
X54661Y-44104D01*
X54672Y-44076D01*
X54672Y-44033D01*
X54672Y-43875D01*
X54661Y-43848D01*
X54672Y-43821D01*
X54672Y-43777D01*
X54672Y-43619D01*
X54661Y-43592D01*
X54672Y-43565D01*
X54672Y-43521D01*
X54672Y-43427D01*
X54750Y-43459D01*
X54849Y-43460D01*
X54941Y-43422D01*
X55011Y-43351D01*
X55049Y-43259D01*
X55050Y-43160D01*
X55012Y-43068D01*
X54941Y-42998D01*
X54849Y-42960D01*
X54750Y-42959D01*
X54672Y-42992D01*
X54672Y-42852D01*
X54670Y-42846D01*
X54704Y-42846D01*
X54704Y-42846D01*
X54720Y-42850D01*
X54720Y-42850D01*
X54720Y-42850D01*
X54766Y-42850D01*
X54828Y-42911D01*
X54920Y-42949D01*
X55019Y-42950D01*
X55111Y-42912D01*
X55181Y-42841D01*
X55219Y-42749D01*
X55220Y-42650D01*
X55220Y-45826D01*
X55201Y-45808D01*
X55109Y-45770D01*
X55010Y-45769D01*
X54918Y-45807D01*
X54856Y-45870D01*
X54780Y-45870D01*
X54780Y-45869D01*
X54761Y-45873D01*
X54670Y-45873D01*
X54672Y-45868D01*
X54672Y-45824D01*
X54672Y-45667D01*
X54661Y-45639D01*
X54672Y-45612D01*
X54672Y-45568D01*
X54672Y-45477D01*
X54750Y-45509D01*
X54849Y-45510D01*
X54941Y-45472D01*
X55011Y-45401D01*
X55049Y-45309D01*
X55050Y-45210D01*
X55012Y-45118D01*
X54941Y-45048D01*
X54849Y-45010D01*
X54750Y-45009D01*
X54658Y-45047D01*
X54648Y-45057D01*
X54630Y-45039D01*
X54199Y-45039D01*
X54199Y-45067D01*
X54059Y-45067D01*
X54059Y-45039D01*
X53629Y-45039D01*
X53606Y-45061D01*
X53606Y-45096D01*
X53610Y-45107D01*
X53603Y-45114D01*
X53586Y-45155D01*
X53586Y-45199D01*
X53586Y-45356D01*
X53588Y-45361D01*
X53499Y-45361D01*
X53490Y-45360D01*
X53403Y-45360D01*
X53341Y-45298D01*
X53249Y-45260D01*
X53150Y-45259D01*
X53058Y-45297D01*
X52988Y-45368D01*
X52950Y-45460D01*
X52949Y-45559D01*
X52987Y-45651D01*
X53058Y-45721D01*
X53150Y-45759D01*
X53210Y-45760D01*
X53209Y-45819D01*
X53247Y-45911D01*
X53318Y-45981D01*
X53410Y-46019D01*
X53509Y-46020D01*
X53586Y-45988D01*
X53586Y-46124D01*
X53597Y-46151D01*
X53586Y-46178D01*
X53586Y-46222D01*
X53586Y-46380D01*
X53603Y-46420D01*
X53634Y-46451D01*
X53674Y-46468D01*
X53718Y-46468D01*
X54584Y-46468D01*
X54620Y-46453D01*
X54658Y-46491D01*
X54750Y-46529D01*
X54849Y-46530D01*
X54941Y-46492D01*
X55011Y-46421D01*
X55049Y-46329D01*
X55050Y-46269D01*
X55109Y-46270D01*
X55201Y-46232D01*
X55271Y-46161D01*
X55309Y-46069D01*
X55310Y-45970D01*
X55310Y-47891D01*
X45890Y-47891D01*
X45890Y-46040D01*
X45852Y-45948D01*
X45790Y-45886D01*
X45790Y-45690D01*
X45790Y-45690D01*
X45790Y-45690D01*
X45778Y-45632D01*
X45746Y-45583D01*
X45746Y-45583D01*
X45746Y-45583D01*
X45150Y-44987D01*
X45150Y-44060D01*
X45150Y-44060D01*
X45150Y-44060D01*
X45138Y-44002D01*
X45106Y-43953D01*
X44386Y-43233D01*
X44337Y-43201D01*
X44286Y-43191D01*
X44286Y-41521D01*
X44233Y-41394D01*
X44136Y-41296D01*
X44009Y-41244D01*
X43871Y-41243D01*
X43744Y-41296D01*
X43646Y-41393D01*
X43645Y-41398D01*
X43643Y-41394D01*
X43546Y-41296D01*
X43419Y-41244D01*
X43281Y-41243D01*
X43154Y-41296D01*
X43056Y-41393D01*
X43004Y-41520D01*
X43003Y-41658D01*
X43056Y-41785D01*
X43153Y-41883D01*
X43280Y-41935D01*
X43418Y-41936D01*
X43545Y-41883D01*
X43643Y-41786D01*
X43644Y-41781D01*
X43646Y-41785D01*
X43743Y-41883D01*
X43870Y-41935D01*
X44008Y-41936D01*
X44135Y-41883D01*
X44233Y-41786D01*
X44285Y-41659D01*
X44286Y-41521D01*
X44286Y-43191D01*
X44280Y-43190D01*
X44242Y-43190D01*
X43829Y-42777D01*
X43830Y-42690D01*
X43792Y-42598D01*
X43721Y-42528D01*
X43629Y-42490D01*
X43530Y-42489D01*
X43438Y-42527D01*
X43368Y-42598D01*
X43330Y-42690D01*
X43329Y-42789D01*
X43367Y-42881D01*
X43438Y-42951D01*
X43530Y-42989D01*
X43617Y-42990D01*
X44073Y-43446D01*
X44073Y-43446D01*
X44122Y-43478D01*
X44122Y-43478D01*
X44180Y-43490D01*
X44217Y-43490D01*
X44293Y-43565D01*
X44238Y-43587D01*
X44168Y-43658D01*
X44130Y-43750D01*
X44129Y-43849D01*
X44167Y-43941D01*
X44238Y-44011D01*
X44330Y-44049D01*
X44417Y-44050D01*
X44590Y-44222D01*
X44590Y-44367D01*
X44499Y-44330D01*
X44400Y-44329D01*
X44308Y-44367D01*
X44246Y-44430D01*
X43240Y-44430D01*
X43182Y-44441D01*
X43133Y-44473D01*
X42847Y-44760D01*
X42760Y-44759D01*
X42668Y-44797D01*
X42598Y-44868D01*
X42560Y-44960D01*
X42559Y-45059D01*
X42597Y-45151D01*
X42668Y-45221D01*
X42760Y-45259D01*
X42859Y-45260D01*
X42951Y-45222D01*
X43021Y-45151D01*
X43059Y-45059D01*
X43060Y-44972D01*
X43302Y-44730D01*
X44246Y-44730D01*
X44308Y-44791D01*
X44315Y-44794D01*
X44308Y-44797D01*
X44238Y-44868D01*
X44200Y-44960D01*
X44199Y-45059D01*
X44237Y-45151D01*
X44280Y-45193D01*
X44280Y-45376D01*
X44231Y-45328D01*
X44139Y-45290D01*
X44052Y-45289D01*
X43809Y-45047D01*
X43810Y-44960D01*
X43772Y-44868D01*
X43701Y-44798D01*
X43609Y-44760D01*
X43510Y-44759D01*
X43418Y-44797D01*
X43348Y-44868D01*
X43310Y-44960D01*
X43309Y-45059D01*
X43347Y-45151D01*
X43418Y-45221D01*
X43510Y-45259D01*
X43597Y-45260D01*
X43840Y-45502D01*
X43839Y-45589D01*
X43877Y-45681D01*
X43948Y-45751D01*
X44040Y-45789D01*
X44139Y-45790D01*
X44231Y-45752D01*
X44259Y-45724D01*
X44250Y-45770D01*
X44250Y-46406D01*
X44208Y-46448D01*
X44170Y-46540D01*
X44169Y-46639D01*
X44207Y-46731D01*
X44278Y-46801D01*
X44370Y-46839D01*
X44469Y-46840D01*
X44561Y-46802D01*
X44631Y-46731D01*
X44669Y-46639D01*
X44670Y-46540D01*
X44632Y-46448D01*
X44590Y-46406D01*
X44590Y-46163D01*
X44598Y-46171D01*
X44690Y-46209D01*
X44789Y-46210D01*
X44881Y-46172D01*
X44951Y-46101D01*
X44989Y-46009D01*
X44990Y-45910D01*
X44952Y-45818D01*
X44890Y-45756D01*
X44890Y-45150D01*
X44893Y-45156D01*
X45490Y-45752D01*
X45490Y-45886D01*
X45428Y-45948D01*
X45390Y-46040D01*
X45389Y-46139D01*
X45427Y-46231D01*
X45498Y-46301D01*
X45590Y-46339D01*
X45689Y-46340D01*
X45781Y-46302D01*
X45851Y-46231D01*
X45889Y-46139D01*
X45890Y-46040D01*
X45890Y-47891D01*
X42205Y-47891D01*
X42205Y-45493D01*
X42147Y-45351D01*
X42038Y-45243D01*
X41897Y-45184D01*
X41743Y-45184D01*
X41601Y-45242D01*
X41530Y-45314D01*
X41530Y-43340D01*
X41492Y-43248D01*
X41421Y-43178D01*
X41329Y-43140D01*
X41230Y-43139D01*
X41138Y-43177D01*
X41068Y-43248D01*
X41030Y-43340D01*
X41029Y-43439D01*
X41067Y-43531D01*
X41097Y-43560D01*
X41003Y-43653D01*
X40971Y-43702D01*
X40960Y-43760D01*
X40960Y-43826D01*
X40898Y-43888D01*
X40860Y-43980D01*
X40859Y-44079D01*
X40897Y-44171D01*
X40968Y-44241D01*
X41060Y-44279D01*
X41159Y-44280D01*
X41251Y-44242D01*
X41321Y-44171D01*
X41359Y-44079D01*
X41360Y-43980D01*
X41322Y-43888D01*
X41260Y-43826D01*
X41260Y-43822D01*
X41386Y-43696D01*
X41386Y-43696D01*
X41386Y-43696D01*
X41418Y-43647D01*
X41418Y-43647D01*
X41429Y-43594D01*
X41491Y-43531D01*
X41529Y-43439D01*
X41530Y-43340D01*
X41530Y-45314D01*
X41493Y-45351D01*
X41434Y-45492D01*
X41434Y-45646D01*
X41492Y-45788D01*
X41601Y-45896D01*
X41742Y-45955D01*
X41896Y-45955D01*
X42038Y-45897D01*
X42146Y-45788D01*
X42205Y-45647D01*
X42205Y-45493D01*
X42205Y-47891D01*
X40953Y-47891D01*
X41150Y-47810D01*
X41458Y-47502D01*
X41625Y-47100D01*
X41625Y-46665D01*
X41459Y-46262D01*
X41152Y-45954D01*
X40750Y-45787D01*
X40314Y-45787D01*
X39912Y-45953D01*
X39604Y-46261D01*
X39510Y-46488D01*
X39510Y-21278D01*
X39603Y-21504D01*
X39910Y-21812D01*
X40312Y-21979D01*
X40748Y-21979D01*
X41150Y-21813D01*
X41458Y-21505D01*
X41625Y-21103D01*
X41625Y-20668D01*
X41459Y-20266D01*
X41152Y-19957D01*
X40832Y-19825D01*
X77266Y-19825D01*
X76947Y-19956D01*
X76639Y-20264D01*
X76472Y-20666D01*
X76472Y-21101D01*
X76638Y-21504D01*
X76946Y-21812D01*
X77348Y-21979D01*
X77783Y-21979D01*
X78185Y-21813D01*
X78494Y-21505D01*
X78600Y-21250D01*
X78600Y-42547D01*
X78493Y-42440D01*
X78322Y-42369D01*
X78138Y-42369D01*
X77967Y-42439D01*
X77836Y-42570D01*
X77805Y-42644D01*
X76365Y-42644D01*
X76365Y-24031D01*
X76365Y-21610D01*
X76327Y-21518D01*
X76257Y-21448D01*
X76165Y-21410D01*
X76065Y-21409D01*
X75973Y-21447D01*
X75903Y-21518D01*
X75865Y-21610D01*
X75865Y-21709D01*
X75903Y-21801D01*
X75973Y-21871D01*
X76065Y-21909D01*
X76164Y-21910D01*
X76256Y-21872D01*
X76327Y-21801D01*
X76365Y-21709D01*
X76365Y-21610D01*
X76365Y-24031D01*
X76327Y-23939D01*
X76257Y-23869D01*
X76165Y-23831D01*
X76065Y-23831D01*
X75973Y-23869D01*
X75903Y-23939D01*
X75865Y-24031D01*
X75865Y-24130D01*
X75903Y-24222D01*
X75973Y-24293D01*
X76065Y-24331D01*
X76164Y-24331D01*
X76256Y-24293D01*
X76327Y-24223D01*
X76365Y-24131D01*
X76365Y-24031D01*
X76365Y-42644D01*
X76094Y-42644D01*
X76064Y-42571D01*
X75933Y-42440D01*
X75762Y-42369D01*
X75578Y-42369D01*
X75407Y-42439D01*
X75310Y-42536D01*
X75310Y-36170D01*
X75310Y-35230D01*
X75310Y-34280D01*
X75310Y-33340D01*
X75310Y-32390D01*
X75310Y-31450D01*
X75272Y-31358D01*
X75201Y-31288D01*
X75149Y-31266D01*
X75149Y-29813D01*
X75096Y-29686D01*
X74999Y-29588D01*
X74872Y-29535D01*
X74734Y-29535D01*
X74607Y-29588D01*
X74509Y-29685D01*
X74456Y-29812D01*
X74456Y-29950D01*
X74509Y-30077D01*
X74606Y-30175D01*
X74733Y-30228D01*
X74871Y-30228D01*
X74999Y-30175D01*
X75096Y-30078D01*
X75149Y-29951D01*
X75149Y-29813D01*
X75149Y-31266D01*
X75111Y-31250D01*
X75119Y-31229D01*
X75120Y-31130D01*
X75082Y-31038D01*
X75011Y-30968D01*
X74919Y-30930D01*
X74820Y-30929D01*
X74728Y-30967D01*
X74672Y-31024D01*
X74650Y-31020D01*
X74414Y-31020D01*
X74414Y-23339D01*
X74375Y-23244D01*
X74375Y-21575D01*
X74310Y-21419D01*
X74191Y-21299D01*
X74034Y-21235D01*
X73865Y-21234D01*
X73709Y-21299D01*
X73589Y-21418D01*
X73525Y-21575D01*
X73524Y-21744D01*
X73589Y-21900D01*
X73708Y-22020D01*
X73865Y-22084D01*
X74034Y-22085D01*
X74190Y-22020D01*
X74310Y-21901D01*
X74374Y-21744D01*
X74375Y-21575D01*
X74375Y-23244D01*
X74343Y-23168D01*
X74213Y-23038D01*
X74042Y-22967D01*
X73858Y-22967D01*
X73687Y-23037D01*
X73556Y-23168D01*
X73485Y-23338D01*
X73485Y-23523D01*
X73556Y-23694D01*
X73686Y-23825D01*
X73857Y-23895D01*
X74041Y-23896D01*
X74212Y-23825D01*
X74343Y-23695D01*
X74414Y-23524D01*
X74414Y-23339D01*
X74414Y-31020D01*
X73522Y-31020D01*
X73466Y-30963D01*
X73417Y-30931D01*
X73360Y-30920D01*
X73133Y-30920D01*
X73071Y-30858D01*
X72979Y-30820D01*
X72880Y-30819D01*
X72788Y-30857D01*
X72718Y-30928D01*
X72680Y-31020D01*
X72679Y-31119D01*
X72717Y-31211D01*
X72788Y-31281D01*
X72880Y-31319D01*
X72930Y-31319D01*
X72929Y-31369D01*
X72967Y-31461D01*
X73038Y-31531D01*
X73130Y-31569D01*
X73229Y-31570D01*
X73321Y-31532D01*
X73383Y-31470D01*
X74217Y-31470D01*
X74353Y-31606D01*
X74353Y-31606D01*
X74402Y-31638D01*
X74402Y-31638D01*
X74460Y-31650D01*
X74856Y-31650D01*
X74918Y-31711D01*
X75010Y-31749D01*
X75109Y-31750D01*
X75201Y-31712D01*
X75271Y-31641D01*
X75309Y-31549D01*
X75310Y-31450D01*
X75310Y-32390D01*
X75272Y-32298D01*
X75201Y-32228D01*
X75111Y-32190D01*
X75119Y-32169D01*
X75120Y-32070D01*
X75082Y-31978D01*
X75011Y-31908D01*
X74919Y-31870D01*
X74820Y-31869D01*
X74728Y-31907D01*
X74666Y-31970D01*
X73502Y-31970D01*
X73436Y-31903D01*
X73387Y-31871D01*
X73330Y-31860D01*
X73133Y-31860D01*
X73071Y-31798D01*
X72979Y-31760D01*
X72880Y-31759D01*
X72788Y-31797D01*
X72718Y-31868D01*
X72680Y-31960D01*
X72679Y-32059D01*
X72717Y-32151D01*
X72788Y-32221D01*
X72880Y-32259D01*
X72930Y-32260D01*
X72929Y-32319D01*
X72967Y-32411D01*
X73038Y-32481D01*
X73130Y-32519D01*
X73229Y-32520D01*
X73321Y-32482D01*
X73383Y-32420D01*
X74367Y-32420D01*
X74493Y-32546D01*
X74493Y-32546D01*
X74542Y-32578D01*
X74542Y-32578D01*
X74600Y-32590D01*
X74856Y-32590D01*
X74918Y-32651D01*
X75010Y-32689D01*
X75109Y-32690D01*
X75201Y-32652D01*
X75271Y-32581D01*
X75309Y-32489D01*
X75310Y-32390D01*
X75310Y-33340D01*
X75272Y-33248D01*
X75201Y-33178D01*
X75109Y-33140D01*
X75107Y-33140D01*
X75119Y-33109D01*
X75120Y-33010D01*
X75082Y-32918D01*
X75011Y-32848D01*
X74919Y-32810D01*
X74820Y-32809D01*
X74728Y-32847D01*
X74666Y-32910D01*
X73452Y-32910D01*
X73396Y-32853D01*
X73347Y-32821D01*
X73290Y-32810D01*
X73133Y-32810D01*
X73071Y-32748D01*
X72979Y-32710D01*
X72880Y-32709D01*
X72788Y-32747D01*
X72718Y-32818D01*
X72680Y-32910D01*
X72679Y-33009D01*
X72717Y-33101D01*
X72788Y-33171D01*
X72880Y-33209D01*
X72930Y-33209D01*
X72929Y-33259D01*
X72967Y-33351D01*
X73038Y-33421D01*
X73130Y-33459D01*
X73229Y-33460D01*
X73321Y-33422D01*
X73383Y-33360D01*
X74557Y-33360D01*
X74693Y-33496D01*
X74693Y-33496D01*
X74742Y-33528D01*
X74742Y-33528D01*
X74800Y-33540D01*
X74856Y-33540D01*
X74918Y-33601D01*
X75010Y-33639D01*
X75109Y-33640D01*
X75201Y-33602D01*
X75271Y-33531D01*
X75309Y-33439D01*
X75310Y-33340D01*
X75310Y-34280D01*
X75272Y-34188D01*
X75201Y-34118D01*
X75109Y-34080D01*
X75045Y-34079D01*
X75049Y-34069D01*
X75050Y-33970D01*
X75012Y-33878D01*
X74941Y-33808D01*
X74849Y-33770D01*
X74750Y-33769D01*
X74658Y-33807D01*
X74596Y-33870D01*
X73522Y-33870D01*
X73436Y-33783D01*
X73387Y-33751D01*
X73330Y-33740D01*
X73143Y-33740D01*
X73081Y-33678D01*
X72989Y-33640D01*
X72890Y-33639D01*
X72798Y-33677D01*
X72728Y-33748D01*
X72690Y-33840D01*
X72689Y-33939D01*
X72727Y-34031D01*
X72798Y-34101D01*
X72890Y-34139D01*
X72930Y-34139D01*
X72929Y-34189D01*
X72967Y-34281D01*
X73038Y-34351D01*
X73130Y-34389D01*
X73229Y-34390D01*
X73321Y-34352D01*
X73359Y-34313D01*
X73390Y-34320D01*
X74527Y-34320D01*
X74643Y-34436D01*
X74643Y-34436D01*
X74692Y-34468D01*
X74692Y-34468D01*
X74750Y-34480D01*
X74856Y-34480D01*
X74918Y-34541D01*
X75010Y-34579D01*
X75109Y-34580D01*
X75201Y-34542D01*
X75271Y-34471D01*
X75309Y-34379D01*
X75310Y-34280D01*
X75310Y-35230D01*
X75272Y-35138D01*
X75201Y-35068D01*
X75109Y-35030D01*
X75041Y-35029D01*
X75049Y-35009D01*
X75050Y-34910D01*
X75012Y-34818D01*
X74941Y-34748D01*
X74849Y-34710D01*
X74750Y-34709D01*
X74658Y-34747D01*
X74612Y-34794D01*
X74590Y-34790D01*
X73452Y-34790D01*
X73396Y-34733D01*
X73347Y-34701D01*
X73290Y-34690D01*
X73143Y-34690D01*
X73081Y-34628D01*
X72989Y-34590D01*
X72890Y-34589D01*
X72798Y-34627D01*
X72728Y-34698D01*
X72690Y-34790D01*
X72689Y-34889D01*
X72727Y-34981D01*
X72798Y-35051D01*
X72890Y-35089D01*
X72930Y-35089D01*
X72929Y-35139D01*
X72967Y-35231D01*
X73038Y-35301D01*
X73130Y-35339D01*
X73229Y-35340D01*
X73321Y-35302D01*
X73383Y-35240D01*
X74477Y-35240D01*
X74623Y-35386D01*
X74623Y-35386D01*
X74672Y-35418D01*
X74672Y-35418D01*
X74730Y-35430D01*
X74856Y-35430D01*
X74918Y-35491D01*
X75010Y-35529D01*
X75109Y-35530D01*
X75201Y-35492D01*
X75271Y-35421D01*
X75309Y-35329D01*
X75310Y-35230D01*
X75310Y-36170D01*
X75272Y-36078D01*
X75201Y-36008D01*
X75109Y-35970D01*
X75045Y-35969D01*
X75049Y-35959D01*
X75050Y-35860D01*
X75012Y-35768D01*
X74941Y-35698D01*
X74849Y-35660D01*
X74750Y-35659D01*
X74658Y-35697D01*
X74596Y-35760D01*
X73512Y-35760D01*
X73436Y-35683D01*
X73387Y-35651D01*
X73330Y-35640D01*
X73143Y-35640D01*
X73081Y-35578D01*
X72989Y-35540D01*
X72890Y-35539D01*
X72798Y-35577D01*
X72728Y-35648D01*
X72690Y-35740D01*
X72689Y-35839D01*
X72727Y-35931D01*
X72798Y-36001D01*
X72890Y-36039D01*
X72930Y-36039D01*
X72929Y-36089D01*
X72967Y-36181D01*
X73038Y-36251D01*
X73130Y-36289D01*
X73229Y-36290D01*
X73321Y-36252D01*
X73367Y-36205D01*
X73390Y-36210D01*
X74537Y-36210D01*
X74653Y-36326D01*
X74653Y-36326D01*
X74702Y-36358D01*
X74702Y-36358D01*
X74760Y-36370D01*
X74856Y-36370D01*
X74918Y-36431D01*
X75010Y-36469D01*
X75109Y-36470D01*
X75201Y-36432D01*
X75271Y-36361D01*
X75309Y-36269D01*
X75310Y-36170D01*
X75310Y-42536D01*
X75276Y-42570D01*
X75234Y-42670D01*
X75194Y-42571D01*
X75070Y-42447D01*
X75070Y-37781D01*
X75030Y-37683D01*
X74954Y-37608D01*
X74856Y-37567D01*
X74750Y-37567D01*
X74651Y-37607D01*
X74576Y-37682D01*
X74535Y-37781D01*
X74535Y-37887D01*
X74576Y-37985D01*
X74651Y-38061D01*
X74749Y-38102D01*
X74856Y-38102D01*
X74954Y-38061D01*
X75029Y-37986D01*
X75070Y-37888D01*
X75070Y-37781D01*
X75070Y-42447D01*
X75063Y-42440D01*
X74892Y-42369D01*
X74708Y-42369D01*
X74537Y-42439D01*
X74406Y-42570D01*
X74335Y-42741D01*
X74335Y-42925D01*
X74405Y-43096D01*
X74536Y-43227D01*
X74707Y-43298D01*
X74891Y-43298D01*
X75062Y-43228D01*
X75193Y-43097D01*
X75235Y-42997D01*
X75275Y-43096D01*
X75406Y-43227D01*
X75577Y-43298D01*
X75761Y-43298D01*
X75932Y-43228D01*
X76063Y-43097D01*
X76094Y-43024D01*
X77805Y-43024D01*
X77835Y-43096D01*
X77966Y-43227D01*
X78137Y-43298D01*
X78321Y-43298D01*
X78492Y-43228D01*
X78600Y-43120D01*
X78600Y-44371D01*
X78580Y-44354D01*
X78481Y-44453D01*
X78481Y-44255D01*
X78436Y-44202D01*
X78266Y-44154D01*
X78090Y-44174D01*
X78023Y-44202D01*
X77978Y-44255D01*
X78230Y-44507D01*
X78481Y-44255D01*
X78481Y-44453D01*
X78328Y-44606D01*
X78580Y-44857D01*
X78600Y-44840D01*
X78600Y-46517D01*
X78600Y-46517D01*
G37*
G54D27*
X78600Y-46517D02*
X78495Y-46262D01*
X78481Y-46248D01*
X78481Y-44956D01*
X78230Y-44704D01*
X78131Y-44803D01*
X78131Y-44606D01*
X77879Y-44354D01*
X77826Y-44399D01*
X77778Y-44569D01*
X77798Y-44745D01*
X77826Y-44812D01*
X77879Y-44857D01*
X78131Y-44606D01*
X78131Y-44803D01*
X77978Y-44956D01*
X78023Y-45009D01*
X78193Y-45057D01*
X78369Y-45037D01*
X78436Y-45009D01*
X78481Y-44956D01*
X78481Y-46248D01*
X78187Y-45954D01*
X77785Y-45787D01*
X77350Y-45787D01*
X76947Y-45953D01*
X76639Y-46261D01*
X76472Y-46663D01*
X76472Y-47098D01*
X76638Y-47500D01*
X76946Y-47809D01*
X77144Y-47891D01*
X76121Y-47891D01*
X76121Y-44642D01*
X76101Y-44466D01*
X76073Y-44399D01*
X76020Y-44354D01*
X75921Y-44453D01*
X75921Y-44255D01*
X75876Y-44202D01*
X75706Y-44154D01*
X75530Y-44174D01*
X75463Y-44202D01*
X75418Y-44255D01*
X75670Y-44507D01*
X75921Y-44255D01*
X75921Y-44453D01*
X75768Y-44606D01*
X76020Y-44857D01*
X76073Y-44812D01*
X76121Y-44642D01*
X76121Y-47891D01*
X75921Y-47891D01*
X75921Y-44956D01*
X75670Y-44704D01*
X75571Y-44803D01*
X75571Y-44606D01*
X75319Y-44354D01*
X75266Y-44399D01*
X75235Y-44507D01*
X75231Y-44466D01*
X75203Y-44399D01*
X75150Y-44354D01*
X75051Y-44453D01*
X75051Y-44255D01*
X75006Y-44202D01*
X74836Y-44154D01*
X74660Y-44174D01*
X74593Y-44202D01*
X74548Y-44255D01*
X74800Y-44507D01*
X75051Y-44255D01*
X75051Y-44453D01*
X74898Y-44606D01*
X75150Y-44857D01*
X75203Y-44812D01*
X75234Y-44704D01*
X75238Y-44745D01*
X75266Y-44812D01*
X75319Y-44857D01*
X75571Y-44606D01*
X75571Y-44803D01*
X75418Y-44956D01*
X75463Y-45009D01*
X75633Y-45057D01*
X75809Y-45037D01*
X75876Y-45009D01*
X75921Y-44956D01*
X75921Y-47891D01*
X75264Y-47891D01*
X75264Y-45442D01*
X75194Y-45271D01*
X75063Y-45140D01*
X75051Y-45135D01*
X75051Y-44956D01*
X74800Y-44704D01*
X74701Y-44803D01*
X74701Y-44606D01*
X74449Y-44354D01*
X74396Y-44399D01*
X74348Y-44569D01*
X74368Y-44745D01*
X74396Y-44812D01*
X74449Y-44857D01*
X74701Y-44606D01*
X74701Y-44803D01*
X74548Y-44956D01*
X74593Y-45009D01*
X74763Y-45057D01*
X74939Y-45037D01*
X75006Y-45009D01*
X75051Y-44956D01*
X75051Y-45135D01*
X74892Y-45069D01*
X74708Y-45069D01*
X74537Y-45139D01*
X74406Y-45270D01*
X74335Y-45441D01*
X74335Y-45625D01*
X74405Y-45796D01*
X74536Y-45927D01*
X74707Y-45998D01*
X74891Y-45998D01*
X75062Y-45928D01*
X75193Y-45797D01*
X75264Y-45626D01*
X75264Y-45442D01*
X75264Y-47891D01*
X75251Y-47891D01*
X75251Y-47342D01*
X75231Y-47166D01*
X75203Y-47099D01*
X75150Y-47054D01*
X75051Y-47153D01*
X75051Y-46955D01*
X75006Y-46902D01*
X74836Y-46854D01*
X74660Y-46874D01*
X74593Y-46902D01*
X74548Y-46955D01*
X74800Y-47207D01*
X75051Y-46955D01*
X75051Y-47153D01*
X74898Y-47306D01*
X75150Y-47557D01*
X75203Y-47512D01*
X75251Y-47342D01*
X75251Y-47891D01*
X75051Y-47891D01*
X75051Y-47656D01*
X74800Y-47404D01*
X74701Y-47503D01*
X74701Y-47306D01*
X74449Y-47054D01*
X74396Y-47099D01*
X74348Y-47269D01*
X74368Y-47445D01*
X74396Y-47512D01*
X74449Y-47557D01*
X74701Y-47306D01*
X74701Y-47503D01*
X74548Y-47656D01*
X74593Y-47709D01*
X74763Y-47757D01*
X74939Y-47737D01*
X75006Y-47709D01*
X75051Y-47656D01*
X75051Y-47891D01*
X73060Y-47891D01*
X73060Y-43100D01*
X73022Y-43008D01*
X72960Y-42946D01*
X72960Y-42340D01*
X72960Y-42340D01*
X72960Y-42340D01*
X72948Y-42282D01*
X72916Y-42233D01*
X72916Y-42233D01*
X72916Y-42233D01*
X72676Y-41993D01*
X72627Y-41961D01*
X72586Y-41953D01*
X72521Y-41888D01*
X72429Y-41850D01*
X72330Y-41849D01*
X72238Y-41887D01*
X72168Y-41958D01*
X72130Y-42050D01*
X72129Y-42149D01*
X72167Y-42241D01*
X72238Y-42311D01*
X72330Y-42349D01*
X72429Y-42350D01*
X72521Y-42312D01*
X72545Y-42287D01*
X72660Y-42402D01*
X72660Y-42634D01*
X72634Y-42571D01*
X72503Y-42440D01*
X72332Y-42369D01*
X72148Y-42369D01*
X71977Y-42439D01*
X71846Y-42570D01*
X71804Y-42670D01*
X71764Y-42571D01*
X71633Y-42440D01*
X71462Y-42369D01*
X71278Y-42369D01*
X71107Y-42439D01*
X70976Y-42570D01*
X70905Y-42741D01*
X70905Y-42925D01*
X70975Y-43096D01*
X71106Y-43227D01*
X71277Y-43298D01*
X71461Y-43298D01*
X71632Y-43228D01*
X71763Y-43097D01*
X71805Y-42997D01*
X71845Y-43096D01*
X71976Y-43227D01*
X72147Y-43298D01*
X72331Y-43298D01*
X72502Y-43228D01*
X72559Y-43170D01*
X72559Y-43199D01*
X72597Y-43291D01*
X72668Y-43361D01*
X72760Y-43399D01*
X72859Y-43400D01*
X72951Y-43362D01*
X73021Y-43291D01*
X73059Y-43199D01*
X73060Y-43100D01*
X73060Y-47891D01*
X72704Y-47891D01*
X72704Y-45442D01*
X72691Y-45410D01*
X72691Y-44642D01*
X72671Y-44466D01*
X72643Y-44399D01*
X72590Y-44354D01*
X72491Y-44453D01*
X72491Y-44255D01*
X72446Y-44202D01*
X72276Y-44154D01*
X72100Y-44174D01*
X72033Y-44202D01*
X71988Y-44255D01*
X72240Y-44507D01*
X72491Y-44255D01*
X72491Y-44453D01*
X72338Y-44606D01*
X72590Y-44857D01*
X72643Y-44812D01*
X72691Y-44642D01*
X72691Y-45410D01*
X72634Y-45271D01*
X72503Y-45140D01*
X72491Y-45135D01*
X72491Y-44956D01*
X72240Y-44704D01*
X72141Y-44803D01*
X72141Y-44606D01*
X71889Y-44354D01*
X71836Y-44399D01*
X71805Y-44507D01*
X71801Y-44466D01*
X71773Y-44399D01*
X71720Y-44354D01*
X71621Y-44453D01*
X71621Y-44255D01*
X71576Y-44202D01*
X71406Y-44154D01*
X71230Y-44174D01*
X71163Y-44202D01*
X71118Y-44255D01*
X71370Y-44507D01*
X71621Y-44255D01*
X71621Y-44453D01*
X71468Y-44606D01*
X71720Y-44857D01*
X71773Y-44812D01*
X71804Y-44704D01*
X71808Y-44745D01*
X71836Y-44812D01*
X71889Y-44857D01*
X72141Y-44606D01*
X72141Y-44803D01*
X71988Y-44956D01*
X72033Y-45009D01*
X72203Y-45057D01*
X72379Y-45037D01*
X72446Y-45009D01*
X72491Y-44956D01*
X72491Y-45135D01*
X72332Y-45069D01*
X72148Y-45069D01*
X71977Y-45139D01*
X71846Y-45270D01*
X71775Y-45441D01*
X71775Y-45625D01*
X71845Y-45796D01*
X71976Y-45927D01*
X72147Y-45998D01*
X72331Y-45998D01*
X72502Y-45928D01*
X72633Y-45797D01*
X72704Y-45626D01*
X72704Y-45442D01*
X72704Y-47891D01*
X72691Y-47891D01*
X72691Y-47342D01*
X72671Y-47166D01*
X72643Y-47099D01*
X72590Y-47054D01*
X72491Y-47153D01*
X72491Y-46955D01*
X72446Y-46902D01*
X72276Y-46854D01*
X72100Y-46874D01*
X72033Y-46902D01*
X71988Y-46955D01*
X72240Y-47207D01*
X72491Y-46955D01*
X72491Y-47153D01*
X72338Y-47306D01*
X72590Y-47557D01*
X72643Y-47512D01*
X72691Y-47342D01*
X72691Y-47891D01*
X72491Y-47891D01*
X72491Y-47656D01*
X72240Y-47404D01*
X72141Y-47503D01*
X72141Y-47306D01*
X71889Y-47054D01*
X71836Y-47099D01*
X71788Y-47269D01*
X71808Y-47445D01*
X71836Y-47512D01*
X71889Y-47557D01*
X72141Y-47306D01*
X72141Y-47503D01*
X71988Y-47656D01*
X72033Y-47709D01*
X72203Y-47757D01*
X72379Y-47737D01*
X72446Y-47709D01*
X72491Y-47656D01*
X72491Y-47891D01*
X71621Y-47891D01*
X71621Y-44956D01*
X71370Y-44704D01*
X71271Y-44803D01*
X71271Y-44606D01*
X71019Y-44354D01*
X70966Y-44399D01*
X70918Y-44569D01*
X70938Y-44745D01*
X70966Y-44812D01*
X71019Y-44857D01*
X71271Y-44606D01*
X71271Y-44803D01*
X71118Y-44956D01*
X71163Y-45009D01*
X71333Y-45057D01*
X71509Y-45037D01*
X71576Y-45009D01*
X71621Y-44956D01*
X71621Y-47891D01*
X69274Y-47891D01*
X69274Y-42742D01*
X69204Y-42571D01*
X69073Y-42440D01*
X68902Y-42369D01*
X68718Y-42369D01*
X68547Y-42439D01*
X68416Y-42570D01*
X68345Y-42741D01*
X68345Y-42925D01*
X68415Y-43096D01*
X68546Y-43227D01*
X68717Y-43298D01*
X68901Y-43298D01*
X69072Y-43228D01*
X69203Y-43097D01*
X69274Y-42926D01*
X69274Y-42742D01*
X69274Y-47891D01*
X69261Y-47891D01*
X69261Y-44642D01*
X69241Y-44466D01*
X69213Y-44399D01*
X69160Y-44354D01*
X69061Y-44453D01*
X69061Y-44255D01*
X69016Y-44202D01*
X68846Y-44154D01*
X68670Y-44174D01*
X68603Y-44202D01*
X68558Y-44255D01*
X68810Y-44507D01*
X69061Y-44255D01*
X69061Y-44453D01*
X68908Y-44606D01*
X69160Y-44857D01*
X69213Y-44812D01*
X69261Y-44642D01*
X69261Y-47891D01*
X69061Y-47891D01*
X69061Y-44956D01*
X68810Y-44704D01*
X68711Y-44803D01*
X68711Y-44606D01*
X68459Y-44354D01*
X68406Y-44399D01*
X68358Y-44569D01*
X68378Y-44745D01*
X68406Y-44812D01*
X68459Y-44857D01*
X68711Y-44606D01*
X68711Y-44803D01*
X68558Y-44956D01*
X68603Y-45009D01*
X68773Y-45057D01*
X68949Y-45037D01*
X69016Y-45009D01*
X69061Y-44956D01*
X69061Y-47891D01*
X67690Y-47891D01*
X67690Y-29040D01*
X67652Y-28948D01*
X67630Y-28926D01*
X67630Y-27333D01*
X67651Y-27311D01*
X67689Y-27219D01*
X67690Y-27120D01*
X67652Y-27028D01*
X67581Y-26958D01*
X67489Y-26920D01*
X67390Y-26919D01*
X67298Y-26957D01*
X67228Y-27028D01*
X67190Y-27120D01*
X67189Y-27219D01*
X67227Y-27311D01*
X67250Y-27333D01*
X67250Y-28926D01*
X67228Y-28948D01*
X67190Y-29040D01*
X67189Y-29139D01*
X67227Y-29231D01*
X67298Y-29301D01*
X67390Y-29339D01*
X67489Y-29340D01*
X67581Y-29302D01*
X67651Y-29231D01*
X67689Y-29139D01*
X67690Y-29040D01*
X67690Y-47891D01*
X65525Y-47891D01*
X65525Y-27483D01*
X65467Y-27341D01*
X65358Y-27233D01*
X65217Y-27174D01*
X65063Y-27174D01*
X64921Y-27232D01*
X64813Y-27341D01*
X64754Y-27482D01*
X64754Y-27636D01*
X64812Y-27778D01*
X64921Y-27886D01*
X65062Y-27945D01*
X65216Y-27945D01*
X65358Y-27887D01*
X65466Y-27778D01*
X65525Y-27637D01*
X65525Y-27483D01*
X65525Y-47891D01*
X64480Y-47891D01*
X64480Y-39547D01*
X64480Y-27736D01*
X64314Y-27333D01*
X64006Y-27025D01*
X63604Y-26858D01*
X63169Y-26858D01*
X62766Y-27024D01*
X62458Y-27332D01*
X62291Y-27734D01*
X62291Y-28169D01*
X62457Y-28571D01*
X62765Y-28879D01*
X63167Y-29046D01*
X63602Y-29047D01*
X64004Y-28880D01*
X64312Y-28573D01*
X64479Y-28171D01*
X64480Y-27736D01*
X64480Y-39547D01*
X64314Y-39144D01*
X64006Y-38836D01*
X63604Y-38669D01*
X63169Y-38669D01*
X63020Y-38730D01*
X63020Y-34100D01*
X62982Y-34008D01*
X62920Y-33946D01*
X62920Y-32193D01*
X62981Y-32131D01*
X63019Y-32039D01*
X63020Y-31940D01*
X62982Y-31848D01*
X62911Y-31778D01*
X62819Y-31740D01*
X62720Y-31739D01*
X62628Y-31777D01*
X62558Y-31848D01*
X62520Y-31940D01*
X62519Y-32039D01*
X62557Y-32131D01*
X62620Y-32193D01*
X62620Y-33946D01*
X62558Y-34008D01*
X62520Y-34100D01*
X62519Y-34199D01*
X62557Y-34291D01*
X62628Y-34361D01*
X62720Y-34399D01*
X62819Y-34400D01*
X62911Y-34362D01*
X62981Y-34291D01*
X63019Y-34199D01*
X63020Y-34100D01*
X63020Y-38730D01*
X62829Y-38809D01*
X62830Y-38710D01*
X62792Y-38618D01*
X62721Y-38548D01*
X62629Y-38510D01*
X62530Y-38509D01*
X62438Y-38547D01*
X62368Y-38618D01*
X62330Y-38710D01*
X62329Y-38797D01*
X62287Y-38840D01*
X62062Y-38840D01*
X62099Y-38749D01*
X62100Y-38650D01*
X62062Y-38558D01*
X61991Y-38488D01*
X61899Y-38450D01*
X61812Y-38449D01*
X61715Y-38352D01*
X61715Y-37783D01*
X61776Y-37721D01*
X61814Y-37629D01*
X61815Y-37530D01*
X61777Y-37438D01*
X61706Y-37368D01*
X61614Y-37330D01*
X61515Y-37329D01*
X61423Y-37367D01*
X61353Y-37438D01*
X61315Y-37530D01*
X61314Y-37629D01*
X61352Y-37721D01*
X61415Y-37783D01*
X61415Y-38415D01*
X61426Y-38472D01*
X61458Y-38521D01*
X61600Y-38662D01*
X61599Y-38749D01*
X61637Y-38840D01*
X61632Y-38840D01*
X61566Y-38773D01*
X61517Y-38741D01*
X61460Y-38730D01*
X61373Y-38730D01*
X61311Y-38668D01*
X61219Y-38630D01*
X61120Y-38629D01*
X61028Y-38667D01*
X60958Y-38738D01*
X60920Y-38830D01*
X60919Y-38929D01*
X60957Y-39021D01*
X61021Y-39085D01*
X60958Y-39148D01*
X60920Y-39240D01*
X60919Y-39327D01*
X60780Y-39467D01*
X60780Y-26610D01*
X60742Y-26518D01*
X60671Y-26448D01*
X60606Y-26421D01*
X60606Y-24009D01*
X60468Y-23675D01*
X60212Y-23418D01*
X59878Y-23280D01*
X59516Y-23279D01*
X59181Y-23418D01*
X58925Y-23673D01*
X58786Y-24008D01*
X58786Y-24370D01*
X58924Y-24704D01*
X59180Y-24961D01*
X59514Y-25099D01*
X59876Y-25100D01*
X60211Y-24961D01*
X60467Y-24706D01*
X60606Y-24371D01*
X60606Y-24009D01*
X60606Y-26421D01*
X60579Y-26410D01*
X60480Y-26409D01*
X60388Y-26447D01*
X60318Y-26518D01*
X60280Y-26610D01*
X60280Y-26641D01*
X59541Y-27379D01*
X59510Y-27379D01*
X59418Y-27417D01*
X59348Y-27488D01*
X59310Y-27580D01*
X59309Y-27679D01*
X59347Y-27771D01*
X59418Y-27841D01*
X59510Y-27879D01*
X59609Y-27880D01*
X59701Y-27842D01*
X59771Y-27771D01*
X59809Y-27679D01*
X59809Y-27648D01*
X60548Y-26910D01*
X60579Y-26910D01*
X60671Y-26872D01*
X60741Y-26801D01*
X60779Y-26709D01*
X60780Y-26610D01*
X60780Y-39467D01*
X60440Y-39807D01*
X60440Y-37280D01*
X60402Y-37188D01*
X60331Y-37118D01*
X60239Y-37080D01*
X60189Y-37080D01*
X60190Y-37030D01*
X60152Y-36938D01*
X60081Y-36868D01*
X59989Y-36830D01*
X59890Y-36829D01*
X59798Y-36867D01*
X59736Y-36930D01*
X58575Y-36930D01*
X58599Y-36869D01*
X58600Y-36770D01*
X58562Y-36678D01*
X58491Y-36608D01*
X58399Y-36570D01*
X58300Y-36569D01*
X58208Y-36607D01*
X58146Y-36670D01*
X57880Y-36670D01*
X57880Y-35700D01*
X57842Y-35608D01*
X57780Y-35546D01*
X57780Y-35073D01*
X57841Y-35011D01*
X57879Y-34919D01*
X57880Y-34820D01*
X57842Y-34728D01*
X57771Y-34658D01*
X57679Y-34620D01*
X57580Y-34619D01*
X57488Y-34657D01*
X57418Y-34728D01*
X57380Y-34820D01*
X57379Y-34919D01*
X57417Y-35011D01*
X57480Y-35073D01*
X57480Y-35546D01*
X57426Y-35600D01*
X57390Y-35600D01*
X57332Y-35611D01*
X57283Y-35643D01*
X57270Y-35657D01*
X57241Y-35628D01*
X57149Y-35590D01*
X57102Y-35590D01*
X57102Y-23105D01*
X57037Y-22949D01*
X56918Y-22829D01*
X56762Y-22765D01*
X56592Y-22764D01*
X56436Y-22829D01*
X56317Y-22948D01*
X56252Y-23105D01*
X56252Y-23274D01*
X56316Y-23430D01*
X56436Y-23550D01*
X56592Y-23614D01*
X56761Y-23615D01*
X56917Y-23550D01*
X57037Y-23431D01*
X57102Y-23274D01*
X57102Y-23105D01*
X57102Y-35590D01*
X57089Y-35589D01*
X57089Y-25216D01*
X57068Y-25057D01*
X57047Y-25007D01*
X56998Y-24967D01*
X56899Y-25066D01*
X56899Y-24868D01*
X56859Y-24819D01*
X56704Y-24777D01*
X56638Y-24786D01*
X56638Y-24216D01*
X56617Y-24057D01*
X56596Y-24007D01*
X56547Y-23967D01*
X56448Y-24066D01*
X56448Y-23868D01*
X56408Y-23819D01*
X56253Y-23777D01*
X56200Y-23784D01*
X56200Y-23105D01*
X56136Y-22949D01*
X56016Y-22829D01*
X55860Y-22765D01*
X55691Y-22764D01*
X55535Y-22829D01*
X55415Y-22948D01*
X55350Y-23105D01*
X55350Y-23274D01*
X55415Y-23430D01*
X55534Y-23550D01*
X55690Y-23614D01*
X55859Y-23615D01*
X56016Y-23550D01*
X56135Y-23431D01*
X56200Y-23274D01*
X56200Y-23105D01*
X56200Y-23784D01*
X56093Y-23799D01*
X56043Y-23819D01*
X56004Y-23868D01*
X56226Y-24091D01*
X56448Y-23868D01*
X56448Y-24066D01*
X56325Y-24190D01*
X56547Y-24412D01*
X56596Y-24372D01*
X56638Y-24216D01*
X56638Y-24786D01*
X56544Y-24799D01*
X56494Y-24819D01*
X56455Y-24868D01*
X56677Y-25091D01*
X56899Y-24868D01*
X56899Y-25066D01*
X56776Y-25190D01*
X56998Y-25412D01*
X57047Y-25372D01*
X57089Y-25216D01*
X57089Y-35589D01*
X57050Y-35589D01*
X57040Y-35594D01*
X57040Y-30350D01*
X57002Y-30258D01*
X56931Y-30188D01*
X56910Y-30179D01*
X56910Y-27970D01*
X56899Y-27944D01*
X56899Y-25511D01*
X56677Y-25288D01*
X56578Y-25387D01*
X56578Y-25190D01*
X56448Y-25060D01*
X56448Y-24511D01*
X56226Y-24288D01*
X56127Y-24387D01*
X56127Y-24190D01*
X55905Y-23967D01*
X55855Y-24007D01*
X55814Y-24163D01*
X55835Y-24322D01*
X55855Y-24372D01*
X55905Y-24412D01*
X56127Y-24190D01*
X56127Y-24387D01*
X56004Y-24511D01*
X56043Y-24560D01*
X56199Y-24602D01*
X56359Y-24580D01*
X56408Y-24560D01*
X56448Y-24511D01*
X56448Y-25060D01*
X56356Y-24967D01*
X56306Y-25007D01*
X56265Y-25163D01*
X56286Y-25322D01*
X56306Y-25372D01*
X56356Y-25412D01*
X56578Y-25190D01*
X56578Y-25387D01*
X56455Y-25511D01*
X56494Y-25560D01*
X56650Y-25602D01*
X56809Y-25580D01*
X56859Y-25560D01*
X56899Y-25511D01*
X56899Y-27944D01*
X56872Y-27878D01*
X56801Y-27808D01*
X56709Y-27770D01*
X56610Y-27769D01*
X56518Y-27807D01*
X56448Y-27878D01*
X56410Y-27970D01*
X56409Y-28057D01*
X56200Y-28267D01*
X56200Y-25105D01*
X56136Y-24949D01*
X56016Y-24829D01*
X55860Y-24765D01*
X55749Y-24764D01*
X55749Y-24105D01*
X55685Y-23949D01*
X55565Y-23829D01*
X55409Y-23765D01*
X55299Y-23764D01*
X55299Y-23105D01*
X55234Y-22949D01*
X55115Y-22829D01*
X54958Y-22765D01*
X54789Y-22764D01*
X54633Y-22829D01*
X54513Y-22948D01*
X54449Y-23105D01*
X54448Y-23274D01*
X54513Y-23430D01*
X54632Y-23550D01*
X54789Y-23614D01*
X54958Y-23615D01*
X55114Y-23550D01*
X55234Y-23431D01*
X55298Y-23274D01*
X55299Y-23105D01*
X55299Y-23764D01*
X55240Y-23764D01*
X55084Y-23829D01*
X54964Y-23948D01*
X54899Y-24105D01*
X54899Y-24274D01*
X54964Y-24430D01*
X55083Y-24550D01*
X55239Y-24614D01*
X55408Y-24615D01*
X55565Y-24550D01*
X55684Y-24431D01*
X55749Y-24274D01*
X55749Y-24105D01*
X55749Y-24764D01*
X55691Y-24764D01*
X55535Y-24829D01*
X55415Y-24948D01*
X55350Y-25105D01*
X55350Y-25274D01*
X55415Y-25430D01*
X55534Y-25550D01*
X55690Y-25614D01*
X55859Y-25615D01*
X56016Y-25550D01*
X56135Y-25431D01*
X56200Y-25274D01*
X56200Y-25105D01*
X56200Y-28267D01*
X55977Y-28490D01*
X55299Y-28490D01*
X55299Y-25105D01*
X55234Y-24949D01*
X55115Y-24829D01*
X54958Y-24765D01*
X54835Y-24764D01*
X54835Y-24216D01*
X54814Y-24057D01*
X54793Y-24007D01*
X54744Y-23967D01*
X54645Y-24066D01*
X54645Y-23868D01*
X54605Y-23819D01*
X54450Y-23777D01*
X54397Y-23784D01*
X54397Y-23105D01*
X54332Y-22949D01*
X54213Y-22829D01*
X54057Y-22765D01*
X53888Y-22764D01*
X53732Y-22829D01*
X53612Y-22948D01*
X53547Y-23105D01*
X53547Y-23274D01*
X53611Y-23430D01*
X53731Y-23550D01*
X53887Y-23614D01*
X54056Y-23615D01*
X54212Y-23550D01*
X54332Y-23431D01*
X54397Y-23274D01*
X54397Y-23105D01*
X54397Y-23784D01*
X54290Y-23799D01*
X54240Y-23819D01*
X54201Y-23868D01*
X54423Y-24091D01*
X54645Y-23868D01*
X54645Y-24066D01*
X54522Y-24190D01*
X54744Y-24412D01*
X54793Y-24372D01*
X54835Y-24216D01*
X54835Y-24764D01*
X54789Y-24764D01*
X54645Y-24824D01*
X54645Y-24511D01*
X54423Y-24288D01*
X54324Y-24387D01*
X54324Y-24190D01*
X54102Y-23967D01*
X54052Y-24007D01*
X54011Y-24163D01*
X54032Y-24322D01*
X54052Y-24372D01*
X54102Y-24412D01*
X54324Y-24190D01*
X54324Y-24387D01*
X54201Y-24511D01*
X54240Y-24560D01*
X54396Y-24602D01*
X54556Y-24580D01*
X54605Y-24560D01*
X54645Y-24511D01*
X54645Y-24824D01*
X54633Y-24829D01*
X54513Y-24948D01*
X54449Y-25105D01*
X54448Y-25274D01*
X54513Y-25430D01*
X54632Y-25550D01*
X54789Y-25614D01*
X54958Y-25615D01*
X55114Y-25550D01*
X55234Y-25431D01*
X55298Y-25274D01*
X55299Y-25105D01*
X55299Y-28490D01*
X54397Y-28490D01*
X54397Y-25105D01*
X54332Y-24949D01*
X54213Y-24829D01*
X54057Y-24765D01*
X53933Y-24764D01*
X53933Y-24216D01*
X53912Y-24057D01*
X53892Y-24007D01*
X53842Y-23967D01*
X53743Y-24066D01*
X53743Y-23868D01*
X53704Y-23819D01*
X53548Y-23777D01*
X53495Y-23784D01*
X53495Y-23105D01*
X53431Y-22949D01*
X53311Y-22829D01*
X53155Y-22765D01*
X52986Y-22764D01*
X52830Y-22829D01*
X52710Y-22948D01*
X52645Y-23105D01*
X52645Y-23274D01*
X52710Y-23430D01*
X52829Y-23550D01*
X52985Y-23614D01*
X53155Y-23615D01*
X53311Y-23550D01*
X53430Y-23431D01*
X53495Y-23274D01*
X53495Y-23105D01*
X53495Y-23784D01*
X53388Y-23799D01*
X53339Y-23819D01*
X53299Y-23868D01*
X53521Y-24091D01*
X53743Y-23868D01*
X53743Y-24066D01*
X53620Y-24190D01*
X53842Y-24412D01*
X53892Y-24372D01*
X53933Y-24216D01*
X53933Y-24764D01*
X53888Y-24764D01*
X53743Y-24824D01*
X53743Y-24511D01*
X53521Y-24288D01*
X53422Y-24387D01*
X53422Y-24190D01*
X53200Y-23967D01*
X53151Y-24007D01*
X53109Y-24163D01*
X53130Y-24322D01*
X53151Y-24372D01*
X53200Y-24412D01*
X53422Y-24190D01*
X53422Y-24387D01*
X53299Y-24511D01*
X53339Y-24560D01*
X53494Y-24602D01*
X53654Y-24580D01*
X53704Y-24560D01*
X53743Y-24511D01*
X53743Y-24824D01*
X53732Y-24829D01*
X53612Y-24948D01*
X53547Y-25105D01*
X53547Y-25274D01*
X53611Y-25430D01*
X53731Y-25550D01*
X53887Y-25614D01*
X54056Y-25615D01*
X54212Y-25550D01*
X54332Y-25431D01*
X54397Y-25274D01*
X54397Y-25105D01*
X54397Y-28490D01*
X53495Y-28490D01*
X53495Y-25105D01*
X53431Y-24949D01*
X53311Y-24829D01*
X53155Y-24765D01*
X53032Y-24764D01*
X53032Y-24216D01*
X53011Y-24057D01*
X52990Y-24007D01*
X52941Y-23967D01*
X52842Y-24066D01*
X52842Y-23868D01*
X52802Y-23819D01*
X52647Y-23777D01*
X52487Y-23799D01*
X52437Y-23819D01*
X52397Y-23868D01*
X52620Y-24091D01*
X52842Y-23868D01*
X52842Y-24066D01*
X52719Y-24190D01*
X52941Y-24412D01*
X52990Y-24372D01*
X53032Y-24216D01*
X53032Y-24764D01*
X52986Y-24764D01*
X52842Y-24824D01*
X52842Y-24511D01*
X52620Y-24288D01*
X52521Y-24387D01*
X52521Y-24190D01*
X52298Y-23967D01*
X52249Y-24007D01*
X52208Y-24163D01*
X52229Y-24322D01*
X52249Y-24372D01*
X52298Y-24412D01*
X52521Y-24190D01*
X52521Y-24387D01*
X52397Y-24511D01*
X52437Y-24560D01*
X52593Y-24602D01*
X52752Y-24580D01*
X52802Y-24560D01*
X52842Y-24511D01*
X52842Y-24824D01*
X52830Y-24829D01*
X52710Y-24948D01*
X52645Y-25105D01*
X52645Y-25274D01*
X52710Y-25430D01*
X52829Y-25550D01*
X52985Y-25614D01*
X53155Y-25615D01*
X53311Y-25550D01*
X53430Y-25431D01*
X53495Y-25274D01*
X53495Y-25105D01*
X53495Y-28490D01*
X53002Y-28490D01*
X52920Y-28407D01*
X52920Y-27883D01*
X52981Y-27821D01*
X53019Y-27729D01*
X53020Y-27630D01*
X52982Y-27538D01*
X52911Y-27468D01*
X52819Y-27430D01*
X52720Y-27429D01*
X52628Y-27467D01*
X52558Y-27538D01*
X52520Y-27630D01*
X52519Y-27729D01*
X52557Y-27821D01*
X52620Y-27883D01*
X52620Y-28470D01*
X52631Y-28527D01*
X52663Y-28576D01*
X52833Y-28746D01*
X52833Y-28746D01*
X52882Y-28778D01*
X52882Y-28778D01*
X52940Y-28790D01*
X56040Y-28790D01*
X56097Y-28778D01*
X56097Y-28778D01*
X56146Y-28746D01*
X56622Y-28269D01*
X56709Y-28270D01*
X56801Y-28232D01*
X56871Y-28161D01*
X56909Y-28069D01*
X56910Y-27970D01*
X56910Y-30179D01*
X56840Y-30150D01*
X56840Y-29100D01*
X56802Y-29008D01*
X56731Y-28938D01*
X56639Y-28900D01*
X56540Y-28899D01*
X56448Y-28937D01*
X56378Y-29008D01*
X56340Y-29100D01*
X56339Y-29187D01*
X56027Y-29500D01*
X55910Y-29500D01*
X55910Y-29499D01*
X55852Y-29511D01*
X55846Y-29515D01*
X55962Y-29399D01*
X56049Y-29400D01*
X56141Y-29362D01*
X56211Y-29291D01*
X56249Y-29199D01*
X56250Y-29100D01*
X56212Y-29008D01*
X56141Y-28938D01*
X56049Y-28900D01*
X55950Y-28899D01*
X55858Y-28937D01*
X55804Y-28991D01*
X55751Y-28938D01*
X55659Y-28900D01*
X55560Y-28899D01*
X55468Y-28937D01*
X55398Y-29008D01*
X55360Y-29100D01*
X55359Y-29187D01*
X52087Y-32460D01*
X51853Y-32460D01*
X51791Y-32398D01*
X51699Y-32360D01*
X51600Y-32359D01*
X51508Y-32397D01*
X51438Y-32468D01*
X51400Y-32560D01*
X51399Y-32659D01*
X51437Y-32751D01*
X51508Y-32821D01*
X51600Y-32859D01*
X51660Y-32860D01*
X51659Y-32880D01*
X51600Y-32879D01*
X51508Y-32917D01*
X51438Y-32988D01*
X51400Y-33080D01*
X51399Y-33179D01*
X51437Y-33271D01*
X51508Y-33341D01*
X51600Y-33379D01*
X51660Y-33380D01*
X51659Y-33400D01*
X51600Y-33399D01*
X51508Y-33437D01*
X51438Y-33508D01*
X51400Y-33600D01*
X51399Y-33699D01*
X51437Y-33791D01*
X51508Y-33861D01*
X51600Y-33899D01*
X51699Y-33900D01*
X51791Y-33862D01*
X51853Y-33800D01*
X52690Y-33800D01*
X52747Y-33788D01*
X52747Y-33788D01*
X52796Y-33756D01*
X55156Y-31396D01*
X55188Y-31347D01*
X55200Y-31290D01*
X55200Y-31290D01*
X55200Y-31289D01*
X55200Y-31182D01*
X55402Y-30980D01*
X55670Y-30980D01*
X55727Y-30968D01*
X55727Y-30968D01*
X55776Y-30936D01*
X56062Y-30649D01*
X56149Y-30650D01*
X56241Y-30612D01*
X56311Y-30541D01*
X56349Y-30449D01*
X56350Y-30350D01*
X56312Y-30258D01*
X56241Y-30188D01*
X56149Y-30150D01*
X56050Y-30149D01*
X56049Y-30150D01*
X56050Y-30090D01*
X56012Y-29998D01*
X55941Y-29928D01*
X55872Y-29899D01*
X55972Y-29800D01*
X56090Y-29800D01*
X56147Y-29788D01*
X56147Y-29788D01*
X56196Y-29756D01*
X56552Y-29399D01*
X56639Y-29400D01*
X56731Y-29362D01*
X56801Y-29291D01*
X56839Y-29199D01*
X56840Y-29100D01*
X56840Y-30150D01*
X56839Y-30150D01*
X56740Y-30149D01*
X56648Y-30187D01*
X56578Y-30258D01*
X56540Y-30350D01*
X56539Y-30437D01*
X56463Y-30513D01*
X56431Y-30562D01*
X56420Y-30620D01*
X56420Y-30727D01*
X54287Y-32860D01*
X54200Y-32859D01*
X54108Y-32897D01*
X54038Y-32968D01*
X54000Y-33060D01*
X53999Y-33159D01*
X54037Y-33251D01*
X54108Y-33321D01*
X54200Y-33359D01*
X54299Y-33360D01*
X54391Y-33322D01*
X54461Y-33251D01*
X54499Y-33159D01*
X54500Y-33072D01*
X56676Y-30896D01*
X56676Y-30896D01*
X56676Y-30896D01*
X56708Y-30847D01*
X56720Y-30790D01*
X56720Y-30790D01*
X56720Y-30789D01*
X56720Y-30682D01*
X56752Y-30649D01*
X56839Y-30650D01*
X56931Y-30612D01*
X57001Y-30541D01*
X57039Y-30449D01*
X57040Y-30350D01*
X57040Y-35594D01*
X56958Y-35627D01*
X56888Y-35698D01*
X56850Y-35790D01*
X56849Y-35889D01*
X56887Y-35981D01*
X56958Y-36051D01*
X57050Y-36089D01*
X57149Y-36090D01*
X57241Y-36052D01*
X57304Y-35989D01*
X57357Y-35978D01*
X57357Y-35978D01*
X57406Y-35946D01*
X57439Y-35912D01*
X57488Y-35961D01*
X57580Y-35999D01*
X57679Y-36000D01*
X57771Y-35962D01*
X57841Y-35891D01*
X57879Y-35799D01*
X57880Y-35700D01*
X57880Y-36670D01*
X57783Y-36670D01*
X57721Y-36608D01*
X57629Y-36570D01*
X57530Y-36569D01*
X57438Y-36607D01*
X57368Y-36678D01*
X57330Y-36770D01*
X57329Y-36869D01*
X57354Y-36930D01*
X56940Y-36930D01*
X56940Y-36929D01*
X56882Y-36941D01*
X56833Y-36973D01*
X56833Y-36973D01*
X56727Y-37080D01*
X56640Y-37079D01*
X56548Y-37117D01*
X56478Y-37188D01*
X56440Y-37280D01*
X56439Y-37379D01*
X56477Y-37471D01*
X56548Y-37541D01*
X56640Y-37579D01*
X56739Y-37580D01*
X56831Y-37542D01*
X56885Y-37488D01*
X56938Y-37541D01*
X57030Y-37579D01*
X57129Y-37580D01*
X57221Y-37542D01*
X57283Y-37480D01*
X59986Y-37480D01*
X60048Y-37541D01*
X60140Y-37579D01*
X60239Y-37580D01*
X60331Y-37542D01*
X60401Y-37471D01*
X60439Y-37379D01*
X60440Y-37280D01*
X60440Y-39807D01*
X59797Y-40450D01*
X58443Y-40450D01*
X58381Y-40388D01*
X58289Y-40350D01*
X58190Y-40349D01*
X58098Y-40387D01*
X58028Y-40458D01*
X57990Y-40550D01*
X57989Y-40649D01*
X58027Y-40741D01*
X58098Y-40811D01*
X58190Y-40849D01*
X58240Y-40850D01*
X58239Y-40869D01*
X58190Y-40869D01*
X58098Y-40907D01*
X58028Y-40978D01*
X57990Y-41070D01*
X57989Y-41169D01*
X58027Y-41261D01*
X58098Y-41331D01*
X58190Y-41369D01*
X58240Y-41369D01*
X58239Y-41419D01*
X58277Y-41511D01*
X58348Y-41581D01*
X58440Y-41619D01*
X58539Y-41620D01*
X58631Y-41582D01*
X58693Y-41520D01*
X60140Y-41520D01*
X60197Y-41508D01*
X60197Y-41508D01*
X60246Y-41476D01*
X61832Y-39889D01*
X61919Y-39890D01*
X62011Y-39852D01*
X62081Y-39781D01*
X62119Y-39689D01*
X62120Y-39590D01*
X62082Y-39498D01*
X62048Y-39465D01*
X62081Y-39431D01*
X62119Y-39339D01*
X62120Y-39240D01*
X62082Y-39148D01*
X62073Y-39140D01*
X62350Y-39140D01*
X62407Y-39128D01*
X62407Y-39128D01*
X62456Y-39096D01*
X62542Y-39009D01*
X62592Y-39010D01*
X62458Y-39143D01*
X62291Y-39545D01*
X62291Y-39980D01*
X62457Y-40382D01*
X62765Y-40690D01*
X63167Y-40857D01*
X63602Y-40858D01*
X64004Y-40691D01*
X64312Y-40384D01*
X64479Y-39982D01*
X64480Y-39547D01*
X64480Y-47891D01*
X60169Y-47891D01*
X60169Y-46850D01*
X60169Y-42224D01*
X60159Y-42174D01*
X60131Y-42132D01*
X60088Y-42104D01*
X60039Y-42094D01*
X59251Y-42094D01*
X59202Y-42104D01*
X59160Y-42132D01*
X59132Y-42174D01*
X59122Y-42224D01*
X59122Y-46850D01*
X59132Y-46900D01*
X59160Y-46942D01*
X59202Y-46970D01*
X59251Y-46980D01*
X60039Y-46980D01*
X60088Y-46970D01*
X60131Y-46942D01*
X60159Y-46900D01*
X60169Y-46850D01*
X60169Y-47891D01*
X55840Y-47891D01*
X55840Y-35790D01*
X55802Y-35698D01*
X55740Y-35636D01*
X55740Y-35473D01*
X55801Y-35411D01*
X55839Y-35319D01*
X55840Y-35220D01*
X55802Y-35128D01*
X55731Y-35058D01*
X55639Y-35020D01*
X55540Y-35019D01*
X55448Y-35057D01*
X55378Y-35128D01*
X55340Y-35220D01*
X55339Y-35319D01*
X55377Y-35411D01*
X55440Y-35473D01*
X55440Y-35636D01*
X55378Y-35698D01*
X55340Y-35790D01*
X55339Y-35889D01*
X55377Y-35981D01*
X55448Y-36051D01*
X55540Y-36089D01*
X55639Y-36090D01*
X55731Y-36052D01*
X55801Y-35981D01*
X55839Y-35889D01*
X55840Y-35790D01*
X55840Y-47891D01*
X55310Y-47891D01*
X55310Y-45970D01*
X55272Y-45878D01*
X55220Y-45826D01*
X55220Y-42650D01*
X55182Y-42558D01*
X55111Y-42488D01*
X55019Y-42450D01*
X54920Y-42449D01*
X54828Y-42487D01*
X54766Y-42550D01*
X54732Y-42550D01*
X54716Y-42546D01*
X54647Y-42546D01*
X54625Y-42524D01*
X54584Y-42508D01*
X54540Y-42508D01*
X53674Y-42508D01*
X53634Y-42524D01*
X53603Y-42555D01*
X53586Y-42596D01*
X53586Y-42639D01*
X53586Y-42797D01*
X53588Y-42802D01*
X53536Y-42802D01*
X53471Y-42738D01*
X53379Y-42700D01*
X53280Y-42699D01*
X53188Y-42737D01*
X53118Y-42808D01*
X53080Y-42900D01*
X53079Y-42999D01*
X53117Y-43091D01*
X53188Y-43161D01*
X53280Y-43199D01*
X53379Y-43200D01*
X53471Y-43162D01*
X53530Y-43102D01*
X53588Y-43102D01*
X53586Y-43108D01*
X53586Y-43151D01*
X53586Y-43309D01*
X53588Y-43314D01*
X52955Y-43314D01*
X52898Y-43325D01*
X52878Y-43339D01*
X52849Y-43358D01*
X52849Y-43358D01*
X51597Y-44610D01*
X50764Y-44610D01*
X50764Y-24009D01*
X50626Y-23675D01*
X50370Y-23418D01*
X50036Y-23280D01*
X49674Y-23279D01*
X49339Y-23418D01*
X49083Y-23673D01*
X48984Y-23913D01*
X48984Y-23039D01*
X48891Y-22815D01*
X48720Y-22643D01*
X48495Y-22550D01*
X48413Y-22550D01*
X48413Y-21663D01*
X48300Y-21391D01*
X48092Y-21183D01*
X47821Y-21070D01*
X47526Y-21069D01*
X47254Y-21182D01*
X47046Y-21390D01*
X46933Y-21662D01*
X46933Y-21956D01*
X47045Y-22228D01*
X47253Y-22436D01*
X47525Y-22549D01*
X47819Y-22550D01*
X48091Y-22437D01*
X48300Y-22229D01*
X48413Y-21957D01*
X48413Y-21663D01*
X48413Y-22550D01*
X48253Y-22550D01*
X48028Y-22642D01*
X47857Y-22814D01*
X47764Y-23038D01*
X47763Y-23281D01*
X47856Y-23505D01*
X48028Y-23677D01*
X48252Y-23770D01*
X48494Y-23770D01*
X48719Y-23677D01*
X48890Y-23506D01*
X48983Y-23282D01*
X48984Y-23039D01*
X48984Y-23913D01*
X48944Y-24008D01*
X48944Y-24370D01*
X49082Y-24704D01*
X49338Y-24961D01*
X49672Y-25099D01*
X50034Y-25100D01*
X50369Y-24961D01*
X50625Y-24706D01*
X50764Y-24371D01*
X50764Y-24009D01*
X50764Y-44610D01*
X48870Y-44610D01*
X48870Y-44020D01*
X48832Y-43928D01*
X48810Y-43906D01*
X48810Y-41963D01*
X48831Y-41941D01*
X48869Y-41849D01*
X48870Y-41750D01*
X48832Y-41658D01*
X48761Y-41588D01*
X48669Y-41550D01*
X48570Y-41549D01*
X48478Y-41587D01*
X48408Y-41658D01*
X48370Y-41750D01*
X48369Y-41849D01*
X48407Y-41941D01*
X48430Y-41963D01*
X48430Y-43906D01*
X48408Y-43928D01*
X48370Y-44020D01*
X48369Y-44119D01*
X48407Y-44211D01*
X48478Y-44281D01*
X48570Y-44319D01*
X48669Y-44320D01*
X48761Y-44282D01*
X48831Y-44211D01*
X48869Y-44119D01*
X48870Y-44020D01*
X48870Y-44610D01*
X48234Y-44610D01*
X48234Y-25352D01*
X48179Y-25220D01*
X48130Y-25171D01*
X48130Y-24760D01*
X48092Y-24668D01*
X48021Y-24598D01*
X47929Y-24560D01*
X47830Y-24559D01*
X47738Y-24597D01*
X47676Y-24660D01*
X47586Y-24660D01*
X47529Y-24671D01*
X47480Y-24703D01*
X47097Y-25086D01*
X47044Y-25064D01*
X46944Y-25064D01*
X46944Y-23438D01*
X46889Y-23303D01*
X46786Y-23200D01*
X46651Y-23144D01*
X46543Y-23144D01*
X46543Y-22737D01*
X46487Y-22603D01*
X46384Y-22499D01*
X46250Y-22444D01*
X46104Y-22444D01*
X45970Y-22499D01*
X45867Y-22602D01*
X45811Y-22736D01*
X45811Y-22882D01*
X45866Y-23016D01*
X45969Y-23120D01*
X46104Y-23175D01*
X46249Y-23175D01*
X46384Y-23120D01*
X46487Y-23017D01*
X46543Y-22883D01*
X46543Y-22737D01*
X46543Y-23144D01*
X46506Y-23144D01*
X46371Y-23200D01*
X46268Y-23303D01*
X46212Y-23437D01*
X46212Y-23583D01*
X46268Y-23717D01*
X46371Y-23820D01*
X46505Y-23876D01*
X46651Y-23876D01*
X46785Y-23821D01*
X46888Y-23718D01*
X46944Y-23583D01*
X46944Y-23438D01*
X46944Y-25064D01*
X46901Y-25064D01*
X46768Y-25118D01*
X46667Y-25219D01*
X46612Y-25352D01*
X46612Y-25495D01*
X46667Y-25627D01*
X46768Y-25729D01*
X46900Y-25784D01*
X47043Y-25784D01*
X47176Y-25729D01*
X47277Y-25628D01*
X47332Y-25496D01*
X47332Y-25352D01*
X47310Y-25298D01*
X47648Y-24960D01*
X47676Y-24960D01*
X47738Y-25021D01*
X47830Y-25059D01*
X47929Y-25060D01*
X48021Y-25022D01*
X48091Y-24951D01*
X48129Y-24859D01*
X48130Y-24760D01*
X48130Y-25171D01*
X48078Y-25119D01*
X47945Y-25064D01*
X47802Y-25064D01*
X47670Y-25118D01*
X47569Y-25219D01*
X47514Y-25352D01*
X47513Y-25495D01*
X47568Y-25627D01*
X47669Y-25729D01*
X47802Y-25784D01*
X47945Y-25784D01*
X48077Y-25729D01*
X48179Y-25628D01*
X48233Y-25496D01*
X48234Y-25352D01*
X48234Y-44610D01*
X48230Y-44610D01*
X48230Y-43750D01*
X48192Y-43658D01*
X48130Y-43596D01*
X48130Y-42943D01*
X48191Y-42881D01*
X48229Y-42789D01*
X48230Y-42690D01*
X48192Y-42598D01*
X48121Y-42528D01*
X48029Y-42490D01*
X47930Y-42489D01*
X47838Y-42527D01*
X47768Y-42598D01*
X47730Y-42690D01*
X47729Y-42789D01*
X47767Y-42881D01*
X47830Y-42943D01*
X47830Y-43596D01*
X47768Y-43658D01*
X47730Y-43750D01*
X47729Y-43849D01*
X47767Y-43941D01*
X47838Y-44011D01*
X47930Y-44049D01*
X48029Y-44050D01*
X48121Y-44012D01*
X48191Y-43941D01*
X48229Y-43849D01*
X48230Y-43750D01*
X48230Y-44610D01*
X47570Y-44610D01*
X47570Y-33900D01*
X47540Y-33827D01*
X47540Y-30760D01*
X47502Y-30668D01*
X47460Y-30626D01*
X47460Y-28613D01*
X47501Y-28571D01*
X47539Y-28479D01*
X47540Y-28380D01*
X47502Y-28288D01*
X47431Y-28218D01*
X47339Y-28180D01*
X47240Y-28179D01*
X47148Y-28217D01*
X47078Y-28288D01*
X47040Y-28380D01*
X47039Y-28479D01*
X47077Y-28571D01*
X47120Y-28613D01*
X47120Y-30626D01*
X47078Y-30668D01*
X47040Y-30760D01*
X47039Y-30859D01*
X47077Y-30951D01*
X47148Y-31021D01*
X47240Y-31059D01*
X47339Y-31060D01*
X47431Y-31022D01*
X47501Y-30951D01*
X47539Y-30859D01*
X47540Y-30760D01*
X47540Y-33827D01*
X47532Y-33808D01*
X47461Y-33738D01*
X47369Y-33700D01*
X47270Y-33699D01*
X47178Y-33737D01*
X47116Y-33800D01*
X47010Y-33800D01*
X47010Y-31290D01*
X46972Y-31198D01*
X46901Y-31128D01*
X46809Y-31090D01*
X46750Y-31089D01*
X46340Y-30679D01*
X46285Y-30642D01*
X46220Y-30630D01*
X46141Y-30630D01*
X46141Y-23438D01*
X46085Y-23303D01*
X45983Y-23200D01*
X45848Y-23144D01*
X45739Y-23144D01*
X45739Y-22737D01*
X45684Y-22603D01*
X45581Y-22499D01*
X45447Y-22444D01*
X45301Y-22444D01*
X45167Y-22499D01*
X45063Y-22602D01*
X45008Y-22736D01*
X45008Y-22882D01*
X45063Y-23016D01*
X45166Y-23120D01*
X45300Y-23175D01*
X45446Y-23175D01*
X45581Y-23120D01*
X45684Y-23017D01*
X45739Y-22883D01*
X45739Y-22737D01*
X45739Y-23144D01*
X45703Y-23144D01*
X45568Y-23200D01*
X45465Y-23303D01*
X45409Y-23437D01*
X45409Y-23583D01*
X45465Y-23717D01*
X45568Y-23820D01*
X45702Y-23876D01*
X45848Y-23876D01*
X45982Y-23821D01*
X46085Y-23718D01*
X46141Y-23583D01*
X46141Y-23438D01*
X46141Y-30630D01*
X45338Y-30630D01*
X45338Y-23438D01*
X45282Y-23303D01*
X45179Y-23200D01*
X45045Y-23144D01*
X44936Y-23144D01*
X44936Y-22737D01*
X44881Y-22603D01*
X44778Y-22499D01*
X44643Y-22444D01*
X44498Y-22444D01*
X44363Y-22499D01*
X44260Y-22602D01*
X44205Y-22736D01*
X44204Y-22882D01*
X44260Y-23016D01*
X44363Y-23120D01*
X44497Y-23175D01*
X44643Y-23175D01*
X44777Y-23120D01*
X44880Y-23017D01*
X44936Y-22883D01*
X44936Y-22737D01*
X44936Y-23144D01*
X44899Y-23144D01*
X44765Y-23200D01*
X44662Y-23303D01*
X44606Y-23437D01*
X44606Y-23583D01*
X44662Y-23717D01*
X44764Y-23820D01*
X44899Y-23876D01*
X45044Y-23876D01*
X45179Y-23821D01*
X45282Y-23718D01*
X45338Y-23583D01*
X45338Y-23438D01*
X45338Y-30630D01*
X44535Y-30630D01*
X44535Y-23438D01*
X44479Y-23303D01*
X44376Y-23200D01*
X44242Y-23144D01*
X44133Y-23144D01*
X44133Y-22737D01*
X44078Y-22603D01*
X43975Y-22499D01*
X43840Y-22444D01*
X43695Y-22444D01*
X43560Y-22499D01*
X43457Y-22602D01*
X43413Y-22709D01*
X43413Y-21663D01*
X43300Y-21391D01*
X43092Y-21183D01*
X42821Y-21070D01*
X42526Y-21069D01*
X42254Y-21182D01*
X42046Y-21390D01*
X41933Y-21662D01*
X41933Y-21956D01*
X42045Y-22228D01*
X42253Y-22436D01*
X42525Y-22549D01*
X42819Y-22550D01*
X43091Y-22437D01*
X43300Y-22229D01*
X43413Y-21957D01*
X43413Y-21663D01*
X43413Y-22709D01*
X43401Y-22736D01*
X43401Y-22882D01*
X43457Y-23016D01*
X43560Y-23120D01*
X43694Y-23175D01*
X43840Y-23175D01*
X43974Y-23120D01*
X44077Y-23017D01*
X44133Y-22883D01*
X44133Y-22737D01*
X44133Y-23144D01*
X44096Y-23144D01*
X43962Y-23200D01*
X43859Y-23303D01*
X43803Y-23437D01*
X43803Y-23583D01*
X43858Y-23717D01*
X43961Y-23820D01*
X44096Y-23876D01*
X44241Y-23876D01*
X44376Y-23821D01*
X44479Y-23718D01*
X44535Y-23583D01*
X44535Y-23438D01*
X44535Y-30630D01*
X43734Y-30630D01*
X43734Y-25352D01*
X43679Y-25220D01*
X43578Y-25119D01*
X43445Y-25064D01*
X43302Y-25064D01*
X43170Y-25118D01*
X43069Y-25219D01*
X43014Y-25352D01*
X43013Y-25495D01*
X43028Y-25529D01*
X42832Y-25725D01*
X42832Y-25352D01*
X42777Y-25220D01*
X42676Y-25119D01*
X42582Y-25080D01*
X42582Y-23039D01*
X42489Y-22815D01*
X42318Y-22643D01*
X42094Y-22550D01*
X41851Y-22550D01*
X41627Y-22642D01*
X41455Y-22814D01*
X41362Y-23038D01*
X41362Y-23281D01*
X41455Y-23505D01*
X41626Y-23677D01*
X41850Y-23770D01*
X42093Y-23770D01*
X42317Y-23677D01*
X42489Y-23506D01*
X42582Y-23282D01*
X42582Y-23039D01*
X42582Y-25080D01*
X42544Y-25064D01*
X42401Y-25064D01*
X42268Y-25118D01*
X42167Y-25219D01*
X42112Y-25352D01*
X42112Y-25495D01*
X42167Y-25627D01*
X42268Y-25729D01*
X42400Y-25784D01*
X42543Y-25784D01*
X42676Y-25729D01*
X42777Y-25628D01*
X42832Y-25496D01*
X42832Y-25352D01*
X42832Y-25725D01*
X42387Y-26170D01*
X41363Y-26170D01*
X41321Y-26128D01*
X41229Y-26090D01*
X41130Y-26089D01*
X41038Y-26127D01*
X40968Y-26198D01*
X40930Y-26290D01*
X40929Y-26389D01*
X40967Y-26481D01*
X41038Y-26551D01*
X41130Y-26589D01*
X41229Y-26590D01*
X41321Y-26552D01*
X41363Y-26510D01*
X42458Y-26510D01*
X42523Y-26497D01*
X42523Y-26497D01*
X42578Y-26460D01*
X43268Y-25770D01*
X43302Y-25784D01*
X43445Y-25784D01*
X43577Y-25729D01*
X43679Y-25628D01*
X43733Y-25496D01*
X43734Y-25352D01*
X43734Y-30630D01*
X43193Y-30630D01*
X43151Y-30588D01*
X43059Y-30550D01*
X42960Y-30549D01*
X42868Y-30587D01*
X42798Y-30658D01*
X42760Y-30750D01*
X42759Y-30849D01*
X42797Y-30941D01*
X42868Y-31011D01*
X42960Y-31049D01*
X43059Y-31050D01*
X43151Y-31012D01*
X43193Y-30970D01*
X46149Y-30970D01*
X46510Y-31330D01*
X46509Y-31389D01*
X46547Y-31481D01*
X46618Y-31551D01*
X46710Y-31589D01*
X46809Y-31590D01*
X46901Y-31552D01*
X46971Y-31481D01*
X47009Y-31389D01*
X47010Y-31290D01*
X47010Y-33800D01*
X46450Y-33800D01*
X46392Y-33811D01*
X46343Y-33843D01*
X46343Y-33843D01*
X46187Y-34000D01*
X46058Y-34000D01*
X45996Y-33938D01*
X45904Y-33900D01*
X45805Y-33899D01*
X45713Y-33937D01*
X45643Y-34008D01*
X45605Y-34100D01*
X45604Y-34199D01*
X45642Y-34291D01*
X45713Y-34361D01*
X45805Y-34399D01*
X45904Y-34400D01*
X45996Y-34362D01*
X46058Y-34300D01*
X46250Y-34300D01*
X46307Y-34288D01*
X46307Y-34288D01*
X46356Y-34256D01*
X46512Y-34100D01*
X46577Y-34100D01*
X46569Y-34103D01*
X46543Y-34129D01*
X46530Y-34162D01*
X46530Y-34387D01*
X46552Y-34410D01*
X46850Y-34410D01*
X46850Y-34402D01*
X46990Y-34402D01*
X46990Y-34410D01*
X47287Y-34410D01*
X47310Y-34387D01*
X47310Y-34199D01*
X47369Y-34200D01*
X47461Y-34162D01*
X47531Y-34091D01*
X47569Y-33999D01*
X47570Y-33900D01*
X47570Y-44610D01*
X47445Y-44610D01*
X47445Y-41283D01*
X47387Y-41141D01*
X47330Y-41084D01*
X47330Y-37398D01*
X47330Y-36398D01*
X47330Y-35398D01*
X47310Y-35350D01*
X47310Y-34797D01*
X47310Y-34572D01*
X47287Y-34550D01*
X46990Y-34550D01*
X46990Y-34847D01*
X47012Y-34870D01*
X47202Y-34870D01*
X47237Y-34870D01*
X47270Y-34856D01*
X47296Y-34830D01*
X47310Y-34797D01*
X47310Y-35350D01*
X47267Y-35248D01*
X47152Y-35132D01*
X47001Y-35070D01*
X46850Y-35069D01*
X46850Y-34847D01*
X46850Y-34550D01*
X46552Y-34550D01*
X46530Y-34572D01*
X46530Y-34797D01*
X46543Y-34830D01*
X46569Y-34856D01*
X46602Y-34870D01*
X46637Y-34870D01*
X46827Y-34870D01*
X46850Y-34847D01*
X46850Y-35069D01*
X46838Y-35069D01*
X46688Y-35132D01*
X46572Y-35247D01*
X46510Y-35398D01*
X46509Y-35561D01*
X46572Y-35711D01*
X46687Y-35827D01*
X46838Y-35889D01*
X47001Y-35890D01*
X47151Y-35827D01*
X47267Y-35712D01*
X47329Y-35561D01*
X47330Y-35398D01*
X47330Y-36398D01*
X47267Y-36248D01*
X47152Y-36132D01*
X47001Y-36070D01*
X46838Y-36069D01*
X46688Y-36132D01*
X46572Y-36247D01*
X46510Y-36398D01*
X46509Y-36561D01*
X46572Y-36711D01*
X46687Y-36827D01*
X46838Y-36889D01*
X47001Y-36890D01*
X47151Y-36827D01*
X47267Y-36712D01*
X47329Y-36561D01*
X47330Y-36398D01*
X47330Y-37398D01*
X47267Y-37248D01*
X47152Y-37132D01*
X47001Y-37070D01*
X46838Y-37069D01*
X46688Y-37132D01*
X46572Y-37247D01*
X46510Y-37398D01*
X46509Y-37561D01*
X46572Y-37711D01*
X46687Y-37827D01*
X46838Y-37889D01*
X47001Y-37890D01*
X47151Y-37827D01*
X47267Y-37712D01*
X47329Y-37561D01*
X47330Y-37398D01*
X47330Y-41084D01*
X47278Y-41033D01*
X47137Y-40974D01*
X46983Y-40974D01*
X46841Y-41032D01*
X46810Y-41064D01*
X46810Y-41040D01*
X46772Y-40948D01*
X46750Y-40926D01*
X46750Y-40163D01*
X46771Y-40141D01*
X46809Y-40049D01*
X46810Y-39950D01*
X46772Y-39858D01*
X46701Y-39788D01*
X46609Y-39750D01*
X46510Y-39749D01*
X46418Y-39787D01*
X46348Y-39858D01*
X46310Y-39950D01*
X46309Y-40049D01*
X46347Y-40141D01*
X46370Y-40163D01*
X46370Y-40926D01*
X46348Y-40948D01*
X46310Y-41040D01*
X46310Y-41064D01*
X46278Y-41033D01*
X46137Y-40974D01*
X46110Y-40974D01*
X46110Y-35620D01*
X46072Y-35528D01*
X46001Y-35458D01*
X45909Y-35420D01*
X45810Y-35419D01*
X45718Y-35457D01*
X45648Y-35528D01*
X45610Y-35620D01*
X45609Y-35679D01*
X45440Y-35849D01*
X45440Y-34190D01*
X45402Y-34098D01*
X45331Y-34028D01*
X45239Y-33990D01*
X45140Y-33989D01*
X45048Y-34027D01*
X45006Y-34070D01*
X44190Y-34070D01*
X44124Y-34082D01*
X44069Y-34119D01*
X44069Y-34119D01*
X43519Y-34670D01*
X42730Y-34670D01*
X42730Y-34669D01*
X42675Y-34680D01*
X42664Y-34682D01*
X42609Y-34719D01*
X42279Y-35049D01*
X42242Y-35104D01*
X42230Y-35170D01*
X42230Y-35376D01*
X42188Y-35418D01*
X42150Y-35510D01*
X42149Y-35609D01*
X42187Y-35701D01*
X42258Y-35771D01*
X42350Y-35809D01*
X42449Y-35810D01*
X42541Y-35772D01*
X42611Y-35701D01*
X42649Y-35609D01*
X42650Y-35510D01*
X42612Y-35418D01*
X42570Y-35376D01*
X42570Y-35240D01*
X42800Y-35010D01*
X43590Y-35010D01*
X43655Y-34997D01*
X43655Y-34997D01*
X43710Y-34960D01*
X44260Y-34410D01*
X45006Y-34410D01*
X45048Y-34451D01*
X45140Y-34489D01*
X45239Y-34490D01*
X45331Y-34452D01*
X45401Y-34381D01*
X45439Y-34289D01*
X45440Y-34190D01*
X45440Y-35849D01*
X45379Y-35909D01*
X45342Y-35964D01*
X45330Y-36030D01*
X45330Y-36826D01*
X45288Y-36868D01*
X45250Y-36960D01*
X45249Y-37059D01*
X45287Y-37151D01*
X45358Y-37221D01*
X45450Y-37259D01*
X45479Y-37259D01*
X45450Y-37330D01*
X45449Y-37417D01*
X45333Y-37533D01*
X45301Y-37582D01*
X45290Y-37640D01*
X45290Y-37877D01*
X45177Y-37990D01*
X45090Y-37989D01*
X44998Y-38027D01*
X44940Y-38086D01*
X44940Y-37953D01*
X45001Y-37891D01*
X45039Y-37799D01*
X45040Y-37700D01*
X45002Y-37608D01*
X44931Y-37538D01*
X44839Y-37500D01*
X44740Y-37499D01*
X44648Y-37537D01*
X44578Y-37608D01*
X44540Y-37700D01*
X44540Y-37700D01*
X44502Y-37608D01*
X44431Y-37538D01*
X44339Y-37500D01*
X44240Y-37499D01*
X44148Y-37537D01*
X44078Y-37608D01*
X44040Y-37700D01*
X44040Y-37700D01*
X44002Y-37608D01*
X43931Y-37538D01*
X43839Y-37500D01*
X43740Y-37499D01*
X43648Y-37537D01*
X43646Y-37533D01*
X43646Y-37533D01*
X43506Y-37393D01*
X43457Y-37361D01*
X43400Y-37350D01*
X43180Y-37350D01*
X43122Y-37361D01*
X43103Y-37374D01*
X43073Y-37393D01*
X43073Y-37393D01*
X41713Y-38753D01*
X41681Y-38802D01*
X41670Y-38860D01*
X41670Y-39747D01*
X41330Y-40087D01*
X41330Y-37070D01*
X41292Y-36978D01*
X41221Y-36908D01*
X41129Y-36870D01*
X41042Y-36869D01*
X40929Y-36757D01*
X40930Y-36670D01*
X40892Y-36578D01*
X40821Y-36508D01*
X40729Y-36470D01*
X40630Y-36469D01*
X40538Y-36507D01*
X40468Y-36578D01*
X40430Y-36670D01*
X40429Y-36769D01*
X40467Y-36861D01*
X40538Y-36931D01*
X40630Y-36969D01*
X40717Y-36970D01*
X40830Y-37082D01*
X40829Y-37169D01*
X40867Y-37261D01*
X40938Y-37331D01*
X41030Y-37369D01*
X41129Y-37370D01*
X41221Y-37332D01*
X41291Y-37261D01*
X41329Y-37169D01*
X41330Y-37070D01*
X41330Y-40087D01*
X41257Y-40160D01*
X41170Y-40159D01*
X41078Y-40197D01*
X41008Y-40268D01*
X40970Y-40360D01*
X40969Y-40459D01*
X41007Y-40551D01*
X41078Y-40621D01*
X41170Y-40659D01*
X41269Y-40660D01*
X41361Y-40622D01*
X41431Y-40551D01*
X41469Y-40459D01*
X41470Y-40372D01*
X41926Y-39916D01*
X41926Y-39916D01*
X41926Y-39916D01*
X41958Y-39867D01*
X41958Y-39867D01*
X41970Y-39810D01*
X41970Y-38922D01*
X42796Y-38095D01*
X42827Y-38171D01*
X42890Y-38233D01*
X42890Y-38447D01*
X42277Y-39060D01*
X42190Y-39059D01*
X42098Y-39097D01*
X42028Y-39168D01*
X41990Y-39260D01*
X41989Y-39359D01*
X42027Y-39451D01*
X42098Y-39521D01*
X42190Y-39559D01*
X42240Y-39559D01*
X42239Y-39609D01*
X42277Y-39701D01*
X42348Y-39771D01*
X42440Y-39809D01*
X42539Y-39810D01*
X42440Y-39809D01*
X42348Y-39847D01*
X42278Y-39918D01*
X42240Y-40010D01*
X42239Y-40109D01*
X42277Y-40201D01*
X42348Y-40271D01*
X42440Y-40309D01*
X42490Y-40309D01*
X42490Y-40310D01*
X42440Y-40309D01*
X42348Y-40347D01*
X42278Y-40418D01*
X42240Y-40510D01*
X42239Y-40609D01*
X42277Y-40701D01*
X42348Y-40771D01*
X42440Y-40809D01*
X42490Y-40809D01*
X42489Y-40859D01*
X42527Y-40951D01*
X42598Y-41021D01*
X42690Y-41059D01*
X42789Y-41060D01*
X42881Y-41022D01*
X42943Y-40960D01*
X43270Y-40960D01*
X43327Y-40948D01*
X43327Y-40948D01*
X43376Y-40916D01*
X44896Y-39396D01*
X44896Y-39396D01*
X44896Y-39396D01*
X44928Y-39347D01*
X44940Y-39290D01*
X44940Y-39290D01*
X44940Y-39289D01*
X44940Y-38753D01*
X44998Y-38811D01*
X45090Y-38849D01*
X45189Y-38850D01*
X45281Y-38812D01*
X45330Y-38763D01*
X45350Y-38783D01*
X45350Y-39816D01*
X45308Y-39858D01*
X45270Y-39950D01*
X45269Y-40049D01*
X45307Y-40141D01*
X45378Y-40211D01*
X45470Y-40249D01*
X45569Y-40250D01*
X45661Y-40212D01*
X45731Y-40141D01*
X45769Y-40049D01*
X45770Y-39950D01*
X45732Y-39858D01*
X45690Y-39816D01*
X45690Y-38783D01*
X45731Y-38741D01*
X45769Y-38649D01*
X45770Y-38550D01*
X45732Y-38458D01*
X45661Y-38388D01*
X45592Y-38359D01*
X45806Y-38146D01*
X45806Y-38146D01*
X45806Y-38146D01*
X45838Y-38097D01*
X45838Y-38097D01*
X45850Y-38040D01*
X45850Y-37953D01*
X45911Y-37891D01*
X45949Y-37799D01*
X45950Y-37700D01*
X45912Y-37608D01*
X45868Y-37564D01*
X45911Y-37521D01*
X45949Y-37429D01*
X45950Y-37330D01*
X45912Y-37238D01*
X45841Y-37168D01*
X45749Y-37130D01*
X45720Y-37130D01*
X45749Y-37059D01*
X45750Y-36960D01*
X45712Y-36868D01*
X45670Y-36826D01*
X45670Y-36100D01*
X45850Y-35919D01*
X45909Y-35920D01*
X46001Y-35882D01*
X46071Y-35811D01*
X46109Y-35719D01*
X46110Y-35620D01*
X46110Y-40974D01*
X45983Y-40974D01*
X45841Y-41032D01*
X45733Y-41141D01*
X45674Y-41282D01*
X45674Y-41436D01*
X45732Y-41578D01*
X45841Y-41686D01*
X45982Y-41745D01*
X46136Y-41745D01*
X46278Y-41687D01*
X46386Y-41578D01*
X46445Y-41437D01*
X46445Y-41313D01*
X46510Y-41339D01*
X46609Y-41340D01*
X46674Y-41313D01*
X46674Y-41436D01*
X46732Y-41578D01*
X46841Y-41686D01*
X46982Y-41745D01*
X47136Y-41745D01*
X47278Y-41687D01*
X47386Y-41578D01*
X47445Y-41437D01*
X47445Y-41283D01*
X47445Y-44610D01*
X47260Y-44610D01*
X47260Y-43750D01*
X47222Y-43658D01*
X47160Y-43596D01*
X47160Y-42943D01*
X47221Y-42881D01*
X47259Y-42789D01*
X47260Y-42690D01*
X47222Y-42598D01*
X47151Y-42528D01*
X47059Y-42490D01*
X46960Y-42489D01*
X46868Y-42527D01*
X46798Y-42598D01*
X46760Y-42690D01*
X46759Y-42789D01*
X46797Y-42881D01*
X46860Y-42943D01*
X46860Y-43596D01*
X46798Y-43658D01*
X46760Y-43750D01*
X46759Y-43849D01*
X46797Y-43941D01*
X46868Y-44011D01*
X46960Y-44049D01*
X47059Y-44050D01*
X47151Y-44012D01*
X47221Y-43941D01*
X47259Y-43849D01*
X47260Y-43750D01*
X47260Y-44610D01*
X46530Y-44610D01*
X46530Y-43750D01*
X46492Y-43658D01*
X46430Y-43596D01*
X46430Y-42663D01*
X46491Y-42601D01*
X46529Y-42509D01*
X46530Y-42410D01*
X46492Y-42318D01*
X46421Y-42248D01*
X46329Y-42210D01*
X46230Y-42209D01*
X46138Y-42247D01*
X46068Y-42318D01*
X46030Y-42410D01*
X46029Y-42509D01*
X46067Y-42601D01*
X46130Y-42663D01*
X46130Y-43596D01*
X46068Y-43658D01*
X46030Y-43750D01*
X46029Y-43849D01*
X46067Y-43941D01*
X46138Y-44011D01*
X46230Y-44049D01*
X46329Y-44050D01*
X46421Y-44012D01*
X46491Y-43941D01*
X46529Y-43849D01*
X46530Y-43750D01*
X46530Y-44610D01*
X46020Y-44610D01*
X46020Y-44609D01*
X45962Y-44621D01*
X45913Y-44653D01*
X45913Y-44653D01*
X45807Y-44760D01*
X45760Y-44759D01*
X45760Y-43750D01*
X45722Y-43658D01*
X45660Y-43596D01*
X45660Y-42943D01*
X45721Y-42881D01*
X45759Y-42789D01*
X45760Y-42690D01*
X45722Y-42598D01*
X45651Y-42528D01*
X45559Y-42490D01*
X45460Y-42489D01*
X45368Y-42527D01*
X45298Y-42598D01*
X45260Y-42690D01*
X45259Y-42789D01*
X45297Y-42881D01*
X45360Y-42943D01*
X45360Y-43596D01*
X45298Y-43658D01*
X45260Y-43750D01*
X45259Y-43849D01*
X45297Y-43941D01*
X45368Y-44011D01*
X45460Y-44049D01*
X45559Y-44050D01*
X45651Y-44012D01*
X45721Y-43941D01*
X45759Y-43849D01*
X45760Y-43750D01*
X45760Y-44759D01*
X45720Y-44759D01*
X45628Y-44797D01*
X45558Y-44868D01*
X45520Y-44960D01*
X45519Y-45059D01*
X45557Y-45151D01*
X45628Y-45221D01*
X45720Y-45259D01*
X45819Y-45260D01*
X45911Y-45222D01*
X45981Y-45151D01*
X46019Y-45059D01*
X46020Y-44972D01*
X46082Y-44910D01*
X46310Y-44910D01*
X46290Y-44960D01*
X46289Y-45059D01*
X46327Y-45151D01*
X46398Y-45221D01*
X46490Y-45259D01*
X46589Y-45260D01*
X46681Y-45222D01*
X46743Y-45160D01*
X51820Y-45160D01*
X51877Y-45148D01*
X51877Y-45148D01*
X51913Y-45124D01*
X51417Y-45620D01*
X47753Y-45620D01*
X47691Y-45558D01*
X47599Y-45520D01*
X47500Y-45519D01*
X47408Y-45557D01*
X47338Y-45628D01*
X47300Y-45720D01*
X47299Y-45819D01*
X47337Y-45911D01*
X47366Y-45940D01*
X46483Y-45940D01*
X46421Y-45878D01*
X46329Y-45840D01*
X46230Y-45839D01*
X46138Y-45877D01*
X46068Y-45948D01*
X46030Y-46040D01*
X46029Y-46139D01*
X46067Y-46231D01*
X46138Y-46301D01*
X46230Y-46339D01*
X46329Y-46340D01*
X46421Y-46302D01*
X46483Y-46240D01*
X51660Y-46240D01*
X51717Y-46228D01*
X51717Y-46228D01*
X51766Y-46196D01*
X53323Y-44638D01*
X53588Y-44638D01*
X53586Y-44643D01*
X53586Y-44687D01*
X53586Y-44844D01*
X53603Y-44885D01*
X53610Y-44892D01*
X53606Y-44903D01*
X53606Y-44938D01*
X53629Y-44960D01*
X54059Y-44960D01*
X54059Y-44932D01*
X54199Y-44932D01*
X54199Y-44960D01*
X54630Y-44960D01*
X54648Y-44942D01*
X54658Y-44951D01*
X54750Y-44989D01*
X54849Y-44990D01*
X54941Y-44952D01*
X55011Y-44881D01*
X55049Y-44789D01*
X55050Y-44690D01*
X55012Y-44598D01*
X54941Y-44528D01*
X54849Y-44490D01*
X54750Y-44489D01*
X54672Y-44522D01*
X54672Y-44387D01*
X54661Y-44360D01*
X54672Y-44332D01*
X54672Y-44289D01*
X54672Y-44131D01*
X54661Y-44104D01*
X54672Y-44076D01*
X54672Y-44033D01*
X54672Y-43875D01*
X54661Y-43848D01*
X54672Y-43821D01*
X54672Y-43777D01*
X54672Y-43619D01*
X54661Y-43592D01*
X54672Y-43565D01*
X54672Y-43521D01*
X54672Y-43427D01*
X54750Y-43459D01*
X54849Y-43460D01*
X54941Y-43422D01*
X55011Y-43351D01*
X55049Y-43259D01*
X55050Y-43160D01*
X55012Y-43068D01*
X54941Y-42998D01*
X54849Y-42960D01*
X54750Y-42959D01*
X54672Y-42992D01*
X54672Y-42852D01*
X54670Y-42846D01*
X54704Y-42846D01*
X54704Y-42846D01*
X54720Y-42850D01*
X54720Y-42850D01*
X54720Y-42850D01*
X54766Y-42850D01*
X54828Y-42911D01*
X54920Y-42949D01*
X55019Y-42950D01*
X55111Y-42912D01*
X55181Y-42841D01*
X55219Y-42749D01*
X55220Y-42650D01*
X55220Y-45826D01*
X55201Y-45808D01*
X55109Y-45770D01*
X55010Y-45769D01*
X54918Y-45807D01*
X54856Y-45870D01*
X54780Y-45870D01*
X54780Y-45869D01*
X54761Y-45873D01*
X54670Y-45873D01*
X54672Y-45868D01*
X54672Y-45824D01*
X54672Y-45667D01*
X54661Y-45639D01*
X54672Y-45612D01*
X54672Y-45568D01*
X54672Y-45477D01*
X54750Y-45509D01*
X54849Y-45510D01*
X54941Y-45472D01*
X55011Y-45401D01*
X55049Y-45309D01*
X55050Y-45210D01*
X55012Y-45118D01*
X54941Y-45048D01*
X54849Y-45010D01*
X54750Y-45009D01*
X54658Y-45047D01*
X54648Y-45057D01*
X54630Y-45039D01*
X54199Y-45039D01*
X54199Y-45067D01*
X54059Y-45067D01*
X54059Y-45039D01*
X53629Y-45039D01*
X53606Y-45061D01*
X53606Y-45096D01*
X53610Y-45107D01*
X53603Y-45114D01*
X53586Y-45155D01*
X53586Y-45199D01*
X53586Y-45356D01*
X53588Y-45361D01*
X53499Y-45361D01*
X53490Y-45360D01*
X53403Y-45360D01*
X53341Y-45298D01*
X53249Y-45260D01*
X53150Y-45259D01*
X53058Y-45297D01*
X52988Y-45368D01*
X52950Y-45460D01*
X52949Y-45559D01*
X52987Y-45651D01*
X53058Y-45721D01*
X53150Y-45759D01*
X53210Y-45760D01*
X53209Y-45819D01*
X53247Y-45911D01*
X53318Y-45981D01*
X53410Y-46019D01*
X53509Y-46020D01*
X53586Y-45988D01*
X53586Y-46124D01*
X53597Y-46151D01*
X53586Y-46178D01*
X53586Y-46222D01*
X53586Y-46380D01*
X53603Y-46420D01*
X53634Y-46451D01*
X53674Y-46468D01*
X53718Y-46468D01*
X54584Y-46468D01*
X54620Y-46453D01*
X54658Y-46491D01*
X54750Y-46529D01*
X54849Y-46530D01*
X54941Y-46492D01*
X55011Y-46421D01*
X55049Y-46329D01*
X55050Y-46269D01*
X55109Y-46270D01*
X55201Y-46232D01*
X55271Y-46161D01*
X55309Y-46069D01*
X55310Y-45970D01*
X55310Y-47891D01*
X45890Y-47891D01*
X45890Y-46040D01*
X45852Y-45948D01*
X45790Y-45886D01*
X45790Y-45690D01*
X45790Y-45690D01*
X45790Y-45690D01*
X45778Y-45632D01*
X45746Y-45583D01*
X45746Y-45583D01*
X45746Y-45583D01*
X45150Y-44987D01*
X45150Y-44060D01*
X45150Y-44060D01*
X45150Y-44060D01*
X45138Y-44002D01*
X45106Y-43953D01*
X44386Y-43233D01*
X44337Y-43201D01*
X44286Y-43191D01*
X44286Y-41521D01*
X44233Y-41394D01*
X44136Y-41296D01*
X44009Y-41244D01*
X43871Y-41243D01*
X43744Y-41296D01*
X43646Y-41393D01*
X43645Y-41398D01*
X43643Y-41394D01*
X43546Y-41296D01*
X43419Y-41244D01*
X43281Y-41243D01*
X43154Y-41296D01*
X43056Y-41393D01*
X43004Y-41520D01*
X43003Y-41658D01*
X43056Y-41785D01*
X43153Y-41883D01*
X43280Y-41935D01*
X43418Y-41936D01*
X43545Y-41883D01*
X43643Y-41786D01*
X43644Y-41781D01*
X43646Y-41785D01*
X43743Y-41883D01*
X43870Y-41935D01*
X44008Y-41936D01*
X44135Y-41883D01*
X44233Y-41786D01*
X44285Y-41659D01*
X44286Y-41521D01*
X44286Y-43191D01*
X44280Y-43190D01*
X44242Y-43190D01*
X43829Y-42777D01*
X43830Y-42690D01*
X43792Y-42598D01*
X43721Y-42528D01*
X43629Y-42490D01*
X43530Y-42489D01*
X43438Y-42527D01*
X43368Y-42598D01*
X43330Y-42690D01*
X43329Y-42789D01*
X43367Y-42881D01*
X43438Y-42951D01*
X43530Y-42989D01*
X43617Y-42990D01*
X44073Y-43446D01*
X44073Y-43446D01*
X44122Y-43478D01*
X44122Y-43478D01*
X44180Y-43490D01*
X44217Y-43490D01*
X44293Y-43565D01*
X44238Y-43587D01*
X44168Y-43658D01*
X44130Y-43750D01*
X44129Y-43849D01*
X44167Y-43941D01*
X44238Y-44011D01*
X44330Y-44049D01*
X44417Y-44050D01*
X44590Y-44222D01*
X44590Y-44367D01*
X44499Y-44330D01*
X44400Y-44329D01*
X44308Y-44367D01*
X44246Y-44430D01*
X43240Y-44430D01*
X43182Y-44441D01*
X43133Y-44473D01*
X42847Y-44760D01*
X42760Y-44759D01*
X42668Y-44797D01*
X42598Y-44868D01*
X42560Y-44960D01*
X42559Y-45059D01*
X42597Y-45151D01*
X42668Y-45221D01*
X42760Y-45259D01*
X42859Y-45260D01*
X42951Y-45222D01*
X43021Y-45151D01*
X43059Y-45059D01*
X43060Y-44972D01*
X43302Y-44730D01*
X44246Y-44730D01*
X44308Y-44791D01*
X44315Y-44794D01*
X44308Y-44797D01*
X44238Y-44868D01*
X44200Y-44960D01*
X44199Y-45059D01*
X44237Y-45151D01*
X44280Y-45193D01*
X44280Y-45376D01*
X44231Y-45328D01*
X44139Y-45290D01*
X44052Y-45289D01*
X43809Y-45047D01*
X43810Y-44960D01*
X43772Y-44868D01*
X43701Y-44798D01*
X43609Y-44760D01*
X43510Y-44759D01*
X43418Y-44797D01*
X43348Y-44868D01*
X43310Y-44960D01*
X43309Y-45059D01*
X43347Y-45151D01*
X43418Y-45221D01*
X43510Y-45259D01*
X43597Y-45260D01*
X43840Y-45502D01*
X43839Y-45589D01*
X43877Y-45681D01*
X43948Y-45751D01*
X44040Y-45789D01*
X44139Y-45790D01*
X44231Y-45752D01*
X44259Y-45724D01*
X44250Y-45770D01*
X44250Y-46406D01*
X44208Y-46448D01*
X44170Y-46540D01*
X44169Y-46639D01*
X44207Y-46731D01*
X44278Y-46801D01*
X44370Y-46839D01*
X44469Y-46840D01*
X44561Y-46802D01*
X44631Y-46731D01*
X44669Y-46639D01*
X44670Y-46540D01*
X44632Y-46448D01*
X44590Y-46406D01*
X44590Y-46163D01*
X44598Y-46171D01*
X44690Y-46209D01*
X44789Y-46210D01*
X44881Y-46172D01*
X44951Y-46101D01*
X44989Y-46009D01*
X44990Y-45910D01*
X44952Y-45818D01*
X44890Y-45756D01*
X44890Y-45150D01*
X44893Y-45156D01*
X45490Y-45752D01*
X45490Y-45886D01*
X45428Y-45948D01*
X45390Y-46040D01*
X45389Y-46139D01*
X45427Y-46231D01*
X45498Y-46301D01*
X45590Y-46339D01*
X45689Y-46340D01*
X45781Y-46302D01*
X45851Y-46231D01*
X45889Y-46139D01*
X45890Y-46040D01*
X45890Y-47891D01*
X42205Y-47891D01*
X42205Y-45493D01*
X42147Y-45351D01*
X42038Y-45243D01*
X41897Y-45184D01*
X41743Y-45184D01*
X41601Y-45242D01*
X41530Y-45314D01*
X41530Y-43340D01*
X41492Y-43248D01*
X41421Y-43178D01*
X41329Y-43140D01*
X41230Y-43139D01*
X41138Y-43177D01*
X41068Y-43248D01*
X41030Y-43340D01*
X41029Y-43439D01*
X41067Y-43531D01*
X41097Y-43560D01*
X41003Y-43653D01*
X40971Y-43702D01*
X40960Y-43760D01*
X40960Y-43826D01*
X40898Y-43888D01*
X40860Y-43980D01*
X40859Y-44079D01*
X40897Y-44171D01*
X40968Y-44241D01*
X41060Y-44279D01*
X41159Y-44280D01*
X41251Y-44242D01*
X41321Y-44171D01*
X41359Y-44079D01*
X41360Y-43980D01*
X41322Y-43888D01*
X41260Y-43826D01*
X41260Y-43822D01*
X41386Y-43696D01*
X41386Y-43696D01*
X41386Y-43696D01*
X41418Y-43647D01*
X41418Y-43647D01*
X41429Y-43594D01*
X41491Y-43531D01*
X41529Y-43439D01*
X41530Y-43340D01*
X41530Y-45314D01*
X41493Y-45351D01*
X41434Y-45492D01*
X41434Y-45646D01*
X41492Y-45788D01*
X41601Y-45896D01*
X41742Y-45955D01*
X41896Y-45955D01*
X42038Y-45897D01*
X42146Y-45788D01*
X42205Y-45647D01*
X42205Y-45493D01*
X42205Y-47891D01*
X40953Y-47891D01*
X41150Y-47810D01*
X41458Y-47502D01*
X41625Y-47100D01*
X41625Y-46665D01*
X41459Y-46262D01*
X41152Y-45954D01*
X40750Y-45787D01*
X40314Y-45787D01*
X39912Y-45953D01*
X39604Y-46261D01*
X39510Y-46488D01*
X39510Y-21278D01*
X39603Y-21504D01*
X39910Y-21812D01*
X40312Y-21979D01*
X40748Y-21979D01*
X41150Y-21813D01*
X41458Y-21505D01*
X41625Y-21103D01*
X41625Y-20668D01*
X41459Y-20266D01*
X41152Y-19957D01*
X40832Y-19825D01*
X77266Y-19825D01*
X76947Y-19956D01*
X76639Y-20264D01*
X76472Y-20666D01*
X76472Y-21101D01*
X76638Y-21504D01*
X76946Y-21812D01*
X77348Y-21979D01*
X77783Y-21979D01*
X78185Y-21813D01*
X78494Y-21505D01*
X78600Y-21250D01*
X78600Y-42547D01*
X78493Y-42440D01*
X78322Y-42369D01*
X78138Y-42369D01*
X77967Y-42439D01*
X77836Y-42570D01*
X77805Y-42644D01*
X76365Y-42644D01*
X76365Y-24031D01*
X76365Y-21610D01*
X76327Y-21518D01*
X76257Y-21448D01*
X76165Y-21410D01*
X76065Y-21409D01*
X75973Y-21447D01*
X75903Y-21518D01*
X75865Y-21610D01*
X75865Y-21709D01*
X75903Y-21801D01*
X75973Y-21871D01*
X76065Y-21909D01*
X76164Y-21910D01*
X76256Y-21872D01*
X76327Y-21801D01*
X76365Y-21709D01*
X76365Y-21610D01*
X76365Y-24031D01*
X76327Y-23939D01*
X76257Y-23869D01*
X76165Y-23831D01*
X76065Y-23831D01*
X75973Y-23869D01*
X75903Y-23939D01*
X75865Y-24031D01*
X75865Y-24130D01*
X75903Y-24222D01*
X75973Y-24293D01*
X76065Y-24331D01*
X76164Y-24331D01*
X76256Y-24293D01*
X76327Y-24223D01*
X76365Y-24131D01*
X76365Y-24031D01*
X76365Y-42644D01*
X76094Y-42644D01*
X76064Y-42571D01*
X75933Y-42440D01*
X75762Y-42369D01*
X75578Y-42369D01*
X75407Y-42439D01*
X75310Y-42536D01*
X75310Y-36170D01*
X75310Y-35230D01*
X75310Y-34280D01*
X75310Y-33340D01*
X75310Y-32390D01*
X75310Y-31450D01*
X75272Y-31358D01*
X75201Y-31288D01*
X75149Y-31266D01*
X75149Y-29813D01*
X75096Y-29686D01*
X74999Y-29588D01*
X74872Y-29535D01*
X74734Y-29535D01*
X74607Y-29588D01*
X74509Y-29685D01*
X74456Y-29812D01*
X74456Y-29950D01*
X74509Y-30077D01*
X74606Y-30175D01*
X74733Y-30228D01*
X74871Y-30228D01*
X74999Y-30175D01*
X75096Y-30078D01*
X75149Y-29951D01*
X75149Y-29813D01*
X75149Y-31266D01*
X75111Y-31250D01*
X75119Y-31229D01*
X75120Y-31130D01*
X75082Y-31038D01*
X75011Y-30968D01*
X74919Y-30930D01*
X74820Y-30929D01*
X74728Y-30967D01*
X74672Y-31024D01*
X74650Y-31020D01*
X74414Y-31020D01*
X74414Y-23339D01*
X74375Y-23244D01*
X74375Y-21575D01*
X74310Y-21419D01*
X74191Y-21299D01*
X74034Y-21235D01*
X73865Y-21234D01*
X73709Y-21299D01*
X73589Y-21418D01*
X73525Y-21575D01*
X73524Y-21744D01*
X73589Y-21900D01*
X73708Y-22020D01*
X73865Y-22084D01*
X74034Y-22085D01*
X74190Y-22020D01*
X74310Y-21901D01*
X74374Y-21744D01*
X74375Y-21575D01*
X74375Y-23244D01*
X74343Y-23168D01*
X74213Y-23038D01*
X74042Y-22967D01*
X73858Y-22967D01*
X73687Y-23037D01*
X73556Y-23168D01*
X73485Y-23338D01*
X73485Y-23523D01*
X73556Y-23694D01*
X73686Y-23825D01*
X73857Y-23895D01*
X74041Y-23896D01*
X74212Y-23825D01*
X74343Y-23695D01*
X74414Y-23524D01*
X74414Y-23339D01*
X74414Y-31020D01*
X73522Y-31020D01*
X73466Y-30963D01*
X73417Y-30931D01*
X73360Y-30920D01*
X73133Y-30920D01*
X73071Y-30858D01*
X72979Y-30820D01*
X72880Y-30819D01*
X72788Y-30857D01*
X72718Y-30928D01*
X72680Y-31020D01*
X72679Y-31119D01*
X72717Y-31211D01*
X72788Y-31281D01*
X72880Y-31319D01*
X72930Y-31319D01*
X72929Y-31369D01*
X72967Y-31461D01*
X73038Y-31531D01*
X73130Y-31569D01*
X73229Y-31570D01*
X73321Y-31532D01*
X73383Y-31470D01*
X74217Y-31470D01*
X74353Y-31606D01*
X74353Y-31606D01*
X74402Y-31638D01*
X74402Y-31638D01*
X74460Y-31650D01*
X74856Y-31650D01*
X74918Y-31711D01*
X75010Y-31749D01*
X75109Y-31750D01*
X75201Y-31712D01*
X75271Y-31641D01*
X75309Y-31549D01*
X75310Y-31450D01*
X75310Y-32390D01*
X75272Y-32298D01*
X75201Y-32228D01*
X75111Y-32190D01*
X75119Y-32169D01*
X75120Y-32070D01*
X75082Y-31978D01*
X75011Y-31908D01*
X74919Y-31870D01*
X74820Y-31869D01*
X74728Y-31907D01*
X74666Y-31970D01*
X73502Y-31970D01*
X73436Y-31903D01*
X73387Y-31871D01*
X73330Y-31860D01*
X73133Y-31860D01*
X73071Y-31798D01*
X72979Y-31760D01*
X72880Y-31759D01*
X72788Y-31797D01*
X72718Y-31868D01*
X72680Y-31960D01*
X72679Y-32059D01*
X72717Y-32151D01*
X72788Y-32221D01*
X72880Y-32259D01*
X72930Y-32260D01*
X72929Y-32319D01*
X72967Y-32411D01*
X73038Y-32481D01*
X73130Y-32519D01*
X73229Y-32520D01*
X73321Y-32482D01*
X73383Y-32420D01*
X74367Y-32420D01*
X74493Y-32546D01*
X74493Y-32546D01*
X74542Y-32578D01*
X74542Y-32578D01*
X74600Y-32590D01*
X74856Y-32590D01*
X74918Y-32651D01*
X75010Y-32689D01*
X75109Y-32690D01*
X75201Y-32652D01*
X75271Y-32581D01*
X75309Y-32489D01*
X75310Y-32390D01*
X75310Y-33340D01*
X75272Y-33248D01*
X75201Y-33178D01*
X75109Y-33140D01*
X75107Y-33140D01*
X75119Y-33109D01*
X75120Y-33010D01*
X75082Y-32918D01*
X75011Y-32848D01*
X74919Y-32810D01*
X74820Y-32809D01*
X74728Y-32847D01*
X74666Y-32910D01*
X73452Y-32910D01*
X73396Y-32853D01*
X73347Y-32821D01*
X73290Y-32810D01*
X73133Y-32810D01*
X73071Y-32748D01*
X72979Y-32710D01*
X72880Y-32709D01*
X72788Y-32747D01*
X72718Y-32818D01*
X72680Y-32910D01*
X72679Y-33009D01*
X72717Y-33101D01*
X72788Y-33171D01*
X72880Y-33209D01*
X72930Y-33209D01*
X72929Y-33259D01*
X72967Y-33351D01*
X73038Y-33421D01*
X73130Y-33459D01*
X73229Y-33460D01*
X73321Y-33422D01*
X73383Y-33360D01*
X74557Y-33360D01*
X74693Y-33496D01*
X74693Y-33496D01*
X74742Y-33528D01*
X74742Y-33528D01*
X74800Y-33540D01*
X74856Y-33540D01*
X74918Y-33601D01*
X75010Y-33639D01*
X75109Y-33640D01*
X75201Y-33602D01*
X75271Y-33531D01*
X75309Y-33439D01*
X75310Y-33340D01*
X75310Y-34280D01*
X75272Y-34188D01*
X75201Y-34118D01*
X75109Y-34080D01*
X75045Y-34079D01*
X75049Y-34069D01*
X75050Y-33970D01*
X75012Y-33878D01*
X74941Y-33808D01*
X74849Y-33770D01*
X74750Y-33769D01*
X74658Y-33807D01*
X74596Y-33870D01*
X73522Y-33870D01*
X73436Y-33783D01*
X73387Y-33751D01*
X73330Y-33740D01*
X73143Y-33740D01*
X73081Y-33678D01*
X72989Y-33640D01*
X72890Y-33639D01*
X72798Y-33677D01*
X72728Y-33748D01*
X72690Y-33840D01*
X72689Y-33939D01*
X72727Y-34031D01*
X72798Y-34101D01*
X72890Y-34139D01*
X72930Y-34139D01*
X72929Y-34189D01*
X72967Y-34281D01*
X73038Y-34351D01*
X73130Y-34389D01*
X73229Y-34390D01*
X73321Y-34352D01*
X73359Y-34313D01*
X73390Y-34320D01*
X74527Y-34320D01*
X74643Y-34436D01*
X74643Y-34436D01*
X74692Y-34468D01*
X74692Y-34468D01*
X74750Y-34480D01*
X74856Y-34480D01*
X74918Y-34541D01*
X75010Y-34579D01*
X75109Y-34580D01*
X75201Y-34542D01*
X75271Y-34471D01*
X75309Y-34379D01*
X75310Y-34280D01*
X75310Y-35230D01*
X75272Y-35138D01*
X75201Y-35068D01*
X75109Y-35030D01*
X75041Y-35029D01*
X75049Y-35009D01*
X75050Y-34910D01*
X75012Y-34818D01*
X74941Y-34748D01*
X74849Y-34710D01*
X74750Y-34709D01*
X74658Y-34747D01*
X74612Y-34794D01*
X74590Y-34790D01*
X73452Y-34790D01*
X73396Y-34733D01*
X73347Y-34701D01*
X73290Y-34690D01*
X73143Y-34690D01*
X73081Y-34628D01*
X72989Y-34590D01*
X72890Y-34589D01*
X72798Y-34627D01*
X72728Y-34698D01*
X72690Y-34790D01*
X72689Y-34889D01*
X72727Y-34981D01*
X72798Y-35051D01*
X72890Y-35089D01*
X72930Y-35089D01*
X72929Y-35139D01*
X72967Y-35231D01*
X73038Y-35301D01*
X73130Y-35339D01*
X73229Y-35340D01*
X73321Y-35302D01*
X73383Y-35240D01*
X74477Y-35240D01*
X74623Y-35386D01*
X74623Y-35386D01*
X74672Y-35418D01*
X74672Y-35418D01*
X74730Y-35430D01*
X74856Y-35430D01*
X74918Y-35491D01*
X75010Y-35529D01*
X75109Y-35530D01*
X75201Y-35492D01*
X75271Y-35421D01*
X75309Y-35329D01*
X75310Y-35230D01*
X75310Y-36170D01*
X75272Y-36078D01*
X75201Y-36008D01*
X75109Y-35970D01*
X75045Y-35969D01*
X75049Y-35959D01*
X75050Y-35860D01*
X75012Y-35768D01*
X74941Y-35698D01*
X74849Y-35660D01*
X74750Y-35659D01*
X74658Y-35697D01*
X74596Y-35760D01*
X73512Y-35760D01*
X73436Y-35683D01*
X73387Y-35651D01*
X73330Y-35640D01*
X73143Y-35640D01*
X73081Y-35578D01*
X72989Y-35540D01*
X72890Y-35539D01*
X72798Y-35577D01*
X72728Y-35648D01*
X72690Y-35740D01*
X72689Y-35839D01*
X72727Y-35931D01*
X72798Y-36001D01*
X72890Y-36039D01*
X72930Y-36039D01*
X72929Y-36089D01*
X72967Y-36181D01*
X73038Y-36251D01*
X73130Y-36289D01*
X73229Y-36290D01*
X73321Y-36252D01*
X73367Y-36205D01*
X73390Y-36210D01*
X74537Y-36210D01*
X74653Y-36326D01*
X74653Y-36326D01*
X74702Y-36358D01*
X74702Y-36358D01*
X74760Y-36370D01*
X74856Y-36370D01*
X74918Y-36431D01*
X75010Y-36469D01*
X75109Y-36470D01*
X75201Y-36432D01*
X75271Y-36361D01*
X75309Y-36269D01*
X75310Y-36170D01*
X75310Y-42536D01*
X75276Y-42570D01*
X75234Y-42670D01*
X75194Y-42571D01*
X75070Y-42447D01*
X75070Y-37781D01*
X75030Y-37683D01*
X74954Y-37608D01*
X74856Y-37567D01*
X74750Y-37567D01*
X74651Y-37607D01*
X74576Y-37682D01*
X74535Y-37781D01*
X74535Y-37887D01*
X74576Y-37985D01*
X74651Y-38061D01*
X74749Y-38102D01*
X74856Y-38102D01*
X74954Y-38061D01*
X75029Y-37986D01*
X75070Y-37888D01*
X75070Y-37781D01*
X75070Y-42447D01*
X75063Y-42440D01*
X74892Y-42369D01*
X74708Y-42369D01*
X74537Y-42439D01*
X74406Y-42570D01*
X74335Y-42741D01*
X74335Y-42925D01*
X74405Y-43096D01*
X74536Y-43227D01*
X74707Y-43298D01*
X74891Y-43298D01*
X75062Y-43228D01*
X75193Y-43097D01*
X75235Y-42997D01*
X75275Y-43096D01*
X75406Y-43227D01*
X75577Y-43298D01*
X75761Y-43298D01*
X75932Y-43228D01*
X76063Y-43097D01*
X76094Y-43024D01*
X77805Y-43024D01*
X77835Y-43096D01*
X77966Y-43227D01*
X78137Y-43298D01*
X78321Y-43298D01*
X78492Y-43228D01*
X78600Y-43120D01*
X78600Y-44371D01*
X78580Y-44354D01*
X78481Y-44453D01*
X78481Y-44255D01*
X78436Y-44202D01*
X78266Y-44154D01*
X78090Y-44174D01*
X78023Y-44202D01*
X77978Y-44255D01*
X78230Y-44507D01*
X78481Y-44255D01*
X78481Y-44453D01*
X78328Y-44606D01*
X78580Y-44857D01*
X78600Y-44840D01*
X78600Y-46517D01*
M02*
