G04 (created by PCBNEW (2013-mar-13)-stable) date Fri 15 Jan 2016 11:02:54 AM CET*
%MOIN*%
G04 Gerber Fmt 3.4, Leading zero omitted, Abs format*
%FSLAX34Y34*%
G01*
G70*
G90*
G04 APERTURE LIST*
%ADD10C,0.005906*%
%ADD11C,0.196850*%
%ADD12C,0.051181*%
%ADD13C,0.125984*%
%ADD14C,0.100000*%
%ADD15C,0.050000*%
%ADD16C,0.160000*%
%ADD17C,0.063000*%
%ADD18R,0.053100X0.011400*%
%ADD19R,0.011400X0.053100*%
%ADD20R,0.031500X0.074800*%
%ADD21R,0.008063X0.047200*%
%ADD22R,0.047200X0.008063*%
%ADD23R,0.033500X0.011000*%
%ADD24R,0.011000X0.033500*%
%ADD25R,0.118100X0.118100*%
%ADD26R,0.045000X0.025000*%
%ADD27R,0.025000X0.045000*%
%ADD28R,0.055118X0.048800*%
%ADD29R,0.050000X0.023622*%
%ADD30R,0.027600X0.039400*%
%ADD31R,0.051181X0.133858*%
%ADD32R,0.020000X0.045000*%
%ADD33R,0.035000X0.055000*%
%ADD34R,0.055000X0.035000*%
%ADD35R,0.059055X0.078740*%
%ADD36R,0.011800X0.070100*%
%ADD37R,0.080000X0.060000*%
%ADD38R,0.078740X0.078740*%
%ADD39C,0.062992*%
%ADD40C,0.070866*%
%ADD41R,0.060000X0.080000*%
%ADD42R,0.133858X0.051181*%
%ADD43R,0.039400X0.027600*%
%ADD44R,0.047200X0.078700*%
%ADD45C,0.055100*%
%ADD46R,0.055100X0.047200*%
%ADD47R,0.036000X0.036000*%
%ADD48R,0.060000X0.060000*%
%ADD49C,0.060000*%
%ADD50R,0.078700X0.047200*%
%ADD51R,0.047200X0.055100*%
%ADD52C,0.070900*%
%ADD53C,0.047200*%
G04 APERTURE END LIST*
G54D10*
G54D11*
X40531Y-20885D03*
X77566Y-20885D03*
X40531Y-46881D03*
X77566Y-46881D03*
G54D12*
X44570Y-22810D03*
X45775Y-23510D03*
X44972Y-23510D03*
X43767Y-22810D03*
X44169Y-23510D03*
X45374Y-22810D03*
X46578Y-23510D03*
X46177Y-22810D03*
G54D13*
X47673Y-21810D03*
X42673Y-21810D03*
G54D14*
X48374Y-23160D03*
X41972Y-23160D03*
G54D15*
X47874Y-25424D03*
X46972Y-25424D03*
X43374Y-25424D03*
X42472Y-25424D03*
G54D16*
X49854Y-24190D03*
X59696Y-24190D03*
G54D17*
X56677Y-23190D03*
X56226Y-24190D03*
X55775Y-23190D03*
X54874Y-23190D03*
X53972Y-23190D03*
X53070Y-23190D03*
X55324Y-24190D03*
X54423Y-24190D03*
X53521Y-24190D03*
X52620Y-24190D03*
X56677Y-25190D03*
X55775Y-25190D03*
X54874Y-25190D03*
X53972Y-25190D03*
X53070Y-25190D03*
G54D18*
X54833Y-30413D03*
X54833Y-30610D03*
X54833Y-30807D03*
X54833Y-31004D03*
X54833Y-31201D03*
X54833Y-31397D03*
X54833Y-31594D03*
X54833Y-31791D03*
X54833Y-31988D03*
X54833Y-32185D03*
X54833Y-32382D03*
X54833Y-32578D03*
X54833Y-32775D03*
X54833Y-32972D03*
X54833Y-33169D03*
X54833Y-33366D03*
X54833Y-33563D03*
X54833Y-33760D03*
X54833Y-33956D03*
X54833Y-34153D03*
X54833Y-34350D03*
X54833Y-34547D03*
X54833Y-34744D03*
X54833Y-34941D03*
X54833Y-35138D03*
X54833Y-35334D03*
X54833Y-35531D03*
X54833Y-35728D03*
X54833Y-35925D03*
X54833Y-36122D03*
X54833Y-36319D03*
X54833Y-36515D03*
X54833Y-36712D03*
X54833Y-36909D03*
X54833Y-37106D03*
X54833Y-37303D03*
G54D19*
X55610Y-38080D03*
X55807Y-38080D03*
X56004Y-38080D03*
X56201Y-38080D03*
X56398Y-38080D03*
X56594Y-38080D03*
X56791Y-38080D03*
X56988Y-38080D03*
X57185Y-38080D03*
X57382Y-38080D03*
X57579Y-38080D03*
X57775Y-38080D03*
X57972Y-38080D03*
X58169Y-38080D03*
X58366Y-38080D03*
X58563Y-38080D03*
X58760Y-38080D03*
X58957Y-38080D03*
X59153Y-38080D03*
X59350Y-38080D03*
X59547Y-38080D03*
X59744Y-38080D03*
X59941Y-38080D03*
X60138Y-38080D03*
X60335Y-38080D03*
X60531Y-38080D03*
X60728Y-38080D03*
X60925Y-38080D03*
X61122Y-38080D03*
X61319Y-38080D03*
X61516Y-38080D03*
X61712Y-38080D03*
X61909Y-38080D03*
X62106Y-38080D03*
X62303Y-38080D03*
X62500Y-38080D03*
G54D18*
X63277Y-37303D03*
X63277Y-37106D03*
X63277Y-36909D03*
X63277Y-36712D03*
X63277Y-36515D03*
X63277Y-36319D03*
X63277Y-36122D03*
X63277Y-35925D03*
X63277Y-35728D03*
X63277Y-35531D03*
X63277Y-35334D03*
X63277Y-35138D03*
X63277Y-34941D03*
X63277Y-34744D03*
X63277Y-34547D03*
X63277Y-34350D03*
X63277Y-34153D03*
X63277Y-33956D03*
X63277Y-33760D03*
X63277Y-33563D03*
X63277Y-33366D03*
X63277Y-33169D03*
X63277Y-32972D03*
X63277Y-32775D03*
X63277Y-32578D03*
X63277Y-32382D03*
X63277Y-32185D03*
X63277Y-31988D03*
X63277Y-31791D03*
X63277Y-31594D03*
X63277Y-31397D03*
X63277Y-31201D03*
X63277Y-31004D03*
X63277Y-30807D03*
X63277Y-30610D03*
X63277Y-30413D03*
G54D19*
X62500Y-29636D03*
X62303Y-29636D03*
X62106Y-29636D03*
X61909Y-29636D03*
X61712Y-29636D03*
X61516Y-29636D03*
X61319Y-29636D03*
X61122Y-29636D03*
X60925Y-29636D03*
X60728Y-29636D03*
X60531Y-29636D03*
X60335Y-29636D03*
X60138Y-29636D03*
X59941Y-29636D03*
X59744Y-29636D03*
X59547Y-29636D03*
X59350Y-29636D03*
X59153Y-29636D03*
X58957Y-29636D03*
X58760Y-29636D03*
X58563Y-29636D03*
X58366Y-29636D03*
X58169Y-29636D03*
X57972Y-29636D03*
X57775Y-29636D03*
X57579Y-29636D03*
X57382Y-29636D03*
X57185Y-29636D03*
X56988Y-29636D03*
X56791Y-29636D03*
X56594Y-29636D03*
X56398Y-29636D03*
X56201Y-29636D03*
X56004Y-29636D03*
X55807Y-29636D03*
X55610Y-29636D03*
G54D20*
X44923Y-30154D03*
X45423Y-30154D03*
X45923Y-30154D03*
X44423Y-30154D03*
X46423Y-30154D03*
X43923Y-30154D03*
X43423Y-30154D03*
X46923Y-30154D03*
X43423Y-26706D03*
X46923Y-26706D03*
X46423Y-26706D03*
X45923Y-26706D03*
X45423Y-26706D03*
X44923Y-26706D03*
X44423Y-26706D03*
X43923Y-26706D03*
G54D21*
X44521Y-38817D03*
X44363Y-38817D03*
X44206Y-38817D03*
X44048Y-38817D03*
X43891Y-38817D03*
X43733Y-38817D03*
X43576Y-38817D03*
X43418Y-38817D03*
X43261Y-38817D03*
X43103Y-38817D03*
X42946Y-38817D03*
X42788Y-38817D03*
X42631Y-38817D03*
X42473Y-38817D03*
X42316Y-38817D03*
X42158Y-38817D03*
G54D22*
X41667Y-39308D03*
X41667Y-39466D03*
X41667Y-39623D03*
X41667Y-39781D03*
X41667Y-39938D03*
X41667Y-40096D03*
X41667Y-40253D03*
X41667Y-40411D03*
G54D21*
X42158Y-42163D03*
X42316Y-42163D03*
X42473Y-42163D03*
X42631Y-42163D03*
X42788Y-42163D03*
X42946Y-42163D03*
X43103Y-42163D03*
X43261Y-42163D03*
X43418Y-42163D03*
X43576Y-42163D03*
X43733Y-42163D03*
X43891Y-42163D03*
G54D22*
X45013Y-41671D03*
X45013Y-41513D03*
X45013Y-41356D03*
X45013Y-41198D03*
X45013Y-41041D03*
X45013Y-40883D03*
X45013Y-40726D03*
X45013Y-40568D03*
X45013Y-40411D03*
X45013Y-40253D03*
X45013Y-40096D03*
X45013Y-39938D03*
X41667Y-40568D03*
X41667Y-40726D03*
X41667Y-40883D03*
X41667Y-41041D03*
X41667Y-41198D03*
X41667Y-41356D03*
X41667Y-41513D03*
X41667Y-41671D03*
G54D21*
X44048Y-42163D03*
X44206Y-42163D03*
X44363Y-42163D03*
X44521Y-42163D03*
G54D22*
X45013Y-39781D03*
X45013Y-39623D03*
X45013Y-39466D03*
X45013Y-39308D03*
G54D23*
X42296Y-34829D03*
G54D24*
X42591Y-35124D03*
G54D23*
X44264Y-34829D03*
X44264Y-34632D03*
X44264Y-34435D03*
X44264Y-34238D03*
X44264Y-33845D03*
X44264Y-33648D03*
G54D24*
X43182Y-33156D03*
G54D23*
X44264Y-33451D03*
G54D24*
X43969Y-33156D03*
X43772Y-33156D03*
X43575Y-33156D03*
X43378Y-33156D03*
X42985Y-33156D03*
X42788Y-33156D03*
X42591Y-33156D03*
G54D23*
X42296Y-33451D03*
X42296Y-33648D03*
X42296Y-33845D03*
X42296Y-34042D03*
X42296Y-34238D03*
X42296Y-34435D03*
X42296Y-34632D03*
G54D25*
X43280Y-34140D03*
G54D23*
X44264Y-34042D03*
G54D24*
X43969Y-35124D03*
X43772Y-35124D03*
X43575Y-35124D03*
X43378Y-35124D03*
X43182Y-35124D03*
X42985Y-35124D03*
X42788Y-35124D03*
G54D26*
X42170Y-29060D03*
X42170Y-29660D03*
X48170Y-29060D03*
X48170Y-29660D03*
X51570Y-27380D03*
X51570Y-27980D03*
X52170Y-27980D03*
X52170Y-27380D03*
X52170Y-26980D03*
X52170Y-26380D03*
X52770Y-26980D03*
X52770Y-26380D03*
X53370Y-27380D03*
X53370Y-27980D03*
X53970Y-27980D03*
X53970Y-27380D03*
X53970Y-26980D03*
X53970Y-26380D03*
X54590Y-26980D03*
X54590Y-26380D03*
X55190Y-27380D03*
X55190Y-27980D03*
X55790Y-27980D03*
X55790Y-27380D03*
X55790Y-26980D03*
X55790Y-26380D03*
X56390Y-26980D03*
X56390Y-26380D03*
X48170Y-27200D03*
X48170Y-27800D03*
X42170Y-27800D03*
X42170Y-27200D03*
X42170Y-26800D03*
X42170Y-26200D03*
X48170Y-26200D03*
X48170Y-26800D03*
X45530Y-33710D03*
X45530Y-33110D03*
G54D27*
X44430Y-32690D03*
X45030Y-32690D03*
X46760Y-32340D03*
X46160Y-32340D03*
X40850Y-34030D03*
X40250Y-34030D03*
G54D26*
X46130Y-33110D03*
X46130Y-33710D03*
G54D27*
X44220Y-32010D03*
X44820Y-32010D03*
G54D26*
X45660Y-32340D03*
X45660Y-31740D03*
G54D28*
X40767Y-32110D03*
X40767Y-33110D03*
X41692Y-33110D03*
X41692Y-32110D03*
G54D29*
X49126Y-31608D03*
X49126Y-32108D03*
X49126Y-32608D03*
X49126Y-33108D03*
X49126Y-33608D03*
X49126Y-35608D03*
X49126Y-36108D03*
X49126Y-36608D03*
X49126Y-37108D03*
X49126Y-37608D03*
X53693Y-37608D03*
X53693Y-37108D03*
X53693Y-36608D03*
X53693Y-36108D03*
X53693Y-35608D03*
X53693Y-33608D03*
X53693Y-33108D03*
X53693Y-32608D03*
X53693Y-32108D03*
X53693Y-31608D03*
X53693Y-31108D03*
X53693Y-30608D03*
X53693Y-30108D03*
X53693Y-35108D03*
X53693Y-34608D03*
X53693Y-34108D03*
X49126Y-35108D03*
X49126Y-34608D03*
X49126Y-34108D03*
X49126Y-31108D03*
X49126Y-30608D03*
X49126Y-30108D03*
G54D27*
X53460Y-47160D03*
X52860Y-47160D03*
X54800Y-47160D03*
X55400Y-47160D03*
X53330Y-41890D03*
X52730Y-41890D03*
X61220Y-43210D03*
X61820Y-43210D03*
X62220Y-43210D03*
X62820Y-43210D03*
X54680Y-41890D03*
X54080Y-41890D03*
G54D30*
X60845Y-43940D03*
X61220Y-43940D03*
X61595Y-43940D03*
X61595Y-44940D03*
X61220Y-44940D03*
X60845Y-44940D03*
G54D31*
X61923Y-46055D03*
X60506Y-46055D03*
G54D32*
X42560Y-44480D03*
X42560Y-46580D03*
X43060Y-44480D03*
X43560Y-44480D03*
X44060Y-44480D03*
X43060Y-46580D03*
X43560Y-46580D03*
X44060Y-46580D03*
G54D27*
X64360Y-37780D03*
X63760Y-37780D03*
G54D33*
X62225Y-44350D03*
X62975Y-44350D03*
G54D34*
X60525Y-42655D03*
X60525Y-43405D03*
G54D27*
X56030Y-41890D03*
X55430Y-41890D03*
X40530Y-42360D03*
X39930Y-42360D03*
X39930Y-41760D03*
X40530Y-41760D03*
G54D35*
X40700Y-45272D03*
X40700Y-43147D03*
G54D36*
X44744Y-46699D03*
X45000Y-46699D03*
X45256Y-46699D03*
X45512Y-46699D03*
X45767Y-46699D03*
X46023Y-46699D03*
X46279Y-46699D03*
X46535Y-46699D03*
X46535Y-44361D03*
X46279Y-44361D03*
X46023Y-44361D03*
X45767Y-44361D03*
X45512Y-44361D03*
X45256Y-44361D03*
X45000Y-44361D03*
X44744Y-44361D03*
G54D37*
X45860Y-35020D03*
X45860Y-36320D03*
G54D27*
X40530Y-40120D03*
X39930Y-40120D03*
G54D35*
X40280Y-35354D03*
X40280Y-37480D03*
G54D38*
X76115Y-21660D03*
X71784Y-21660D03*
G54D39*
X73950Y-21660D03*
G54D38*
X76115Y-24081D03*
X71784Y-24081D03*
G54D40*
X73950Y-23431D03*
G54D34*
X68340Y-46015D03*
X68340Y-46765D03*
G54D26*
X67850Y-44310D03*
X67850Y-44910D03*
G54D34*
X63300Y-46015D03*
X63300Y-46765D03*
G54D26*
X63790Y-44310D03*
X63790Y-44910D03*
X67270Y-44310D03*
X67270Y-44910D03*
X66690Y-44310D03*
X66690Y-44910D03*
X66110Y-44310D03*
X66110Y-44910D03*
X65530Y-44310D03*
X65530Y-44910D03*
X64950Y-44310D03*
X64950Y-44910D03*
X64370Y-44310D03*
X64370Y-44910D03*
G54D34*
X67620Y-46015D03*
X67620Y-46765D03*
X66900Y-46015D03*
X66900Y-46765D03*
X66180Y-46015D03*
X66180Y-46765D03*
X65460Y-46015D03*
X65460Y-46765D03*
X64740Y-46015D03*
X64740Y-46765D03*
X64020Y-46015D03*
X64020Y-46765D03*
G54D41*
X76920Y-22600D03*
X78220Y-22600D03*
X76920Y-24070D03*
X78220Y-24070D03*
G54D26*
X76140Y-27970D03*
X76140Y-27370D03*
G54D42*
X77330Y-25801D03*
X77330Y-27218D03*
G54D26*
X75520Y-27970D03*
X75520Y-27370D03*
X74920Y-27370D03*
X74920Y-27970D03*
G54D43*
X75220Y-26795D03*
X75220Y-26045D03*
X76220Y-26045D03*
X76220Y-26420D03*
X76220Y-26795D03*
G54D44*
X77328Y-28080D03*
X78352Y-28080D03*
G54D45*
X47060Y-41360D03*
X46060Y-41360D03*
G54D46*
X47100Y-38597D03*
X46100Y-38597D03*
X46100Y-39463D03*
X47100Y-39463D03*
G54D26*
X41690Y-31330D03*
X41690Y-30730D03*
X47910Y-39030D03*
X47910Y-38430D03*
X42400Y-35900D03*
X42400Y-36500D03*
G54D41*
X47940Y-41160D03*
X49240Y-41160D03*
G54D27*
X48670Y-28430D03*
X48070Y-28430D03*
G54D26*
X41180Y-27300D03*
X41180Y-26700D03*
G54D47*
X40740Y-29990D03*
X40040Y-29990D03*
X40390Y-29190D03*
G54D26*
X40140Y-31270D03*
X40140Y-30670D03*
X41880Y-43250D03*
X41880Y-43850D03*
G54D48*
X46920Y-34480D03*
G54D49*
X46920Y-35480D03*
X46920Y-36480D03*
X46920Y-37480D03*
G54D43*
X74280Y-30625D03*
X74280Y-29875D03*
X75280Y-29875D03*
X75280Y-30250D03*
X75280Y-30625D03*
G54D26*
X64010Y-30340D03*
X64010Y-29740D03*
G54D31*
X71611Y-26370D03*
X73028Y-26370D03*
G54D30*
X72365Y-28490D03*
X71615Y-28490D03*
X71615Y-27490D03*
X71990Y-27490D03*
X72365Y-27490D03*
G54D27*
X72930Y-27520D03*
X73530Y-27520D03*
G54D50*
X73830Y-25858D03*
X73830Y-26882D03*
G54D27*
X73530Y-28190D03*
X72930Y-28190D03*
X72930Y-28790D03*
X73530Y-28790D03*
G54D11*
X63385Y-39763D03*
X63385Y-27952D03*
G54D45*
X65140Y-27560D03*
G54D26*
X54560Y-37710D03*
X54560Y-38310D03*
G54D27*
X48600Y-37610D03*
X48000Y-37610D03*
G54D26*
X57590Y-28620D03*
X57590Y-28020D03*
X59740Y-28990D03*
X59740Y-28390D03*
X62110Y-29100D03*
X62110Y-28500D03*
X58550Y-38970D03*
X58550Y-39570D03*
G54D51*
X58227Y-27630D03*
X58227Y-28630D03*
X59093Y-28630D03*
X59093Y-27630D03*
G54D41*
X65140Y-28440D03*
X66440Y-28440D03*
G54D26*
X61050Y-26890D03*
X61050Y-26290D03*
X50660Y-27480D03*
X50660Y-26880D03*
G54D27*
X70290Y-42100D03*
X70890Y-42100D03*
G54D26*
X74800Y-42210D03*
X74800Y-41610D03*
G54D27*
X76650Y-42100D03*
X77250Y-42100D03*
G54D26*
X71450Y-45530D03*
X71450Y-46130D03*
G54D27*
X69290Y-42100D03*
X69890Y-42100D03*
G54D26*
X72240Y-41610D03*
X72240Y-42210D03*
G54D27*
X77670Y-41450D03*
X77070Y-41450D03*
G54D26*
X70850Y-46130D03*
X70850Y-45530D03*
G54D52*
X71370Y-44606D03*
X68810Y-44606D03*
X71370Y-42834D03*
X68810Y-42834D03*
X74800Y-44606D03*
X72240Y-44606D03*
X74800Y-42834D03*
X72240Y-42834D03*
X78230Y-44606D03*
X75670Y-44606D03*
X78230Y-42834D03*
X75670Y-42834D03*
X74800Y-47306D03*
X72240Y-47306D03*
X74800Y-45534D03*
X72240Y-45534D03*
G54D33*
X74165Y-28790D03*
X74915Y-28790D03*
G54D34*
X62600Y-46025D03*
X62600Y-46775D03*
G54D26*
X62590Y-45570D03*
X62590Y-44970D03*
G54D33*
X58865Y-41790D03*
X58115Y-41790D03*
G54D26*
X41880Y-45130D03*
X41880Y-44530D03*
G54D45*
X76070Y-29870D03*
G54D26*
X70060Y-46730D03*
X70060Y-46130D03*
G54D27*
X56940Y-47160D03*
X56340Y-47160D03*
G54D30*
X40885Y-39250D03*
X40135Y-39250D03*
X40135Y-38250D03*
X40510Y-38250D03*
X40885Y-38250D03*
G54D48*
X77740Y-29338D03*
G54D49*
X77740Y-30338D03*
X77740Y-31338D03*
X77740Y-32338D03*
X77740Y-33338D03*
X77740Y-34338D03*
X77740Y-35338D03*
X77740Y-36338D03*
X77740Y-37338D03*
X77740Y-38338D03*
X77740Y-39338D03*
X77740Y-40338D03*
G54D48*
X65740Y-40338D03*
G54D49*
X66740Y-40338D03*
X67740Y-40338D03*
X68740Y-40338D03*
X69740Y-40338D03*
X70740Y-40338D03*
X71740Y-40338D03*
X72740Y-40338D03*
X73740Y-40338D03*
X74740Y-40338D03*
X75740Y-40338D03*
X76740Y-40338D03*
G54D27*
X64460Y-34270D03*
X65060Y-34270D03*
X39930Y-40700D03*
X40530Y-40700D03*
G54D26*
X57540Y-39000D03*
X57540Y-39600D03*
G54D27*
X59360Y-38990D03*
X59960Y-38990D03*
G54D50*
X65010Y-39392D03*
X65010Y-38368D03*
G54D53*
X72630Y-35410D03*
X71810Y-35410D03*
G54D48*
X61740Y-25338D03*
G54D49*
X61740Y-24338D03*
G54D27*
X54920Y-29640D03*
X54320Y-29640D03*
M02*
