M48
;DRILL file {Pcbnew (2013-mar-13)-stable} date Fri 15 Jan 2016 11:02:57 AM CET
;FORMAT={-:-/ absolute / metric / decimal}
FMAT,2
METRIC,TZ
T1C0.305
T2C0.813
T3C0.899
T4C0.900
T5C1.001
T6C1.016
T7C1.191
T8C1.200
T9C1.600
T10C3.200
T11C3.200
%
G90
G05
M71
T1
X100.584Y-56.388
X100.584Y-57.658
X100.584Y-58.928
X100.584Y-60.198
X100.584Y-61.468
X100.584Y-62.738
X100.584Y-64.008
X100.584Y-65.278
X100.584Y-66.548
X100.584Y-67.818
X100.584Y-69.088
X100.584Y-70.358
X100.584Y-71.628
X100.584Y-72.898
X100.584Y-74.168
X100.584Y-75.438
X100.584Y-76.708
X100.584Y-77.978
X100.584Y-79.248
X100.584Y-80.518
X100.584Y-81.788
X100.584Y-83.058
X100.584Y-84.328
X100.584Y-85.598
X100.584Y-86.868
X100.584Y-88.138
X100.584Y-89.408
X100.584Y-90.678
X100.584Y-91.948
X100.584Y-93.218
X100.584Y-94.488
X100.584Y-95.758
X100.584Y-97.028
X100.584Y-98.298
X100.584Y-99.568
X100.584Y-100.838
X100.584Y-102.108
X100.584Y-103.378
X101.422Y-104.521
X101.422Y-108.788
X101.956Y-98.298
X102.235Y-84.099
X102.235Y-85.319
X102.311Y-91.338
X102.311Y-93.218
X102.895Y-100.178
X102.946Y-104.521
X102.946Y-113.335
X103.276Y-93.218
X103.48Y-77.191
X103.835Y-96.088
X103.835Y-98.298
X104.343Y-94.285
X104.419Y-111.836
X104.597Y-66.904
X104.648Y-102.641
X104.673Y-110.033
X105.893Y-77.191
X106.172Y-108.56
X106.375Y-112.243
X107.112Y-76.2
X107.29Y-99.847
X107.696Y-90.322
X107.696Y-93.574
X107.925Y-100.482
X107.925Y-101.752
X107.925Y-103.022
X108.28Y-105.639
X108.433Y-68.58
X108.56Y-102.387
X108.56Y-103.657
X109.093Y-108.382
X109.195Y-101.117
X109.245Y-78.232
X109.322Y-96.596
X109.88Y-99.822
X109.931Y-86.716
X109.957Y-95.885
X110.109Y-105.639
X110.592Y-96.596
X110.642Y-114.325
X111.227Y-95.885
X111.608Y-105.639
X111.862Y-96.596
X111.912Y-119.507
X111.989Y-115.672
X112.497Y-95.885
X112.827Y-118.339
X112.903Y-111.608
X112.903Y-112.979
X112.903Y-114.325
X113.03Y-101.778
X113.132Y-96.596
X113.64Y-116.738
X113.767Y-95.885
X114.656Y-97.13
X114.656Y-98.044
X114.783Y-86.97
X114.833Y-81.305
X115.57Y-94.005
X115.595Y-108.56
X115.595Y-111.252
X115.621Y-98.044
X115.621Y-101.6
X115.646Y-83.033
X115.672Y-104.242
X115.926Y-117.069
X116.078Y-94.945
X116.078Y-95.885
X116.256Y-114.325
X116.472Y-86.741
X116.484Y-90.602
X116.484Y-94.005
X117.094Y-80.62
X117.094Y-96.876
X117.551Y-108.56
X117.551Y-111.252
X117.551Y-117.069
X118.212Y-114.325
X118.212Y-120.066
X118.262Y-101.6
X118.262Y-104.369
X118.364Y-97.028
X118.77Y-79.604
X118.872Y-108.56
X118.872Y-111.252
X119.786Y-108.56
X119.786Y-111.252
X120.117Y-72.212
X120.117Y-78.257
X120.193Y-86.233
X120.777Y-116.002
X120.904Y-80.518
X120.904Y-81.788
X120.904Y-83.058
X120.904Y-84.328
X120.904Y-85.598
X120.904Y-86.868
X120.904Y-88.138
X120.904Y-89.408
X120.904Y-90.678
X120.904Y-91.948
X120.904Y-93.218
X120.904Y-94.488
X120.904Y-95.758
X121.031Y-68.58
X121.615Y-63.017
X121.691Y-96.774
X121.768Y-106.172
X122.301Y-77.978
X122.301Y-79.248
X122.352Y-76.2
X123.393Y-105.258
X123.495Y-111.938
X125.07Y-106.172
X126.848Y-108.61
X130.988Y-71.933
X131.191Y-82.829
X131.191Y-84.15
X131.191Y-85.471
X131.851Y-83.49
X131.851Y-84.811
X131.928Y-103.53
X133.045Y-106.401
X134.036Y-70.307
X135.128Y-115.595
X135.458Y-109.093
X135.56Y-71.933
X135.788Y-116.256
X136.474Y-106.401
X137.109Y-75.286
X137.465Y-97.307
X137.566Y-76.479
X137.795Y-84.099
X139.065Y-71.069
X139.192Y-109.753
X139.192Y-113.64
X139.192Y-114.96
X139.192Y-117.551
X139.624Y-108.458
X139.852Y-116.891
X139.903Y-106.401
X140.538Y-79.248
X140.538Y-83.49
X140.538Y-94.259
X141.072Y-100.457
X141.199Y-89.586
X141.199Y-91.034
X141.249Y-74.041
X141.503Y-99.492
X141.732Y-76.556
X142.189Y-119.786
X142.24Y-74.041
X142.494Y-77.216
X142.723Y-94.615
X143.256Y-76.556
X143.739Y-74.041
X143.916Y-71.171
X143.993Y-94.818
X144.247Y-77.216
X144.983Y-94.818
X145.034Y-91.034
X145.745Y-93.523
X146.152Y-101.448
X146.279Y-70.155
X146.38Y-88.57
X146.38Y-90.805
X146.583Y-106.147
X147.244Y-76.556
X147.897Y-72.72
X147.93Y-103.124
X147.93Y-104.445
X148.209Y-93.523
X148.565Y-103.784
X148.565Y-105.08
X149.835Y-100.508
X150.444Y-97.942
X151.13Y-100.152
X151.282Y-70.18
X151.74Y-71.247
X152.248Y-94.183
X152.248Y-95.453
X152.883Y-94.818
X153.441Y-111.316
X153.746Y-67.716
X155.067Y-65.913
X155.372Y-98.755
X155.372Y-99.797
X155.372Y-100.686
X155.486Y-115.202
X156.375Y-95.453
X157.099Y-98.298
X157.15Y-99.797
X157.15Y-100.686
X157.251Y-95.453
X157.455Y-103.276
X157.759Y-71.526
X157.912Y-101.448
X158.369Y-103.276
X159.004Y-119.825
X159.436Y-79.756
X159.436Y-81.255
X159.436Y-86.741
X159.461Y-88.24
X160.401Y-109.753
X160.401Y-111.316
X161.493Y-75.54
X164.338Y-95.961
X165.557Y-95.961
X166.116Y-87.046
X170.231Y-72.238
X171.298Y-69.012
X171.298Y-73.889
X174.828Y-118.796
X176.835Y-117.17
X180.924Y-106.934
X181.254Y-105.004
X181.407Y-71.095
X182.333Y-55.016
X182.397Y-89.941
X182.601Y-117.17
X182.855Y-71.095
X184.302Y-71.095
X184.48Y-89.941
X184.887Y-105.004
X186.766Y-74.447
X187.528Y-66.98
X187.655Y-69.901
X188.824Y-105.689
X190.297Y-71.907
X190.297Y-74.447
X192.253Y-76.835
X192.329Y-65.659
X192.329Y-67.107
X192.329Y-68.631
X193.333Y-55.016
X193.333Y-61.166
X196.215Y-108.052
X198.679Y-55.778
X198.679Y-59.284
X199.009Y-69.545
T2
X166.98Y-102.46
X197.46Y-74.52
T3
X111.17Y-57.937
X112.19Y-59.717
X113.21Y-57.937
X114.23Y-59.717
X115.25Y-57.937
X116.27Y-59.717
X116.992Y-105.054
X117.29Y-57.937
X118.31Y-59.717
X119.532Y-105.054
X165.456Y-70.002
X193.218Y-75.87
T4
X107.88Y-64.577
X110.17Y-64.577
X119.31Y-64.577
X121.6Y-64.577
T5
X174.777Y-108.798
X174.777Y-113.299
X181.28Y-108.798
X181.28Y-113.299
X183.49Y-108.798
X183.49Y-113.299
X183.49Y-115.656
X183.49Y-120.157
X189.992Y-108.798
X189.992Y-113.299
X189.992Y-115.656
X189.992Y-120.157
X192.202Y-108.798
X192.202Y-113.299
X198.704Y-108.798
X198.704Y-113.299
T6
X119.177Y-87.579
X119.177Y-90.119
X119.177Y-92.659
X119.177Y-95.199
X156.82Y-61.82
X156.82Y-64.36
X169.52Y-102.46
X172.06Y-102.46
X174.6Y-102.46
X177.14Y-102.46
X179.68Y-102.46
X182.22Y-102.46
X184.76Y-102.46
X187.3Y-102.46
X189.84Y-102.46
X192.38Y-102.46
X194.92Y-102.46
X197.46Y-77.06
X197.46Y-79.6
X197.46Y-82.14
X197.46Y-84.68
X197.46Y-87.22
X197.46Y-89.76
X197.46Y-92.3
X197.46Y-94.84
X197.46Y-97.38
X197.46Y-99.92
X197.46Y-102.46
T7
X134.8Y-58.903
X134.8Y-63.983
X135.945Y-61.443
X137.09Y-58.903
X137.09Y-63.983
X138.235Y-61.443
X139.38Y-58.903
X139.38Y-63.983
X140.525Y-61.443
X141.67Y-58.903
X141.67Y-63.983
X142.815Y-61.443
X143.96Y-58.903
X143.96Y-63.983
T8
X133.655Y-61.443
T9
X106.61Y-58.827
X122.87Y-58.827
T10
X102.95Y-53.048
X102.95Y-119.08
X161.Y-71.
X161.Y-101.
X197.02Y-53.048
X197.02Y-119.08
T11
X126.631Y-61.443
X151.629Y-61.443
T0
M30
